<?xml version="1.0" encoding="utf-8"?><svg xmlns="http://www.w3.org/2000/svg" xmlns:xlink="http://www.w3.org/1999/xlink"><symbol viewBox="0 0 8 14" id="arr" xmlns="http://www.w3.org/2000/svg"><path d="M1 1l6 6-6 6"/></symbol><symbol viewBox="0 0 16 16" id="close" xmlns="http://www.w3.org/2000/svg"><path d="M15 1L1 15M1 1l14 14"/></symbol><symbol viewBox="0 0 14 18" id="loc" xmlns="http://www.w3.org/2000/svg"><path d="M7 .563A6.144 6.144 0 00.863 6.699c0 4.551 5.344 9.945 5.569 10.17l.568.569.568-.569c.225-.225 5.569-5.619 5.569-10.17 0-3.38-2.75-6.136-6.137-6.136zM4.401 6.699a2.6 2.6 0 015.198 0A2.605 2.605 0 017 9.304a2.605 2.605 0 01-2.599-2.605z"/></symbol><symbol viewBox="0 0 15 15" id="tel" xmlns="http://www.w3.org/2000/svg"><path d="M14.284 11.312a3.952 3.952 0 01-3.909 3.438C4.792 14.75.25 10.208.25 4.625A3.952 3.952 0 013.688.715a1.146 1.146 0 011.174.676l1.414 3.297a1.118 1.118 0 01-.099 1.062L5.01 7.536a5.379 5.379 0 002.475 2.46L9.25 8.824a1.097 1.097 0 011.062-.092l3.297 1.406a1.147 1.147 0 01.675 1.175z"/></symbol><symbol viewBox="0 0 22 22" id="viber" xmlns="http://www.w3.org/2000/svg"><path d="M10.995.232a10.767 10.767 0 00-10.731 11.6 10.77 10.77 0 002.012 5.483l-1.346 4 4.143-1.324A10.768 10.768 0 0019.638 4.57 10.768 10.768 0 0010.995.232zm5.723 15.23l-1.146 1.148c-1.206 1.206-4.404-.121-7.24-2.962-2.834-2.84-4.104-6.03-2.958-7.223l1.147-1.147a1.203 1.203 0 011.629 0l1.69 1.685a1.123 1.123 0 01-.422 1.869 1.096 1.096 0 00-.724 1.33c.301 1.265 1.93 2.835 3.138 3.136a1.15 1.15 0 001.317-.732 1.126 1.126 0 011.884-.423l1.688 1.691a1.204 1.204 0 01-.003 1.629z"/></symbol><symbol viewBox="0 0 30 20" id="vk" xmlns="http://www.w3.org/2000/svg"><path d="M16.285 19.154C6.455 19.154.849 12.282.615.846H5.54c.162 8.394 3.792 11.949 6.667 12.682V.846h4.636v7.239c2.84-.312 5.822-3.61 6.828-7.239h4.636a14.107 14.107 0 01-2.22 5.234A13.804 13.804 0 0122 9.973c1.798.91 3.386 2.2 4.659 3.782a14.582 14.582 0 012.727 5.399H24.28a9.077 9.077 0 00-2.751-4.416 8.796 8.796 0 00-4.688-2.127v6.543h-.557z"/></symbol><symbol viewBox="0 0 26 28" id="whats" xmlns="http://www.w3.org/2000/svg"><path d="M15.713.797h-5.424a9.563 9.563 0 00-6.713 2.74 9.29 9.29 0 00-2.78 6.618v4.01a9.26 9.26 0 001.469 5.004 9.45 9.45 0 003.955 3.455v4.468a.444.444 0 00.28.406.46.46 0 00.49-.092l3.94-3.883h4.783a9.563 9.563 0 006.713-2.741 9.29 9.29 0 002.78-6.617v-4.01c0-2.482-1-4.862-2.78-6.617A9.563 9.563 0 0015.712.797zm3.553 17.539l-1.356 1.337c-1.444 1.393-5.214-.197-8.537-3.543-3.322-3.345-4.78-7.098-3.39-8.492l1.356-1.337a1.44 1.44 0 011.93.02l1.979 2.005a1.31 1.31 0 01.337 1.23 1.308 1.308 0 01-.318.578 1.334 1.334 0 01-.561.355 1.29 1.29 0 00-.75.596 1.26 1.26 0 00-.125.941c.339 1.484 2.251 3.342 3.675 3.707.321.075.659.032.95-.12a1.34 1.34 0 00.633-.71 1.31 1.31 0 01.376-.55 1.336 1.336 0 011.274-.268c.217.066.414.187.57.35l1.977 2.006a1.392 1.392 0 01-.02 1.895zm-5.031-11.19c-.135 0-.27.008-.404.024a.458.458 0 01-.445-.229.442.442 0 01.347-.657 4.43 4.43 0 01.502-.026 4.56 4.56 0 013.2 1.303 4.43 4.43 0 011.302 3.646.442.442 0 01-.322.38.46.46 0 01-.48-.15.444.444 0 01-.096-.327c.015-.132.022-.264.024-.397a3.547 3.547 0 00-1.066-2.523 3.651 3.651 0 00-2.562-1.043zm2.712 3.567a.446.446 0 01-.145.291.458.458 0 01-.615 0 .446.446 0 01-.145-.291c0-.473-.19-.926-.53-1.26a1.82 1.82 0 00-1.277-.522.46.46 0 01-.455-.266.442.442 0 01.109-.51.456.456 0 01.346-.116c.72 0 1.41.282 1.918.783.508.502.794 1.182.794 1.89zm3.448 1.447a.446.446 0 01-.368.369.459.459 0 01-.476-.22.443.443 0 01-.037-.356 5.31 5.31 0 00-1.443-5.014 5.465 5.465 0 00-3.836-1.567h-.42a.458.458 0 01-.33-.107.444.444 0 01.262-.782 6.387 6.387 0 014.965 1.814 6.205 6.205 0 011.683 5.863z"/></symbol></svg>