<svg width="66" height="66" fill="none" xmlns="http://www.w3.org/2000/svg"><g clip-path="url(#clip0_127_18698)" fill="#DC3143"><path d="M3.755 15.8A2.2 2.2 0 000 17.356V64.2a2.2 2.2 0 002.2 2.2h46.845a2.2 2.2 0 001.555-3.755L3.755 15.8zm45.29 48.4H41.8V62a1.1 1.1 0 10-2.2 0v2.2h-4.4V62a1.1 1.1 0 10-2.2 0v2.2h-4.4V62a1.1 1.1 0 10-2.2 0v2.2H22V62a1.1 1.1 0 10-2.2 0v2.2h-4.4V62a1.1 1.1 0 10-2.2 0v2.2H8.8V62a1.1 1.1 0 10-2.2 0v2.2H2.2v-4.4h2.2a1.1 1.1 0 000-2.2H2.2v-4.4h2.2a1.1 1.1 0 000-2.2H2.2v-4.4h2.2a1.1 1.1 0 100-2.2H2.2V40h2.2a1.1 1.1 0 100-2.2H2.2v-4.4h2.2a1.1 1.1 0 100-2.2H2.2v-4.4h2.2a1.1 1.1 0 100-2.2H2.2v-7.244L49.06 64.2h-.015z"/><path d="M9.9 57.6h20.556a1.1 1.1 0 00.777-1.878L10.678 35.167a1.1 1.1 0 00-1.878.777V56.5a1.1 1.1 0 001.1 1.1zM11 38.601l16.8 16.8H11V38.6zM44.283 3.167a1.1 1.1 0 00-1.516.35L37.59 11.8H4.1a1.1 1.1 0 000 2.2H25v18.8a1.1 1.1 0 002.2 0V14h11a1.1 1.1 0 00.933-.517l5.5-8.8a1.1 1.1 0 00-.35-1.516zM64.9 11.8h-8.8a1.1 1.1 0 000 2.2h7.7v25.05l-18.615-.033A.79.79 0 0045.1 39c-.03 0-.054.014-.084.016L35.2 39a1.1 1.1 0 000 2.2l8.8.015V50.1a1.1 1.1 0 002.2 0v-8.882l17.6.031V64.2H55a1.1 1.1 0 000 2.2h9.9a1.1 1.1 0 001.1-1.1V12.9a1.1 1.1 0 00-1.1-1.1z"/><path d="M35.697 31L32.8 22.653h-.055c.078 1.24.116 2.402.116 3.487V31h-1.483v-9.994h2.304l2.775 7.95h.041l2.858-7.95h2.31V31h-1.572v-4.942c0-.497.011-1.144.034-1.942.027-.797.05-1.28.068-1.449h-.054L37.14 31h-1.443zm14.8 0l-.998-2.775h-3.821L44.7 31h-1.723l3.74-10.035h1.777L52.234 31h-1.737zm-1.429-4.184l-.936-2.72a20.685 20.685 0 01-.533-1.723c-.123.56-.303 1.174-.54 1.839l-.903 2.604h2.912zM60.915 31h-1.88l-2.502-4.088L54.011 31h-1.75l3.315-5.182-3.103-4.812h1.818l2.31 3.78 2.311-3.78h1.764l-3.124 4.84L60.915 31z"/></g><defs><clipPath id="clip0_127_18698"><path fill="#fff" d="M0 0h66v66H0z"/></clipPath></defs></svg>