<svg width="67" height="66" fill="none" xmlns="http://www.w3.org/2000/svg"><g clip-path="url(#clip0_4_5521)" fill="#DC3143"><path d="M65.733 58.377H64.32v-4.911a4.135 4.135 0 00-4.13-4.13h-1.634v-2.654a4.135 4.135 0 00-4.13-4.13h-5.23a4.123 4.123 0 00-3.177 1.494 4.124 4.124 0 00-3.177-1.494h-5.229a4.123 4.123 0 00-3.176 1.494 4.124 4.124 0 00-3.178-1.494h-5.228a4.124 4.124 0 00-3.177 1.494 4.124 4.124 0 00-3.178-1.494h-5.229a4.135 4.135 0 00-4.13 4.13v2.653H8.63a4.135 4.135 0 00-4.13 4.13v4.912H3.114c-.657 0-1.191.535-1.191 1.192v2.84c0 .657.534 1.191 1.19 1.191h62.619c.657 0 1.19-.534 1.19-1.191v-2.84a1.191 1.191 0 00-1.19-1.192zm-8.13-7.135h2.588c1.226 0 2.223.998 2.223 2.224v4.911h-9.676v-4.911a2.238 2.238 0 01.026-.318 2.218 2.218 0 01.317-.863 2.167 2.167 0 01.206-.278l.042-.046a2.22 2.22 0 01.103-.105l.042-.038c.038-.034.076-.067.116-.098l.042-.032c.04-.03.083-.061.127-.09l.043-.026c.044-.027.09-.053.136-.078l.048-.023c.046-.023.092-.045.14-.064l.06-.022a2.22 2.22 0 01.137-.048c.025-.008.052-.013.078-.02.042-.011.084-.023.127-.032.037-.007.074-.011.111-.017.034-.005.068-.011.102-.014.073-.008.146-.012.22-.012h2.642zm-10.629-4.56c0-1.226.998-2.223 2.224-2.223h5.228c1.226 0 2.224.997 2.224 2.223v2.653h-1.688a3.42 3.42 0 00-.227.007c-.02 0-.04.003-.06.004a3.964 3.964 0 00-.166.015l-.06.007a4.304 4.304 0 00-.166.024l-.052.01a4.203 4.203 0 00-.408.094l-.011.003a4.141 4.141 0 00-2.027 1.33 4.14 4.14 0 00-2.027-1.33c-.004 0-.008-.002-.011-.003a4.285 4.285 0 00-.41-.095l-.05-.009a4.338 4.338 0 00-.166-.024l-.06-.008a4.187 4.187 0 00-.167-.014l-.06-.004a4.143 4.143 0 00-.226-.007h-1.634v-2.653zm-.953 4.56h2.587c.074 0 .148.004.22.011.035.004.069.01.103.015.037.006.074.01.11.017.044.009.086.02.129.032.025.007.051.012.076.02.048.014.093.031.14.048l.057.022c.048.02.095.041.141.064l.048.023c.046.024.092.051.136.079.014.008.029.016.043.026.044.028.086.059.128.09l.04.03c.04.032.08.065.117.1l.041.037c.036.034.07.07.104.106l.041.045a2.255 2.255 0 01.463.85l.021.083c.01.042.02.084.028.127l.013.084a2.116 2.116 0 01.024.315v4.911h-9.675v-4.911a2.238 2.238 0 01.025-.318l.012-.08a2.14 2.14 0 01.089-.334 2.136 2.136 0 01.423-.727l.041-.046a3.41 3.41 0 01.103-.105l.042-.038c.038-.034.076-.067.116-.098l.042-.032c.041-.03.083-.061.127-.09l.043-.026a3.67 3.67 0 01.136-.078l.048-.023a1.95 1.95 0 01.14-.064l.06-.022c.045-.017.09-.034.137-.048.026-.008.052-.013.078-.02.042-.011.084-.023.127-.032.037-.007.074-.011.111-.017.034-.005.068-.011.102-.014.073-.008.146-.012.22-.012h2.642zm-8.407-6.783h5.23c1.225 0 2.223.997 2.223 2.223v2.653h-1.688a3.39 3.39 0 00-.226.007c-.02 0-.04.003-.06.004a3.95 3.95 0 00-.167.015l-.06.007a4.304 4.304 0 00-.166.024l-.051.01a4.17 4.17 0 00-.409.094l-.011.003a4.141 4.141 0 00-2.027 1.33 4.141 4.141 0 00-2.027-1.33c-.004 0-.008-.002-.011-.003a4.281 4.281 0 00-.409-.095l-.05-.009a4.305 4.305 0 00-.167-.024l-.06-.008a4.166 4.166 0 00-.167-.014l-.06-.004a4.15 4.15 0 00-.226-.007H35.39v-2.653c0-1.226.998-2.223 2.224-2.223zm-3.176 6.783h2.587c.074 0 .148.004.22.011.035.004.069.01.103.015.037.006.074.01.11.017.044.009.086.02.129.032.025.007.051.012.076.02.048.014.094.031.14.048l.057.022c.048.02.095.041.141.064l.048.023c.046.024.092.051.136.079.014.008.029.016.043.026.044.028.086.059.128.09l.04.03c.04.032.08.065.117.1l.041.037c.036.034.07.07.104.106l.041.045c.031.036.06.073.09.11l.04.055a2.313 2.313 0 01.294.564 2.054 2.054 0 01.088.331l.013.084a2.116 2.116 0 01.024.315v4.911h-9.675v-4.911c0-.065.004-.128.01-.191v-.007a2.239 2.239 0 011.79-1.984l.057-.01a2.146 2.146 0 01.366-.032h2.642zm-10.63-4.56c0-1.226.998-2.223 2.224-2.223h5.229c1.226 0 2.223.997 2.223 2.223v2.653h-1.688c-.075 0-.148.002-.222.006-.04.002-.079.006-.118.01l-.095.007a4.419 4.419 0 00-.168.022l-.033.004a4.1 4.1 0 00-2.527 1.413 4.113 4.113 0 00-3.164-1.462h-1.661v-2.653zm-.954 4.56h2.588c1.226 0 2.223.998 2.223 2.224v4.911H17.99v-4.911c0-.065.005-.128.01-.191v-.007a2.239 2.239 0 011.791-1.984c.019-.004.038-.006.058-.009.049-.008.098-.017.148-.022.072-.007.144-.01.217-.01h2.641zm-10.629-4.56c0-1.226.997-2.223 2.223-2.223h5.23c1.225 0 2.223.997 2.223 2.223v2.653h-1.688c-.075 0-.148.002-.222.006-.04.002-.079.006-.118.01l-.094.007a4.383 4.383 0 00-.169.022l-.033.004a4.097 4.097 0 00-2.527 1.414 4.113 4.113 0 00-3.164-1.463h-1.661v-2.653zm-5.819 6.784c0-1.226.998-2.224 2.224-2.224h5.229c1.226 0 2.223.998 2.223 2.224v4.911H6.406v-4.911zm58.61 8.227H3.832v-1.408h61.186v1.408zM14.55 18.631c-3.259-.415-5.284 2.215-5.365 2.345a.722.722 0 101.128.854 4.75 4.75 0 014.032-1.768.722.722 0 10.204-1.43zm8.424-3.66l-.002-.014c-3.257-.408-5.283 2.215-5.364 2.345a.722.722 0 101.152.871 4.7 4.7 0 014.033-1.767.723.723 0 00.181-1.435zm1.088 7.992a.722.722 0 00-.396-.359.721.721 0 00-.554.01l-8.41 3.666a.722.722 0 00-.394.941v.001c.81 1.857 2.912 2.85 5.22 2.47a6.186 6.186 0 001.471-.439c2.69-1.173 4.063-3.989 3.063-6.29zm-3.636 4.987a4.723 4.723 0 01-1.123.331 3.544 3.544 0 01-3.274-1.005l6.901-3.007c.166 1.406-.831 2.953-2.504 3.681z"/><path d="M42.554 7.13h-.005L22.713 5.014a.722.722 0 00-.794.642l-.13 1.17-18.028 7.858a.722.722 0 00-.371.946l5.241 12.036c2.347 5.409 8.635 7.89 14.044 5.543a10.677 10.677 0 004.375-3.502c5.45 2.27 11.71-.309 13.979-5.76.395-.947.65-1.947.76-2.969l1.396-13.046a.722.722 0 00-.631-.802zM22.13 31.87a9.24 9.24 0 01-12.177-4.788L5 15.717l16.992-7.395 4.957 11.373a9.261 9.261 0 01-4.817 12.174zm18.23-11.045a9.254 9.254 0 01-12.525 7.648c.546-1.01.928-2.1 1.13-3.23l6.159.663a.717.717 0 00.192-.031.722.722 0 00.627-.637c.264-2.487-1.889-4.767-4.805-5.063a6.047 6.047 0 00-2.427.231c-.124-.44-.275-.872-.454-1.293l-1.964-4.469a5.774 5.774 0 002.4.132c.48-.079.95-.222 1.392-.426a.731.731 0 10-.62-1.325 4.52 4.52 0 01-3.984-.252l-2.312-5.296.103-.976 18.4 1.972-1.312 12.352zm-11.215 2.977a10.6 10.6 0 00-.106-1.98c.63-.212 1.3-.285 1.962-.212 1.816.191 3.23 1.363 3.497 2.76l-5.353-.568z"/><path d="M39.59 14.368a.722.722 0 00-.957-.355 4.7 4.7 0 01-4.38-.48.722.722 0 00-.839 1.177 6.497 6.497 0 004.43 1.042c.48-.078.95-.222 1.392-.426a.722.722 0 00.355-.958zm4.366 10.419v2.374c.002.602.335 1.157.874 1.456v9.537c0 .225.092.44.256.598a.889.889 0 00.618.248h17.472a.888.888 0 00.618-.248.832.832 0 00.256-.598v-9.537c.539-.3.872-.854.874-1.456v-2.537a.832.832 0 00-.256-.598.889.889 0 00-.618-.247H49.38l13.627-5.26a.86.86 0 00.48-.451.82.82 0 00.008-.648l-.971-2.356c-.36-.866-1.374-1.288-2.27-.944l-16.231 6.264c-.895.347-1.33 1.33-.975 2.197l.908 2.206zm17.835.683h1.386v1.691h-3.133l1.747-1.691zm-5.242 0h2.771l-1.747 1.691h-2.771l1.747-1.691zm-5.242 0h2.771l-1.747 1.691H49.56l1.747-1.691zm10.996 3.383v8.456H46.577v-8.456h15.726zm-2.689-12.665l1.287-.497.647 1.57-2.91 1.123.976-2.196zm-4.869 1.879l2.573-.994-.975 2.197-2.573.994.975-2.197zm-4.869 1.879l2.574-.993-.976 2.197-2.573.993.975-2.197zM47.09 27.16h-1.385v-1.69h3.133l-1.748 1.691zm.492-6.33l-.976 2.198-1.287.497-.648-1.571 2.91-1.123z"/></g><defs><clipPath id="clip0_4_5521"><path fill="#fff" transform="translate(.924)" d="M0 0h66v66H0z"/></clipPath></defs></svg>