<svg width="66" height="66" fill="none" xmlns="http://www.w3.org/2000/svg"><g clip-path="url(#clip0_4_5508)" fill="#DC3143"><path d="M63.462 6.601a1.46 1.46 0 00-1.184-.329c-2.292.375-14.453 2.245-28.854 2.245-14.4 0-26.562-1.87-28.854-2.245a1.464 1.464 0 00-1.7 1.445V19.35a.954.954 0 001.907 0V8.237c3.848.61 15.13 2.188 28.647 2.188 13.515 0 24.798-1.578 28.647-2.188v11.106a.953.953 0 101.907 0V7.717c0-.43-.188-.837-.516-1.116zm-.437 16.231a.954.954 0 00-.954.954v11.102c-3.848-.61-15.13-2.188-28.647-2.188-13.515 0-24.798 1.578-28.647 2.188V23.786a.954.954 0 10-1.907 0v11.622a1.46 1.46 0 001.7 1.444c2.292-.374 14.453-2.245 28.854-2.245 14.4 0 26.562 1.87 28.854 2.245a1.462 1.462 0 001.7-1.445v-11.62a.953.953 0 00-.953-.954z"/><path d="M59.541 11.171a1.832 1.832 0 00-1.443-.441c-5.671.731-14.555 1.602-24.674 1.602-10.12 0-19.004-.871-24.674-1.602a1.831 1.831 0 00-2.066 1.818v18.03a1.834 1.834 0 002.066 1.817c5.67-.73 14.555-1.602 24.674-1.602 10.12 0 19.003.871 24.674 1.602a1.832 1.832 0 002.066-1.818v-18.03c0-.526-.227-1.028-.623-1.376zM33.424 28.886c-10.17 0-19.103.871-24.833 1.607v-17.86c5.73.735 14.662 1.606 24.833 1.606 10.17 0 19.102-.87 24.833-1.607v17.86c-5.73-.735-14.663-1.606-24.833-1.606zM64.733 55.23H63.32v-4.912a4.135 4.135 0 00-4.13-4.13h-1.634v-2.653a4.135 4.135 0 00-4.13-4.13h-5.23a4.124 4.124 0 00-3.177 1.493 4.124 4.124 0 00-3.177-1.494h-5.229a4.124 4.124 0 00-3.176 1.494 4.124 4.124 0 00-3.178-1.494h-5.228a4.124 4.124 0 00-3.177 1.494 4.124 4.124 0 00-3.178-1.494h-5.229a4.135 4.135 0 00-4.13 4.13v2.654H7.63a4.135 4.135 0 00-4.13 4.13v4.912H2.114c-.657 0-1.191.534-1.191 1.191v2.84c0 .657.534 1.191 1.19 1.191h62.619a1.19 1.19 0 001.19-1.19v-2.84c0-.658-.533-1.192-1.19-1.192zm-8.13-7.135h2.588c1.226 0 2.223.997 2.223 2.223v4.912h-9.676v-4.912a2.24 2.24 0 01.026-.317 2.254 2.254 0 01.04-.21l.02-.08a2.254 2.254 0 01.333-.686l.041-.055c.029-.038.059-.075.09-.11l.041-.046c.033-.036.068-.072.103-.105l.042-.038c.037-.034.076-.067.116-.099l.041-.031a2.93 2.93 0 01.128-.09l.043-.026c.044-.027.09-.054.136-.078l.048-.024c.046-.022.092-.044.14-.064l.06-.021a1.84 1.84 0 01.137-.049l.078-.02c.042-.01.084-.022.127-.031.037-.007.074-.012.111-.017.034-.005.068-.012.102-.015.073-.007.146-.011.22-.011h2.642zm-10.629-4.56c0-1.226.998-2.224 2.223-2.224h5.23c1.225 0 2.223.998 2.223 2.224v2.653h-1.688c-.076 0-.152.002-.227.006l-.06.005a3.974 3.974 0 00-.166.014l-.06.008a4.509 4.509 0 00-.166.024l-.052.009a4.05 4.05 0 00-.408.095c-.004 0-.008.002-.011.003a4.141 4.141 0 00-2.027 1.33 4.14 4.14 0 00-2.027-1.33l-.011-.003a4.192 4.192 0 00-.626-.128l-.06-.008a4.187 4.187 0 00-.167-.014l-.06-.005a4.247 4.247 0 00-.226-.007h-1.634v-2.652zm-.954 4.56h2.588c.074 0 .148.004.22.01a1.7 1.7 0 01.103.016c.037.005.074.01.11.017.044.009.086.02.129.032.025.006.051.012.076.02.047.013.093.03.14.048l.057.021c.048.02.095.042.141.065.016.007.032.014.048.023.046.024.092.05.136.078l.043.026c.044.028.086.059.128.09l.04.03c.04.032.08.066.117.1l.041.037a2.249 2.249 0 01.608 1.001l.021.084c.01.042.02.084.028.127a2.11 2.11 0 01.038.399v4.911h-9.676v-4.912a2.24 2.24 0 01.025-.317c.004-.027.007-.054.012-.08.008-.044.018-.087.028-.13l.021-.08a2.343 2.343 0 01.217-.51 2.183 2.183 0 01.246-.341l.041-.046c.034-.036.068-.072.103-.105l.042-.038a2.75 2.75 0 01.116-.099l.042-.031a2.4 2.4 0 01.127-.09l.043-.026c.045-.027.09-.054.136-.078l.048-.024c.046-.022.093-.044.14-.064l.06-.021c.045-.018.09-.034.137-.049l.078-.02c.042-.01.084-.022.127-.031.037-.007.074-.012.111-.017.034-.005.068-.012.102-.015.073-.007.146-.011.22-.011h2.642zm-8.406-6.784h5.23c1.225 0 2.223.998 2.223 2.224v2.653h-1.688a4.24 4.24 0 00-.226.006l-.06.005a3.95 3.95 0 00-.167.014l-.06.008a4.503 4.503 0 00-.166.024l-.051.009a4.02 4.02 0 00-.409.095c-.004 0-.008.002-.011.003a4.14 4.14 0 00-2.027 1.33 4.14 4.14 0 00-2.027-1.33l-.011-.003a4.157 4.157 0 00-.626-.128l-.06-.008a4.166 4.166 0 00-.167-.014l-.06-.005a4.253 4.253 0 00-.226-.007H34.39v-2.652c0-1.226.998-2.224 2.224-2.224zm-3.176 6.784h2.587c.074 0 .148.004.22.01a1.7 1.7 0 01.103.016c.037.005.074.01.11.017.044.009.086.02.129.032.025.006.051.012.076.02.048.013.094.03.14.048l.057.021c.048.02.095.042.141.065.016.007.032.014.048.023.046.024.092.05.136.078l.043.026c.044.028.086.059.128.09l.04.03c.04.032.08.066.117.1l.041.037c.036.034.07.07.104.106l.041.046a2.267 2.267 0 01.484.933c.01.042.02.084.028.127l.013.084a2.11 2.11 0 01.024.314v4.912h-9.675v-4.912c0-.064.004-.128.01-.191v-.006a2.238 2.238 0 011.79-1.985l.057-.009c.05-.008.099-.016.15-.021.07-.007.143-.011.216-.011h2.642zm-10.63-4.56c0-1.226.998-2.224 2.224-2.224h5.229c1.225 0 2.223.998 2.223 2.224v2.653h-1.688a4.08 4.08 0 00-.222.006c-.04.002-.079.006-.118.009a4.419 4.419 0 00-.263.03 4.099 4.099 0 00-2.56 1.418 4.113 4.113 0 00-3.164-1.463h-1.661v-2.653zm-.954 4.56h2.588c1.226 0 2.223.997 2.223 2.223v4.912H16.99v-4.912c0-.064.005-.128.01-.191v-.006a2.239 2.239 0 011.791-1.985l.058-.009c.049-.008.098-.016.148-.021.072-.007.144-.011.217-.011h2.641zm-10.63-4.56c0-1.226.998-2.224 2.224-2.224h5.23c1.225 0 2.223.998 2.223 2.224v2.653h-1.688c-.075 0-.148.002-.222.006-.04.002-.079.006-.118.009a4.408 4.408 0 00-.263.03 4.098 4.098 0 00-2.56 1.418 4.113 4.113 0 00-3.164-1.463h-1.661v-2.653zm-5.818 6.783c0-1.226.998-2.223 2.224-2.223h5.229c1.226 0 2.223.997 2.223 2.223v4.912H5.406v-4.912zm58.61 8.227H2.832v-1.408h61.186v1.408z"/></g><defs><clipPath id="clip0_4_5508"><path fill="#fff" transform="translate(.924 .853)" d="M0 0h65v65H0z"/></clipPath></defs></svg>