<svg width="67" height="67" fill="none" xmlns="http://www.w3.org/2000/svg"><g clip-path="url(#clip0_4_5543)" fill="#DC3143"><path d="M65.88 28.285a.967.967 0 00.968-.966v-2.973a2.272 2.272 0 00-2.27-2.269H48.954a2.272 2.272 0 00-2.269 2.269v16.928a2.271 2.271 0 002.269 2.269h.335v2.233h-1.637a.967.967 0 00-.967.967v4.167c0 .534.433.967.967.967h9.19v2.233H36.898v-2.233h6.065a.967.967 0 00.966-.967v-4.167a.967.967 0 00-.966-.967h-1.638v-2.233h.336a2.271 2.271 0 002.268-2.269V24.346a2.271 2.271 0 00-2.268-2.269h-5.558a.967.967 0 100 1.934h5.558c.184 0 .335.15.335.335v16.928c0 .185-.15.335-.335.335H26.035a.336.336 0 01-.335-.335V24.346c0-.185.15-.335.335-.335h5.557a.967.967 0 100-1.934h-5.557a2.271 2.271 0 00-2.27 2.269v16.928a2.271 2.271 0 002.27 2.269h.335v2.233h-1.637a.967.967 0 00-.967.967v4.167c0 .534.433.967.967.967h6.064v2.233H10.855v-2.233h9.19a.967.967 0 00.967-.967v-4.167a.967.967 0 00-.967-.967h-1.638v-2.233h.335a2.271 2.271 0 002.27-2.269V32.81a.967.967 0 10-1.934 0v8.464c0 .185-.15.335-.335.335H3.115a.336.336 0 01-.335-.335V24.346c0-.185.15-.335.335-.335h15.626c.185 0 .336.15.336.335v3.952a.967.967 0 101.933 0v-3.952a2.271 2.271 0 00-2.269-2.269H3.116a2.271 2.271 0 00-2.268 2.269v16.928a2.271 2.271 0 002.268 2.269h.336v2.233H1.814a.967.967 0 00-.966.967v4.167c0 .534.432.967.966.967h2.94v10.567H3.638a.967.967 0 100 1.933h8.333a.967.967 0 100-1.933h-1.116V60.21h19.942v2.233h-1.116a.967.967 0 100 1.933h8.334a.967.967 0 100-1.933h-1.117V60.21h19.943v2.233h-1.117a.967.967 0 100 1.933h8.334a.967.967 0 100-1.933H62.94V51.877h2.94a.967.967 0 00.967-.967v-4.167a.967.967 0 00-.967-.967h-1.638v-2.233h.336a2.271 2.271 0 002.269-2.269V31.83a.967.967 0 10-1.934 0v9.444c0 .185-.15.335-.335.335H48.953a.336.336 0 01-.335-.335V24.346c0-.185.15-.335.335-.335h15.626c.185 0 .335.15.335.335v2.973c0 .534.433.966.967.966zM28.305 43.543h11.088v2.233H28.304v-2.233zM25.7 47.71h16.297v2.233H25.699V47.71zm7.032 4.167h2.233v2.233h-2.233v-2.233zM5.386 43.543h11.088v2.233H5.386v-2.233zM2.78 47.71h16.297v2.233H2.781V47.71zm3.907 14.734V51.877H8.92v10.567H6.688zm28.276 0H32.73V60.21h2.233v2.233zm-24.11-4.167v-2.233H56.84v2.233H10.855zm50.154 4.167h-2.234V51.877h2.234v10.567zm3.906-12.5H48.617V47.71h16.297v2.233zm-2.604-4.168H51.222v-2.233H62.31v2.233zM29.13 10.152l-1.002 1.001a3.34 3.34 0 000 4.719c.63.63 1.469.977 2.36.977.89 0 1.729-.347 2.36-.978l1-1 1 1c.63.63 1.468.978 2.36.978.89 0 1.728-.347 2.359-.977.63-.63.977-1.469.977-2.36 0-.89-.347-1.729-.977-2.359l-1.001-1 1-1.001a3.34 3.34 0 000-4.719 3.315 3.315 0 00-2.358-.977c-.892 0-1.73.347-2.36.977l-1 1.001-1-1a3.34 3.34 0 00-4.72 0 3.315 3.315 0 00-.977 2.358c0 .892.347 1.73.977 2.36l1.001 1zm.366-4.351a1.404 1.404 0 011.984 0l1.684 1.684a.967.967 0 001.367 0L36.216 5.8c.265-.265.617-.41.992-.41.374 0 .727.145.991.41a1.405 1.405 0 010 1.984L36.515 9.47a.967.967 0 000 1.367l1.684 1.684a1.405 1.405 0 01-.991 2.395c-.375 0-.728-.146-.992-.41L34.53 12.82a.967.967 0 00-1.367 0l-1.684 1.684c-.265.265-.617.411-.992.411s-.727-.146-.992-.41a1.405 1.405 0 010-1.985l1.684-1.684a.967.967 0 000-1.367l-1.684-1.685a1.404 1.404 0 010-1.983zM6.88 15.867c.62.62 1.445.962 2.323.962.878 0 1.703-.342 2.324-.962l6.931-6.932c.62-.62.963-1.446.963-2.324 0-.877-.342-1.703-.963-2.323a3.29 3.29 0 00-4.647 0L9.203 8.896 8.048 7.741a3.29 3.29 0 00-4.647 0 3.29 3.29 0 000 4.647l3.479 3.479zM4.768 9.108a1.351 1.351 0 011.913 0l1.838 1.84a.967.967 0 001.368 0l5.292-5.293a1.354 1.354 0 012.308.956c0 .362-.14.701-.396.956L10.16 14.5a1.343 1.343 0 01-.956.396c-.361 0-.7-.14-.956-.396l-3.48-3.48a1.343 1.343 0 01-.396-.956c0-.36.14-.7.396-.956zm47.948 6.759c.62.62 1.445.962 2.323.962.878 0 1.703-.341 2.324-.962l6.931-6.932a3.29 3.29 0 000-4.647 3.29 3.29 0 00-4.647 0L55.04 8.896l-1.155-1.155a3.29 3.29 0 00-4.647 0 3.264 3.264 0 00-.963 2.324c0 .877.342 1.703.963 2.323l3.479 3.479zm-2.112-6.759c.255-.255.595-.396.956-.396.362 0 .701.141.957.396l1.838 1.84a.967.967 0 001.368 0l5.292-5.293a1.353 1.353 0 011.913 1.912L55.994 14.5a1.343 1.343 0 01-.956.396c-.361 0-.7-.14-.956-.396l-3.479-3.478a1.343 1.343 0 01-.396-.957c0-.36.14-.7.396-.956z"/></g><defs><clipPath id="clip0_4_5543"><path fill="#fff" transform="translate(.848 .853)" d="M0 0h66v66H0z"/></clipPath></defs></svg>