<svg width="827" height="634" fill="none" xmlns="http://www.w3.org/2000/svg"><g clip-path="url(#clip0_130_18700)" fill="#E8E8EA"><path d="M20.58 364.064a.547.547 0 01-.545.544.531.531 0 01-.544-.544v-469.265c0-.285.233-.544.544-.544.31 0 .544.233.544.544v469.265zm233.863-497.358a.532.532 0 01-.389-.647.535.535 0 01.648-.389L826.558 2.716a.533.533 0 01.388.648.534.534 0 01-.648.388L254.443-133.294z"/><path d="M800.823-133.812a.53.53 0 01.544-.543c.311 0 .545.233.545.543v510.563l24.49-2.045a.551.551 0 01.596.492c.026.285-.208.569-.493.569l-25.112 2.098a.531.531 0 01-.544-.544v-511.133h-.026zm-31.254 41.247c0-.285.233-.544.544-.544.311 0 .544.233.544.544l-.155 225.259a.532.532 0 01-.545.544h-.051l-13.114-1.45c-.285-.026-.492-.285-.492-.569l-.156-228.134c0-.311.234-.544.545-.544.311 0 .544.233.544.544l.155 227.667 12.051 1.347.13-224.664zM649.216-62.246a.549.549 0 01-.622.44.548.548 0 01-.44-.621c0-.052 2.643-15.976 32.213-28.87 8.449-3.676 16.69-5.774 24.154-6.887L754.59-134.2c.103-.103.259-.129.44-.103l29.104 4.997a.63.63 0 01.362.233.548.548 0 01-.155.751l-47.063 31.666a.66.66 0 01-.441.103c-.051-.026-13.605-3.262-31.876-.57L466.796 74.23a.521.521 0 01-.752-.13.52.52 0 01.13-.75L702.603-96.76c-6.816 1.165-14.228 3.185-21.769 6.473-29.078 12.61-31.618 27.99-31.618 28.041zm57.585-36.274c16.172-2.046 28.274.414 30.036.802l45.793-30.785-27.574-4.739-48.255 34.721zM696.953 6.937l-43.902 13.904a.582.582 0 01-.466-.051c-.311-.182-4.458-2.745-4.458-7.095 0-2.537 2.825-6.654 9.667-11.289 5.157-3.495 12.621-7.327 22.935-11.056 23.791-8.622 38.123-6.006 38.174-6.006a.55.55 0 01.285.932L697.16 6.834c-.078.026-.155.077-.207.103zm-43.979 12.817l43.538-13.8 21.096-19.678c-3.758-.389-16.82-1.036-36.516 6.11-10.21 3.703-17.596 7.509-22.702 10.952-6.505 4.402-9.174 8.156-9.174 10.383 0 3.34 2.954 5.49 3.758 6.033z"/><path d="M649.216 13.695a.53.53 0 01-.544.543.532.532 0 01-.545-.543V-62.35c0-.31.234-.544.545-.544.311 0 .544.233.544.544v76.045zm87.207-110.844a.53.53 0 01.544-.543.53.53 0 01.544.543l-.492 470.068a.539.539 0 01-.493.544c-.103 0-39.366 2.771-64.867-3.728-22.961-5.852-22.935-6.163-22.598-9.813.026-.389.077-.855.077-1.373v-52.586c0-.285.234-.544.545-.544.285 0 .544.233.544.544v52.586c0 .544-.052 1.036-.078 1.476-.259 2.822-.285 3.055 21.795 8.674 23.713 6.033 59.425 4.039 64.038 3.728l.441-469.576z"/><path d="M719.837 372.816c.285.129.388.44.285.699a.543.543 0 01-.7.285l-22.288-9.736-44.963-6.136a.537.537 0 01-.467-.544v-50.877c0-.311.233-.544.544-.544.311 0 .545.233.545.544v50.411l44.549 6.085c.052 0 .103.026.155.052l22.34 9.761z"/><path d="M697.264 364.09a.531.531 0 01-.544-.544c0-.311.233-.544.544-.544h5.131v-52.534c0-.311.234-.544.545-.544.285 0 .544.233.544.544v53.078a.547.547 0 01-.544.544h-5.676zm17.26-59.189l-20.499-4.09-43.435-2.253c-.518.129-3.551.906-.933 1.45 2.877.57 10.781 1.553 19.255 2.434 7.179.725 14.772 1.372 20.111 1.605 7.516.285 18.582.647 25.501.854zm-20.318-5.152l26.797 5.334a.553.553 0 01.441.543c0 .285-.26.518-.545.518-.052 0-20.266-.569-31.928-1.061-5.364-.233-12.984-.881-20.162-1.606-8.527-.88-16.457-1.864-19.359-2.433-7.827-1.528.933-3.548.959-3.574.051 0 .103-.025.155 0l43.538 2.253c.026.026.078.026.104.026z"/><path d="M720.381 305.626c0-.284.233-.543.544-.543a.53.53 0 01.544.543v5.101a.531.531 0 01-.544.544h-.026c-1.114.026-24.62.518-46.182-1.631-19.955-1.994-23.791-2.771-25.605-3.133l-.544-.104c-2.021-.388-1.995-.777-1.892-2.537.104-1.45.156-2.926.208-4.35a.548.548 0 01.57-.518.567.567 0 01.518.57c-.078 1.45-.155 2.925-.207 4.375-.052.984-.078 1.217 1.01 1.424l.545.104c1.788.363 5.598 1.139 25.501 3.133 20.11 1.994 41.932 1.683 45.56 1.631v-4.609z"/><path d="M719.033 310.753a.547.547 0 01-.544.544.547.547 0 01-.544-.544v-5.204c0-.285.233-.544.544-.544.311 0 .544.233.544.544v5.204zm-2.773 0a.547.547 0 01-.544.544.531.531 0 01-.544-.544v-5.204c0-.285.233-.544.544-.544.285 0 .544.233.544.544v5.204zm-2.669 0a.547.547 0 01-.544.544.532.532 0 01-.545-.544v-5.204c0-.285.234-.544.545-.544.311 0 .544.233.544.544v5.204zm-2.436 0a.547.547 0 01-.544.544.532.532 0 01-.545-.544v-5.204c0-.285.234-.544.545-.544.311 0 .544.233.544.544v5.204zm-2.825 0a.547.547 0 01-.544.544.532.532 0 01-.545-.544v-5.515c0-.311.234-.544.545-.544.311 0 .544.233.544.544v5.515zm-2.592-.001a.547.547 0 01-.544.544.547.547 0 01-.544-.544v-5.825c0-.285.233-.544.544-.544.311 0 .544.233.544.544v5.825zm-2.876-.051a.531.531 0 01-.544.544.531.531 0 01-.545-.544v-5.825c0-.311.233-.544.545-.544.311 0 .544.233.544.544v5.825zm-2.54.104a.531.531 0 01-.544.544.531.531 0 01-.544-.544v-5.826a.53.53 0 01.544-.543c.285 0 .544.233.544.543v5.826zm-5.676-.182a.547.547 0 01-.544.544.531.531 0 01-.544-.544v-5.825c0-.285.233-.544.544-.544.311 0 .544.233.544.544v5.825zm-2.514-.13a.531.531 0 01-.544.544.531.531 0 01-.544-.544v-5.825c0-.311.233-.544.544-.544.311 0 .544.233.544.544v5.825zm-2.487-.18c0 .31-.234.543-.545.543a.547.547 0 01-.544-.543v-5.826c0-.311.234-.544.544-.544.311 0 .545.233.545.544v5.826zm-2.462-.337a.532.532 0 01-.545.544.532.532 0 01-.544-.544v-5.826c0-.311.234-.544.544-.544.286 0 .545.233.545.544v5.826zm-2.773-.077a.53.53 0 01-.544.543.547.547 0 01-.545-.543v-5.826c0-.311.234-.544.545-.544.311 0 .544.233.544.544v5.826zm-2.773-.105a.531.531 0 01-.544.544.532.532 0 01-.545-.544v-5.825c0-.311.234-.544.545-.544.311 0 .544.233.544.544v5.825zm-2.384-.259a.532.532 0 01-.545.544.531.531 0 01-.544-.544v-5.825c0-.311.233-.544.544-.544.311 0 .545.233.545.544v5.825zm-2.255-.128a.53.53 0 01-.544.543.53.53 0 01-.544-.543v-5.826c0-.311.233-.544.544-.544.311 0 .544.233.544.544v5.826zm-2.384-.234a.532.532 0 01-.545.544.547.547 0 01-.544-.544v-5.826a.53.53 0 01.544-.543c.311 0 .545.233.545.543v5.826zm-2.592-.284a.547.547 0 01-.544.544.548.548 0 01-.545-.544v-5.826c0-.285.234-.543.545-.543a.53.53 0 01.544.543v5.826zm-3.576-.156c0 .31-.234.543-.545.543a.547.547 0 01-.544-.543v-5.826c0-.311.233-.544.544-.544.311 0 .545.233.545.544v5.826zm-2.073-.207a.548.548 0 01-.545.543.53.53 0 01-.544-.543V302.7c0-.311.233-.544.544-.544.311 0 .545.233.545.544v5.826zm-1.918-.233a.532.532 0 01-.545.544.531.531 0 01-.544-.544v-5.825c0-.311.233-.544.544-.544.311 0 .545.233.545.544v5.825zm-2.229-.285a.531.531 0 01-.544.544.532.532 0 01-.545-.544v-5.826c0-.31.234-.543.545-.543.285 0 .544.233.544.543v5.826zm-1.788-.362a.547.547 0 01-.544.544.532.532 0 01-.545-.544v-5.826c0-.285.234-.544.545-.544.311 0 .544.233.544.544v5.826zm-1.84-.052a.532.532 0 01-.545.544.531.531 0 01-.544-.544v-5.826a.53.53 0 01.544-.543c.286 0 .545.233.545.543v5.826zm-1.218-.285a.532.532 0 01-.544.544.532.532 0 01-.545-.544v-5.826c0-.285.234-.544.545-.544.31 0 .544.233.544.544v5.826zm-1.374-.026a.547.547 0 01-.544.544.531.531 0 01-.544-.544v-5.825c0-.311.233-.544.544-.544.311 0 .544.233.544.544v5.825zm-2.488-.285a.531.531 0 01-.544.544.547.547 0 01-.544-.544v-5.825c0-.311.233-.544.544-.544.311 0 .544.233.544.544v5.825zm-1.373-.258a.53.53 0 01-.544.543.548.548 0 01-.545-.543v-5.826c0-.311.234-.544.545-.544.311 0 .544.233.544.544v5.826zm-1.685-.363a.547.547 0 01-.544.544.547.547 0 01-.544-.544v-5.825c0-.285.233-.544.544-.544.311 0 .544.233.544.544v5.825z"/><path d="M649.475 306.092a.531.531 0 01-.544.544.531.531 0 01-.544-.544v-5.826a.53.53 0 01.544-.543c.285 0 .544.233.544.543v5.826zm176.952-24.882c.285 0 .545.233.545.518a.526.526 0 01-.519.544l-44.808 1.061c-.285 0-.544-.233-.544-.518V143.646a.53.53 0 01.544-.543l44.86 4.22a.552.552 0 01.493.595.551.551 0 01-.596.492l-44.213-4.142v138.03l44.238-1.088z"/><path d="M826.479 149.498a.55.55 0 01.493.595.551.551 0 01-.596.492l-63.675-5.826a.55.55 0 01-.492-.595.551.551 0 01.596-.492l63.674 5.826z"/><path d="M782.708 145.252c0-.285.233-.544.544-.544.311 0 .544.233.544.544l-.155 137.512a.547.547 0 01-.544.544.532.532 0 01-.545-.544l.156-137.512zm-1.607 137.537c0-.284.26-.518.545-.518.285 0 .518.259.518.544l-.078 2.434c0 .285-.259.518-.544.518-.285 0-.518-.259-.518-.544l.077-2.434z"/><path d="M826.428 283.722c.285 0 .544.233.544.518 0 .284-.233.543-.518.543l-60.928 1.606c-.285 0-.544-.233-.544-.518 0-.285.233-.544.518-.544l60.928-1.605zm-16.975-1.554a.547.547 0 01-.544.544.547.547 0 01-.544-.544l-.26-113.199c0-.285.234-.544.545-.544.285 0 .544.233.544.544l.259 113.199zm2.021-.052a.547.547 0 01-.544.544.547.547 0 01-.544-.544l-.156-112.992c0-.285.234-.544.545-.544.311 0 .544.233.544.544l.155 112.992z"/><path d="M826.402 233.466c.285 0 .544.233.544.518 0 .284-.233.543-.518.543l-173.247 5.412c-.285 0-.544-.233-.544-.518 0-.285.233-.544.518-.544l173.247-5.411zm.026 1.941c.311 0 .544.233.544.544a.547.547 0 01-.544.544h-25.061a.531.531 0 01-.544-.544c0-.311.233-.544.544-.544h25.061zm0 4.894c.311 0 .544.259.544.543 0 .285-.259.544-.544.518l-43.305-.518c-.285 0-.545-.259-.519-.543 0-.311.259-.544.545-.544l43.279.544zm0 1.838c.311 0 .544.259.544.544 0 .284-.259.543-.544.517l-43.305-.569a.532.532 0 01-.545-.544c0-.285.26-.544.545-.518l43.305.57zm-214.09-383.511a.532.532 0 01.752.751l-247.884 245.87a.532.532 0 01-.751-.751l247.883-245.87z"/><path d="M607.57-49.766a.55.55 0 01.259.725.552.552 0 01-.726.259s-4.587-2.175-7.204-3.625c-1.296-.725-2.125-1.14-2.644-1.347l-.362 8.157c0 .155-.078.31-.208.388L455.212 65.66a.527.527 0 01-.389.103l-48.333-6.447-7.256 7.405c-.078.103-.208.155-.363.18-.285.027-.544-.206-.57-.491l-.337-5.178a.64.64 0 01.155-.415l7.619-7.923c.104-.13.286-.18.467-.155l48.514 6.11L596.426-54.919a.65.65 0 01.492-.13s.882.182 3.525 1.684c2.592 1.45 7.101 3.599 7.127 3.599zm-11.377-3.573L455.237 59.834c-.129.104-.285.13-.44.104l-48.437-6.11-7.256 7.56.233 3.728 6.609-6.731a.545.545 0 01.466-.156l48.359 6.447L595.882-45.882l.311-7.457z"/><path d="M734.764-134.252a.538.538 0 01.752.103.537.537 0 01-.104.751L462.675 70.035c-.129.104-.285.13-.44.104L154.693 29.773c-.285-.026-.492-.31-.466-.596.026-.284.311-.491.596-.465l307.36 40.34 272.581-203.304z"/><path d="M826.169-106.107c.259-.155.596-.077.725.181a.532.532 0 01-.181.725L466.822 106a.718.718 0 01-.337.078L141.916 71.926a.551.551 0 01-.492-.595.552.552 0 01.596-.492l324.413 34.125 359.736-211.071zm.026 48.211a.549.549 0 01.725.233.548.548 0 01-.233.725L466.485 126.247c-.104.052-.208.078-.285.052l-23.817-2.097-16.534 9.631a.519.519 0 01-.726-.207.519.519 0 01.208-.725l16.663-9.683a.393.393 0 01.337-.078l23.817 2.097L826.195-57.896z"/><path d="M736.656-97.588a.549.549 0 01.751.155.548.548 0 01-.155.75L458.528 90.569c-.259.156-.596.104-.751-.155a.543.543 0 01.155-.75L736.656-97.589zM458.658 96.108a.563.563 0 01-.751-.155.563.563 0 01.155-.75L664.818-38.22a.563.563 0 01.751.155.563.563 0 01-.155.751L458.658 96.108z"/><path d="M676.505-35.293a.547.547 0 01.57.932L470.864 94.45c-.103.078-.207.078-.337.078l-8.863-.44c-.285 0-.518-.26-.518-.57a.567.567 0 01.57-.518l8.708.44L676.505-35.293z"/><path d="M826.506 119.204c.285.026.492.311.466.596-.026.285-.311.492-.596.466L474.519 75.033V309.38a.531.531 0 01-.544.544.547.547 0 01-.545-.544V74.333c.026-.284.311-.492.596-.466l352.48 45.337zM419.914 299.541c-.285-.052-.466-.337-.414-.647a.556.556 0 01.647-.414l406.41 89.637a.573.573 0 01.415.648.523.523 0 01-.466.414l-747.15 95.153c-.285.026-.57-.182-.596-.466-.052-.285.181-.57.466-.596l744.092-94.764-403.404-88.965z"/><path d="M.598 434.827a.548.548 0 01-.596-.492.548.548 0 01.493-.595l825.881-77.987a.548.548 0 01.596.492.548.548 0 01-.492.596L.598 434.827z"/><path d="M826.583 418.256a.534.534 0 01.389.647.535.535 0 01-.648.389L417.167 309.096a.534.534 0 11.259-1.036l409.157 110.196zm-141.188 65.067c.259.129.388.466.259.725-.13.259-.467.388-.726.259L337.191 314.714a.551.551 0 01-.259-.725c.13-.259.467-.388.726-.259l347.737 169.593z"/><path d="M2.179 365.255c-.285.026-.544-.207-.57-.518-.026-.31.207-.543.518-.569l824.275-47.9c.285-.026.544.207.57.517.026.285-.207.544-.518.57l-824.275 47.9z"/><path d="M826.505 326.961c.286.026.519.31.467.595-.026.285-.311.492-.596.466l-224.482-27.833L2.179 321.886c-.285 0-.544-.207-.544-.518 0-.311.207-.544.518-.57l599.715-21.671h.13l224.507 27.834z"/><path d="M162.546 316.06a.535.535 0 01-.7-.31.557.557 0 01.311-.699l26.304-9.813a.558.558 0 01.7.31.557.557 0 01-.311.699l-26.304 9.813zM3.216 369.915a.511.511 0 01-.674-.336.511.511 0 01.337-.673l142.795-48.108V31.844c0-.31.234-.543.545-.543.311 0 .544.233.544.544V321.16c0 .233-.156.44-.363.518L3.216 369.915z"/><path d="M2.18 328.048c-.286 0-.545-.207-.545-.517 0-.285.207-.544.518-.544l646.778-24.339c.285 0 .544.233.544.518a.565.565 0 01-.518.57L2.179 328.048zm824.248-41.711c.285 0 .544.233.544.518 0 .285-.233.543-.518.543L2.179 312.669a.526.526 0 01-.544-.518c0-.311.233-.544.518-.544l824.275-25.27zM26.436 362.07c-.285 0-.518-.259-.518-.544 0-.284.259-.517.544-.517l19.126.647 54.786-21.05a.535.535 0 01.699.31.536.536 0 01-.311.7l-54.837 21.076a.753.753 0 01-.233.051l-19.256-.673z"/><path d="M69.327 351.17a.566.566 0 01-.57-.517c0-.285.233-.544.518-.544l7.049-.259 30.995-6.447.648-379.032c0-.31.233-.544.544-.544.311 0 .545.233.545.544l-.674 379.446c.026.259-.156.492-.415.57l-31.462 6.55h-.077l-7.101.233z"/><path d="M2.101 70.424a.551.551 0 01-.492-.595.552.552 0 01.596-.492l760.6 74.31a.551.551 0 01.492.595.534.534 0 01-.596.492l-760.6-74.31z"/><path d="M764.981 285.353V142.222l-129.63-12.687.156 159.054 129.474-3.236zm1.063-143.623v144.141a.56.56 0 01-.518.543l-130.564 3.289a.547.547 0 01-.544-.544l-.155-160.245a.551.551 0 01.596-.492l130.667 12.791a.52.52 0 01.518.517z"/><path d="M638.41 285.534l32.783-.932-.155-43.136-32.577-.777-.051 44.845zm33.327.104l-33.872.958a.531.531 0 01-.544-.544l.052-45.958c0-.285.259-.544.544-.518l33.639.803c.285 0 .518.233.518.543l.156 44.172c.052.285-.182.544-.493.544zm-34.494 3.469a.547.547 0 01-.544.543.53.53 0 01-.544-.543l-.207-157.242c0-.285.233-.544.544-.544.285 0 .544.233.544.544l.207 157.242zm34.779-50.8c.285 0 .544.259.518.544 0 .285-.259.544-.544.518l-34.027-.544c-.285 0-.545-.259-.519-.544l-.155-107.192c0-.285.233-.544.544-.544.311 0 .544.233.544.544l.156 106.675 33.483.543z"/><path d="M637.813 153.873c-.285-.026-.518-.285-.492-.57.026-.284.285-.517.57-.491l126.78 10.201c.285.026.518.285.492.57-.026.284-.285.517-.57.492l-126.78-10.202zm0 2.279c-.285-.026-.518-.285-.492-.57a.525.525 0 01.57-.492l126.78 10.202c.285.025.518.284.492.569-.026.285-.285.518-.57.492l-126.78-10.201z"/><path d="M652.197 154.469a.548.548 0 01-.545.544.532.532 0 01-.544-.544v-23.873a.53.53 0 01.544-.543c.311 0 .545.233.545.543v23.873zm.311-23.743c0-.284.233-.543.544-.543.285 0 .544.233.544.543l-.052 170.421a.547.547 0 01-.544.544.547.547 0 01-.544-.544l.052-170.421zm11.947 171.741a.547.547 0 01-.544.544.531.531 0 01-.545-.544l.545-201.621c0-.284.233-.543.544-.543.285 0 .544.233.544.543l-.544 201.621zm32.317-206.359c.285.052.492.31.466.622a.574.574 0 01-.622.466l-20.603-2.978-.181 204.546 20.991-1.009c.285 0 .545.207.57.517.026.285-.207.544-.518.57l-21.588 1.036a.547.547 0 01-.544-.544l.182-205.711v-.104a.573.573 0 01.622-.466l21.225 3.055z"/><path d="M696.668 297.341a.567.567 0 01-.519-.57.549.549 0 01.571-.518l10.21.544-.881-184.247-9.511 2.719c-.285.077-.596-.078-.674-.363-.077-.285.078-.595.363-.673l10.211-2.926c.052 0 .104-.026.156-.026.285 0 .544.233.544.544l.881 185.541a.567.567 0 01-.57.518l-10.781-.543zM675.314 93.054a.511.511 0 01.673.336.51.51 0 01-.337.674l-63.441 22.215v177.204a.547.547 0 01-.544.544.532.532 0 01-.545-.544V115.916c0-.233.13-.44.363-.518l63.831-22.344zm-5.858 65.144c0-.311.234-.544.545-.544.311 0 .544.233.544.544v75.993a.547.547 0 01-.544.544.532.532 0 01-.545-.544v-75.993zm1.711.129c0-.285.233-.544.544-.544.285 0 .544.233.544.544v80.498a.531.531 0 01-.544.544.531.531 0 01-.544-.544v-80.498zm89.305-26.643c0-.284.234-.543.545-.543.285 0 .544.233.544.543l.311 156.698 64.582 3.522a.566.566 0 01.518.569.548.548 0 01-.57.518l-65.1-3.547a.562.562 0 01-.519-.544l-.311-157.216z"/><path d="M824.225 292.292a.547.547 0 01-.544.544.531.531 0 01-.544-.544l-.337-174.279c0-.284.233-.543.544-.543.285 0 .544.233.544.543l.337 174.279z"/><path d="M826.48 170.367c.285.025.518.284.492.569-.026.285-.285.518-.57.492l-43.202-3.081c-.285-.026-.518-.285-.492-.57a.525.525 0 01.57-.492l43.202 3.082zm0-2.253c.285.026.518.285.492.57a.525.525 0 01-.57.492l-43.202-3.392c-.285-.026-.518-.285-.492-.569.026-.285.285-.518.57-.492l43.202 3.391zm-.001-10.201a.551.551 0 01.493.595.551.551 0 01-.596.492l-100.968-9.373-29.077 6.292a.572.572 0 01-.648-.414c-.078-.285.129-.57.414-.648l29.156-6.317c.051 0 .103-.026.155 0l101.071 9.373z"/><path d="M746.037 109.469c0-.311.234-.544.545-.544.285 0 .544.233.544.544l-.311 189.425a.53.53 0 01-.544.543.547.547 0 01-.545-.543l.311-189.425z"/><path d="M826.402 295.295c.285 0 .544.207.57.518a.563.563 0 01-.518.569l-177.497 7.354a.565.565 0 01-.57-.518c0-.285.207-.544.518-.57l177.497-7.353zm-207.999-1.501a.551.551 0 01-.493-.596.535.535 0 01.596-.492l56.859 6.059a.552.552 0 01.493.595.551.551 0 01-.596.492l-56.859-6.058zm56.936-7.638a.526.526 0 01-.544-.518c0-.285.233-.544.518-.544l87.751-2.253v-40.21l-87.699-.906a.547.547 0 01-.544-.544c0-.284.233-.543.544-.543l88.217.932c.311 0 .544.233.544.544v41.271a.56.56 0 01-.518.544l-88.269 2.227zm.026-46.606a.547.547 0 01-.544-.543c0-.285.233-.544.544-.544l88.84.932c.285 0 .544.233.544.544a.546.546 0 01-.544.543l-88.84-.932zm86.844-95.334c0-.285.233-.544.544-.544.285 0 .544.233.544.544l.181 91.787a.547.547 0 01-.544.543.547.547 0 01-.544-.543l-.181-91.787zm64.271-.7a.551.551 0 01.492.596.551.551 0 01-.596.492l-352.454-37.207a.551.551 0 01-.492-.595.551.551 0 01.596-.492l352.454 37.206z"/><path d="M505.436 119.541c-.259.13-.596 0-.725-.259-.13-.259 0-.595.259-.725L826.195-32.186c.259-.129.596 0 .725.26.13.258 0 .595-.259.724L505.436 119.541z"/><path d="M793.593 88.807c.285.052.492.31.44.621a.574.574 0 01-.622.466L2.075-29.856a.574.574 0 01-.466-.621.574.574 0 01.622-.466l791.362 119.75zM2.075-14.656a.574.574 0 01-.466-.622.574.574 0 01.622-.466L491.778 55.02c.285.052.493.31.467.621a.574.574 0 01-.622.466L2.075-14.656zm.026 29.127c-.285-.026-.492-.31-.466-.595a.564.564 0 01.596-.467l464.306 59.785c.285.026.492.31.466.595-.026.285-.311.492-.596.466L2.101 14.471z"/><path d="M826.272 63.588c.285-.077.596.078.674.363.078.285-.078.595-.363.673l-183.975 56.522.026 10.564 183.638-51.784c.285-.078.596.078.674.363.078.284-.078.595-.363.673l-184.312 51.965c-.052 0-.104.026-.156.026a.547.547 0 01-.544-.544l-.026-11.651c0-.233.13-.466.389-.544l184.338-56.626z"/><path d="M664.481 135.127a.573.573 0 01-.648-.414.572.572 0 01.415-.647l24.023-5.127a.287.287 0 01.208 0l3.913.414 4.691-1.812 19.566-9.502-27.419 1.631a.527.527 0 01-.57-.492.528.528 0 01.493-.57l30.114-1.786c.207-.026.414.103.518.31a.536.536 0 01-.259.725c-8.967 4.35-17.623 8.959-26.875 12.558a.917.917 0 01-.259.052l-3.991-.415-23.92 5.075zm-11.326 19.964c-.285.077-.57-.104-.647-.415-.078-.284.103-.569.414-.647l103.793-23.354c.285-.078.57.129.647.414.078.285-.103.57-.414.647l-103.793 23.355zm116.673-22.941c.285-.077.57.13.648.415.078.284-.13.569-.415.647l-103.403 22.992a.572.572 0 01-.648-.414.573.573 0 01.414-.648l103.404-22.992zm-73.031 8.519a.534.534 0 01-.648-.388.535.535 0 01.389-.648l27.393-6.913a.535.535 0 01.648.389.534.534 0 01-.389.647l-27.393 6.913z"/><path d="M704.209 138.131a.53.53 0 01.544-.543c.286 0 .545.233.545.543l.181 146.756a.56.56 0 01-.518.544l-2.022.051a.525.525 0 01-.544-.517l-.518-382.269c0-.285.233-.544.544-.544.285 0 .544.233.544.544l.519 381.699.958-.026-.233-146.238zm4.691-20.118a.51.51 0 01-.544.518c-.285 0-.544-.259-.518-.544l.466-19.755a.51.51 0 01.544-.518c.285 0 .519.259.519.544l-.467 19.755zm6.401-.388a.547.547 0 01-.544.543.53.53 0 01-.544-.543V98.413c0-.31.233-.544.544-.544.285 0 .544.233.544.544v19.212zM718.67-98.78c0-.284.234-.543.545-.543.285 0 .544.233.544.543l.389 472.114a.548.548 0 01-.545.544.531.531 0 01-.544-.544l-.389-472.113zm16.638 471.803a.547.547 0 01-.544.544.531.531 0 01-.544-.544l.052-470.586c0-.284.233-.543.544-.543.285 0 .544.233.544.543l-.052 470.586zm-4.716-471.13c0-.284.233-.543.544-.543.285 0 .544.233.544.543v471.259a.547.547 0 01-.544.544.531.531 0 01-.544-.544V-98.107zm-2.333 471.337a.531.531 0 01-.544.544.532.532 0 01-.545-.544V-98.469c0-.31.234-.544.545-.544.311 0 .544.233.544.544V373.23zm-5.131-471.75c0-.311.233-.544.544-.544.311 0 .545.233.545.543v471.829a.548.548 0 01-.545.544.531.531 0 01-.544-.544V-98.521zm-8.475 471.775a.531.531 0 01-.544.544.547.547 0 01-.544-.544v-62.477c0-.285.233-.544.544-.544.311 0 .544.233.544.544v62.477zm-7.386-62.502c0-.311.233-.544.544-.544.311 0 .544.233.544.544V373.1a.531.531 0 01-.544.544.531.531 0 01-.544-.544v-62.347zm-4.872 52.794c0-.311.233-.544.545-.544.285 0 .544.233.544.544v9.269a.531.531 0 01-.544.544.531.531 0 01-.545-.544v-9.269zm-5.235 8.829a.53.53 0 01-.544.543.53.53 0 01-.544-.543V-96.449c0-.285.233-.544.544-.544.311 0 .544.233.544.544v468.825zm-5.986-.57a.532.532 0 01-.545.544.531.531 0 01-.544-.544v-61.13c0-.311.233-.544.544-.544.311 0 .545.233.545.544v61.13zm-5.676-.829a.531.531 0 01-.544.544.531.531 0 01-.544-.544v-61.131c0-.284.233-.543.544-.543a.53.53 0 01.544.543v61.131zm-5.442-1.035a.531.531 0 01-.544.544.548.548 0 01-.545-.544v-61.131c0-.31.234-.543.545-.543a.53.53 0 01.544.543v61.131zm-5.676-.234a.547.547 0 01-.544.544.547.547 0 01-.544-.544l.078-61.804c0-.285.233-.544.544-.544.285 0 .544.233.544.544l-.078 61.804zm-4.613-1.139a.547.547 0 01-.544.544.531.531 0 01-.544-.544l.104-61.933c0-.285.233-.544.544-.544.285 0 .544.233.544.544l-.104 61.933zm-4.353-1.139a.532.532 0 01-.545.544.531.531 0 01-.544-.544v-60.172c0-.311.233-.544.544-.544.311 0 .545.233.545.544v60.172zm-3.655-1.191a.531.531 0 01-.544.544.547.547 0 01-.544-.544v-58.516c0-.284.233-.543.544-.543a.53.53 0 01.544.543v58.516zm-3.861-.984c0 .31-.233.544-.544.544a.548.548 0 01-.544-.544v-58.516c0-.311.233-.544.544-.544.311 0 .544.233.544.544v58.516zm-2.54-.621a.53.53 0 01-.544.543.53.53 0 01-.544-.543v-58.413a.53.53 0 01.544-.543.53.53 0 01.544.543v58.413zm-1.84-.803a.531.531 0 01-.544.544.531.531 0 01-.544-.544v-57.687a.53.53 0 01.544-.543.53.53 0 01.544.543v57.687zm72.512-63.824a.531.531 0 01-.544.544.531.531 0 01-.544-.544V106.75c0-.311.233-.544.544-.544.311 0 .544.233.544.544v193.257zm6.22-136.76c0-.311.234-.544.545-.544.311 0 .544.233.544.544v120.915a.547.547 0 01-.544.544.548.548 0 01-.545-.544V163.247z"/><path d="M826.428 247.835c.285 0 .544.233.544.544a.547.547 0 01-.544.544l-391.275-2.434a.547.547 0 01-.544-.544c0-.285.233-.544.544-.544l391.275 2.434z"/><path d="M637.891 239.576c.285 0 .545.207.545.518 0 .285-.208.544-.519.544l-163.942 6.084c-.286 0-.545-.233-.545-.518 0-.284.208-.543.519-.543l163.942-6.085zm-2.073 49.013c.285 0 .544.233.544.518 0 .31-.233.543-.518.543l-191.102 5.619-24.776.958a.565.565 0 01-.57-.518c0-.285.207-.544.518-.569 71.942-2.797 143.962-4.428 215.904-6.551z"/><path d="M426.73 306.507a.513.513 0 01-.337-.674.512.512 0 01.674-.336l14.694 4.738V70.657c0-.31.233-.544.544-.544.311 0 .545.233.545.544V310.96c0 .052 0 .104-.026.155a.512.512 0 01-.674.337l-15.42-4.945z"/><path d="M442.305 256.509c.285 0 .545.233.545.544a.548.548 0 01-.545.543l-21.872-.155a.532.532 0 01-.545-.544c0-.285.234-.543.545-.543l21.872.155zm-.026-9.632c.311 0 .545.233.545.518 0 .285-.234.544-.519.544l-21.872.492c-.286 0-.545-.233-.545-.518 0-.285.208-.518.467-.544l14.746-1.942c.285-.052.57.181.596.466.052.285-.182.57-.467.596l-4.949.647 11.998-.259zM470.035 93.96c0-.311.233-.544.544-.544.311 0 .545.233.545.544v215.939c0 .31-.234.543-.545.543a.53.53 0 01-.544-.543V93.959zm-11.221 213.504a.532.532 0 01-.545.544.531.531 0 01-.544-.544V83.395a.53.53 0 01.544-.543c.311 0 .545.233.545.543v224.069z"/><path d="M445.234 110.479a.552.552 0 01-.493-.595.551.551 0 01.596-.492l169.411 16.752a.538.538 0 01.493.543v163.042a.532.532 0 01-.545.544.531.531 0 01-.544-.544v-162.55l-168.918-16.7z"/><path d="M614.178 287.942a.531.531 0 01-.544.544.531.531 0 01-.544-.544V129.044L456.507 113.56a.551.551 0 01-.492-.595.551.551 0 01.596-.492l157.023 15.535c.285 0 .519.233.519.544v159.39h.025zm-166.404-174.46c0-.31.233-.544.544-.544.311 0 .544.234.544.544v191.834a.547.547 0 01-.544.543.547.547 0 01-.544-.543V113.482zm-1.27 181.218a.548.548 0 01-.544.543.547.547 0 01-.545-.543l.648-184.636c0-.285.233-.543.544-.543.285 0 .545.233.545.543l-.648 184.636z"/><path d="M444.741 109.935c0-.31.234-.543.545-.543.285 0 .544.233.544.543v184.791a.531.531 0 01-.544.544.532.532 0 01-.545-.544V109.935zm3.577 182.667a.526.526 0 01-.544-.518c0-.31.233-.543.518-.543l165.342-4.868c.311 0 .544.233.544.518 0 .285-.233.543-.518.543l-165.342 4.868z"/><path d="M577.041 288.304a.547.547 0 01-.544.544.547.547 0 01-.544-.544V150.559a.53.53 0 01.544-.543.53.53 0 01.544.543v137.745zm-3.887 0a.547.547 0 01-.544.544.532.532 0 01-.545-.544V150.559c0-.31.234-.543.545-.543.285 0 .544.233.544.543v137.745zm2.125 0a.548.548 0 01-.545.544.547.547 0 01-.544-.544V150.559a.53.53 0 01.544-.543c.311 0 .545.233.545.543v137.745zm-40.17 0a.531.531 0 01-.544.544.531.531 0 01-.544-.544V122.181a.53.53 0 01.544-.543.53.53 0 01.544.543v166.123zm2.1 0a.531.531 0 01-.544.544.532.532 0 01-.545-.544V122.181c0-.31.234-.543.545-.543.285 0 .544.233.544.543v166.123zm-44.368 0a.531.531 0 01-.544.544.531.531 0 01-.544-.544V144.319c0-.311.233-.544.544-.544.311 0 .544.233.544.544v143.985zm3.395 0a.531.531 0 01-.544.544.532.532 0 01-.545-.544V144.319c0-.311.234-.544.545-.544.311 0 .544.233.544.544v143.985z"/><path d="M613.686 154.158c.285.026.518.285.492.57a.525.525 0 01-.57.492l-165.342-12.791c-.285-.026-.518-.285-.493-.57a.527.527 0 01.571-.492l165.342 12.791zm0-1.139c.285.026.518.285.492.569a.525.525 0 01-.57.492l-160.703-12.454a.524.524 0 01-.492-.569.524.524 0 01.57-.492l160.703 12.454zm0-2.589c.285.026.518.285.492.57-.026.285-.285.518-.57.492l-165.342-12.791c-.285-.026-.518-.285-.493-.569.026-.285.286-.518.571-.492l165.342 12.79zm-139.764-23.536a.551.551 0 01-.492-.595.551.551 0 01.596-.492l95.266 8.751a.552.552 0 01.493.596.551.551 0 01-.596.492l-95.267-8.752z"/><path d="M568.437 86.633c0-.311.233-.544.544-.544.311 0 .545.233.545.544V306.17a.548.548 0 01-.545.544.547.547 0 01-.544-.544V86.633z"/><path d="M569.162 331.803a.547.547 0 01-.544.544.547.547 0 01-.544-.544L567.011 1.008c0-.285.234-.544.545-.544.285 0 .544.233.544.544l1.062 330.795zM526.454 81.247c0-.285.233-.544.544-.544.285 0 .544.233.544.544l.207 226.528a.547.547 0 01-.544.544.547.547 0 01-.544-.544l-.207-226.528zm-19.93 236.73a.547.547 0 01-.544.543.547.547 0 01-.544-.543l-.622-272.228c0-.285.233-.544.544-.544.285 0 .544.233.544.544l.622 272.228z"/><path d="M769.18-131.767a.57.57 0 01.752.13c.181.233.103.569-.13.751L458.58 83.861a.448.448 0 01-.362.078L163.686 47.613a.61.61 0 01-.363-.182l-38.848-42.54-13.865-.155a.56.56 0 01-.544-.518l-.492-9.71a.55.55 0 01.518-.57l14.435.156a.56.56 0 01.544.518l.156 9.502 38.77 42.463L458.14 82.852l311.04-214.619zM111.129 3.674l13.035.155-.155-8.622-13.321-.155.441 8.622z"/><path d="M124.138-5a.511.511 0 01.052-.75c.234-.207.57-.181.752.052l39.184 43.86c.104.104.13.234.13.363v8.57a.531.531 0 01-.544.544.532.532 0 01-.545-.544v-8.363L124.138-4.999z"/><path d="M163.66 39.043c-.285-.026-.493-.31-.467-.595.026-.285.311-.492.596-.467l89.254 11.315c.259.026.441.233.467.492l.647 8.337c0 .078 0 .13-.025.208l-1.944 7.819a.565.565 0 01-.596.414l-92.156-10.693c-.13-.026-.26-.078-.337-.181L1.764-108.204a.51.51 0 01.026-.751.511.511 0 01.752.026l157.23 163.792 91.509 10.59 1.814-7.302-.622-7.819-88.813-11.289z"/><path d="M263.228 49.995c-.078.285-.389.44-.674.362-.285-.077-.44-.388-.363-.673l2.747-9.27-92.804-11.884a.497.497 0 01-.363-.18L143.394-5a.617.617 0 01-.13-.362l.156-8.234a.54.54 0 01.207-.414.534.534 0 01.751.078l28.223 34.617 93.037 12.739a.56.56 0 01.518.544v5.98c0 .053 0 .104-.026.156l-2.902 9.89zm1.84-10.642v-4.92l-92.83-12.712a.507.507 0 01-.337-.207L144.482-12.12l-.129 6.577 28.092 33.012 92.623 11.884z"/><path d="M171.797 21.177c0-.31.26-.544.545-.518a.51.51 0 01.518.544l-.156 6.81c0 .284-.259.543-.544.517-.285 0-.544-.259-.518-.543l.155-6.81z"/><path d="M262.762 49.296c.285.026.492.311.466.596-.026.285-.311.492-.596.466L155.885 36.765a.809.809 0 01-.337-.156L1.765-128.452a.531.531 0 11.777-.725l153.68 164.906 106.54 13.567z"/><path d="M462.261 80.16c.285.026.518.31.466.595-.026.285-.311.518-.596.466L155.237 44.196c-.285-.026-.492-.285-.466-.596l.233-14.318c0-.31.259-.544.544-.544.285 0 .544.26.519.544l-.208 13.878 306.402 37zm-303.11-31.563c-.286-.026-.519-.31-.467-.595.026-.285.311-.518.596-.466l299.067 35.342c.285.026.493.31.467.596-.026.284-.311.517-.596.466L159.151 48.597z"/><path d="M458.296 89.584c.285.026.492.311.466.596a.564.564 0 01-.596.466l-53.646-6.784c-.259-.026-.44-.259-.466-.492l-.57-6.317c-.026-.181.052-.337.181-.466l6.246-5.308a.608.608 0 01.414-.13l47.297 5.49c.259.025.44.233.466.491l.726 6.215c.026.284-.182.57-.467.595-.285.026-.57-.181-.596-.466l-.674-5.8-46.648-5.437-5.857 4.971.493 5.619 53.231 6.757z"/><path d="M404.961 83.732a.533.533 0 01-.726-.777l5.805-5.385-.311-5.852c-.026-.285.208-.544.519-.57.285-.025.544.208.57.518l.337 6.059c0 .155-.052.337-.182.44l-6.012 5.567zm-6.168-16.829a.564.564 0 01-.467-.596.564.564 0 01.596-.466l62.587 8.7c.285.052.492.31.466.595a.574.574 0 01-.622.466l-62.56-8.7zM638.461-54.168a.521.521 0 01.752.13.52.52 0 01-.13.75L463.66 73.764a.521.521 0 01-.752-.13.52.52 0 01.13-.75L638.461-54.168z"/><path d="M524.121 28.868c.285.051.493.31.441.621a.536.536 0 01-.622.44c-17.312-2.77-38.589-3.314-59.166-.854-17.933 2.123-35.323 6.55-49.11 13.748-21.665 11.315-29.544 22.837-29.57 22.889a.57.57 0 01-.544.233l-37.37-4.842c-.104 0-.182-.052-.285-.104-.156-.103-.208-.258-.208-.44v-5.903c0-.104.026-.233.104-.31.44-.674 23.48-36.094 90.86-49.61C506.473-8.883 551.255 2.794 551.385 2.82c.259.078.44.311.414.57l-.181 6.473c0 .285-.259.518-.544.518h-.078c-.881-.13-52.505-8.26-107.576 1.838-50.976 9.347-73.912 27.86-80.753 33.375-.597.492-1.063.854-1.452 1.139-3.783 2.822-10.081 10.926-11.973 13.386l36.178 4.687c1.322-1.813 9.771-12.506 29.752-22.966 13.916-7.276 31.461-11.704 49.499-13.853 20.654-2.46 42.035-1.916 59.45.88zM348.75 54.785v4.143c2.306-2.977 8.137-10.357 11.766-13.075.336-.26.829-.648 1.425-1.114 6.893-5.566 29.984-24.209 81.246-33.607 52.246-9.58 101.408-2.823 107.342-1.942l.156-5.463c-4.639-1.114-47.944-10.797-111.826 2.02-65.178 13.075-88.528 46.682-90.109 49.038zM661.759.878a.547.547 0 01-.544.544.547.547 0 01-.544-.544v-80.627c0-.31.233-.544.544-.544.311 0 .544.233.544.544V.878zm-3.68 2.382a.547.547 0 01-.544.544.531.531 0 01-.544-.544v-79.384c0-.31.233-.544.544-.544.285 0 .544.233.544.544V3.26zm-2.617 1.942a.53.53 0 01-.544.543.532.532 0 01-.545-.543v-79.178c0-.31.234-.543.545-.543.285 0 .544.233.544.543V5.202zm-2.333 2.046a.53.53 0 01-.544.543.531.531 0 01-.544-.543v-78.116c0-.285.233-.544.544-.544.285 0 .544.233.544.544V7.248zm-2.254 2.615a.53.53 0 01-.544.543.548.548 0 01-.545-.543v-78.116c0-.285.234-.544.545-.544.311 0 .544.233.544.544V9.863zm13.139 87.903a.547.547 0 01-.544.544.547.547 0 01-.544-.544l-.519-183.677c0-.285.234-.544.545-.544.285 0 .544.233.544.544l.518 183.677z"/><path d="M653.57 130.726c0 .285-.233.544-.518.544a.547.547 0 01-.544-.544l-.519-123.505c0-.284.233-.543.519-.543.285 0 .544.233.544.543l.518 123.505z"/><path d="M652.508 105.507c0 .285-.234.544-.519.544a.547.547 0 01-.544-.544l-.518-96.37c0-.284.233-.543.518-.543.285 0 .544.233.544.543l.519 96.37z"/><path d="M650.02 117.754l46.441-7.845 23.946-11.962v-5.593c-3.265.026-21.07.389-41.854 4.92-19.255 4.194-24.439 7.56-27.03 9.243-.518.337-.933.596-1.348.829-1.088.543-1.658 1.139-1.969 1.708-.285.544-.311 1.062-.311 1.45v5.697c.337.388 1.295 1.32 2.125 1.553zm46.7-6.784l-46.648 7.872h-.208c-1.296-.285-2.747-1.813-2.928-2.02a.526.526 0 01-.156-.388v-5.904c0-.492.052-1.191.441-1.942.389-.725 1.114-1.501 2.436-2.175.363-.181.752-.44 1.244-.75 2.643-1.735 7.93-5.179 27.393-9.4 23.143-5.022 42.579-4.945 42.631-4.945.285 0 .544.234.544.544v6.473a.531.531 0 01-.311.492l-24.309 12.143c-.025-.025-.077 0-.129 0z"/><path d="M647.868 114.699a.551.551 0 01-.596.492.551.551 0 01-.492-.595c0-.026.207-4.48 21.277-10.668 7.645-2.227 15.523-3.702 22.676-4.686 12.336-1.657 22.495-1.839 25.475-1.839h4.717c.285 0 .544.233.544.544 0 .31-.233.544-.544.544h-4.717c-2.98 0-13.087.155-25.346 1.812-7.1.958-14.953 2.408-22.52 4.635-20.344 5.981-20.474 9.761-20.474 9.761z"/><path d="M690.422 99.785c0-.285.233-.544.544-.544.311 0 .545.233.545.544l.025 18.875a.547.547 0 01-.544.544.547.547 0 01-.544-.544l-.026-18.875zm-5.598 1.554c0-.285.234-.544.545-.544.285 0 .544.233.544.544l.026 18.875a.548.548 0 01-.544.544.547.547 0 01-.545-.544l-.026-18.875zm-5.753.777c0-.311.233-.544.544-.544.285 0 .544.233.544.544l.026 19.73a.53.53 0 01-.544.543.53.53 0 01-.544-.543l-.026-19.73zm-10.34 2.045c0-.311.233-.544.544-.544.311 0 .544.233.544.544l.026 20.61a.531.531 0 01-.544.544.531.531 0 01-.544-.544l-.026-20.61zm-8.189 2.382c0-.311.233-.544.544-.544.311 0 .544.233.544.544l.026 18.771a.531.531 0 01-.544.544.532.532 0 01-.545-.544l-.025-18.771zm-3.422 1.373c0-.285.234-.544.545-.544.311 0 .544.233.544.544l.026 18.797a.547.547 0 01-.544.544.532.532 0 01-.545-.544l-.026-18.797zm-2.824 1.061a.53.53 0 01.544-.543c.285 0 .544.233.544.543l.026 18.772a.531.531 0 01-.544.544.531.531 0 01-.544-.544l-.026-18.772zm-3.318 1.865c0-.311.234-.544.545-.544.311 0 .544.233.544.544l.026 18.771a.532.532 0 01-.545.544.531.531 0 01-.544-.544l-.026-18.771zm-1.943 3.132a.53.53 0 01.544-.543.53.53 0 01.544.543l.026 16.468a.546.546 0 01-.544.543.547.547 0 01-.544-.543l-.026-16.468z"/><path d="M649.994 114.725a.536.536 0 11-.855-.647c.026-.026 4.353-6.007 27.729-12.376.285-.078.596.103.648.388.078.285-.078.596-.363.647-23.013 6.292-27.133 11.962-27.159 11.988zm.103 15.768a.536.536 0 01-.699.311.535.535 0 01-.311-.699s.907-2.745 16.715-6.939c15.627-4.143 21.536-4.065 21.562-4.065a.53.53 0 01.544.543.531.531 0 01-.544.544c-.026 0-5.805-.078-21.277 4.039-15.29 4.065-15.99 6.266-15.99 6.266zm68.625-33.141c0 .284-.233.543-.518.543a.526.526 0 01-.544-.517l-.156-5.49c0-.284.233-.543.518-.543.311 0 .545.233.545.518l.155 5.489zm-2.099.31c0 .285-.233.544-.519.544-.285 0-.544-.233-.544-.518l-.155-5.489c0-.285.233-.544.518-.544.285 0 .544.233.544.518l.156 5.49zm-2.981.285c0 .285-.233.544-.518.544-.285 0-.544-.233-.544-.518l-.13-5.877c0-.285.233-.544.519-.544.285 0 .544.233.544.518l.129 5.877zm-2.358 0c0 .285-.233.544-.518.544-.285 0-.544-.233-.544-.518l-.156-5.489c0-.285.234-.544.519-.544.285 0 .544.234.544.518l.155 5.49zm-2.514.336c0 .285-.233.544-.518.544-.285 0-.544-.233-.544-.518l-.156-5.489c0-.285.234-.544.519-.544.285 0 .544.233.544.518l.155 5.49zm-3.058-.103c0 .285-.233.544-.518.544-.285 0-.544-.234-.544-.518l-.156-5.49c0-.284.234-.543.519-.543.285 0 .544.233.544.518l.155 5.489zm-5.338.517a.526.526 0 01-.519.544c-.285 0-.544-.233-.544-.518l-.155-5.489c0-.31.233-.544.518-.544.311 0 .544.234.544.518l.156 5.49zm-5.494.855c0 .285-.234.544-.519.544-.285 0-.544-.233-.544-.518l-.155-5.49c0-.284.233-.543.518-.543.311 0 .544.233.544.518l.156 5.489zm-2.592.233c0 .285-.233.544-.518.544-.285 0-.544-.233-.544-.518l-.156-5.489c0-.285.234-.544.519-.544.285 0 .544.233.544.518l.155 5.49zm-2.462.363c0 .284-.233.543-.518.543-.285 0-.544-.233-.544-.518l-.156-5.489c0-.284.233-.543.518-.543.286 0 .545.233.545.517l.155 5.49zm-2.514.44c0 .285-.233.544-.518.544-.285 0-.544-.233-.544-.518l-.156-5.49c0-.284.233-.543.518-.543.286 0 .545.233.545.518l.155 5.489zm-2.643.259c0 .285-.233.544-.518.544-.285 0-.545-.234-.545-.518l-.155-5.49c0-.284.233-.543.518-.543.285 0 .545.233.545.518l.155 5.489zm-2.462.595c0 .285-.233.544-.518.544a.526.526 0 01-.544-.518l-.156-5.489c0-.284.233-.543.518-.543.285 0 .545.233.545.517l.155 5.489zm-2.488.441c0 .285-.233.544-.518.544-.285 0-.544-.233-.544-.518l-.156-5.49c0-.284.233-.543.519-.543.285 0 .544.233.544.518l.155 5.489z"/><path d="M677.154 102.608c0 .284-.234.543-.519.543-.285 0-.544-.233-.544-.518l-.155-5.489c0-.285.233-.543.518-.543.285 0 .544.233.544.517l.156 5.49zm-2.722.724c0 .285-.233.544-.518.544-.285 0-.544-.233-.544-.518l-.156-5.49c0-.284.234-.543.519-.543.285 0 .544.233.544.518l.155 5.489zm-1.995.363c0 .285-.233.544-.518.544-.285 0-.544-.233-.544-.518l-.156-5.489c0-.285.233-.543.518-.543.311 0 .545.233.545.517l.155 5.489zm-2.281.725c0 .285-.233.544-.518.544-.285 0-.544-.233-.544-.518l-.156-5.49c0-.284.233-.543.519-.543.285 0 .544.233.544.518l.155 5.489zm-1.943.647c0 .285-.234.544-.519.544-.285 0-.544-.233-.544-.518l-.155-5.489c0-.284.233-.543.518-.543.311 0 .544.233.544.517l.156 5.489zm-1.763.363c0 .285-.233.544-.518.544-.285 0-.545-.233-.545-.518l-.155-5.49c0-.284.233-.543.518-.543.285 0 .544.233.544.518l.156 5.489zm-3.654 1.138c0 .285-.233.544-.518.544-.285 0-.544-.233-.544-.518l-.156-5.489c0-.285.233-.543.518-.543.285 0 .545.233.545.517l.155 5.489zm-2.177.701c0 .284-.233.543-.518.543-.285 0-.544-.233-.544-.517l-.156-5.49c0-.284.233-.543.518-.543.285 0 .545.233.545.518l.155 5.489zm-1.762.673c0 .284-.233.543-.519.543-.285 0-.544-.233-.544-.518l-.155-5.489c0-.285.233-.543.518-.543.311 0 .544.233.544.517l.156 5.49zm-1.322.621c0 .284-.233.543-.518.543-.285 0-.544-.233-.544-.518l-.156-5.489c0-.284.233-.543.518-.543.286 0 .545.233.545.518l.155 5.489zm-1.295.544c0 .284-.234.543-.519.543-.285 0-.544-.233-.544-.518l-.156-5.489c0-.284.234-.543.519-.543.311 0 .544.233.544.517l.156 5.49zm-1.348.621c0 .284-.234.543-.519.543-.285 0-.544-.233-.544-.517l-.155-5.49c0-.31.233-.543.518-.543.285 0 .544.233.544.518l.156 5.489zm-2.54 1.036a.526.526 0 01-.518.544.526.526 0 01-.544-.518l-.156-5.489c0-.311.233-.544.518-.544.285 0 .545.233.545.518l.155 5.489z"/><path d="M651.341 111.515c0 .285-.233.543-.518.543a.525.525 0 01-.544-.517l-.156-5.489c0-.285.234-.544.519-.544.311 0 .544.233.544.518l.155 5.489z"/><path d="M650.331 112.473c0 .31-.234.544-.519.544-.285 0-.544-.234-.544-.518l-.155-5.489c0-.285.233-.544.518-.544.311 0 .544.233.544.518l.156 5.489zm-1.141.698a.526.526 0 01-.518.544c-.285 0-.544-.233-.544-.518l-.156-5.489c0-.285.233-.544.519-.544.311 0 .544.233.544.518l.155 5.489zm111.93 19.031c-.285.078-.57-.129-.648-.414-.077-.285.104-.57.415-.647l65.411-14.681c.285-.078.57.129.648.414.078.285-.104.57-.415.647l-65.411 14.681zm-126.261-2.486c.285.026.518.311.467.595-.026.285-.311.518-.597.467l-20.11-2.357c-.285-.026-.519-.31-.467-.595.026-.285.311-.518.596-.466l20.111 2.356zm85.211 62.97c.285-.078.57.103.648.414.077.285-.104.57-.415.647l-23.557 5.412-.078.026-45.845 3.081h-.078c-.389-.026-4.043-.181-4.043-1.994v-4.479c.078-.466.804-2.667 7.386-3.988 3.214-.647 12.336-1.605 22.184-2.485 11.455-1.036 23.894-1.968 29.103-2.123 9.667-.337 14.124-.026 14.15-.026.285.026.519.285.493.569-.026.285-.285.518-.57.492-.026 0-4.432-.31-14.047 0-5.183.182-17.596 1.088-29.025 2.124-9.796.88-18.867 1.838-22.054 2.485-6.091 1.191-6.505 2.796-6.531 3.029v4.376c0 .803 2.669.906 3.006.906l45.793-3.081 23.48-5.385z"/><path d="M647.609 200.634a.532.532 0 01-.751-.751s1.632-1.838 17.311-3.883c13.554-1.761 27.938-2.434 35.686-2.771l2.929-.129c6.479-.337 16.689-.233 16.715-.233.285 0 .545.233.545.543a.548.548 0 01-.545.544c-.026 0-10.184-.078-16.663.233l-2.929.13c-7.723.362-22.08 1.009-35.582 2.77-15.342 1.968-16.716 3.547-16.716 3.547zm64.79 12.377c-8.837.13-24.024.466-33.976 1.113-6.556.441-11.61.829-15.497 1.191-4.898.466-7.956.855-9.822 1.166-1.115.181-2.022.388-2.592.569.259.078.57.13 1.011.207 3.291.544 43.798-1.553 45.041-1.631l15.835-2.615zm-34.027.052c14.461-.958 40.091-1.217 41.076-1.217.259-.026.518.181.57.44a.55.55 0 01-.44.622l-22.858 3.806h-.052c-.129 0-41.854 2.175-45.301 1.605-.958-.155-1.554-.337-1.891-.544l-.052-.026c-.389-.259-.493-.569-.363-.906.078-.233.285-.414.596-.595.596-.311 1.762-.596 3.265-.829 1.866-.311 4.976-.699 9.9-1.165 3.939-.363 9.019-.777 15.55-1.191z"/><path d="M714.498 212.467a.547.547 0 01-.544.544.548.548 0 01-.545-.544l.078-19.082c0-.285.233-.544.544-.544.285 0 .545.233.545.544l-.078 19.082zm-5.52-.492a.547.547 0 01-.544.544.532.532 0 01-.545-.544l-.077-18.539c0-.285.233-.543.544-.543a.53.53 0 01.544.543l.078 18.539zm-17.882 1.036a.546.546 0 01-.544.543.547.547 0 01-.544-.543l.077-19.083c0-.284.234-.543.544-.543.286 0 .545.233.545.543l-.078 19.083zm-5.675.232a.548.548 0 01-.545.544.531.531 0 01-.544-.544l.078-19.082c0-.285.233-.544.544-.544.285 0 .545.233.545.544l-.078 19.082zm-5.443.285a.547.547 0 01-.544.544.547.547 0 01-.544-.544l.077-19.082c0-.285.234-.544.545-.544.285 0 .544.233.544.544l-.078 19.082zm-5.727.881a.547.547 0 01-.544.544.548.548 0 01-.545-.544l.078-24.364c0-.311.233-.544.544-.544.311 0 .545.233.545.544l-.078 24.364zm-12.673.57a.547.547 0 01-.544.543.547.547 0 01-.544-.543l.077-18.021c0-.311.234-.544.545-.544.285 0 .544.233.544.544l-.078 18.021zm-3.473.31a.547.547 0 01-.544.544.547.547 0 01-.544-.544l.077-18.021c0-.31.234-.543.545-.543a.53.53 0 01.544.543l-.078 18.021zm-2.747.569a.547.547 0 01-.544.544.547.547 0 01-.544-.544l.077-18.02c0-.311.233-.544.544-.544.311 0 .545.233.545.544l-.078 18.02zm-5.338 1.373a.548.548 0 01-.545.544.531.531 0 01-.544-.544l.078-18.02c0-.285.233-.544.544-.544.285 0 .544.233.544.544l-.077 18.02zm68.702-23.717c0 .285-.259.544-.544.518a.547.547 0 01-.544-.543l.077-5.826c0-.311.26-.544.545-.544.311 0 .544.259.544.544l-.078 5.851zm-2.618-.155a.547.547 0 01-.544.544c-.285 0-.544-.259-.518-.544l.078-5.8a.53.53 0 01.544-.543c.285 0 .544.259.518.543l-.078 5.8z"/><path d="M713.798 193.411a.51.51 0 01-.544.518.547.547 0 01-.544-.544l.077-5.8c0-.285.26-.544.545-.518a.51.51 0 01.518.544l-.052 5.8zm-2.721-.078a.547.547 0 01-.544.544c-.285 0-.544-.259-.518-.544l.077-5.8c0-.311.26-.544.545-.544.285 0 .544.259.518.544l-.078 5.8zm-11.066.595c0 .285-.259.544-.544.518-.285 0-.545-.259-.519-.544l.078-5.799a.51.51 0 01.544-.518c.285 0 .545.233.519.544l-.078 5.799zm-5.312.207a.511.511 0 01-.545.518.51.51 0 01-.518-.544l.078-5.799c0-.285.259-.544.544-.518.285 0 .544.259.518.544l-.077 5.799zm-2.463.285c0 .31-.259.543-.544.543a.564.564 0 01-.544-.543l.078-5.8c0-.285.259-.544.544-.544.311 0 .544.259.544.544l-.078 5.8zm-2.436.208c0 .31-.259.543-.544.543-.285 0-.544-.258-.518-.543l.078-5.8c0-.311.233-.544.544-.544.311 0 .544.259.544.544l-.104 5.8zm-2.747.077a.531.531 0 01-.544.544c-.285 0-.544-.259-.519-.544l.078-5.8c0-.311.259-.544.544-.544.285 0 .545.259.519.544l-.078 5.8zm-2.954.285a.51.51 0 01-.544.518c-.285 0-.544-.259-.519-.544l.078-5.8c0-.285.259-.544.544-.518.285 0 .545.233.519.544l-.078 5.8zm-2.436 0a.565.565 0 01-.544.544c-.285 0-.545-.259-.519-.544l.078-5.8c0-.31.233-.544.544-.544.285 0 .545.259.519.544l-.078 5.8zm-2.592.492a.531.531 0 01-.544.544c-.285 0-.544-.259-.518-.544l.077-5.8c0-.284.26-.543.545-.543.285 0 .544.259.518.543l-.078 5.8zm-2.073 0a.51.51 0 01-.544.518c-.285 0-.545-.233-.519-.544l.078-5.8c0-.284.259-.543.544-.517.286 0 .545.258.519.543l-.078 5.8zm-9.356 1.01a.51.51 0 01-.544.518c-.285 0-.544-.259-.518-.544l.078-5.8c0-.285.259-.544.544-.518a.51.51 0 01.518.544l-.078 5.8zm-5.909.517a.51.51 0 01-.544.518c-.285 0-.544-.259-.518-.544l.078-5.799c0-.285.259-.544.544-.518a.51.51 0 01.518.544l-.078 5.799zm-1.088.259a.547.547 0 01-.544.544c-.285 0-.544-.259-.519-.544l.078-5.799c0-.311.233-.544.544-.544.286 0 .545.259.519.544l-.078 5.799zm-1.97.285c0 .285-.259.544-.544.518a.547.547 0 01-.544-.544l.078-5.799c0-.285.259-.544.544-.518.311 0 .544.259.544.544l-.078 5.799zm-1.347.233a.565.565 0 01-.544.544c-.285 0-.544-.259-.519-.544l.078-5.8c0-.311.233-.544.544-.544.285 0 .545.259.519.544l-.078 5.8zm-1.374.156c0 .285-.259.544-.544.518-.285 0-.544-.259-.518-.544l.077-5.8c0-.284.234-.543.545-.518a.51.51 0 01.518.544l-.078 5.8zm-1.27.336a.51.51 0 01-.544.518c-.285 0-.544-.259-.518-.544l.077-5.8c0-.285.259-.543.545-.518a.51.51 0 01.518.544l-.078 5.8zm-2.591.518a.53.53 0 01-.544.543.547.547 0 01-.544-.543l.077-5.8c0-.311.259-.544.544-.544.286 0 .545.259.519.544l-.052 5.8zm-1.244.285a.51.51 0 01-.544.517.53.53 0 01-.544-.543l.078-5.8c0-.285.259-.544.544-.518.285.026.544.259.518.544l-.052 5.8zm-1.218.362c0 .285-.26.544-.545.518a.51.51 0 01-.518-.544l.078-5.8a.51.51 0 01.544-.518c.285 0 .544.259.518.544l-.077 5.8z"/><path d="M648.594 200.09c0 .285-.259.544-.544.518a.53.53 0 01-.544-.543l.078-5.8c0-.285.259-.544.544-.518.285 0 .544.259.544.544l-.078 5.799zM542.34 8.62a.547.547 0 01-.544.544.531.531 0 01-.545-.544V1.603c0-.31.233-.543.545-.543a.53.53 0 01.544.543V8.62zm-9.2-.854a.53.53 0 01-.544.543.532.532 0 01-.545-.543V.749c0-.285.234-.544.545-.544.311 0 .544.233.544.544v7.017zm-8.993-.596a.547.547 0 01-.544.544.531.531 0 01-.544-.544V-.261c0-.31.233-.544.544-.544.311 0 .544.233.544.544V7.17zm-9.044-.492c0 .31-.234.544-.545.544a.531.531 0 01-.544-.544V-.753c0-.285.233-.544.544-.544.311 0 .545.233.545.544v7.43zm-9.304-.104a.531.531 0 01-.544.544.547.547 0 01-.545-.544v-7.43c0-.311.234-.544.545-.544a.53.53 0 01.544.543v7.431zm-8.786.286a.547.547 0 01-.544.543.547.547 0 01-.544-.544V-.57c0-.311.233-.544.544-.544.311 0 .544.233.544.544v7.43zm-8.992.18c0 .31-.233.544-.544.544a.532.532 0 01-.545-.544V-.39c0-.312.234-.545.545-.545.285 0 .544.233.544.544V7.04zm-8.708.44a.547.547 0 01-.544.544.548.548 0 01-.545-.543V.05c0-.311.234-.544.545-.544.311 0 .544.233.544.544v7.43zm-8.993.648a.547.547 0 01-.544.544.547.547 0 01-.544-.544V.697c0-.31.233-.544.544-.544.311 0 .544.233.544.544v7.431zm-8.63.672a.547.547 0 01-.544.545.531.531 0 01-.544-.544V1.37c0-.31.233-.544.544-.544.285 0 .544.233.544.544V8.8zm-8.785 1.348a.53.53 0 01-.544.543.532.532 0 01-.545-.543V2.717c0-.285.234-.544.545-.544.285 0 .544.233.544.544v7.43zm-7.801 1.295a.547.547 0 01-.544.543.547.547 0 01-.544-.543V4.012c0-.311.233-.544.544-.544a.53.53 0 01.544.543v7.432zM437.2 12.84c0 .31-.233.544-.544.544a.532.532 0 01-.545-.544V5.409c0-.31.234-.544.545-.544.311 0 .544.233.544.544v7.431zm-7.412 1.839c0 .31-.233.544-.544.544a.531.531 0 01-.544-.544V7.248c0-.31.233-.544.544-.544.311 0 .544.233.544.544v7.43zm-6.997 1.968a.53.53 0 01-.544.543.532.532 0 01-.545-.543V9.216c0-.285.234-.544.545-.544.285 0 .544.233.544.544v7.43zm-7.127 2.123a.547.547 0 01-.544.543.531.531 0 01-.544-.543v-7.431c0-.311.233-.544.544-.544.311 0 .544.233.544.544v7.43zm-6.557 1.967a.531.531 0 01-.544.544.531.531 0 01-.544-.544v-7.43c0-.285.233-.544.544-.544.285 0 .544.233.544.543v7.431zm-6.323 2.357a.547.547 0 01-.544.544.547.547 0 01-.545-.544v-7.431c0-.31.234-.544.545-.544.311 0 .544.233.544.544v7.43zm-5.987 2.122a.531.531 0 01-.544.544.531.531 0 01-.544-.544v-6.654a.53.53 0 01.544-.543.53.53 0 01.544.543v6.654zm-5.753 2.746a.53.53 0 01-.544.543.531.531 0 01-.544-.543v-6.655a.53.53 0 01.544-.543.53.53 0 01.544.543v6.655zm-5.027 2.51a.532.532 0 01-.545.544.531.531 0 01-.544-.544v-6.654c0-.31.233-.544.544-.544.311 0 .545.233.545.544v6.654zm-5.054 2.719c0 .31-.233.544-.544.544a.531.531 0 01-.544-.544v-6.654c0-.31.233-.544.544-.544.311 0 .544.233.544.544v6.654zm-4.483 2.615a.532.532 0 01-.545.544.531.531 0 01-.544-.544v-6.654c0-.31.233-.544.544-.544.311 0 .545.233.545.544v6.654zm-4.38 2.098c0 .31-.233.544-.544.544a.532.532 0 01-.545-.544v-5.386c0-.285.234-.543.545-.543a.53.53 0 01.544.543v5.386zm-7.49 5.748c0 .31-.233.544-.544.544a.547.547 0 01-.544-.544v-5.386a.53.53 0 01.544-.543.53.53 0 01.544.543v5.386zm-6.557 5.903c0 .31-.233.544-.544.544a.531.531 0 01-.544-.544V44.17c0-.311.233-.544.544-.544.311 0 .544.233.544.544v5.385zm-5.183 5.333a.547.547 0 01-.544.544.547.547 0 01-.544-.544v-5.385c0-.311.233-.544.544-.544.311 0 .544.233.544.544v5.385zm83.164 250.79a.547.547 0 01-.544.544.532.532 0 01-.545-.544V110.375c0-.207.104-.362.26-.466l6.764-4.66c.233-.182.57-.104.751.129.181.233.104.57-.129.751l-6.583 4.531v195.018h.026zm31.151 3.625a.532.532 0 01-.545.544.547.547 0 01-.544-.544V73.738c0-.31.233-.544.544-.544.311 0 .545.233.545.544v235.565zM461.82 69.596c0-.285.233-.544.544-.544a.53.53 0 01.544.543v238.698a.531.531 0 01-.544.544.547.547 0 01-.544-.544V69.596z"/><path d="M448.292 239.576a.531.531 0 01-.544-.544c0-.311.233-.544.544-.544l163.372 1.606c.311 0 .545.233.545.543a.532.532 0 01-.545.544l-163.372-1.605zm0-2.589a.547.547 0 01-.544-.544c0-.311.233-.544.544-.544l163.372 1.606c.311 0 .545.233.545.543a.548.548 0 01-.545.544l-163.372-1.605zM466.718 83.94c.285.052.492.31.467.595-.026.285-.311.492-.597.466l-8.37-1.061c-.285-.026-.493-.311-.467-.596.026-.285.311-.492.596-.466l8.371 1.062zm-4.302 3.262c.285.026.518.31.466.595-.026.285-.311.492-.596.466l-41.568-4.945-.078 17.322c0 .155-.078.31-.181.414l-2.748 2.46a.511.511 0 01-.751-.052.618.618 0 01-.13-.363V84.923c0-.181.078-.336.234-.44.699-.544 2.228-1.994 2.954-2.278.078-.026.181-.052.259-.026l42.139 5.023zm-42.839 13.205l.052-16.571-1.762 1.372v16.7l1.71-1.501z"/><path d="M448.266 85.675a.521.521 0 01.752.13.52.52 0 01-.13.75l-32.68 23.639a.52.52 0 01-.751-.129.52.52 0 01.129-.751l32.68-23.64zm-30.269 25.244a.535.535 0 01-.674-.829l8.008-6.395a.431.431 0 01.388-.104l32.395 3.392 3.913-2.304a.519.519 0 01.726.207c.155.259.078.595-.181.725l-4.069 2.382a.393.393 0 01-.337.078l-32.369-3.366-7.8 6.214z"/><path d="M448.033 86.114c0-.31.233-.544.544-.544.311 0 .544.233.544.544v27.368a.547.547 0 01-.544.544.531.531 0 01-.544-.544V86.114zm-22.884 17.97c0-.311.233-.544.544-.544.311 0 .545.233.545.544v206.824a.548.548 0 01-.545.544.547.547 0 01-.544-.544V104.084zm4.406 201.827a.547.547 0 01-.544.544.547.547 0 01-.545-.544V101.572c0-.285.234-.544.545-.544.311 0 .544.233.544.544v204.339z"/><path d="M425.979 114.647a.55.55 0 01-.752-.155.548.548 0 01.156-.751l16.611-11.211c.26-.156.597-.104.752.155.156.259.104.596-.155.751l-16.612 11.211zm22.054 1.683a.517.517 0 01.725.207.518.518 0 01-.207.725l-31.047 17.969a.52.52 0 01-.726-.207.518.518 0 01.208-.725l31.047-17.969zm.026 18.021a.548.548 0 01.725.233.549.549 0 01-.233.725l-30.943 15.846a.551.551 0 01-.726-.234.55.55 0 01.233-.725l30.944-15.845z"/><path d="M440.647 127.981l-14.824-1.009-5.39 3.262 14.901 1.217 5.313-3.47zm-14.927-2.097l16.586 1.139a.51.51 0 01.44.233c.156.259.104.596-.155.751l-6.816 4.454a.396.396 0 01-.337.077l-16.768-1.372c-.155-.026-.336-.103-.414-.259a.545.545 0 01.181-.751l6.972-4.22c.103-.052.207-.078.311-.052zm.025-22.345a.552.552 0 01.493.596.551.551 0 01-.596.492c-1.789-.156-8.345-.984-8.371-.984-.285-.026-.492-.311-.467-.596.026-.284.311-.492.596-.466.026 0 6.557.803 8.345.958zm32.473 4.48c-.285-.026-.518-.311-.467-.596.026-.284.311-.517.596-.466l8.371.984c.285.026.518.311.467.596-.052.285-.311.518-.596.466l-8.371-.984z"/><path d="M417.634 311.892a.532.532 0 01-.545.544.547.547 0 01-.544-.544V102.789c0-.311.233-.544.544-.544.311 0 .545.233.545.544v209.103zm.699-201.283c0-.311.234-.57.545-.57.31 0 .544.259.544.57v184.583c0 .311-.234.57-.544.57-.311 0-.545-.259-.545-.57V110.609z"/><path d="M420.847 311.581a.547.547 0 01-.544.544.531.531 0 01-.544-.544v-15.405l-2.696-.337-228.472 6.758-186.412 5.67a.526.526 0 01-.544-.518c0-.285.233-.544.518-.544l186.412-5.67 228.498-6.758h.13l3.188.389a.538.538 0 01.492.543l-.026 15.872z"/><path d="M188.565 301.535c.285 0 .544.233.544.518a.526.526 0 01-.518.544L2.179 306.481c-.285 0-.544-.233-.544-.518 0-.285.233-.544.518-.544l186.412-3.884z"/><path d="M46.21 362.2a.546.546 0 01-.544.543.547.547 0 01-.545-.543l1.71-412.251-45.04-45.415a.53.53 0 11.75-.75l45.224 45.543a.526.526 0 01.155.389L46.21 362.2z"/><path d="M27.525-51.501c0-.31.233-.544.544-.544.31 0 .544.233.544.544l-1.607 413.028a.547.547 0 01-.544.544.547.547 0 01-.544-.544l1.607-413.028z"/><path d="M144.897 71.252c.207.207.233.544.052.75a.535.535 0 01-.752.053L1.79-56.11a.534.534 0 01-.051-.751c.207-.207.544-.233.751-.052L144.897 71.252zm9.9 1.942a.51.51 0 01-.052-.751.511.511 0 01.751-.052l3.732 3.133V48.26L1.765-122.42a.53.53 0 01.025-.75.531.531 0 01.752.025l157.567 170.81a.55.55 0 01.182.388v28.61c0 .13-.052.234-.13.337a.511.511 0 01-.751.052l-4.613-3.858z"/><path d="M160.161 47.69a.508.508 0 01-.052.751.51.51 0 01-.751-.052L1.764-130.16c-.207-.208-.18-.544.052-.751.234-.207.57-.182.752.052L160.16 47.69zm76.814 252.965a.547.547 0 01-.544.543.547.547 0 01-.544-.543l-.156-239.578-79.794-9.451v21.128a.547.547 0 01-.544.543.532.532 0 01-.545-.543V50.953c.026-.285.311-.518.597-.466l80.882 9.58c.26.026.467.259.467.544l.181 240.044z"/><path d="M161.561 51.834c0-.31.233-.544.544-.544.311 0 .544.233.544.544l.259 263.735a.547.547 0 01-.544.544.547.547 0 01-.544-.544l-.259-263.735z"/><path d="M144.897 302.985a.531.531 0 01-.544.544.548.548 0 01-.545-.544V291.67c0-.31.234-.543.545-.543l92.078-1.295c.285 0 .544.233.544.518 0 .285-.233.544-.518.544l-91.534 1.294v10.797h-.026zm-6.816.621c0-.285.233-.544.518-.544.285 0 .545.234.545.518l.129 4.35c0 .285-.233.544-.518.544-.285 0-.544-.233-.544-.518l-.13-4.35z"/><path d="M139.584 323.595c0 .285-.233.544-.518.544-.285 0-.544-.233-.544-.518l-.286-15.664c0-.233.156-.44.363-.518l7.464-2.667c.052-.026.13-.026.181-.026l78.136-1.217c.285 0 .544.233.544.518a.547.547 0 01-.544.544l-78.058 1.217-7.023 2.511.285 15.276zm104.311-18.849a.531.531 0 01-.544.544.532.532 0 01-.545-.544v-4.298c0-.311.234-.544.545-.544.285 0 .544.233.544.544v4.298z"/><path d="M241.848 300.526c0 .285-.26.518-.571.518-.311 0-.518-.259-.518-.57l.156-3.91c0-.285.259-.518.544-.518l11.999-.025a.53.53 0 01.544.543.547.547 0 01-.544.544l-11.507.026-.103 3.392zm-2.825.31a.547.547 0 01.933-.569l2.539 4.22a.688.688 0 01.078.311v15.276a.56.56 0 01-.518.544l-103.015 3.521c-.285 0-.544-.233-.544-.518 0-.31.233-.543.518-.543l102.471-3.496v-14.655l-2.462-4.091z"/><path d="M202.715 319.867a.574.574 0 01.622-.466c.285.051.492.31.466.621l-25.293 163.87a.574.574 0 01-.622.466.574.574 0 01-.467-.621l25.294-163.87zm53.205 163.844a.53.53 0 01-.441.621.53.53 0 01-.622-.44l-30.373-165.864-4.587-.078a.545.545 0 01-.493-.336l-1.036-2.408a.512.512 0 01.285-.699c.078-.026.129-.052.207-.052h5.676c.285 0 .518.207.544.492 9.044 56.03 20.603 112.837 30.84 168.764zm-35.635-166.796l4.043.078-.233-1.425h-4.38l.57 1.347z"/><path d="M225.08 315.025a.547.547 0 01-.544.544.547.547 0 01-.544-.544l.622-272.357c0-.31.233-.544.544-.544.311 0 .544.233.544.544l-.622 272.357zm-5.676 0a.547.547 0 01-.544.544.531.531 0 01-.544-.544c.155-71.591-5.339-163.274 1.296-232.328a.552.552 0 01.596-.492.551.551 0 01.492.596l-.803 8.363-.493 223.861z"/><path d="M235.783 95.202a.534.534 0 011.037.259l-2.203 8.26a.533.533 0 01-.57.388l-9.045-.026a.547.547 0 01-.544-.543c0-.311.233-.544.544-.544l8.682.026 2.099-7.82zm-10.807 17.814c.285 0 .544.233.544.543a.547.547 0 01-.544.544h-5.675a.547.547 0 01-.544-.544.53.53 0 01.544-.543h5.675z"/><path d="M225.054 103.047c.285.026.518.285.492.57a.533.533 0 01-.596.492l-78.783-6.602a.428.428 0 01-.311-.13L1.842-14.76a.537.537 0 01-.104-.75.557.557 0 01.674-.156l222.772 110.17 193.745 18.435a.552.552 0 01.493.596.551.551 0 01-.596.492L225.002 95.591a.487.487 0 01-.207-.052L6.688-12.353 146.426 96.445l78.628 6.602z"/><path d="M419.344 106.75a.551.551 0 01.492.595.55.55 0 01-.596.492l-231.271-22.63c-.156-.025-.285-.077-.363-.206L161.69 52.144a.534.534 0 01.078-.751.56.56 0 01.752.078l25.76 32.675 231.064 22.604z"/><path d="M197.48 88.86a.549.549 0 01-.493.595.548.548 0 01-.596-.492L174.674-133.76a.547.547 0 011.088-.103L197.48 88.859z"/><path d="M236.353 84.147a.552.552 0 01.493.595.552.552 0 01-.596.492l-90.057-9.062a.798.798 0 01-.337-.155l-4.25-4.22a.57.57 0 01-.156-.39l-.13-14.37c0-.284.234-.543.545-.543h.051l13.554 1.372a.552.552 0 01.493.596.534.534 0 01-.596.492l-12.932-1.32.103 13.567 3.966 3.935 89.849 9.01z"/><path d="M145.026 74.048c.285-.077.596.104.648.389.078.285-.104.595-.389.647l-.596.155-.052 9.995c30.529 2.848 61.317 5.023 91.716 8.932.285.026.493.311.467.596-.026.285-.311.492-.596.466l-11.248-1.45-80.909-7.535a.538.538 0 01-.492-.543l.078-10.849c-.026-.259.155-.492.388-.57l.985-.233zm44.187 41.557a.532.532 0 01-.752.751l-26.693-26.695a.532.532 0 01.752-.75l26.693 26.694zm-.026 18.254a.535.535 0 01.052.751c-.208.207-.545.233-.752.051l-26.667-23.717a.535.535 0 01-.052-.751c.207-.207.544-.233.751-.051l26.668 23.717zm-33.405-75.863a.531.531 0 01-.752.75L99.519 3.26H85.86l56.367 53.364c.207.207.233.543.026.75-.208.208-.545.233-.752.026L84.176 3.13a.54.54 0 01-.207-.413c0-.311.233-.544.544-.544h15.213c.13 0 .285.052.389.155l55.667 55.668zm-9.175-12.946a.531.531 0 01-.751.75L1.764-101.11a.531.531 0 11.752-.751l144.091 146.91zM1.765-115.04a.531.531 0 11.777-.725l24.024 26.177c3.136-.259 34.183-2.045 84.874 19.652 50.043 21.439 50.173 41.194 50.199 44.612v.336c.285 1.114.025 11.626.025 11.652v.078c0 .025-2.021 13.1-21.432 15.664-19.048 2.512-21.691 2.486-21.691 2.486a.532.532 0 01-.545-.544c0-.31.234-.544.545-.544 0 0 2.591.026 21.562-2.46 18.089-2.382 20.395-14.059 20.499-14.732.026-.7.259-10.357.026-11.289-.026-.13-.026-.31-.052-.595-.026-3.315-.13-22.475-49.525-43.628-52.246-22.37-83.448-19.652-84.589-19.55-.181.026-.363-.026-.466-.155L1.765-115.04z"/><path d="M125.072 2.172a.51.51 0 01-.052.751c-.234.207-.57.182-.752-.051L45.407-87.854a.51.51 0 01.052-.75.51.51 0 01.751.051l78.862 90.725zM1.765-124.672a.531.531 0 01.025-.751c.208-.181.57-.181.752.026L120.769 3.959a.53.53 0 11-.777.725L1.765-124.672zm99.334 465.77a.546.546 0 01-.544.543.53.53 0 01-.544-.543V-15.564a.53.53 0 01.544-.543.53.53 0 01.544.543v356.662z"/><path d="M75.961 23.974a.534.534 0 11.26-1.036c.077.026 29.906 7.12 37.292 12.687 3.732 2.822 5.831 5.204 6.608 7.276.856 2.2.285 4.039-1.373 5.618-3.084 2.952-10.366 3.444-10.392 3.444a.925.925 0 01-.285-.052L77.309 38.162a.587.587 0 01-.285-.724c.13-.26.44-.389.7-.26l30.658 13.697c.958-.077 7.023-.673 9.588-3.133 1.322-1.242 1.763-2.692 1.115-4.453-.726-1.89-2.695-4.117-6.272-6.81C105.66 31.042 76.065 24 75.961 23.974z"/><path d="M76.505-30.58c0-.311.233-.544.544-.544.311 0 .545.233.545.544v380.766a.531.531 0 01-.545.544.531.531 0 01-.544-.544V-30.58zM75.39-49.3c0-.31.234-.544.545-.544.311 0 .544.233.544.544v405.856a.531.531 0 01-.544.544.531.531 0 01-.544-.544V-49.3zm-4.042-.803c0-.31.233-.544.544-.544.285 0 .545.233.545.544V357.1c0 .31-.234.543-.545.543a.531.531 0 01-.544-.543V-50.103zm-4.613-1.268c0-.285.233-.544.544-.544.285 0 .545.233.545.544V357.1c0 .31-.234.544-.545.544a.532.532 0 01-.544-.544V-51.371zm-3.887-.156a.53.53 0 01.544-.543.53.53 0 01.544.543v409.041a.531.531 0 01-.544.544.531.531 0 01-.544-.544v-409.04zm-3.888-.363c0-.31.233-.544.544-.544.286 0 .545.233.545.544v409.56a.53.53 0 01-.544.543.531.531 0 01-.545-.543V-51.89zm-2.591-.336c0-.31.233-.544.544-.544.311 0 .544.234.544.544v409.559a.53.53 0 01-.544.543.547.547 0 01-.544-.543V-52.226z"/><path d="M69.275 347.286a.531.531 0 01-.544.544.531.531 0 01-.545-.544V-30.917c0-.31.233-.544.544-.544l8.32.31a.5.5 0 01.259.078c.673.363 19.98 10.59 23.972 14.94a.532.532 0 11-.778.725c-3.784-4.09-22.028-13.852-23.609-14.68l-7.62-.285v377.659z"/><path d="M56.913-51.035c-.285 0-.544-.233-.544-.518 0-.285.233-.544.518-.544.052 0 18.374-.544 40.506 9.036 22.314 9.658 23.48 19.16 23.48 19.186v68.718a.53.53 0 01-.544.543.532.532 0 01-.545-.544V-23.77c-.103-.647-1.917-9.243-22.831-18.306-21.899-9.476-39.988-8.958-40.04-8.958z"/><path d="M82.336 24.206a.531.531 0 01-.544.544.531.531 0 01-.544-.544v-72.109c0-.284.233-.543.544-.543.285 0 .544.233.544.543v72.11zm4.95 2.021a.53.53 0 01-.544.543.531.531 0 01-.544-.543V-46.53c0-.285.233-.544.544-.544.311 0 .544.233.544.544v72.756zm5.028 1.294c0 .31-.233.544-.544.544a.531.531 0 01-.544-.544v-72.264c0-.311.233-.544.544-.544.31 0 .544.233.544.544V27.52zm4.561 1.399a.53.53 0 01-.544.543.531.531 0 01-.544-.544v-72.264c0-.31.233-.544.544-.544.31 0 .544.233.544.544V28.92zm4.535 2.356c0 .31-.233.544-.544.544a.531.531 0 01-.544-.544v-72.264c0-.311.233-.544.544-.544a.53.53 0 01.544.543v72.265zm4.38.905a.531.531 0 01-.544.544.547.547 0 01-.544-.544v-70.918c0-.284.233-.543.544-.543.311 0 .544.233.544.544V32.18zm7.049 3.419a.53.53 0 01-.544.543.531.531 0 01-.544-.544v-69.546c0-.284.233-.543.544-.543.311 0 .544.233.544.544v69.545zm2.514 1.709a.547.547 0 01-.544.543.531.531 0 01-.544-.543V-31.85c0-.31.233-.544.544-.544.311 0 .544.233.544.544v69.157zm2.436 2.174c0 .31-.233.544-.544.544a.531.531 0 01-.544-.544v-68.898c0-.311.233-.544.544-.544.311 0 .544.233.544.544v68.898zm1.607 2.305c0 .31-.234.544-.545.544a.531.531 0 01-.544-.544v-68.95c0-.311.233-.544.544-.544.311 0 .545.233.545.544v68.95zm246.199 92.019c0-.284.233-.543.544-.543a.53.53 0 01.544.543v160.349a.531.531 0 01-.544.544.531.531 0 01-.544-.544V133.807zm-2.436 0a.53.53 0 01.544-.543.53.53 0 01.544.543v160.608a.531.531 0 01-.544.544.531.531 0 01-.544-.544V133.807zm-1.192.803c0-.285.233-.544.544-.544.311 0 .544.233.544.544v159.08a.531.531 0 01-.544.544.531.531 0 01-.544-.544V134.61zm-49.24-34.333a.53.53 0 01.544-.544.53.53 0 01.544.544v195.122a.53.53 0 01-.544.543.547.547 0 01-.544-.543V100.277zm-2.436 0a.53.53 0 01.544-.544.53.53 0 01.544.544v195.432a.531.531 0 01-.544.544.531.531 0 01-.544-.544V100.277zm-1.218.985c0-.311.233-.544.544-.544.311 0 .544.233.544.544V294.83a.53.53 0 01-.544.543.53.53 0 01-.544-.543V101.262zm-53.412 23.923a.53.53 0 01.544-.543.53.53 0 01.544.543v171.431a.531.531 0 01-.544.544.547.547 0 01-.544-.544V125.185zm-2.411 0c0-.31.234-.543.545-.543a.53.53 0 01.544.543v171.69a.547.547 0 01-.544.544.549.549 0 01-.545-.544v-171.69zm-1.218.88c0-.31.234-.544.545-.544.285 0 .544.234.544.544v170.033a.53.53 0 01-.544.543.532.532 0 01-.545-.543V126.065zm-63.856-41.427c0-.284.233-.543.544-.543.285 0 .544.233.544.543v217.078a.547.547 0 01-.544.544.531.531 0 01-.544-.544V84.638zm2.436 0c0-.284.233-.543.544-.543.311 0 .545.233.545.543v217.415a.532.532 0 01-.545.544.531.531 0 01-.544-.544V84.638zm1.218 1.088c0-.31.234-.543.545-.543.285 0 .544.233.544.543v215.318a.53.53 0 01-.544.543.532.532 0 01-.545-.543V85.726zm44.964 203.847c.207.207.233.544.026.751-.207.207-.544.233-.752.026l-1.814-1.709h-9.666a.532.532 0 01-.545-.544c0-.31.234-.543.545-.543h9.874c.129 0 .259.052.362.155l1.97 1.864z"/><path d="M192.375 298.738c-.286 0-.545-.233-.545-.517 0-.311.234-.544.519-.544l224.741-5.904c.285 0 .544.233.544.518 0 .285-.234.544-.519.544l-224.74 5.903zm32.316-54.372c.311 0 .545.233.545.544a.547.547 0 01-.545.543c-76.062-.647-146.06-4.298-222.564-8.414a.548.548 0 01-.518-.57.567.567 0 01.57-.518l144.065 7.742 78.447.673z"/><path d="M188.772 246.23a.551.551 0 01.492.596.55.55 0 01-.596.492l-26.434-2.408a.551.551 0 01-.492-.596.551.551 0 01.596-.492l26.434 2.408zm3.577-12.843a.547.547 0 01-.545-.543c0-.285.234-.544.545-.544l224.74 2.434c.286 0 .545.233.545.543a.532.532 0 01-.545.544l-224.74-2.434zm0 3.081a.547.547 0 01-.545-.543c0-.285.234-.544.545-.544l224.74 2.434c.286 0 .545.233.545.543a.548.548 0 01-.545.544l-224.74-2.434zm-.026-118.377a.526.526 0 01-.493-.57.525.525 0 01.57-.491l224.741 18.357a.526.526 0 01.493.57c-.026.284-.285.517-.57.491l-224.741-18.357zm0 3.081a.526.526 0 01-.493-.57c.026-.284.285-.518.57-.492l224.741 18.358a.525.525 0 01.493.569c-.026.285-.285.518-.57.492l-224.741-18.357z"/><path d="M414.213 311.892a.531.531 0 01-.544.544.547.547 0 01-.545-.544V102.789c0-.311.234-.544.545-.544.311 0 .544.233.544.544v209.103zm-2.022 0a.531.531 0 01-.544.544.531.531 0 01-.544-.544V102.789c0-.311.233-.544.544-.544.285 0 .544.233.544.544v209.103zm-3.006-209.103c0-.311.233-.544.544-.544.285 0 .545.233.545.544v209.103a.532.532 0 01-.545.544h-.051c-.778-.026-11.403-.363-15.317-.984a25.456 25.456 0 00-1.762-.233c-3.058-.363-4.198-.492-4.198-4.505v-25.556a.53.53 0 01.544-.543.53.53 0 01.544.543v25.556c0 3.029.881 3.159 3.24 3.443.518.052 1.088.13 1.814.233 3.498.544 12.362.881 14.668.958l-.026-208.559z"/><path d="M409.703 280.848c.285 0 .545.233.545.543a.532.532 0 01-.545.544c-.026 0-10.47.078-15.653-.078-5.261-.155-6.712-.595-6.712-.595a.585.585 0 01-.389-.544l.156-2.511c.026-.259.207-.466.441-.492.336-.078 3.498-.751 11.739-1.14 8.708-.414 10.392-.414 10.392-.414.285 0 .545.233.545.544a.548.548 0 01-.545.544s-1.736 0-10.34.414c-6.868.311-10.133.828-11.169 1.036l-.104 1.631c.7.129 2.41.336 6.012.466 5.209.129 15.601.052 15.627.052z"/><path d="M409.703 278.181c.286 0 .545.233.545.517 0 .285-.234.544-.519.544-.051 0-15.834.492-22.132-.492a.535.535 0 01-.44-.621.535.535 0 01.622-.44c6.168.983 21.873.492 21.924.492zm-3.835 3.21a.53.53 0 01.544-.543.53.53 0 01.544.543v30.372a.53.53 0 01-.544.543.547.547 0 01-.544-.543v-30.372zm-2.773 0a.53.53 0 01.544-.543.53.53 0 01.544.543v30.372a.53.53 0 01-.544.543.547.547 0 01-.544-.543v-30.372zm-2.514 0a.53.53 0 01.544-.543c.311 0 .545.233.545.543v30.372c0 .31-.234.543-.545.543a.547.547 0 01-.544-.543v-30.372zm-2.488 0a.53.53 0 01.544-.543c.311 0 .545.233.545.543v30.372c0 .31-.234.543-.545.543a.547.547 0 01-.544-.543v-30.372zm-2.358 0a.53.53 0 01.544-.543c.285 0 .544.233.544.543v29.75a.547.547 0 01-.544.544.531.531 0 01-.544-.544v-29.75zm-1.944 0c0-.31.234-.543.545-.543.285 0 .544.233.544.543v29.517a.531.531 0 01-.544.544.532.532 0 01-.545-.544v-29.517zm-2.099 0a.53.53 0 01.544-.543.53.53 0 01.544.543v29.232a.531.531 0 01-.544.544.531.531 0 01-.544-.544v-29.232zm-1.477 0a.53.53 0 01.544-.543.53.53 0 01.544.543v28.973a.531.531 0 01-.544.544.547.547 0 01-.544-.544v-28.973zm52.09-27.653c.311 0 .545.233.545.544a.532.532 0 01-.545.544h-23.427a.547.547 0 01-.545-.544c0-.285.234-.544.545-.544h23.427zm-16.612-19.729h16.172c.259 0 .492.181.544.466.052.285-.155.569-.466.621l-6.35.958h-16.715a.578.578 0 01-.545-.466c-.052-.285.156-.569.467-.621l6.79-.958h.103zm16.612-9.062c.285 0 .544.233.544.544a.547.547 0 01-.544.544h-16.56l-6.79 1.217a.55.55 0 01-.622-.44.55.55 0 01.441-.622l6.816-1.217h16.715v-.026zm-23.324-.233a.573.573 0 01-.647-.415.572.572 0 01.414-.647l6.816-1.45h16.716c.311 0 .544.233.544.544a.531.531 0 01-.544.544h-16.561l-6.738 1.424zm23.506-34.256l-6.816 2.512c-.078.026-.156.052-.233.026l-16.586-.881a.547.547 0 01-.519-.569c0-.233.182-.44.389-.492l6.79-2.253c.052-.026.129-.026.181-.026l16.612.648c.285 0 .519.259.519.543a.543.543 0 01-.337.492zm-7.101 1.476l4.172-1.527-13.787-.544-4.043 1.346 13.658.725zm4.25-10.357l-13.865-.543-4.017 1.294 13.658.855 4.224-1.606zm-13.917-1.631l16.561.648a.54.54 0 01.518.336.535.535 0 01-.311.699l-6.816 2.589c-.078.026-.155.052-.233.026l-16.612-1.061c-.207-.026-.415-.156-.467-.363-.077-.285.078-.595.337-.673l6.816-2.175c.052 0 .13-.026.207-.026z"/><path d="M442.331 178.186a.567.567 0 01.519.57.567.567 0 01-.571.517l-16.482-.88-6.712 2.46a.56.56 0 01-.7-.311.557.557 0 01.311-.699l6.816-2.511c.078-.026.13-.026.207-.026l16.612.88zm-52.712 56.781a.547.547 0 01-.544.543.548.548 0 01-.545-.543v-7.897h-.751a.531.531 0 01-.544-.544v-2.667c0-.207.103-.388.311-.492 0 0 .233-.129 4.872-.777 4.405-.621 16.43-.958 17.26-.984h.051c.286 0 .545.233.545.544v2.952c-.026.285-.285.518-.57.492 0 0-3.136-.233-9.097 0-4.95.207-9.563.906-10.988 1.139v8.234zm-1.011-8.985a.505.505 0 01.363-.233c.026 0 5.546-.984 11.558-1.217 4.536-.181 7.464-.077 8.63-.026v-1.786c-2.488.077-12.672.388-16.638.958-2.695.388-3.783.544-4.224.621v1.709l.311-.026z"/><path d="M389.852 226.06c0-.284.233-.543.544-.543a.53.53 0 01.544.543v8.907a.547.547 0 01-.544.544.547.547 0 01-.544-.544v-8.907zm1.918-.258c0-.311.233-.544.544-.544.311 0 .544.233.544.544v9.191a.531.531 0 01-.544.544.547.547 0 01-.544-.544v-9.191zm1.866 0c0-.311.233-.544.544-.544.285 0 .544.233.544.544v9.191a.531.531 0 01-.544.544.531.531 0 01-.544-.544v-9.191zm2.021-.441c0-.311.233-.544.544-.544.311 0 .544.233.544.544v9.658a.531.531 0 01-.544.544.547.547 0 01-.544-.544v-9.658zm2.514-.207c0-.311.233-.544.544-.544.311 0 .544.233.544.544v9.839a.531.531 0 01-.544.544.547.547 0 01-.544-.544v-9.839zm2.177-.103c0-.285.233-.544.544-.544.285 0 .544.233.544.544v9.942a.547.547 0 01-.544.544.531.531 0 01-.544-.544v-9.942zm3.006-.079a.53.53 0 01.544-.543c.311 0 .545.233.545.543v10.021c0 .31-.234.543-.545.543a.53.53 0 01-.544-.543v-10.021zm2.747 0c0-.31.234-.543.545-.543a.53.53 0 01.544.543v10.021a.53.53 0 01-.544.543.532.532 0 01-.545-.543v-10.021zm3.551-34.021c.285-.026.57.181.596.466.026.285-.182.57-.467.595l-13.45 1.528h-.13c-.544-.026-6.375-.311-7.126-1.553l-.026-.052c-.493-.855-.13-1.605 1.399-2.201 1.166-.466 3.188-.88 6.22-1.243 6.038-.725 13.061 0 13.061 0a.551.551 0 01.493.596.568.568 0 01-.596.492c-.026 0-6.894-.725-12.829 0-2.954.362-4.872.751-5.96 1.165-.7.259-.933.492-.855.647l.026.026c.466.777 5.701 1.01 6.245 1.036l13.399-1.502zm.051-12.04c.286 0 .545.233.545.544a.532.532 0 01-.545.544c-.025 0-7.645 0-12.88.802-3.861.596-6.945 1.709-8.293 2.253.752.518 2.592 1.243 6.894 1.139 6.738-.155 14.124-1.761 14.15-1.761.285-.051.57.13.648.415a.572.572 0 01-.415.647c-.026 0-7.49 1.631-14.357 1.787-7.127.181-8.319-2.124-8.345-2.124l-.026-.051a.52.52 0 01.259-.699s3.965-1.813 9.304-2.641c5.339-.855 13.061-.855 13.061-.855z"/><path d="M409.729 175.908c.285 0 .545.259.519.543a.532.532 0 01-.545.544c-.025 0-8.111-.078-13.839.88-4.613.777-6.893 1.839-7.593 2.227l-.155 2.771a.566.566 0 01-.57.517.547.547 0 01-.519-.569l.156-3.081c0-.156.103-.337.259-.415 0 0 2.358-1.527 8.215-2.511 5.831-.984 14.046-.906 14.072-.906zm-3.472 3.572c0-.285.233-.543.544-.543.285 0 .544.233.544.543v9.347a.531.531 0 01-.544.544.531.531 0 01-.544-.544v-9.347zm-2.981 0c0-.285.234-.543.545-.543a.53.53 0 01.544.543v9.347a.531.531 0 01-.544.544.532.532 0 01-.545-.544v-9.347z"/><path d="M400.737 179.48c0-.285.233-.543.544-.543a.53.53 0 01.544.543v9.347a.531.531 0 01-.544.544.531.531 0 01-.544-.544v-9.347zm-2.566 0c0-.285.233-.543.544-.543.285 0 .544.233.544.543v9.347a.531.531 0 01-.544.544.531.531 0 01-.544-.544v-9.347zm-2.488.855c0-.311.233-.544.544-.544.311 0 .545.233.545.544v8.492a.532.532 0 01-.545.544.531.531 0 01-.544-.544v-8.492zm-1.814.802c0-.284.233-.543.544-.543a.53.53 0 01.544.543v8.182a.547.547 0 01-.544.544.531.531 0 01-.544-.544v-8.182zm-2.177.337c0-.284.233-.543.544-.543a.53.53 0 01.544.543v8.182a.547.547 0 01-.544.544.531.531 0 01-.544-.544v-8.182z"/><path d="M390.63 181.707c0-.285.233-.544.544-.544.311 0 .544.233.544.544v8.182a.547.547 0 01-.544.543.53.53 0 01-.544-.543v-8.182zm-1.815.415c0-.311.234-.544.545-.544.311 0 .544.233.544.544v9.217a.531.531 0 01-.544.544.532.532 0 01-.545-.544v-9.217zm8.034 95.153a.531.531 0 01-.544.544.531.531 0 01-.544-.544V105.042c0-.311.233-.544.544-.544.285 0 .544.233.544.544v172.233z"/><path d="M409.574 130.363a.535.535 0 01.648.389.534.534 0 01-.389.647l-13.398 3.288a.222.222 0 01-.182 0c-.026 0-7.982-.828-7.8-4.505v-.104c.207-1.708 3.446-3.132 7.541-4.065 3.939-.88 8.708-1.346 12.258-1.165.545.026 1.037.078 1.503.13.285.026.519.31.467.595-.026.285-.311.492-.596.466-.467-.051-.933-.103-1.426-.129-3.472-.181-8.137.285-11.973 1.139-3.68.829-6.556 1.942-6.712 3.133v.026c-.129 2.46 5.909 3.288 6.738 3.392l13.321-3.237z"/><path d="M389.515 130.234a.531.531 0 01-.544.544.531.531 0 01-.544-.544v-22.552a.65.65 0 01.155-.388c.337-.363 4.224-4.35 12.569-4.712 8.526-.363 14.435-.078 14.461-.078a.56.56 0 01.518.544v35.782a.531.531 0 01-.544.544.547.547 0 01-.544-.544v-35.239c-1.607-.051-6.842-.181-13.865.104-7.334.311-10.962 3.495-11.714 4.22l.052 22.319z"/><path d="M406.697 125.392a.531.531 0 01-.544.544.531.531 0 01-.544-.544v-22.396c0-.311.233-.544.544-.544.285 0 .544.233.544.544v22.396zm-2.358.104a.531.531 0 01-.544.544.548.548 0 01-.545-.544v-22.422c0-.285.234-.544.545-.544.311 0 .544.233.544.544v22.422zm-2.98.285c0 .31-.234.543-.545.543a.53.53 0 01-.544-.543v-22.63c0-.311.233-.544.544-.544.311 0 .545.233.545.544v22.63zm-2.592.569a.531.531 0 01-.544.544.531.531 0 01-.544-.544v-22.63c0-.284.233-.543.544-.543.285 0 .544.233.544.543v22.63zm-3.965.648a.53.53 0 01-.544.543.53.53 0 01-.544-.543v-22.63c0-.285.233-.544.544-.544.311 0 .544.233.544.544v22.63zm-1.944.88a.547.547 0 01-.544.544.531.531 0 01-.544-.544v-22.629c0-.311.233-.544.544-.544.285 0 .544.233.544.544v22.629zm-1.788.725a.531.531 0 01-.544.544.531.531 0 01-.544-.544v-22.63c0-.284.233-.543.544-.543a.53.53 0 01.544.543v22.63zm24.024 10.253c0-.285.233-.544.544-.544.311 0 .544.234.544.544v153.513a.547.547 0 01-.544.544.547.547 0 01-.544-.544V138.856zM56.913 357.876a.526.526 0 01-.544-.517c0-.311.233-.544.518-.544.078 0 28.56-.829 44.083-3.418 13.554-2.252 18.089-5.178 18.996-5.877v-48.289c0-.285.233-.543.544-.543.285 0 .544.233.544.543v48.548a.467.467 0 01-.181.388s-4.017 3.677-19.696 6.292c-15.601 2.589-44.186 3.417-44.264 3.417z"/><path d="M77.024 303.477a.531.531 0 01-.545-.544c0-.311.234-.544.545-.544.052 0 13.32 0 25.578-1.294 11.663-1.217 17.183-2.305 17.727-2.408l1.632-.648-.077-3.858c-2.41-.284-13.943-1.527-26.642-.75-14.331.88-18.166 1.294-18.166 1.294a.548.548 0 01-.597-.492.548.548 0 01.493-.595s3.861-.415 18.219-1.295c14.383-.906 27.263.803 27.315.803a.53.53 0 01.466.518l.078 4.66c.026.233-.104.44-.337.544l-2.021.803c-.026.025-.078.025-.104.025-.026 0-5.52 1.14-17.882 2.434-12.336 1.347-25.63 1.347-25.682 1.347z"/><path d="M77.05 298.144a.531.531 0 01-.545-.544c0-.311.233-.544.544-.544.026 0 13.166-.103 25.476-.777 6.116-.336 10.262-.75 13.217-1.268 2.928-.518 4.69-1.114 6.09-1.813a.55.55 0 01.725.233.548.548 0 01-.233.725c-1.503.751-3.343 1.398-6.375 1.916-3.006.518-7.179.958-13.347 1.295-12.336.673-25.527.777-25.553.777zm4.742 57.919a.531.531 0 01-.544.544.547.547 0 01-.544-.544v-53.156c0-.311.233-.544.544-.544.31 0 .544.233.544.544v53.156zm5.158-.621a.531.531 0 01-.545.544.547.547 0 01-.544-.544v-53.156c0-.311.233-.544.544-.544.311 0 .544.233.544.544v53.156zm5.182-.285a.531.531 0 01-.544.544.531.531 0 01-.544-.544v-52.612c0-.311.233-.544.544-.544.311 0 .544.233.544.544v52.612zm4.769-.569a.531.531 0 01-.544.544.531.531 0 01-.544-.544v-52.379c0-.311.233-.544.544-.544.31 0 .544.233.544.544v52.379zm8.163-1.295a.531.531 0 01-.544.544.531.531 0 01-.544-.544v-51.706c0-.285.233-.544.544-.544.285 0 .544.233.544.544v51.706zm7.075-1.709a.531.531 0 01-.544.544.531.531 0 01-.544-.544v-51.473c0-.311.233-.544.544-.544.311 0 .544.233.544.544v51.473zm3.059-.957a.532.532 0 01-.545.544.531.531 0 01-.544-.544v-50.489c0-.285.233-.544.544-.544.285 0 .545.233.545.544v50.489zm2.202-.751a.531.531 0 01-.544.544.531.531 0 01-.544-.544v-49.842c0-.311.233-.544.544-.544.311 0 .544.233.544.544v49.842zm1.944-.985a.531.531 0 01-.544.544.532.532 0 01-.545-.544v-49.272c0-.311.234-.544.545-.544.311 0 .544.233.544.544v49.272zM75.935 219.173a.531.531 0 01-.544-.543c0-.311.233-.544.544-.544.052 0 16.508.078 27.678.958 5.598.44 9.615.803 12.31 1.113 2.851.337 4.302.699 4.509 1.114l.052.103c0 .026.026.078.026.104v.103a.525.525 0 01-.389.44h-.026a2.91 2.91 0 01-.907.259 41.26 41.26 0 01-2.436.259c-4.509.363-13.061.57-21.225-.026-11.843-.88-12.44-.802-12.44-.802-.284.052-.57-.156-.621-.466-.052-.285.155-.57.466-.622 0 0 .7-.077 12.673.803 8.112.596 16.586.388 21.07.026l.751-.052-1.607-.207c-2.643-.311-6.686-.673-12.258-1.113-11.221-.829-27.574-.907-27.626-.907zm1.089-21.594a.51.51 0 01-.519-.544c0-.284.26-.517.544-.517.026 0 13.45.336 26.668 1.864 13.269 1.553 18.4 3.418 18.426 3.418.233.077.363.31.363.543l.077 4.402a.55.55 0 01-.207.44c-.389.311-3.447 2.408-15.653 1.813-12.984-.648-25.682-2.434-25.708-2.434a.574.574 0 01-.467-.622.564.564 0 01.596-.466c.026 0 12.699 1.787 25.631 2.408 10.859.544 14.02-.958 14.746-1.424l-.078-3.806c-1.322-.414-6.634-1.942-17.83-3.262-13.217-1.502-26.563-1.813-26.59-1.813z"/><path d="M75.935 202.679a.547.547 0 01-.544-.543c0-.311.233-.544.544-.544.052 0 14.694 0 28.974 1.631 14.331 1.631 17.312 3.029 17.337 3.029.26.13.389.441.26.699-.13.259-.441.389-.7.259 0 0-2.851-1.346-17.001-2.951-14.228-1.58-28.818-1.58-28.87-1.58z"/><path d="M117.996 205.787c0-.311.234-.544.545-.544.285 0 .544.233.544.544v15.224a.547.547 0 01-.544.544.532.532 0 01-.545-.544v-15.224zm1.4.544c0-.311.233-.544.544-.544.285 0 .544.233.544.544v15.224a.531.531 0 01-.544.544.531.531 0 01-.544-.544v-15.224zm-3.006-1.217c0-.311.233-.544.544-.544.311 0 .544.233.544.544v15.225a.53.53 0 01-.544.543.547.547 0 01-.544-.543v-15.225zm-2.1-.182c0-.31.234-.543.545-.543a.53.53 0 01.544.543v15.225a.531.531 0 01-.544.544.532.532 0 01-.545-.544v-15.225zm-3.032.156c0-.311.233-.544.544-.544.311 0 .545.233.545.544v15.224a.532.532 0 01-.545.544.531.531 0 01-.544-.544v-15.224zm-7.101-1.347c0-.311.234-.544.545-.544.285 0 .544.233.544.544v15.949a.531.531 0 01-.544.544.548.548 0 01-.545-.544v-15.949zm-8.5-.803c0-.31.234-.543.544-.543.286 0 .545.233.545.543v15.95a.53.53 0 01-.544.543.531.531 0 01-.545-.543v-15.95zm-4.432-.284c0-.311.234-.544.545-.544.31 0 .544.233.544.544v15.95a.53.53 0 01-.544.543.547.547 0 01-.544-.543v-15.95zm-5.365-.259c0-.31.234-.543.545-.543a.53.53 0 01.544.543v15.95a.531.531 0 01-.544.544.547.547 0 01-.544-.544v-15.95zm-5.493-.181c0-.311.233-.544.544-.544.31 0 .544.233.544.544v15.949a.531.531 0 01-.544.544.547.547 0 01-.544-.544v-15.949zm-4.484-64.756c-.285-.026-.518-.285-.492-.569a.525.525 0 01.57-.492c.052 0 16.716 1.217 28.507 3.806 6.946 1.527 11.533 3.21 13.917 4.686.778.466 1.348.958 1.685 1.398.414.518.57 1.062.466 1.554-.026.155-.103.311-.181.466-1.192 1.916-12.103 3.392-12.129 3.418h-.207l-31.15-7.198a.573.573 0 01-.415-.648.573.573 0 01.648-.414l31.046 7.172c1.063-.155 10.419-1.501 11.274-2.9a.196.196 0 00.052-.129c.051-.155-.052-.388-.26-.647-.285-.337-.751-.725-1.425-1.14-2.306-1.424-6.764-3.055-13.58-4.557-11.636-2.589-28.274-3.806-28.326-3.806zm1.115-21.051c-.285-.025-.519-.284-.493-.569a.534.534 0 01.596-.492c.052 0 14.098 1.139 25.864 3.806 5.909 1.346 10.133 2.77 13.062 3.987 2.954 1.217 4.613 2.227 5.338 2.719l.026.026c.829.57 1.244 1.165 1.451 1.864.208.673.208 1.347.208 2.123 0 1.45-.259 3.781-.259 3.781-.026.155-.104.31-.234.388 0 0-2.876 2.02-8.655 2.744l-5.65.725c-.078 0-.156 0-.207-.025l-31.151-8.571a.532.532 0 01-.389-.647.533.533 0 01.648-.388l31.047 8.544 5.546-.725c4.639-.596 7.256-2.02 7.982-2.46.052-.621.207-2.252.207-3.417 0-.7 0-1.295-.155-1.813-.156-.466-.441-.88-1.037-1.294l-.026-.026c-.725-.466-2.306-1.45-5.157-2.641-2.877-1.191-7.049-2.59-12.88-3.936-11.662-2.563-25.657-3.677-25.682-3.703z"/><path d="M76.972 120.939a.551.551 0 01-.493-.595.551.551 0 01.596-.492c.052 0 15.394 1.553 26.357 4.298 5.494 1.372 10.185 2.744 13.579 4.22 3.525 1.528 5.65 3.211 5.78 5.178.026.285-.208.544-.493.57-.285.026-.544-.207-.57-.492-.104-1.502-1.995-2.9-5.131-4.272-3.291-1.424-7.956-2.771-13.399-4.143-10.91-2.718-26.174-4.246-26.226-4.272z"/><path d="M120.588 147.349a.547.547 0 01-.544.544.548.548 0 01-.545-.544v-16.364c0-.311.234-.544.545-.544.311 0 .544.233.544.544v16.364zm-1.918-1.994a.547.547 0 01-.544.544.531.531 0 01-.544-.544v-15.717a.53.53 0 01.544-.543c.285 0 .544.233.544.543v15.717zm-1.373-.751a.548.548 0 01-.545.544.531.531 0 01-.544-.544v-15.717a.53.53 0 01.544-.543c.311 0 .545.233.545.543v15.717zm-2.177-.906a.547.547 0 01-.544.543.532.532 0 01-.545-.543v-15.717c0-.31.234-.543.545-.543.285 0 .544.233.544.543v15.717zm-2.696-.984a.547.547 0 01-.544.544.531.531 0 01-.544-.544v-15.716c0-.311.233-.544.544-.544.311 0 .544.233.544.544v15.716zm-7.515-1.994a.531.531 0 01-.544.544.532.532 0 01-.545-.544v-15.716c0-.311.234-.544.545-.544.311 0 .544.233.544.544v15.716zm-8.138-1.501a.531.531 0 01-.544.544.531.531 0 01-.544-.544v-15.716c0-.285.233-.544.544-.544.311 0 .544.233.544.544v15.716zm-4.82-1.321c0 .31-.233.544-.544.544a.532.532 0 01-.544-.544v-15.717a.53.53 0 01.544-.543c.285 0 .544.233.544.543v15.717zm-4.587.078a.53.53 0 01-.544.543.547.547 0 01-.544-.543l-.104-16.209c0-.284.233-.543.544-.543.285 0 .544.233.544.543l.104 16.209zm-5.364-.57a.547.547 0 01-.545.544.547.547 0 01-.544-.544l.078-16.286c0-.285.233-.544.544-.544.285 0 .544.233.544.544L82 137.406z"/></g><defs><clipPath id="clip0_130_18700"><path fill="#fff" d="M0 0h827v634H0z"/></clipPath></defs></svg>