<?xml version="1.0" encoding="utf-8"?><svg xmlns="http://www.w3.org/2000/svg" xmlns:xlink="http://www.w3.org/1999/xlink"><symbol fill="none" viewBox="0 0 10 10" id="arrLink" xmlns="http://www.w3.org/2000/svg"><path d="M.98 8.869l7.347-7.347m0 0l-5.244-.266m5.244.266l.266 5.244" stroke="#F7F7FA" stroke-width="1.5"/></symbol><symbol fill="none" viewBox="0 0 142 24" id="logo" xmlns="http://www.w3.org/2000/svg"><path fill-rule="evenodd" clip-rule="evenodd" d="M.63 11.906v10.656a1.162 1.162 0 001.159 1.162h10.66a.816.816 0 00.577-1.396L2.028 11.325a.82.82 0 00-1.397.581zM18.398 1.648a.823.823 0 01.581 1.4L14.94 7.08a1.329 1.329 0 00-.398.967v5.538a.82.82 0 01-1.397.581L2.028 3.05a.82.82 0 01.576-1.4h15.794zM15.7 23.724h5.86a1.163 1.163 0 001.159-1.162V9.586a.82.82 0 00-1.397-.58l-6.366 6.366a1.328 1.328 0 00-.398.963v6.235a1.162 1.162 0 001.142 1.154zM141.992 18.91c-.389.312-.839.54-1.321.668a6.042 6.042 0 01-1.648.223c-1.448 0-2.57-.398-3.362-1.138-.792-.74-1.194-1.863-1.194-3.315V8.982h-2.387v-.59l4.874-4.886h.621v3.016h3.533v2.471h-3.533v6.284c-.038.531.13 1.057.469 1.468a1.763 1.763 0 001.361.51 2.716 2.716 0 001.731-.546l.864 2.2h-.008zm-28.172-1.366a3.978 3.978 0 002.061-.529 2.875 2.875 0 001.273-1.524v-1.528h-3.183c-1.78 0-2.67.585-2.67 1.755a1.592 1.592 0 00.668 1.337c.549.36 1.2.533 1.855.494l-.004-.005zm.417-11.272c1.945 0 3.433.465 4.465 1.396 1.032.932 1.545 2.337 1.54 4.218v7.74h-2.917v-1.592a3.603 3.603 0 01-1.619 1.325 6.369 6.369 0 01-2.535.458 6.194 6.194 0 01-2.594-.51 3.977 3.977 0 01-1.719-1.408 3.548 3.548 0 01-.605-2.042 3.487 3.487 0 011.321-2.853c.883-.716 2.272-1.074 4.166-1.074h3.41v-.199a2.713 2.713 0 00-.828-2.129c-.549-.493-1.372-.74-2.459-.74-.743 0-1.481.117-2.188.346a5.46 5.46 0 00-1.819.963l-1.193-2.248a7.493 7.493 0 012.499-1.214 11.137 11.137 0 013.087-.397l-.012-.04zM90.057 19.8c-1.061 0-2.117-.142-3.14-.422a7.812 7.812 0 01-2.447-1.063l1.194-2.347a7.737 7.737 0 002.14.95 8.881 8.881 0 002.46.359c1.856 0 2.785-.487 2.785-1.46a.971.971 0 00-.705-.963 11.885 11.885 0 00-2.264-.522 19.288 19.288 0 01-2.658-.565 4.118 4.118 0 01-1.778-1.126 3.152 3.152 0 01-.752-2.24 3.51 3.51 0 011.567-3c1.046-.75 2.46-1.126 4.242-1.126.915.001 1.826.104 2.718.306.78.16 1.53.44 2.224.832L94.45 9.76a7.294 7.294 0 00-3.78-.99 4.206 4.206 0 00-2.065.398 1.194 1.194 0 00-.704 1.074 1.07 1.07 0 00.752 1.05c.755.277 1.538.472 2.336.581.878.13 1.746.32 2.598.57a4.043 4.043 0 011.743 1.09c.518.6.78 1.38.728 2.172a3.446 3.446 0 01-1.592 2.969c-1.06.74-2.52 1.111-4.377 1.114l-.031.012zM78.612 8.353c.888-1.385 2.453-2.077 4.695-2.077v2.94a4.036 4.036 0 00-.716-.071 3.729 3.729 0 00-2.817 1.05c-.677.7-1.015 1.71-1.015 3.028v6.403h-3.084V6.423h2.945v1.93h-.008zm-12.021.398a3.732 3.732 0 00-2.511.88 3.689 3.689 0 00-1.25 2.335h7.493a3.641 3.641 0 00-1.213-2.324 3.677 3.677 0 00-2.52-.891zm6.673 4.353c0 .215 0 .517-.048.915H62.871a3.58 3.58 0 001.425 2.312c.832.59 1.834.888 2.853.852a4.81 4.81 0 003.581-1.433l1.66 1.902a5.61 5.61 0 01-2.253 1.592 8.89 8.89 0 01-6.896-.323 6.252 6.252 0 01-2.562-2.411 6.812 6.812 0 01-.9-3.498 6.911 6.911 0 01.876-3.473 6.224 6.224 0 012.435-2.412 7.107 7.107 0 013.514-.863 6.903 6.903 0 013.446.851 6.044 6.044 0 012.387 2.388c.587 1.1.88 2.334.852 3.581l-.024.02zM59.298 6.427L54.086 19.63h-3.184L45.69 6.427h3.215l3.653 9.793 3.776-9.793h2.964zM42.474 4.25a1.99 1.99 0 01-1.408-.529 1.823 1.823 0 010-2.646 1.99 1.99 0 011.408-.533 2.037 2.037 0 011.41.51 1.635 1.635 0 01.568 1.273 1.879 1.879 0 01-.557 1.372 1.923 1.923 0 01-1.42.553zM40.92 6.427h3.088V19.63h-3.088V6.423v.004zm-7.206 1.93c.888-1.385 2.453-2.077 4.695-2.077v2.94a4.034 4.034 0 00-.716-.071 3.728 3.728 0 00-2.818 1.05c-.676.7-1.014 1.71-1.014 3.028v6.403h-3.092V6.423h2.945v1.934zm72.936 10.556c-.39.313-.841.541-1.325.669a5.967 5.967 0 01-1.643.223c-1.448 0-2.571-.398-3.362-1.138-.792-.74-1.194-1.863-1.194-3.315V8.986h-2.388v-.593l4.875-4.87h.617v3.015h3.537V9.01h-3.537v6.268c-.041.532.126 1.06.465 1.472a1.753 1.753 0 001.357.51 2.72 2.72 0 001.731-.546l.867 2.2zm19.367-10.556c.891-1.385 2.457-2.077 4.699-2.077v2.94a4.07 4.07 0 00-.716-.071 3.733 3.733 0 00-2.822 1.05c-.673.7-1.01 1.71-1.01 3.028v6.403h-3.092V6.423h2.941v1.934z" fill="#F7F7FA"/></symbol></svg>