<?xml version="1.0" encoding="utf-8"?><svg xmlns="http://www.w3.org/2000/svg" xmlns:xlink="http://www.w3.org/1999/xlink"><symbol fill="none" viewBox="0 0 10 10" id="arrLink" xmlns="http://www.w3.org/2000/svg"><path d="M.98 8.869l7.347-7.347m0 0l-5.244-.266m5.244.266l.266 5.244" stroke="#F7F7FA" stroke-width="1.5"/></symbol><symbol fill="none" viewBox="0 0 142 24" id="logo" xmlns="http://www.w3.org/2000/svg"><path fill-rule="evenodd" clip-rule="evenodd" d="M.63 11.906v10.656a1.162 1.162 0 001.159 1.162h10.66a.816.816 0 00.577-1.396L2.028 11.325a.82.82 0 00-1.397.581zM18.398 1.648a.823.823 0 01.581 1.4L14.94 7.08a1.329 1.329 0 00-.398.967v5.538a.82.82 0 01-1.397.581L2.028 3.05a.82.82 0 01.576-1.4h15.794zM15.7 23.724h5.86a1.163 1.163 0 001.159-1.162V9.586a.82.82 0 00-1.397-.58l-6.366 6.366a1.328 1.328 0 00-.398.963v6.235a1.162 1.162 0 001.142 1.154zM141.992 18.91c-.389.312-.839.54-1.321.668a6.042 6.042 0 01-1.648.223c-1.448 0-2.57-.398-3.362-1.138-.792-.74-1.194-1.863-1.194-3.315V8.982h-2.387v-.59l4.874-4.886h.621v3.016h3.533v2.471h-3.533v6.284c-.038.531.13 1.057.469 1.468a1.763 1.763 0 001.361.51 2.716 2.716 0 001.731-.546l.864 2.2h-.008zm-28.172-1.366a3.978 3.978 0 002.061-.529 2.875 2.875 0 001.273-1.524v-1.528h-3.183c-1.78 0-2.67.585-2.67 1.755a1.592 1.592 0 00.668 1.337c.549.36 1.2.533 1.855.494l-.004-.005zm.417-11.272c1.945 0 3.433.465 4.465 1.396 1.032.932 1.545 2.337 1.54 4.218v7.74h-2.917v-1.592a3.603 3.603 0 01-1.619 1.325 6.369 6.369 0 01-2.535.458 6.194 6.194 0 01-2.594-.51 3.977 3.977 0 01-1.719-1.408 3.548 3.548 0 01-.605-2.042 3.487 3.487 0 011.321-2.853c.883-.716 2.272-1.074 4.166-1.074h3.41v-.199a2.713 2.713 0 00-.828-2.129c-.549-.493-1.372-.74-2.459-.74-.743 0-1.481.117-2.188.346a5.46 5.46 0 00-1.819.963l-1.193-2.248a7.493 7.493 0 012.499-1.214 11.137 11.137 0 013.087-.397l-.012-.04zM90.057 19.8c-1.061 0-2.117-.142-3.14-.422a7.812 7.812 0 01-2.447-1.063l1.194-2.347a7.737 7.737 0 002.14.95 8.881 8.881 0 002.46.359c1.856 0 2.785-.487 2.785-1.46a.971.971 0 00-.705-.963 11.885 11.885 0 00-2.264-.522 19.288 19.288 0 01-2.658-.565 4.118 4.118 0 01-1.778-1.126 3.152 3.152 0 01-.752-2.24 3.51 3.51 0 011.567-3c1.046-.75 2.46-1.126 4.242-1.126.915.001 1.826.104 2.718.306.78.16 1.53.44 2.224.832L94.45 9.76a7.294 7.294 0 00-3.78-.99 4.206 4.206 0 00-2.065.398 1.194 1.194 0 00-.704 1.074 1.07 1.07 0 00.752 1.05c.755.277 1.538.472 2.336.581.878.13 1.746.32 2.598.57a4.043 4.043 0 011.743 1.09c.518.6.78 1.38.728 2.172a3.446 3.446 0 01-1.592 2.969c-1.06.74-2.52 1.111-4.377 1.114l-.031.012zM78.612 8.353c.888-1.385 2.453-2.077 4.695-2.077v2.94a4.036 4.036 0 00-.716-.071 3.729 3.729 0 00-2.817 1.05c-.677.7-1.015 1.71-1.015 3.028v6.403h-3.084V6.423h2.945v1.93h-.008zm-12.021.398a3.732 3.732 0 00-2.511.88 3.689 3.689 0 00-1.25 2.335h7.493a3.641 3.641 0 00-1.213-2.324 3.677 3.677 0 00-2.52-.891zm6.673 4.353c0 .215 0 .517-.048.915H62.871a3.58 3.58 0 001.425 2.312c.832.59 1.834.888 2.853.852a4.81 4.81 0 003.581-1.433l1.66 1.902a5.61 5.61 0 01-2.253 1.592 8.89 8.89 0 01-6.896-.323 6.252 6.252 0 01-2.562-2.411 6.812 6.812 0 01-.9-3.498 6.911 6.911 0 01.876-3.473 6.224 6.224 0 012.435-2.412 7.107 7.107 0 013.514-.863 6.903 6.903 0 013.446.851 6.044 6.044 0 012.387 2.388c.587 1.1.88 2.334.852 3.581l-.024.02zM59.298 6.427L54.086 19.63h-3.184L45.69 6.427h3.215l3.653 9.793 3.776-9.793h2.964zM42.474 4.25a1.99 1.99 0 01-1.408-.529 1.823 1.823 0 010-2.646 1.99 1.99 0 011.408-.533 2.037 2.037 0 011.41.51 1.635 1.635 0 01.568 1.273 1.879 1.879 0 01-.557 1.372 1.923 1.923 0 01-1.42.553zM40.92 6.427h3.088V19.63h-3.088V6.423v.004zm-7.206 1.93c.888-1.385 2.453-2.077 4.695-2.077v2.94a4.034 4.034 0 00-.716-.071 3.728 3.728 0 00-2.818 1.05c-.676.7-1.014 1.71-1.014 3.028v6.403h-3.092V6.423h2.945v1.934zm72.936 10.556c-.39.313-.841.541-1.325.669a5.967 5.967 0 01-1.643.223c-1.448 0-2.571-.398-3.362-1.138-.792-.74-1.194-1.863-1.194-3.315V8.986h-2.388v-.593l4.875-4.87h.617v3.015h3.537V9.01h-3.537v6.268c-.041.532.126 1.06.465 1.472a1.753 1.753 0 001.357.51 2.72 2.72 0 001.731-.546l.867 2.2zm19.367-10.556c.891-1.385 2.457-2.077 4.699-2.077v2.94a4.07 4.07 0 00-.716-.071 3.733 3.733 0 00-2.822 1.05c-.673.7-1.01 1.71-1.01 3.028v6.403h-3.092V6.423h2.941v1.934z" fill="#F7F7FA"/></symbol><symbol fill="none" viewBox="0 0 122 20" id="logoMob" xmlns="http://www.w3.org/2000/svg"><path fill-rule="evenodd" clip-rule="evenodd" d="M0 9.767v9.158a.999.999 0 00.995.999h9.162a.702.702 0 00.495-1.2L1.2 9.268a.704.704 0 00-1.2.5zM15.269.951a.708.708 0 01.5 1.204L12.296 5.62a1.143 1.143 0 00-.342.831v4.76a.704.704 0 01-1.2.5L1.2 2.155A.705.705 0 011.696.951H15.27zM12.95 19.924h5.038a.999.999 0 00.995-.999V7.774a.704.704 0 00-1.2-.5l-5.472 5.472a1.143 1.143 0 00-.342.828v5.358a.998.998 0 00.982.992zM121.489 15.786a3.082 3.082 0 01-1.136.575 5.18 5.18 0 01-1.415.191c-1.245 0-2.21-.342-2.89-.978-.681-.636-1.026-1.6-1.026-2.848V7.253h-2.052v-.506l4.189-4.2h.534v2.593h3.036v2.123h-3.036v5.4c-.033.457.112.909.403 1.262a1.513 1.513 0 001.17.438 2.333 2.333 0 001.487-.469l.742 1.891h-.006zm-24.212-1.173a3.42 3.42 0 001.772-.455 2.473 2.473 0 001.094-1.31v-1.313h-2.736c-1.53 0-2.295.503-2.295 1.508a1.368 1.368 0 00.575 1.15 2.62 2.62 0 001.594.424l-.004-.004zm.36-9.688c1.67 0 2.949.4 3.836 1.2.887.8 1.328 2.009 1.324 3.625v6.652h-2.507v-1.368a3.1 3.1 0 01-1.392 1.139 5.472 5.472 0 01-2.178.393 5.322 5.322 0 01-2.23-.438 3.42 3.42 0 01-1.477-1.21 3.057 3.057 0 01-.52-1.755 2.997 2.997 0 011.135-2.452c.76-.615 1.953-.923 3.58-.923h2.931v-.171a2.332 2.332 0 00-.71-1.83c-.473-.424-1.18-.636-2.114-.636-.639 0-1.274.101-1.881.298-.569.174-1.1.455-1.563.827l-1.026-1.932a6.446 6.446 0 012.148-1.043 9.575 9.575 0 012.653-.342l-.01-.034zM76.854 16.552a10.23 10.23 0 01-2.699-.362 6.713 6.713 0 01-2.103-.913l1.026-2.018c.569.364 1.189.64 1.84.817a7.636 7.636 0 002.113.308c1.596 0 2.394-.418 2.394-1.255a.835.835 0 00-.605-.827 10.206 10.206 0 00-1.946-.448 16.58 16.58 0 01-2.284-.486 3.54 3.54 0 01-1.529-.968 2.709 2.709 0 01-.646-1.925 3.017 3.017 0 011.347-2.579c.898-.645 2.114-.967 3.646-.967.785.001 1.569.09 2.335.263a6.56 6.56 0 011.912.715L80.63 7.924a6.268 6.268 0 00-3.249-.851 3.614 3.614 0 00-1.775.342 1.026 1.026 0 00-.605.923.92.92 0 00.646.903c.65.238 1.323.405 2.008.5.754.111 1.5.274 2.233.488.572.178 1.087.5 1.498.937.445.516.67 1.187.626 1.867a2.961 2.961 0 01-1.368 2.551c-.912.637-2.166.956-3.762.958l-.027.01zm-9.836-9.838c.764-1.19 2.11-1.785 4.036-1.785v2.527a3.469 3.469 0 00-.616-.062 3.204 3.204 0 00-2.421.903c-.581.602-.872 1.47-.872 2.602v5.503h-2.65V5.055h2.53v1.659h-.007zm-10.33.342a3.208 3.208 0 00-2.158.755 3.17 3.17 0 00-1.074 2.008h6.44a3.129 3.129 0 00-1.044-1.997 3.16 3.16 0 00-2.165-.766zm5.734 3.74c0 .186 0 .445-.04.787H53.49a3.078 3.078 0 001.224 1.987 3.99 3.99 0 002.452.732 4.135 4.135 0 003.078-1.231l1.426 1.635a4.823 4.823 0 01-1.935 1.367 7.638 7.638 0 01-5.927-.277 5.373 5.373 0 01-2.202-2.072 5.854 5.854 0 01-.773-3.006 5.94 5.94 0 01.752-2.985A5.35 5.35 0 0153.68 5.66a6.108 6.108 0 013.02-.742 5.933 5.933 0 012.961.732 5.195 5.195 0 012.052 2.052c.504.946.756 2.006.732 3.078l-.02.017zM50.42 5.06l-4.48 11.346h-2.735L38.725 5.06h2.763l3.14 8.415 3.245-8.415h2.547zM35.962 3.188a1.71 1.71 0 01-1.21-.455 1.566 1.566 0 010-2.274 1.71 1.71 0 011.21-.458c.444-.013.877.143 1.21.437a1.407 1.407 0 01.49 1.095 1.615 1.615 0 01-1.04 1.543c-.21.082-.435.12-.66.112zm-1.337 1.87h2.653v11.347h-2.653V5.055v.004zm-6.194 1.66c.764-1.191 2.11-1.786 4.036-1.786v2.527a3.467 3.467 0 00-.616-.061 3.204 3.204 0 00-2.421.902c-.581.602-.872 1.47-.872 2.603v5.502h-2.657V5.055h2.53v1.662zm62.684 9.072a3.078 3.078 0 01-1.139.574c-.46.13-.935.194-1.412.192-1.245 0-2.21-.342-2.89-.978-.68-.636-1.026-1.6-1.026-2.85v-5.47h-2.052v-.51l4.19-4.186h.53v2.592h3.04v2.124h-3.04v5.386c-.035.457.108.91.4 1.265a1.504 1.504 0 001.166.438 2.336 2.336 0 001.487-.469l.746 1.892zm16.644-9.073c.766-1.19 2.112-1.785 4.038-1.785v2.527a3.499 3.499 0 00-.615-.061 3.215 3.215 0 00-2.425.902c-.579.602-.869 1.47-.869 2.603v5.502h-2.657V5.055h2.528v1.662z" fill="#1F2032"/></symbol></svg>