<?xml version="1.0" encoding="utf-8"?><svg xmlns="http://www.w3.org/2000/svg" xmlns:xlink="http://www.w3.org/1999/xlink"><symbol viewBox="0 0 16 16" id="arr" xmlns="http://www.w3.org/2000/svg"><g clip-path="url(#aclip0_101_2488)"><path d="M8.13 7.561L.74.173a.616.616 0 00-.87.87l6.952 6.953-6.952 6.953a.616.616 0 00.87.87l7.39-7.386c.24-.24.24-.63 0-.871z"/></g><defs><clipPath id="aclip0_101_2488"><path d="M0 0h16v16H0z"/></clipPath></defs></symbol><symbol viewBox="0 0 13 23" id="facebook" xmlns="http://www.w3.org/2000/svg"><path d="M12.445.85L9.401.846C5.98.846 3.77 2.97 3.77 6.26v2.496H.708c-.264 0-.478.201-.478.45v3.616c0 .248.214.449.478.449H3.77v9.126c0 .248.215.449.48.449h3.993c.264 0 .478-.201.478-.449v-9.126h3.58c.264 0 .478-.201.478-.449l.002-3.617a.436.436 0 00-.14-.317.496.496 0 00-.34-.132h-3.58V6.64c0-1.017.259-1.533 1.673-1.533l2.05-.001c.265 0 .48-.201.48-.449V1.3c0-.248-.215-.448-.479-.449z" fill-opacity=".6"/></symbol><symbol viewBox="0 0 22 22" id="insta" xmlns="http://www.w3.org/2000/svg"><g clip-path="url(#cclip0_112_18562)"><path d="M15.125 0h-8.25A6.876 6.876 0 000 6.875v8.25A6.876 6.876 0 006.875 22h8.25A6.876 6.876 0 0022 15.125v-8.25A6.876 6.876 0 0015.125 0zm4.813 15.125a4.818 4.818 0 01-4.813 4.813h-8.25a4.818 4.818 0 01-4.813-4.813v-8.25a4.818 4.818 0 014.813-4.813h8.25a4.818 4.818 0 014.813 4.813v8.25z"/><path d="M11 5.5a5.5 5.5 0 100 11 5.5 5.5 0 000-11zm0 8.938A3.442 3.442 0 017.562 11 3.441 3.441 0 0111 7.562 3.441 3.441 0 0114.438 11 3.442 3.442 0 0111 14.438zm5.91-8.618a.733.733 0 100-1.465.733.733 0 000 1.465z"/></g><defs><clipPath id="cclip0_112_18562"><path d="M0 0h22v22H0z"/></clipPath></defs></symbol><symbol viewBox="0 0 26 26" id="loc" xmlns="http://www.w3.org/2000/svg"><g clip-path="url(#dclip0_131_18703)"><path d="M13.07 0C8.001 0 3.88 4.122 3.88 9.19a9.17 9.17 0 001.372 4.831l7.294 10.884c.14.225.386.362.65.362h.007a.766.766 0 00.65-.372l7.11-10.998a9.178 9.178 0 001.295-4.708C22.258 4.122 18.136 0 13.07 0zm6.578 13.11l-6.463 9.92-6.632-9.816A7.648 7.648 0 015.401 9.19c0-4.222 3.446-7.668 7.668-7.668 4.222 0 7.663 3.446 7.663 7.668a7.65 7.65 0 01-1.084 3.922z"/><path d="M13.069 4.595a4.6 4.6 0 00-4.595 4.594 4.589 4.589 0 004.595 4.595 4.586 4.586 0 004.595-4.595 4.6 4.6 0 00-4.595-4.594zm0 7.668a3.076 3.076 0 01-3.073-3.074 3.084 3.084 0 013.073-3.073 3.08 3.08 0 013.068 3.073 3.07 3.07 0 01-3.068 3.074z"/></g><defs><clipPath id="dclip0_131_18703"><path d="M0 0h25.267v25.267H0z"/></clipPath></defs></symbol><symbol viewBox="0 0 24 24" id="mail" xmlns="http://www.w3.org/2000/svg"><g clip-path="url(#eclip0_4_5051)"><path d="M21.143 3.752H2.738A2.126 2.126 0 00.614 5.876v12.742c0 1.171.952 2.124 2.124 2.124h18.405a2.126 2.126 0 002.124-2.124V5.876a2.126 2.126 0 00-2.124-2.124zm0 1.416c.096 0 .188.02.271.055l-9.474 8.21-9.474-8.21a.705.705 0 01.271-.055h18.406zm0 14.158H2.738a.708.708 0 01-.708-.708v-11.9l9.446 8.188a.707.707 0 00.928 0l9.447-8.188v11.9c0 .39-.317.708-.708.708z"/></g><defs><clipPath id="eclip0_4_5051"><path transform="translate(.614 .92)" d="M0 0h22.653v22.653H0z"/></clipPath></defs></symbol><symbol viewBox="0 0 24 23" id="phone" xmlns="http://www.w3.org/2000/svg"><g clip-path="url(#fclip0_4_5054)"><path d="M16.895 22.879c-.731 0-1.456-.13-2.165-.387a23.09 23.09 0 01-8.385-5.345 23.088 23.088 0 01-5.344-8.384 6.266 6.266 0 01-.32-3.08A6.414 6.414 0 013.984.98a6.308 6.308 0 013.02-.754c.334 0 .622.233.692.56L8.807 5.97a.708.708 0 01-.192.65L6.717 8.517a18.633 18.633 0 008.258 8.258l1.899-1.899a.709.709 0 01.648-.191l5.186 1.11c.326.07.56.36.56.693 0 1.073-.255 2.09-.755 3.02a6.44 6.44 0 01-1.97 2.211 6.412 6.412 0 01-2.734 1.091c-.305.045-.61.068-.914.068zM6.438 1.672a4.903 4.903 0 00-3.506 2.09 4.877 4.877 0 00-.6 4.518 21.47 21.47 0 0012.881 12.88 4.877 4.877 0 004.519-.6 4.903 4.903 0 002.088-3.506l-4.218-.904-1.982 1.983a.708.708 0 01-.802.14 20.044 20.044 0 01-9.599-9.6.708.708 0 01.14-.8L7.342 5.89l-.904-4.218z"/></g><defs><clipPath id="fclip0_4_5054"><path transform="translate(.614 .226)" d="M0 0h22.653v22.653H0z"/></clipPath></defs></symbol><symbol viewBox="0 0 21 21" id="search" xmlns="http://www.w3.org/2000/svg"><g clip-path="url(#gclip0_101_13992)"><g filter="url(#gfilter0_d_101_13992)"><path d="M9.248 0C4.148 0 0 4.149 0 9.248c0 5.1 4.149 9.248 9.248 9.248 5.1 0 9.248-4.149 9.248-9.248 0-5.1-4.149-9.248-9.248-9.248zm0 16.789c-4.158 0-7.54-3.383-7.54-7.541s3.382-7.54 7.54-7.54c4.158 0 7.54 3.382 7.54 7.54 0 4.158-3.382 7.54-7.54 7.54z"/></g><g filter="url(#gfilter1_d_101_13992)"><path d="M20.75 19.543l-4.895-4.894a.853.853 0 10-1.207 1.207l4.895 4.894a.851.851 0 001.207 0 .853.853 0 000-1.207z"/></g></g><defs><filter id="gfilter0_d_101_13992" x="-16" y="-10" width="50.496" height="50.496" filterUnits="userSpaceOnUse" color-interpolation-filters="sRGB"><feFlood flood-opacity="0" result="BackgroundImageFix"/><feColorMatrix in="SourceAlpha" values="0 0 0 0 0 0 0 0 0 0 0 0 0 0 0 0 0 0 127 0" result="hardAlpha"/><feOffset dy="6"/><feGaussianBlur stdDeviation="8"/><feColorMatrix values="0 0 0 0 0.390833 0 0 0 0 0.398417 0 0 0 0 0.466667 0 0 0 0.2 0"/><feBlend in2="BackgroundImageFix" result="effect1_dropShadow_101_13992"/><feBlend in="SourceGraphic" in2="effect1_dropShadow_101_13992" result="shape"/></filter><filter id="gfilter1_d_101_13992" x="-1.602" y="4.398" width="38.602" height="38.602" filterUnits="userSpaceOnUse" color-interpolation-filters="sRGB"><feFlood flood-opacity="0" result="BackgroundImageFix"/><feColorMatrix in="SourceAlpha" values="0 0 0 0 0 0 0 0 0 0 0 0 0 0 0 0 0 0 127 0" result="hardAlpha"/><feOffset dy="6"/><feGaussianBlur stdDeviation="8"/><feColorMatrix values="0 0 0 0 0.390833 0 0 0 0 0.398417 0 0 0 0 0.466667 0 0 0 0.2 0"/><feBlend in2="BackgroundImageFix" result="effect1_dropShadow_101_13992"/><feBlend in="SourceGraphic" in2="effect1_dropShadow_101_13992" result="shape"/></filter><clipPath id="gclip0_101_13992"><path d="M0 0h21v21H0z"/></clipPath></defs></symbol><symbol viewBox="0 0 22 16" id="youtube" xmlns="http://www.w3.org/2000/svg"><path d="M17.43.692H4.57C2.045.692 0 2.694 0 5.162v6.29c0 2.47 2.046 4.471 4.57 4.471h12.86c2.524 0 4.57-2.001 4.57-4.47v-6.29c0-2.47-2.046-4.47-4.57-4.47zm-3.09 7.922L8.326 11.42a.241.241 0 01-.346-.213v-5.79c0-.176.19-.29.351-.21l6.016 2.982a.234.234 0 01-.005.424z" fill-opacity=".6"/></symbol></svg>