<?xml version="1.0" encoding="utf-8"?><svg xmlns="http://www.w3.org/2000/svg" xmlns:xlink="http://www.w3.org/1999/xlink"><symbol viewBox="0 0 27 31" id="bannerArr" xmlns="http://www.w3.org/2000/svg"><path d="M0 15.155L26.25 0v30.31L0 15.156z"/></symbol><symbol viewBox="0 0 11 9" id="drop" xmlns="http://www.w3.org/2000/svg"><path d="M.858.5h8.3l-4.15 7.47L.858.5z"/></symbol><symbol viewBox="0 0 22 22" id="loop" xmlns="http://www.w3.org/2000/svg"><path d="M9.889 18.777A8.889 8.889 0 109.889 1a8.889 8.889 0 000 17.777zM21.001 21l-4.833-4.834"/></symbol><symbol viewBox="0 0 18 31" id="ok" xmlns="http://www.w3.org/2000/svg"><path d="M9.223 11.642c.65 0 1.285-.2 1.825-.572.54-.374.962-.905 1.21-1.525a3.504 3.504 0 00.187-1.964 3.436 3.436 0 00-.899-1.74 3.253 3.253 0 00-1.682-.93 3.184 3.184 0 00-1.898.194c-.6.257-1.114.692-1.475 1.251a3.482 3.482 0 00-.553 1.888c0 .901.346 1.766.962 2.403a3.23 3.23 0 002.323.995z"/><path d="M9.226 15.47a6.83 6.83 0 003.887-1.218 7.188 7.188 0 002.578-3.246 7.465 7.465 0 00.4-4.18 7.315 7.315 0 00-1.914-3.706 6.926 6.926 0 00-3.582-1.98 6.78 6.78 0 00-4.042.41 7.052 7.052 0 00-3.14 2.665 7.413 7.413 0 00-1.179 4.02 7.372 7.372 0 002.05 5.112 6.888 6.888 0 004.942 2.123zm0-10.643c.65 0 1.285.2 1.826.573.54.374.961.904 1.21 1.525.248.621.313 1.304.187 1.964a3.436 3.436 0 01-.9 1.74 3.253 3.253 0 01-1.682.93 3.184 3.184 0 01-1.898-.194 3.312 3.312 0 01-1.474-1.251 3.482 3.482 0 01-.554-1.888c0-.902.346-1.766.962-2.403a3.231 3.231 0 012.323-.996zm7.69 12.153a1.89 1.89 0 00-.487-.551 1.786 1.786 0 00-2.053-.094C14.35 16.35 11.663 18 9.097 18c-2.565 0-5.236-1.637-5.283-1.665a1.795 1.795 0 00-1.377-.182 1.856 1.856 0 00-1.11.86 1.968 1.968 0 00-.22 1.417c.107.484.392.906.795 1.176a16.79 16.79 0 004.746 1.925l-4.43 4.699c-.341.363-.53.853-.522 1.36.007.507.208.99.56 1.344.352.354.825.548 1.315.541a1.82 1.82 0 001.3-.58l4.23-4.497 4.342 4.513c.171.178.374.32.599.416a1.795 1.795 0 001.415.004 1.896 1.896 0 001.003-1.032 1.969 1.969 0 00-.395-2.085l-4.498-4.686a16.8 16.8 0 004.722-1.922c.208-.13.39-.3.533-.503.144-.202.249-.431.307-.675a1.974 1.974 0 00-.212-1.448z"/></symbol><symbol viewBox="0 0 28 28" id="ru" xmlns="http://www.w3.org/2000/svg"><path d="M14.083 27.215c7.167 0 12.977-5.81 12.977-12.977 0-7.168-5.81-12.978-12.977-12.978-7.167 0-12.978 5.81-12.978 12.978 0 7.167 5.81 12.977 12.978 12.977z"/><path d="M4.875 19.14L6.659 8.194h4.05c1.496 0 3.63.45 3.373 3.376-.257 2.925-2.84 3.086-2.84 3.086l2.84 4.486h-3.428l-2.22-4.089-.627 4.089H4.875z"/><path d="M8.684 13.087l.484-2.701h.748c.721 0 1.396.531 1.253 1.352a1.617 1.617 0 01-1.46 1.349H8.684zm6.993-1.349s-.531 3.11-.747 4.509c-.216 1.398.698 2.99 2.435 2.99h1.709c1.279 0 3.11-.651 3.472-2.894.362-2.243.724-4.605.724-4.605h-2.582s-.522 3.332-.698 4.17c-.23 1.095-.455 1.279-1.547 1.279-.555 0-.982-.605-.876-1.247.175-.931.674-4.202.674-4.202h-2.564z"/></symbol><symbol viewBox="0 0 23 22" id="tel" xmlns="http://www.w3.org/2000/svg"><path d="M21.255 15.92v3a2 2 0 01-2.18 2 19.79 19.79 0 01-8.63-3.07 19.5 19.5 0 01-6-6 19.79 19.79 0 01-3.07-8.67A2 2 0 013.365 1h3a2 2 0 012 1.72c.127.96.362 1.903.7 2.81a2 2 0 01-.45 2.11l-1.27 1.27a16.001 16.001 0 006 6l1.27-1.27a2 2 0 012.11-.45c.908.339 1.85.574 2.81.7a2 2 0 011.72 2.03z"/></symbol><symbol viewBox="0 0 32 19" id="vision" xmlns="http://www.w3.org/2000/svg"><path d="M30 9.5S23.732 18 16 18 2 9.5 2 9.5 8.268 1 16 1s14 8.5 14 8.5z"/><circle cx="16" cy="8" r="7"/></symbol><symbol viewBox="0 0 32 22" id="vk" xmlns="http://www.w3.org/2000/svg"><path d="M6.366 1.975c.697 0-.308 1.186.961 5.243.506 1.614 1.283 3.44 2.68 4.656 1.863 1.611 2.117.757 2.117-.744 0-1.5 0-5.838-.425-6.974-.426-1.136-1.206-1.186-.787-2.1.271-.587 2.375-.496 4.194-.496s2.79-.204 2.79 1.256v7.015c0 1.005.697 1.785 2.325-.201 1.628-1.987 3.18-5.193 3.565-6.084.385-.89.7-2.01 2.247-2.01h2.985c1.133 0 1.675.567.697 2.617 0 0-2.532 4.589-3.333 5.778-1.34 1.987-1.531 2.147.077 3.832a32.259 32.259 0 013.685 4.944c.623 1.026.854 2.232-.814 2.232h-3.216c-1.782 0-1.863-.768-3.488-2.68-1.721-2.027-2.512-2.653-2.968-2.895-.9-.472-1.772-.509-1.772 1.397 0 3.122.583 4.178-1.722 4.178-2.519 0-6.844.08-10.64-4.12C.397 11.14.35 1.971 1.87 1.971l4.496.003z"/></symbol><symbol viewBox="0 0 29 24" id="youtube" xmlns="http://www.w3.org/2000/svg"><path d="M28.103 11.592a46.43 46.43 0 00-.252-4.658c-.126-1.44-.646-2.847-1.172-3.37-.526-.523-.755-1.292-6.262-1.699 0 0-2.125-.232-4.917-.232h-1.29c-2.79 0-4.913.232-4.913.232-5.51.404-5.74 1.179-6.263 1.699-.523.52-1.05 1.936-1.175 3.37a46.418 46.418 0 00-.249 4.658v1.291a46.42 46.42 0 00.249 4.658c.126 1.44.646 2.848 1.175 3.367.53.52.752 1.292 6.263 1.702 0 0 2.124.232 4.913.232h1.29a50.24 50.24 0 004.917-.232c5.507-.404 5.74-1.179 6.262-1.701.523-.523 1.046-1.938 1.172-3.368a46.45 46.45 0 00.252-4.658v-1.291z"/><path d="M10.844 17.541V6.937l9.7 5.3-9.7 5.304z"/></symbol></svg>