<?xml version="1.0" encoding="utf-8"?><svg xmlns="http://www.w3.org/2000/svg" xmlns:xlink="http://www.w3.org/1999/xlink"><symbol viewBox="0 0 544.49 544.489" id="ph" xmlns="http://www.w3.org/2000/svg"><circle cx="243.92" cy="23.18" r="1.606"/><circle cx="248.616" cy="23.18" r="1.606"/><circle cx="253.301" cy="23.18" r="1.606"/><circle cx="257.987" cy="23.18" r="1.606"/><circle cx="262.682" cy="23.18" r="1.606"/><circle cx="267.377" cy="23.18" r="1.606"/><circle cx="272.063" cy="23.18" r="1.606"/><circle cx="276.749" cy="23.18" r="1.606"/><circle cx="281.434" cy="23.18" r="1.606"/><circle cx="286.149" cy="23.18" r="1.606"/><circle cx="290.834" cy="23.18" r="1.606"/><circle cx="295.52" cy="23.18" r="1.606"/><circle cx="300.206" cy="23.18" r="1.606"/><circle cx="304.901" cy="23.18" r="1.606"/><path d="M392.923 0H151.576c-19.508 0-35.314 15.807-35.314 35.314v473.86c0 19.507 15.807 35.314 35.314 35.314h241.338c19.508 0 35.314-15.808 35.314-35.314V35.314C428.238 15.807 412.431 0 392.923 0zm-24.69 20.971a3.905 3.905 0 013.901 3.901 3.905 3.905 0 01-3.901 3.901 3.899 3.899 0 01-3.901-3.901c-.01-2.151 1.74-3.901 3.901-3.901zm-137.757-3.367h87.219a5.566 5.566 0 015.575 5.565 5.56 5.56 0 01-5.575 5.565h-87.219a5.566 5.566 0 01-5.575-5.565 5.574 5.574 0 015.575-5.565zm-35.582 503.658h-8.587a1.043 1.043 0 010-2.085h8.587c.583 0 1.042.479 1.042 1.042a1.052 1.052 0 01-1.042 1.043zm0-4.189h-8.587a1.029 1.029 0 01-1.033-1.033c0-.573.459-1.042 1.033-1.042h8.587c.583 0 1.042.469 1.042 1.042a1.043 1.043 0 01-1.042 1.033zm7.229 2.725a2.233 2.233 0 01-2.228 2.238 2.24 2.24 0 01-2.238-2.238v-7.372h-14.124v7.372a2.232 2.232 0 01-2.228 2.238 2.24 2.24 0 01-2.237-2.238v-9.601a2.24 2.24 0 012.237-2.237h18.59a2.232 2.232 0 012.228 2.237v9.601zm98.083-.688c0 4.876-3.959 8.826-8.836 8.826h-38.623c-4.887 0-8.836-3.95-8.836-8.826v-7.727c0-4.877 3.949-8.826 8.836-8.826h38.623c4.877 0 8.836 3.949 8.836 8.826v7.727zm57.652 3.347h-7.01a2.233 2.233 0 01-2.228-2.238c0-1.233.994-2.228 2.228-2.228h7.01c1.511 0 2.734-1.177 2.734-2.62 0-1.444-1.224-2.61-2.734-2.61h-5.91c-.22.306-.497.459-.994.497-.124.066-.335-.029-.487-.096l-3.644-1.54a1.209 1.209 0 01-.736-1.1c0-.478.287-.918.727-1.1l3.644-1.539a1.196 1.196 0 011.31.258c.048.048.096.096.134.153h5.958c3.969 0 7.19 3.184 7.19 7.086-.002 3.902-3.223 7.077-7.192 7.077zm46.827-30.944H136.859V54.449h267.826v437.064z"/></symbol><symbol viewBox="0 0 48 48" id="tele" xmlns="http://www.w3.org/2000/svg"><path d="M41.42 7.309s3.885-1.515 3.56 2.164c-.107 1.515-1.078 6.818-1.834 12.553l-2.59 16.99s-.216 2.489-2.159 2.922c-1.942.432-4.856-1.515-5.396-1.948-.432-.325-8.094-5.195-10.792-7.575-.756-.65-1.62-1.948.108-3.463L33.648 18.13c1.295-1.298 2.59-4.328-2.806-.649l-15.11 10.28s-1.727 1.083-4.964.109l-7.016-2.165s-2.59-1.623 1.835-3.246c10.793-5.086 24.068-10.28 35.831-15.15z"/></symbol><symbol viewBox="0 0 24 24" id="vk" xmlns="http://www.w3.org/2000/svg"><path d="M21.579 6.855c.14-.465 0-.806-.662-.806h-2.193c-.558 0-.813.295-.953.619 0 0-1.115 2.719-2.695 4.482-.51.513-.743.675-1.021.675-.139 0-.341-.162-.341-.627V6.855c0-.558-.161-.806-.626-.806H9.642c-.348 0-.558.258-.558.504 0 .528.79.65.871 2.138v3.228c0 .707-.127.836-.407.836-.743 0-2.551-2.729-3.624-5.853-.209-.607-.42-.852-.98-.852H2.752c-.627 0-.752.295-.752.619 0 .582.743 3.462 3.461 7.271 1.812 2.601 4.363 4.011 6.687 4.011 1.393 0 1.565-.313 1.565-.853v-1.966c0-.626.133-.752.574-.752.324 0 .882.164 2.183 1.417 1.486 1.486 1.732 2.153 2.567 2.153h2.192c.626 0 .939-.313.759-.931-.197-.615-.907-1.51-1.849-2.569-.512-.604-1.277-1.254-1.51-1.579-.325-.419-.231-.604 0-.976.001.001 2.672-3.761 2.95-5.04z"/></symbol></svg>