<?xml version="1.0" encoding="utf-8"?><svg xmlns="http://www.w3.org/2000/svg" xmlns:xlink="http://www.w3.org/1999/xlink"><symbol viewBox="0 0 16 16" id="arr" xmlns="http://www.w3.org/2000/svg"><g clip-path="url(#aclip0_101_2488)"><path d="M8.13 7.561L.74.173a.616.616 0 00-.87.87l6.952 6.953-6.952 6.953a.616.616 0 00.87.87l7.39-7.386c.24-.24.24-.63 0-.871z"/></g><defs><clipPath id="aclip0_101_2488"><path d="M0 0h16v16H0z"/></clipPath></defs></symbol><symbol viewBox="0 0 13 23" id="facebook" xmlns="http://www.w3.org/2000/svg"><path d="M12.445.85L9.401.846C5.98.846 3.77 2.97 3.77 6.26v2.496H.708c-.264 0-.478.201-.478.45v3.616c0 .248.214.449.478.449H3.77v9.126c0 .248.215.449.48.449h3.993c.264 0 .478-.201.478-.449v-9.126h3.58c.264 0 .478-.201.478-.449l.002-3.617a.436.436 0 00-.14-.317.496.496 0 00-.34-.132h-3.58V6.64c0-1.017.259-1.533 1.673-1.533l2.05-.001c.265 0 .48-.201.48-.449V1.3c0-.248-.215-.448-.479-.449z" fill-opacity=".6"/></symbol><symbol viewBox="0 0 22 22" id="insta" xmlns="http://www.w3.org/2000/svg"><g clip-path="url(#cclip0_112_18562)"><path d="M15.125 0h-8.25A6.876 6.876 0 000 6.875v8.25A6.876 6.876 0 006.875 22h8.25A6.876 6.876 0 0022 15.125v-8.25A6.876 6.876 0 0015.125 0zm4.813 15.125a4.818 4.818 0 01-4.813 4.813h-8.25a4.818 4.818 0 01-4.813-4.813v-8.25a4.818 4.818 0 014.813-4.813h8.25a4.818 4.818 0 014.813 4.813v8.25z"/><path d="M11 5.5a5.5 5.5 0 100 11 5.5 5.5 0 000-11zm0 8.938A3.442 3.442 0 017.562 11 3.441 3.441 0 0111 7.562 3.441 3.441 0 0114.438 11 3.442 3.442 0 0111 14.438zm5.91-8.618a.733.733 0 100-1.465.733.733 0 000 1.465z"/></g><defs><clipPath id="cclip0_112_18562"><path d="M0 0h22v22H0z"/></clipPath></defs></symbol><symbol viewBox="0 0 26 26" id="loc" xmlns="http://www.w3.org/2000/svg"><g clip-path="url(#dclip0_131_18703)"><path d="M13.07 0C8.001 0 3.88 4.122 3.88 9.19a9.17 9.17 0 001.372 4.831l7.294 10.884c.14.225.386.362.65.362h.007a.766.766 0 00.65-.372l7.11-10.998a9.178 9.178 0 001.295-4.708C22.258 4.122 18.136 0 13.07 0zm6.578 13.11l-6.463 9.92-6.632-9.816A7.648 7.648 0 015.401 9.19c0-4.222 3.446-7.668 7.668-7.668 4.222 0 7.663 3.446 7.663 7.668a7.65 7.65 0 01-1.084 3.922z"/><path d="M13.069 4.595a4.6 4.6 0 00-4.595 4.594 4.589 4.589 0 004.595 4.595 4.586 4.586 0 004.595-4.595 4.6 4.6 0 00-4.595-4.594zm0 7.668a3.076 3.076 0 01-3.073-3.074 3.084 3.084 0 013.073-3.073 3.08 3.08 0 013.068 3.073 3.07 3.07 0 01-3.068 3.074z"/></g><defs><clipPath id="dclip0_131_18703"><path d="M0 0h25.267v25.267H0z"/></clipPath></defs></symbol><symbol viewBox="0 0 24 24" id="mail" xmlns="http://www.w3.org/2000/svg"><g clip-path="url(#eclip0_4_5051)"><path d="M21.143 3.752H2.738A2.126 2.126 0 00.614 5.876v12.742c0 1.171.952 2.124 2.124 2.124h18.405a2.126 2.126 0 002.124-2.124V5.876a2.126 2.126 0 00-2.124-2.124zm0 1.416c.096 0 .188.02.271.055l-9.474 8.21-9.474-8.21a.705.705 0 01.271-.055h18.406zm0 14.158H2.738a.708.708 0 01-.708-.708v-11.9l9.446 8.188a.707.707 0 00.928 0l9.447-8.188v11.9c0 .39-.317.708-.708.708z"/></g><defs><clipPath id="eclip0_4_5051"><path transform="translate(.614 .92)" d="M0 0h22.653v22.653H0z"/></clipPath></defs></symbol><symbol viewBox="0 0 39 48" id="pdf" xmlns="http://www.w3.org/2000/svg"><g clip-path="url(#fclip0_201_18088)"><path d="M35.166 33.981h1.973c1.187.016 1.845.636 1.845 1.812.016 3.45.016 6.883 0 10.332 0 1.223-.674 1.875-1.877 1.875H7.588c-1.203 0-1.652-.477-1.893-2.066H3.417C1.427 45.934 0 44.55 0 42.596V3.417C.016 1.303 1.38 0 3.545 0c6.177 0 12.353-.016 18.53.016.369 0 .834.19 1.107.445 3.834 3.608 7.62 7.232 11.422 10.824.433.397.578.826.578 1.399-.016 6.786-.016 13.557 0 20.344-.016.286-.016.572-.016.953zm-1.653-20.948h-8.326c-2.262 0-3.626-1.367-3.642-3.624-.016-2.336 0-4.657 0-6.993 0-.254-.032-.509-.032-.763-.176-.016-.272-.032-.385-.032H3.498c-1.22 0-1.846.668-1.846 1.892v38.925c0 1.064.498 1.78 1.444 1.875.867.08 1.749.015 2.695.015v-8.169c0-1.717.45-2.162 2.182-2.162H33.53c-.016-7.04-.016-13.955-.016-20.964zm-1.187-1.637c-3.112-2.956-6.032-5.722-9.064-8.599 0 2.528-.048 4.896.032 7.264.032.858.722 1.303 1.7 1.335 1.043.032 2.086.016 3.129.016 1.316-.016 2.631-.016 4.203-.016zm-13.62 26.559v6.246c1.412 0 2.358.096 3.433-.08.497-.079.947-.412 1.22-.842.85-1.287.833-2.86.128-4.227-.337-.652-.899-1.081-1.637-1.113a34.933 34.933 0 00-3.144.016zm-4.685 3.846c.498 0 .835.016 1.171 0 .37-.031.755-.063 1.107-.143.803-.206 1.332-.906 1.316-1.78-.016-1.08-.578-2.018-1.396-2.082-1.347-.095-2.07-.08-3.481-.016v5.356c0 1.113-.064 1.16 1.267 1.05.016-.7.016-1.558.016-2.385zm11.07 2.29h1.267v-2.623h2.535v-1.081H26.39v-1.462h2.952v-1.002h-4.235c-.016 2.082-.016 4.117-.016 6.167zm-14.743.063c1.219.127 1.17.031 1.09-1.192h-1.09v1.192z"/><path d="M17.599 14.86h12.353c.272 0 .577-.063.786.064.272.16.625.461.61.684-.017.286-.305.604-.562.826-.145.127-.465.08-.706.08H5.07c-.257 0-.578.015-.77-.112-.225-.159-.514-.492-.482-.715.032-.27.32-.572.577-.731.193-.127.514-.08.787-.08 4.139-.015 8.278-.015 12.417-.015zm-.032 4.832h12.192c.321 0 .674-.079.947.048.272.111.625.43.625.668 0 .286-.272.62-.53.842-.143.127-.464.064-.705.064H4.829c-.61.032-1.107-.16-1.107-.843 0-.651.497-.779 1.058-.779 1.845.016 3.69 0 5.535 0h7.252zm.033 6.39c-4.284 0-8.551.016-12.835-.032-.337 0-.754-.302-.978-.588-.097-.127.16-.604.352-.842.097-.127.385-.143.594-.143 8.55 0 17.102 0 25.653-.016.56 0 .978.207.978.779.016.636-.433.826-1.027.826-4.235.016-8.486.016-12.738.016zm-6.049 4.816H4.893c-.577 0-1.139-.063-1.155-.778 0-.732.546-.859 1.171-.859 4.444 0 8.872-.016 13.316.032.401 0 .946.286 1.155.604.305.477-.225 1.001-1.01 1.001-2.279.016-4.54 0-6.819 0zm8.439 8.106c2.005-.206 2.598.223 2.646 1.892.048 1.86-.433 2.272-2.647 2.161v-4.053zm-5.92 1.892v-2.098c.77.08 1.54-.127 2.005.365.224.239.385.922.112 1.288-.465.651-1.251.445-2.118.445z"/></g><defs><clipPath id="fclip0_201_18088"><path d="M0 0h39v48H0z"/></clipPath></defs></symbol><symbol viewBox="0 0 24 23" id="phone" xmlns="http://www.w3.org/2000/svg"><g clip-path="url(#gclip0_4_5054)"><path d="M16.895 22.879c-.731 0-1.456-.13-2.165-.387a23.09 23.09 0 01-8.385-5.345 23.088 23.088 0 01-5.344-8.384 6.266 6.266 0 01-.32-3.08A6.414 6.414 0 013.984.98a6.308 6.308 0 013.02-.754c.334 0 .622.233.692.56L8.807 5.97a.708.708 0 01-.192.65L6.717 8.517a18.633 18.633 0 008.258 8.258l1.899-1.899a.709.709 0 01.648-.191l5.186 1.11c.326.07.56.36.56.693 0 1.073-.255 2.09-.755 3.02a6.44 6.44 0 01-1.97 2.211 6.412 6.412 0 01-2.734 1.091c-.305.045-.61.068-.914.068zM6.438 1.672a4.903 4.903 0 00-3.506 2.09 4.877 4.877 0 00-.6 4.518 21.47 21.47 0 0012.881 12.88 4.877 4.877 0 004.519-.6 4.903 4.903 0 002.088-3.506l-4.218-.904-1.982 1.983a.708.708 0 01-.802.14 20.044 20.044 0 01-9.599-9.6.708.708 0 01.14-.8L7.342 5.89l-.904-4.218z"/></g><defs><clipPath id="gclip0_4_5054"><path transform="translate(.614 .226)" d="M0 0h22.653v22.653H0z"/></clipPath></defs></symbol><symbol viewBox="0 0 19 19" id="pp" xmlns="http://www.w3.org/2000/svg"><path d="M14.268 1.275C12.813.425 11.223.001 9.5.001c-1.724 0-3.313.425-4.769 1.274a9.46 9.46 0 00-3.457 3.457C.424 6.188 0 7.777 0 9.501c0 1.921.523 3.665 1.57 5.232C2.619 16.3 3.992 17.46 5.69 18.21c-.033-.882.02-1.612.16-2.19l1.225-5.17c-.206-.404-.309-.907-.309-1.509 0-.7.178-1.286.532-1.756.354-.47.788-.706 1.299-.706.412 0 .73.136.952.409.223.272.335.614.335 1.026 0 .256-.048.568-.143.934-.095.367-.218.792-.37 1.274-.153.483-.263.868-.329 1.157-.115.503-.02.934.285 1.293.305.358.71.538 1.212.538.883 0 1.606-.49 2.171-1.472.565-.982.847-2.173.847-3.575 0-1.08-.348-1.959-1.045-2.635-.697-.676-1.668-1.014-2.913-1.014-1.394 0-2.521.447-3.383 1.342-.862.894-1.293 1.965-1.293 3.21 0 .742.21 1.364.631 1.867.14.165.186.343.136.532-.016.05-.05.173-.099.371s-.082.326-.099.383c-.066.265-.222.347-.47.248-.635-.264-1.117-.722-1.447-1.373-.33-.651-.495-1.406-.495-2.264 0-.552.089-1.105.266-1.657a5.653 5.653 0 01.829-1.602 6.514 6.514 0 011.348-1.367c.524-.396 1.161-.713 1.912-.953a7.949 7.949 0 012.424-.358c1.171 0 2.223.26 3.154.779.932.52 1.643 1.192 2.134 2.016.49.825.736 1.707.736 2.648 0 1.237-.214 2.35-.643 3.34-.429.99-1.035 1.766-1.818 2.331a4.457 4.457 0 01-2.672.848 2.93 2.93 0 01-1.41-.353c-.438-.235-.739-.513-.904-.835-.37 1.46-.593 2.33-.668 2.61-.157.585-.478 1.261-.965 2.029A9.366 9.366 0 009.5 19c1.723 0 3.313-.424 4.768-1.274a9.46 9.46 0 003.458-3.457C18.576 12.813 19 11.224 19 9.5c0-1.724-.425-3.313-1.274-4.768a9.465 9.465 0 00-3.457-3.457z"/></symbol><symbol viewBox="0 0 21 21" id="search" xmlns="http://www.w3.org/2000/svg"><g clip-path="url(#iclip0_101_13992)"><g filter="url(#ifilter0_d_101_13992)"><path d="M9.248 0C4.148 0 0 4.149 0 9.248c0 5.1 4.149 9.248 9.248 9.248 5.1 0 9.248-4.149 9.248-9.248 0-5.1-4.149-9.248-9.248-9.248zm0 16.789c-4.158 0-7.54-3.383-7.54-7.541s3.382-7.54 7.54-7.54c4.158 0 7.54 3.382 7.54 7.54 0 4.158-3.382 7.54-7.54 7.54z"/></g><g filter="url(#ifilter1_d_101_13992)"><path d="M20.75 19.543l-4.895-4.894a.853.853 0 10-1.207 1.207l4.895 4.894a.851.851 0 001.207 0 .853.853 0 000-1.207z"/></g></g><defs><filter id="ifilter0_d_101_13992" x="-16" y="-10" width="50.496" height="50.496" filterUnits="userSpaceOnUse" color-interpolation-filters="sRGB"><feFlood flood-opacity="0" result="BackgroundImageFix"/><feColorMatrix in="SourceAlpha" values="0 0 0 0 0 0 0 0 0 0 0 0 0 0 0 0 0 0 127 0" result="hardAlpha"/><feOffset dy="6"/><feGaussianBlur stdDeviation="8"/><feColorMatrix values="0 0 0 0 0.390833 0 0 0 0 0.398417 0 0 0 0 0.466667 0 0 0 0.2 0"/><feBlend in2="BackgroundImageFix" result="effect1_dropShadow_101_13992"/><feBlend in="SourceGraphic" in2="effect1_dropShadow_101_13992" result="shape"/></filter><filter id="ifilter1_d_101_13992" x="-1.602" y="4.398" width="38.602" height="38.602" filterUnits="userSpaceOnUse" color-interpolation-filters="sRGB"><feFlood flood-opacity="0" result="BackgroundImageFix"/><feColorMatrix in="SourceAlpha" values="0 0 0 0 0 0 0 0 0 0 0 0 0 0 0 0 0 0 127 0" result="hardAlpha"/><feOffset dy="6"/><feGaussianBlur stdDeviation="8"/><feColorMatrix values="0 0 0 0 0.390833 0 0 0 0 0.398417 0 0 0 0 0.466667 0 0 0 0.2 0"/><feBlend in2="BackgroundImageFix" result="effect1_dropShadow_101_13992"/><feBlend in="SourceGraphic" in2="effect1_dropShadow_101_13992" result="shape"/></filter><clipPath id="iclip0_101_13992"><path d="M0 0h21v21H0z"/></clipPath></defs></symbol><symbol viewBox="0 0 20 18" id="twit" xmlns="http://www.w3.org/2000/svg"><path d="M20 2.799a8.549 8.549 0 01-2.363.647 4.077 4.077 0 001.804-2.266 8.192 8.192 0 01-2.6.992A4.099 4.099 0 009.75 4.976c0 .325.027.638.095.935-3.409-.166-6.425-1.8-8.451-4.288A4.128 4.128 0 00.83 3.694a4.11 4.11 0 001.821 3.408A4.05 4.05 0 01.8 6.598v.045a4.119 4.119 0 003.285 4.028 4.09 4.09 0 01-1.075.135c-.262 0-.527-.015-.776-.07.531 1.624 2.038 2.818 3.831 2.856a8.238 8.238 0 01-5.084 1.75A7.67 7.67 0 010 15.284a11.543 11.543 0 006.29 1.84c7.545 0 11.67-6.25 11.67-11.668 0-.18-.006-.356-.015-.53A8.179 8.179 0 0020 2.8z"/></symbol><symbol viewBox="0 0 22 16" id="youtube" xmlns="http://www.w3.org/2000/svg"><path d="M17.43.692H4.57C2.045.692 0 2.694 0 5.162v6.29c0 2.47 2.046 4.471 4.57 4.471h12.86c2.524 0 4.57-2.001 4.57-4.47v-6.29c0-2.47-2.046-4.47-4.57-4.47zm-3.09 7.922L8.326 11.42a.241.241 0 01-.346-.213v-5.79c0-.176.19-.29.351-.21l6.016 2.982a.234.234 0 01-.005.424z" fill-opacity=".6"/></symbol></svg>