<svg width="94" height="18" fill="none" xmlns="http://www.w3.org/2000/svg"><path d="M0 .092C.06.067.087.05.113.05 2.797.092 5.49-.01 8.148.217c4.01.334 6.677 3.167 6.954 7.036.112 1.513.069 3.008-.338 4.47-.927 3.335-3.221 5.232-6.702 5.834-.736.125-1.49.167-2.234.175-1.931.025-3.862.009-5.828.009V.09zm4.823 13.721c.502 0 .996.017 1.48 0 1.81-.059 3.014-.936 3.516-2.616.416-1.387.45-2.799.174-4.211-.52-2.724-2.408-3.335-5.17-3v9.827zm39.321-9.501c4.027-.009 6.668 2.465 6.772 6.317.026 1.003-.07 2.04-.33 3.008-.657 2.44-2.372 3.836-4.944 4.237-1.281.2-2.571.167-3.801-.259-2.52-.869-3.767-2.716-4.13-5.198a8.864 8.864 0 01.242-3.81c.701-2.449 2.667-4.028 5.282-4.254.346-.016.693-.025.91-.041zm-1.957 6.835c.165.794.277 1.621.52 2.407.216.719.822 1.036 1.593 1.044.77 0 1.334-.325 1.585-1.06.537-1.572.528-3.176.026-4.756-.165-.51-.537-.877-1.109-1.02-.978-.242-1.844.126-2.147 1.054-.234.735-.312 1.512-.468 2.331zM29.38 12.376h-8.14c-.06.952.52 1.788 1.49 2.147.823.31 1.68.276 2.52.159.857-.117 1.706-.343 2.598-.535.208.86.441 1.772.64 2.7.018.083-.13.25-.242.308-.978.468-2.035.686-3.117.77-1.282.1-2.563.116-3.828-.184-2.398-.577-3.94-2.014-4.51-4.346-.417-1.696-.373-3.41.172-5.072.77-2.374 2.52-3.677 5.057-3.928a10.738 10.738 0 012.927.109c2.632.476 4.26 2.298 4.434 4.897.06.96 0 1.938 0 2.975zM25.242 9.5c-.026-.819-.268-1.488-1.004-1.864-.684-.35-1.394-.325-2.052.092-.65.41-.831 1.045-.883 1.772h3.94zm66.753 4.565c.233.994.467 1.963.701 2.95a8 8 0 01-2.762.843c-1.42.168-2.849.234-4.26-.067-2.633-.568-4.26-2.114-4.789-4.68a9.396 9.396 0 01.216-4.746c.72-2.306 2.616-3.81 5.118-3.969 1.013-.058 2.061-.033 3.048.159 2.32.434 3.793 1.989 4.183 4.237.077.45.112.91.12 1.37.018.719.01 1.446.01 2.214h-8.183c-.061 1.296.978 2.282 2.467 2.357a9.576 9.576 0 003.698-.51c.13-.058.26-.1.433-.159zM89.37 9.502c.087-1.178-.753-2.08-1.914-2.09-1.186-.008-2.035.903-1.948 2.09h3.862zM71.507 7.955h-1.576V4.554H71.5V1.136C73.066.894 74.58.652 76.139.41v4.128h2.928v3.401h-2.918v5.023c0 1.128.528 1.58 1.697 1.395.58-.092 1.151-.234 1.775-.367 0 1.044.008 2.08-.009 3.117 0 .075-.112.183-.208.217-1.697.685-3.455.86-5.247.443-1.524-.36-2.251-1.43-2.494-2.833-.112-.61-.138-1.245-.147-1.872-.026-1.68-.009-3.36-.009-5.106zM60.83 7.947h-1.575V4.555h1.558V1.187C62.372.927 63.896.669 65.472.4v4.13h2.91v3.41h-2.91v5.047c0 1.103.528 1.546 1.68 1.37.588-.091 1.177-.242 1.792-.375 0 1.028.009 2.039-.009 3.05 0 .1-.12.25-.225.292-1.688.686-3.429.853-5.204.452-1.48-.335-2.234-1.354-2.502-2.733a10.238 10.238 0 01-.165-1.78c-.026-1.604-.008-3.2-.008-4.805v-.51zm-25.033 9.777h-4.555V0h4.555v17.724zm17.006-.008V4.579h4.547v13.137h-4.547zM57.358.009v2.908h-4.554V.009h4.554z" fill="#fff" fill-opacity=".8"/></svg>