<svg width="135" height="29" fill="none" xmlns="http://www.w3.org/2000/svg"><path d="M0 6.824v6.824h13.605V0H0v6.824zM15.261.075c-.042.032-.073 3.103-.073 6.824v6.749h13.5V0H22.01c-3.68 0-6.718.032-6.75.075zm109.973 4.617c-1.045.223-1.962.82-2.521 1.641-.58.864-.707 1.344-.781 2.943l-.063 1.44-1.002.053-1.002.053v2.132l1.002.054 1.002.053.032 5.032.021 5.043h2.742l.021-5.043.032-5.032h4.429l.064 3.785c.074 4.371.126 4.68.896 5.544.528.587 1.034.832 1.983.96.781.117 1.793.02 2.574-.224l.337-.118v-2.185l-.591.202c-1.002.341-1.803.086-2.236-.693-.158-.309-.179-.725-.179-3.806v-3.465l1.508-.032 1.498-.032v-2.218l-1.498-.032-1.508-.032-.031-1.79c-.011-.982-.064-1.781-.106-1.781-.042 0-.643.181-1.339.405l-1.266.405-.032 1.407-.031 1.408-2.236-.022-2.236-.032-.032-1.002c-.021-.66.021-1.183.137-1.556.327-1.152 1.371-1.6 2.774-1.163.232.064.232.064.232-1.055 0-.661-.042-1.152-.105-1.194-.19-.117-2.025-.16-2.489-.053zM59.516 5.757c-.643.395-.896 1.376-.527 2.1.559 1.088 2.394 1.045 2.942-.074a1.532 1.532 0 00-.538-1.994c-.474-.32-1.392-.341-1.877-.032zM37.547 14.5v8.646l1.297-.032 1.287-.032.032-6.642c.02-5.288.052-6.631.158-6.631.074 0 1.223 2.729 2.773 6.631l2.648 6.642.991.032 1.002.032.96-2.43c.517-1.333 1.698-4.34 2.616-6.675 1.054-2.697 1.719-4.232 1.803-4.232.127 0 .148 1.098.148 6.663v6.664h2.742V5.864l-1.962.021-1.972.032-2.552 6.344c-1.466 3.614-2.627 6.354-2.7 6.376-.106.01-.918-1.951-2.637-6.344l-2.49-6.376-2.066-.032-2.078-.021V14.5zm31.029-3.731c-2.078.565-3.544 1.95-4.219 3.987-.306.906-.432 2.943-.242 3.956.179.991.875 2.313 1.592 3.028 1.16 1.162 2.468 1.652 4.377 1.642 1.213-.011 1.761-.096 2.732-.47l.59-.213v-1.237c0-.671-.031-1.204-.074-1.183-1.487.768-2.351.992-3.375.842-1.75-.255-2.868-1.45-3.1-3.326-.275-2.207.685-4.137 2.383-4.777.528-.202.791-.234 1.582-.202.834.032 1.055.085 1.772.437l.823.384-.032-1.29-.032-1.301-.632-.203c-.96-.32-3.133-.351-4.145-.074zm12.688-.107a4.953 4.953 0 00-.718.191c-.443.192-1.286 1.035-1.497 1.514-.317.715-.464.555-.496-.565l-.031-.98h-2.637l-.032 6.151-.021 6.163h2.732l.031-3.764c.032-3.657.043-3.774.285-4.382.285-.725.833-1.375 1.392-1.674.485-.245 1.456-.266 2.078-.053.232.085.454.128.485.096.127-.139.064-2.452-.063-2.559-.19-.15-1.013-.224-1.508-.139zm6.402.107c-2.162.575-3.681 2.143-4.198 4.328-.243 1.013-.243 3.06 0 3.977.559 2.1 2.025 3.583 4.082 4.137.917.245 2.868.235 3.775-.01a5.568 5.568 0 002.658-1.547c.75-.757 1.319-1.79 1.582-2.889.211-.864.18-3.177-.052-4.051-.549-2.048-1.994-3.498-3.977-3.988-.97-.245-2.868-.224-3.87.043zm3.417 2.324c1.329.693 1.92 2.122 1.803 4.318-.095 1.845-.706 2.964-1.898 3.486-.738.33-2.13.342-2.837.022-1.445-.64-2.215-2.293-2.057-4.382.158-1.92.876-3.081 2.257-3.593.612-.235 2.173-.15 2.732.149zm9.249-2.378c-1.223.341-2.151 1.066-2.636 2.069-.264.522-.296.714-.285 1.556 0 1.78.485 2.357 3.027 3.625 1.877.939 2.183 1.216 2.183 1.973 0 1.386-1.983 1.759-4.166.789a37.366 37.366 0 01-.97-.438c-.106-.042-.137.246-.137 1.227v1.268l.559.171c1.455.458 3.132.565 4.292.288 1.92-.459 3.164-1.877 3.164-3.614 0-1.696-.791-2.623-3.164-3.69-.612-.277-1.265-.597-1.445-.725-.928-.629-.844-1.833.148-2.324.411-.202.601-.224 1.339-.181.781.053 1.203.17 2.363.693.095.043.126-.234.126-1.183v-1.226l-.4-.118c-1.319-.352-3.017-.426-3.998-.16zm11.307-.054c-1.846.395-3.323 1.493-4.061 3.018-.538 1.12-.685 1.876-.675 3.486.011 1.237.053 1.557.274 2.26.633 1.93 2.025 3.252 3.945 3.764 2.405.629 4.946.032 6.476-1.535 1.107-1.141 1.645-2.474 1.75-4.382.138-2.474-.727-4.595-2.351-5.715-1.045-.725-1.741-.917-3.46-.96-.812-.01-1.666.011-1.898.064zm2.816 2.346c1.445.544 2.193 2.164 2.056 4.403-.116 1.823-.748 2.986-1.888 3.487-.78.34-2.13.352-2.879.01-1.434-.64-2.13-2.1-2.025-4.222.063-1.247.158-1.61.622-2.399.359-.607 1.087-1.194 1.709-1.375.612-.181 1.804-.128 2.405.096zm-55.319-2.175c-.042.043-.074 2.825-.074 6.195v6.12l1.35-.032 1.34-.032V10.822l-1.276-.032c-.696-.011-1.297.01-1.34.042zM0 22.177V29h13.605V15.353H0v6.824zm15.209-.032l.031 6.802 6.73.032 6.718.021V15.353h-13.5l.02 6.792z" fill="#fff" fill-opacity=".8"/></svg>