<svg width="114" height="17" fill="none" xmlns="http://www.w3.org/2000/svg"><g clip-path="url(#clip0_105_18557)" fill="#fff" fill-opacity=".8"><path d="M51.58 10.472c.399-.868.736-1.62 1.072-2.362 1.102-2.45 2.205-4.9 3.298-7.358.153-.357.357-.472.755-.472 1.582.019 3.164.029 4.746 0 .49-.01.602.154.602.588-.01 5.091-.01 10.192 0 15.283 0 .415-.112.57-.572.56a71.507 71.507 0 00-3.52 0c-.45.01-.582-.126-.582-.55.02-3.21.01-6.432.01-9.643V5.96c-.051-.02-.102-.029-.153-.048-.082.135-.174.27-.245.415-1.52 3.326-3.052 6.653-4.552 9.99-.174.385-.398.54-.837.51a14.017 14.017 0 00-1.684 0c-.46.03-.694-.125-.878-.53-1.418-3.278-2.867-6.557-4.296-9.826-.082-.183-.174-.366-.266-.55-.04.01-.091.01-.132.02-.02.193-.051.386-.051.588v9.498c0 .675 0 .675-.735.675-.664 0-1.327-.029-1.99.01-.48.029-.602-.126-.602-.57.02-4.647.01-9.285.01-13.933 0-.501.01-.993 0-1.494-.01-.319.112-.425.449-.425 1.786.01 3.572.02 5.358 0 .46-.01.52.28.643.56l3.888 9.054c.041.145.123.29.266.569zM85.383 6.23v.55c0 3.114-.01 6.238.01 9.352 0 .454-.153.579-.612.56a36.55 36.55 0 00-2.297 0c-.337.01-.49-.077-.49-.434.01-5.188.01-10.376 0-15.573 0-.318.133-.415.45-.415 1.581.01 3.163.02 4.745 0 .378 0 .5.212.633.454 1.643 2.834 3.276 5.66 4.92 8.495.264.463.54.916.805 1.379.041-.01.092-.01.133-.02.01-.173.04-.347.04-.52 0-3.067.011-6.143-.01-9.21 0-.433.103-.607.593-.578a19.64 19.64 0 002.143 0c.51-.029.674.106.663.608-.02 3.973-.01 7.936-.01 11.909 0 1.128-.01 2.246.01 3.374.01.386-.102.54-.54.53a182.54 182.54 0 00-4.44 0c-.337 0-.52-.125-.674-.395a2295.344 2295.344 0 00-5.542-9.488c-.122-.212-.255-.405-.388-.617-.03.02-.091.029-.142.038zM31.516 16.692c-1.94 0-3.878-.01-5.817.01-.419 0-.562-.106-.552-.521.01-5.12.01-10.25 0-15.37 0-.386.102-.53.541-.53 3.848.009 7.685.009 11.533 0 .408 0 .54.125.52.5-.02.647-.02 1.283 0 1.93.01.375-.122.5-.53.5-2.164-.019-4.317-.009-6.481-.009-.704 0-.725.02-.735.665 0 .887.01 1.765 0 2.652-.01.386.133.54.561.53 1.868-.019 3.746 0 5.614-.019.428 0 .561.135.54.53-.03.55-.02 1.09 0 1.64.021.366-.132.472-.51.463-1.857-.01-3.704.01-5.562-.02-.48-.01-.674.116-.653.588.03.946.02 1.9 0 2.845-.01.444.163.588.623.588 2.214-.01 4.419-.01 6.633-.01.674 0 .674 0 .674.647 0 .627-.02 1.253.01 1.88.02.395-.122.53-.551.52-1.95-.019-3.899-.009-5.858-.009zm34.741-8.235c0-2.526.01-5.043-.01-7.57 0-.5.163-.616.663-.616 3.776.019 7.552.019 11.329 0 .459 0 .642.096.612.559a13.659 13.659 0 000 1.832c.03.443-.153.54-.592.54-2.164-.02-4.317-.01-6.48-.01-.664 0-.674.01-.674.656 0 .868.02 1.736-.01 2.603-.01.434.132.589.612.589 1.806-.03 3.602-.01 5.409-.01.704 0 .704 0 .714.694 0 .453-.03.907.01 1.35.041.482-.163.588-.642.588-1.837-.019-3.675 0-5.512-.019-.449-.01-.602.135-.592.55.02.935.01 1.86.01 2.796 0 .627.031.656.684.656h6.481c.684 0 .684 0 .684.636 0 .646-.01 1.283.01 1.929.01.337-.081.492-.48.482-3.908-.01-7.817-.01-11.736 0-.45 0-.5-.193-.49-.53.01-2.565 0-5.13 0-7.705zm46.386-4.908c-1.062-.241-2.011-.53-2.97-.665-.858-.116-1.756-.068-2.623-.068-.184 0-.368.068-.541.135-.582.231-1.143.52-1.204 1.186-.062.656.438 1.013.99 1.273 1.306.617 2.643 1.167 3.929 1.832.826.424 1.663.897 2.347 1.504 2.113 1.871 1.847 5.092-.469 6.74-1.368.974-2.95 1.389-4.613 1.476a22.99 22.99 0 01-6.022-.463c-.429-.096-.622-.26-.592-.704.041-.704.01-1.417.01-2.121 0-.135.021-.28.031-.444.898.212 1.745.424 2.603.588 1.306.251 2.622.386 3.939.155.245-.039.5-.116.725-.203.561-.231.898-.627.949-1.215.051-.578-.255-1.012-.776-1.253-.959-.444-1.949-.84-2.929-1.235-1.255-.501-2.5-1.002-3.49-1.938-2.113-2.006-1.797-5.284.683-6.865 1.123-.714 2.389-1.032 3.726-1.186 1.959-.222 3.857.115 5.766.405.367.057.561.192.541.588-.031.82-.01 1.63-.01 2.478zm-100.569.019c-.847-.212-1.623-.443-2.409-.607-1.03-.212-2.082-.395-3.123-.145-.47.116-.939.29-1.327.56-.622.424-.632 1.128-.071 1.62.265.23.602.424.929.578 1.235.588 2.5 1.138 3.745 1.726 1 .463 1.93 1.032 2.633 1.861 1.603 1.91 1.245 4.686-.796 6.239-1.133.858-2.45 1.311-3.868 1.475-2.296.26-4.572.087-6.828-.366-.469-.097-.643-.26-.622-.733.04-.83.01-1.659.01-2.575.623.155 1.164.309 1.715.434 1.592.357 3.194.608 4.837.338.347-.058.694-.174.99-.347.919-.53.99-1.668.072-2.19-.909-.52-1.93-.867-2.899-1.291-.724-.319-1.49-.598-2.194-.974C1.541 8.476.521 7.512.163 6.066-.439 3.742.683 1.698 3.041.753 4.705.078 6.44-.115 8.226.078c1.092.115 2.184.28 3.276.405.48.058.653.26.623.723-.051.627-.01 1.253-.01 1.88-.01.145-.031.3-.041.482zm3.878 4.966c0-2.555.01-5.11-.01-7.656 0-.463.142-.608.632-.598 1.286.029 2.582.02 3.879 0 .387-.01.54.087.54.482-.01 5.159-.01 10.308 0 15.467 0 .357-.122.472-.5.472a142.471 142.471 0 00-4.03 0c-.42.01-.511-.144-.511-.51.01-2.556 0-5.102 0-7.657z"/></g><defs><clipPath id="clip0_105_18557"><path fill="#fff" d="M0 0h114v17H0z"/></clipPath></defs></svg>