<svg width="101" height="84" fill="none" xmlns="http://www.w3.org/2000/svg"><g clip-path="url(#clip0_14_67531)" stroke="#BBBBC2" stroke-width="3"><path d="M32.1 47.642l.435-2.5-2.4.824c-2.3.79-4.747 1.236-7.3 1.236-12.34 0-21.335-10.084-21.335-22.678C1.5 12.04 11.596 1.927 24.043 1.927c12.437 0 22.526 10.098 22.542 22.568l-.001.062v.03l.001.03v.003c.025.615 1.042 26.022-20.334 51.414a399.992 399.992 0 01-2.766 3.26l.192-.549c2.17-6.203 5.99-17.12 8.423-31.103zm52.649 0l.434-2.5-2.4.824a22.405 22.405 0 01-7.299 1.236c-12.34 0-21.336-10.084-21.336-22.678 0-12.484 10.096-22.597 22.543-22.597 12.437 0 22.527 10.098 22.543 22.568l-.002.062v.03l.002.03v.003c.024.615 1.042 26.022-20.334 51.414a399.992 399.992 0 01-2.766 3.26l.191-.549c2.17-6.203 5.991-17.12 8.424-31.103z"/></g><defs><clipPath id="clip0_14_67531"><path fill="#fff" d="M0 0h101v84H0z"/></clipPath></defs></svg>