<svg width="512" height="512" viewBox="0 0 512 512" fill="none" xmlns="http://www.w3.org/2000/svg">
<g clip-path="url(#clip0_296_9283)">
<rect width="512" height="512" rx="101" fill="#3D2B1B"/>
<mask id="mask0_296_9283" style="mask-type:alpha" maskUnits="userSpaceOnUse" x="-4" y="35" width="562" height="401">
<path d="M557.845 258C550.5 405.5 419.501 436 248.845 436C89.2265 433.246 39.5 421.5 14.5 397.5C-7.49996 371 -3.50009 318.5 -1.50009 262.5C2.89566 139.419 78.1889 35 248.845 35C419.501 35 557.845 134.84 557.845 258Z" fill="#D9D9D9"/>
</mask>
<g mask="url(#mask0_296_9283)">
<mask id="mask1_296_9283" style="mask-type:luminance" maskUnits="userSpaceOnUse" x="-478" y="63" width="1420" height="723">
<path d="M346.364 399.162C357.962 397.039 394.971 390.983 413.527 396.346C413.527 396.346 430.308 401.007 433.306 395.76C433.306 395.76 430.308 388.184 409.931 386.433C409.931 386.433 389.184 383.45 363.067 391.531L363.3 391.42C369.193 389.447 452.134 362.182 464.849 388.038C464.849 388.038 464.25 399.697 444.172 395.909C444.172 395.909 463.951 407.564 471.741 389.203C471.741 389.203 477.436 376.088 465.447 369.095C465.447 369.095 444.977 351.422 369.202 388.428C372.992 386.459 376.75 384.409 380.46 382.265L380.416 382.247C409.979 366.668 446.958 342.04 470.469 307.748C470.469 307.748 493.245 284.431 493.844 249.458C493.844 249.458 495.045 219.147 478.259 222.648C478.259 222.648 470.469 222.066 469.871 237.799C469.871 237.799 473.4 324.775 336.246 401.388C334.926 401.893 333.601 402.385 332.272 402.873C374.022 381.879 408.734 339.22 408.734 339.22C426.713 315.906 417.725 308.913 417.725 308.913C411.731 300.755 397.946 329.898 397.946 329.898C375.632 371.881 336.836 397.827 322.849 406.195C232.391 436.596 136.705 428.096 119.985 426.281C89.8368 421.894 35.4645 410.838 29.3293 387.602C29.3293 387.602 24.8357 375.361 45.0635 371.864C45.0635 371.864 62.818 368.072 100.673 373.837C100.62 373.55 100.69 343.346 100.686 339.875C71.5939 336.472 -1.25015 351.157 5.36483 381.417C4.74427 381.066 4.1061 380.724 3.45033 380.394C-0.435921 377.342 -10.7611 366.779 -20.7166 335.436C-20.7166 335.436 -28.696 330.313 -26.1125 343.303C-24.2508 352.651 -20.9058 364.113 -8.10279 373.82C-20.3821 365.619 -42.6433 351.439 -54.2845 348.255C-62.0174 346.145 -76.7569 342.717 -86.3471 350.297C-86.3471 350.297 -91.4437 354.089 -88.4465 356.999C-88.4465 356.999 -89.2695 361.733 -54.2845 364.284C-42.4893 365.144 -17.4817 369.835 -5.13199 375.926C-4.4234 376.392 -3.68839 376.859 -2.92699 377.321C-2.57049 377.565 -2.2404 377.792 -1.93232 378.002C-2.64531 377.723 -3.3627 377.454 -4.0801 377.193C-9.88967 374.509 -38.8671 362.371 -60.873 375.943C-60.873 375.943 -71.0618 382.354 -69.8647 388.184C-69.8647 388.184 -68.3815 394.587 -62.0746 387.602C-59.852 385.141 -56.6435 367.961 -23.639 372.81C-36.8646 373.606 -38.3962 380.313 -38.3962 380.313C-37.824 392.901 -30.5709 406.413 -8.72778 405.963C-7.08173 405.929 -2.1348 405.086 -5.43129 400.425C-5.43129 400.425 -10.8272 397.51 -13.5207 398.092C-13.5207 398.092 -5.73058 401.88 -8.12922 403.049C-8.12922 403.049 -22.6443 401.722 -26.2181 392.353C-26.4602 389.096 -22.5123 388.475 -22.5123 388.475C-10.5234 385.269 3.86845 393.234 11.0512 398.092C30.1479 411.01 66.7658 419.133 66.7658 419.133L66.559 419.009C80.81 423.165 97.6489 426.615 116.754 428.036C118.427 428.293 141.181 431.918 173.477 431.918C218.875 431.918 285.351 424.988 346.364 399.162ZM609.96 624.359H548.37V612.152H559.421C560.311 612.152 563.444 612.096 564.355 611.63C564.835 610.671 564.844 607.093 564.844 606.151V496.757H527.416V535.889C527.416 556.267 524.758 577.714 517.593 596.958C513.324 608.424 506.106 622.313 495.877 629.841L492.013 632.683L472.569 612.884L477.251 609.284C486.225 602.389 494.033 593.127 499.636 583.463C507.338 570.173 511.312 555.526 511.312 540.255V503.305C511.312 502.111 511.303 496.949 510.621 495.858C509.296 495.066 502.136 495.122 500.648 495.122H490.723V482.915H667.801V495.122H657.123C656.195 495.122 652.74 495.182 651.86 495.712C651.349 496.594 651.327 500.198 651.327 501.122V583.514L701.065 482.915H742.106V495.122H729.373C728.471 495.122 725.36 495.173 724.396 495.627C723.947 496.637 723.951 500.176 723.951 501.122V606.151C723.951 607.097 723.947 610.637 724.396 611.647C725.36 612.101 728.471 612.152 729.373 612.152H742.106V624.359H680.516V612.152H691.567C692.456 612.152 695.59 612.096 696.501 611.63C696.981 610.671 696.989 607.093 696.989 606.151V523.755L647.252 624.359H609.96ZM606.395 612.152H618.943C619.859 612.152 623.142 612.096 624.066 611.604C624.542 610.658 624.55 607.084 624.55 606.151V501.122C624.55 500.185 624.542 496.611 624.066 495.67C623.142 495.177 619.859 495.122 618.943 495.122H597.228C596.326 495.122 593.209 495.173 592.25 495.627C591.801 496.637 591.805 500.176 591.805 501.122V606.151C591.805 607.097 591.801 610.637 592.25 611.647C593.209 612.101 596.326 612.152 597.228 612.152H606.395ZM187.768 612.152H197.235C198.154 612.152 201.433 612.096 202.358 611.604C202.837 610.658 202.846 607.084 202.846 606.151V501.122C202.846 500.185 202.837 496.611 202.358 495.67C201.433 495.177 198.154 495.122 197.235 495.122H184.691V482.915H320.402V495.122H307.669C306.767 495.122 303.651 495.173 302.691 495.627C302.243 496.637 302.247 500.176 302.247 501.122V606.151C302.247 607.097 302.243 610.637 302.691 611.647C303.651 612.101 306.767 612.152 307.669 612.152H320.402V624.359H258.812V612.152H269.859C270.752 612.152 273.886 612.096 274.797 611.63C275.272 610.671 275.285 607.093 275.285 606.151V496.757H229.623V606.151C229.623 607.071 229.641 610.68 230.151 611.557C231.036 612.092 234.491 612.152 235.419 612.152H246.092V624.359H184.691V621.846L183.322 621.966C175.889 622.638 168.68 623.759 161.501 625.788L154.556 627.748V619.257C154.556 615.439 153.777 611.15 153.104 607.388C153.086 607.273 153.064 607.161 153.047 607.05C146.084 618.521 135.09 625.814 119.369 625.814C103.995 625.814 87.4294 620.168 79.4456 606.554C76.5892 601.683 75.1941 596.277 75.1941 590.679C75.1941 584.798 76.4792 579.075 79.1727 573.802C89.3395 553.891 114.585 547.536 135.653 547.536H146.317V513.864C146.317 501.264 140.424 495.301 127.419 495.301C113.955 495.301 101.742 500.673 101.025 515.028L100.215 531.344H85.5765L88.3756 477.817H101.35L100.787 487.469C108.898 483.407 118.15 481.46 127.234 481.46C141.881 481.46 158.931 484.507 167.914 497.005C172.003 502.693 173.657 509.353 173.657 516.231V606.151C173.657 606.905 173.635 608.899 173.798 610.119C174.225 610.149 174.692 610.149 174.96 610.149C176.272 610.149 177.592 609.982 178.921 609.969L187.468 609.532L187.768 612.152ZM-378.397 601.058L-371.892 475.189V470.734C-371.892 470.477 -371.892 469.989 -371.936 469.608C-373.494 469.077 -377.605 469.026 -378.815 469.026H-394.131V459.948C-439.912 488.693 -465.655 520.871 -465.655 554.679C-465.655 613.188 -388.546 666.821 -263.882 706.228C-137.176 746.285 38.004 771.058 231.634 771.058C282.6 771.058 332.289 769.342 380.152 766.081C377.155 769.667 374.299 774.054 373.762 778.536C327.844 781.506 280.311 783.068 231.634 783.068C36.7497 783.068 -139.795 758.06 -267.694 717.626C-397.63 676.55 -478 618.987 -478 554.679C-478 490.367 -397.63 432.804 -267.694 391.728C-215.843 375.335 -155.996 361.481 -90.1717 350.797C-93.6135 352.775 -93.9084 360.71 -84.0761 361.968C-150.877 372.634 -211.521 386.575 -263.882 403.126C-313.616 418.851 -355.77 436.836 -388.493 456.494H-348.94L-284.123 583.223L-219.307 456.494H-173.442V469.026H-187.187C-188.314 469.026 -194.542 469.176 -195.281 470.302C-195.655 470.866 -195.681 472.711 -195.681 473.357C-195.681 475.271 -195.47 477.192 -195.457 479.123L-189.621 601.161V601.195C-189.559 602.941 -189.388 608.899 -188.05 610.256C-186.734 611.583 -181.017 611.608 -179.327 611.608H-168.5V624.14H-243.839V611.608H-229.421C-227.947 611.608 -220.896 611.441 -219.787 610.222C-219.602 609.901 -219.58 608.715 -219.58 608.368V604.764L-224.091 499.59L-286.267 621.94L-288.291 626.542H-296.13L-298.154 621.945L-358.032 504.692L-363.499 604.371C-363.508 606.078 -363.723 607.773 -363.723 609.46C-363.723 609.738 -363.714 610.367 -363.635 610.731C-361.949 611.732 -355.097 611.822 -353.429 611.822H-339.235V624.359H-397.727V611.608H-388.251C-386.587 611.608 -381.698 611.574 -380.382 610.307C-378.925 608.903 -378.538 602.993 -378.397 601.058ZM-141.129 553.369C-140.244 585.577 -125.342 611.972 -88.7678 611.972C-66.7222 611.972 -44.6899 604.696 -32.0981 586.129L-28.9512 581.498L-17.3497 589.771L-20.2325 593.974C-35.7291 616.573 -62.6687 625.814 -89.7052 625.814C-134.069 625.814 -170.753 598.126 -170.753 553.181C-170.753 537.225 -166.132 521.885 -155.908 509.263C-139.87 489.472 -114.519 481.46 -89.3311 481.46C-65.9344 481.46 -41.8159 490.602 -28.1678 509.79C-21.39 519.321 -18.0099 530.325 -18.0099 541.894V542.806C-18.0099 549.042 -23.6918 553.369 -29.8095 553.369H-141.129ZM-0.440361 611.895C-0.229104 610.752 -0.23787 608.561 -0.23787 607.786V499.483C-0.23787 498.713 -0.229104 496.521 -0.440361 495.378C-1.85314 495.1 -4.88112 495.122 -5.84938 495.122H-18.3972V482.915H64.2835L63.6674 472.707L76.2856 471.479L81.0344 535.894H66.3961L65.0977 518.204L65.0933 518.161C64.0987 500.75 48.7077 496.757 33.2684 496.757H25.9536C26.3365 498.165 26.5345 499.624 26.5345 501.122V607.786C26.5345 608.552 26.5301 610.765 26.7634 611.869C28.163 612.169 31.3451 612.152 32.3353 612.152H51.0579V624.359H-18.3972V612.152H-5.84938C-4.88112 612.152 -1.85314 612.173 -0.440361 611.895ZM401.256 625.814C376.064 625.814 350.726 617.879 334.604 598.152C324.152 585.363 319.456 569.758 319.456 553.545C319.456 537.516 324.081 522.09 334.345 509.4C350.453 489.485 375.932 481.46 401.256 481.46C426.33 481.46 451.491 489.442 467.534 509.049C477.969 521.804 482.682 537.366 482.682 553.545C482.682 569.912 477.898 585.654 467.269 598.503C451.214 617.921 426.198 625.814 401.256 625.814ZM741.939 555.394L741.723 555.188V552.997C741.723 508.775 774.565 481.276 819.03 481.276C831.402 481.276 843.628 484.126 854.231 490.178L853.879 477.638H866.58L868.821 540.542L854.209 541.252L853.474 519.047C853.394 518.007 853.218 516.98 852.946 515.97C851.238 509.665 846.018 504.602 840.473 501.255C833.717 497.176 825.478 494.938 817.534 494.938C782.373 494.938 770.934 519.278 770.934 550.086C770.934 582.607 781.924 611.788 819.778 611.788C835.394 611.788 853.786 604.593 860.709 590.092L862.817 585.675L876.448 590.559L874.186 595.678C864.873 616.74 842.022 625.814 819.593 625.814C775.405 625.814 743.008 598.64 741.939 555.394ZM-140.526 539.45L-46.754 538.299C-48.0744 514.138 -62.7876 495.301 -89.516 495.301C-120.835 495.301 -137.264 511.206 -140.526 539.45ZM146.317 561.377H136.78C118.084 561.377 103.841 571.727 103.841 590.679C103.841 601.687 110.091 610.333 121.992 610.333C128.294 610.333 134.056 607.581 138.215 603.027C144.381 596.286 146.317 586.707 146.317 577.937V561.377ZM402.004 611.972C438.292 611.972 453.846 590.936 453.846 557.003C453.846 521.68 439.876 495.301 400.508 495.301C364.163 495.301 348.292 516.167 348.292 550.27C348.292 585.872 362.455 611.972 402.004 611.972ZM580.877 700.27C580.53 701.862 576.723 705.393 569.465 710.855C563.611 715.297 558.695 717.519 554.712 717.519C551.433 717.519 549.796 716.094 549.796 713.247C549.796 711.197 551.843 707.499 555.945 702.145C550.091 707.272 546.165 710.517 544.176 711.882C538.908 715.64 534.52 717.519 531.008 717.519C527.61 717.519 525.911 716.209 525.911 713.59C525.911 712.905 525.972 712.224 526.087 711.54H526.263C527.2 708.578 529.309 707.097 532.587 707.097C534.577 707.097 535.571 707.67 535.571 708.835C535.571 709.207 535.453 709.776 535.219 710.602C534.986 711.424 534.867 712.053 534.867 712.537C534.867 712.648 534.986 713.046 535.219 713.761C535.571 713.872 535.924 713.932 536.276 713.932C538.498 713.932 544.057 710.26 552.956 702.915C558.458 698.22 564.021 693.52 569.641 688.825C570.574 688.145 572.449 687.802 575.257 687.802C576.195 687.802 576.665 688.029 576.665 688.483C576.665 688.714 573.677 692.301 567.709 699.243C561.737 706.189 558.753 710.572 558.753 712.391C559.105 713.419 559.514 713.932 559.98 713.932C561.97 713.932 565.544 711.741 570.693 707.354C575.847 702.971 579.24 700.608 580.877 700.27ZM531.531 699.928C531.531 701.066 527.495 704.824 519.415 711.141C513.561 715.721 508.526 718.028 504.314 718.028C500.917 718.028 499.222 716.633 499.222 713.847C499.222 711.766 500.041 709.862 501.678 708.124H501.502C494.13 714.728 487.515 718.028 481.661 718.028C477.212 718.028 474.985 716.124 474.985 712.336C474.985 709.006 476.626 705.475 479.905 701.807H479.844C479.553 702.081 479.214 702.38 478.831 702.714C477.824 703.698 477.097 704.285 476.653 704.473C472.846 707.426 466.614 711.775 457.952 717.519C458.071 718.315 458.128 719.222 458.128 720.25C458.128 726.053 454.559 733.398 447.416 742.279C442.266 748.768 436.351 754.858 429.679 760.551C409.777 777.517 394.734 786 384.549 786C379.633 786 377.173 784.006 377.173 780.021C377.173 772.394 387.357 761.407 407.73 747.06C412.527 743.76 427.28 734.536 451.984 719.393C452.099 718.713 452.156 718.088 452.156 717.519C452.156 713.761 450.519 711.882 447.24 711.882C444.665 711.882 442.09 712.794 439.516 714.613C437.407 716.209 435.242 717.801 433.015 719.393C432.315 718.371 431.963 717.973 431.963 718.199C431.963 717.857 432.315 717.176 433.015 716.149C435.942 713.761 438.402 712.053 440.391 711.026C445.66 708.407 450.985 705.847 456.372 703.343C462.459 700.039 467.142 696.624 470.421 693.097C471.006 692.527 471.239 692.014 471.125 691.56L470.773 691.218C468.079 692.241 465.386 693.268 462.692 694.291C459.532 695.545 456.724 696.17 454.264 696.17C449.814 696.17 447.006 695.143 445.836 693.097C438.345 700.608 434.243 704.366 433.543 704.366C433.424 704.366 433.248 704.31 433.015 704.195V703.686V703.343C436.998 699.016 440.977 695.087 444.96 691.56V690.875C444.96 685.979 447.473 683.531 452.508 683.531C454.497 683.531 455.496 684.1 455.496 685.239C453.503 686.608 452.508 687.914 452.508 689.168C452.508 690.648 454.207 691.389 457.6 691.389C460.294 691.389 463.63 690.82 467.613 689.681C471.591 688.543 473.7 687.973 473.933 687.973C475.104 687.973 475.689 688.371 475.689 689.168C475.689 689.964 475.222 690.991 474.285 692.241C471.239 696.225 466.675 699.868 460.588 703.172C455.201 705.676 449.814 708.18 444.432 710.684V710.855C446.069 710.401 447.182 710.174 447.768 710.174C452.684 710.174 455.906 712.109 457.424 715.978C460.941 713.701 466.204 710.174 473.229 705.393C474.179 704.469 475.693 703.181 477.775 701.524C480.755 698.686 485.063 695.793 490.701 692.84C497.554 689.253 503.025 687.46 507.122 687.46C511.22 687.46 513.271 688.941 513.271 691.898C513.271 692.583 513.152 693.324 512.919 694.12H513.095C517.073 689.681 520.704 687.46 523.983 687.46C525.502 687.46 526.263 687.631 526.263 687.973C526.263 688.316 523.279 692.014 517.307 699.072C511.339 706.104 508.35 710.769 508.35 713.076L508.702 713.932C509.054 714.043 509.464 714.099 509.935 714.099C512.39 714.099 516.462 711.741 522.139 707.016C527.817 702.29 530.889 699.868 531.355 699.756C531.474 699.868 531.531 699.928 531.531 699.928ZM511.691 692.583C511.691 690.533 510.577 689.51 508.35 689.51C505.309 689.51 500.243 692.81 493.162 699.414C486.08 706.018 482.537 710.684 482.537 713.419C482.537 714.784 483.299 715.469 484.821 715.469C488.215 715.469 493.545 712.391 500.802 706.245C508.06 700.099 511.691 695.545 511.691 692.583ZM451.456 721.272C445.369 725.03 436.294 730.693 424.235 738.294C395.671 756.027 381.389 770.031 381.389 780.363C381.389 782.752 382.731 783.95 385.425 783.95C394.091 783.95 406.736 775.552 423.359 758.732C439.163 742.964 448.529 730.466 451.456 721.272ZM403.338 671.405C403.105 673.344 401.058 675.364 397.194 677.47C393.33 679.576 390.284 680.629 388.061 680.629C386.891 680.629 385.632 680.261 384.285 679.52C382.938 678.78 382.265 677.898 382.265 676.871V672.604C382.85 671.35 383.669 670.725 384.725 670.725C386.596 670.725 387.533 671.491 387.533 673.002C387.533 674.624 386.481 676.019 384.373 677.158C384.958 678.553 386.248 679.263 388.237 679.263C390.46 679.263 393.475 677.924 397.282 675.249C401.084 672.574 402.986 671.238 402.986 671.238C403.105 671.238 403.223 671.294 403.338 671.405ZM411.066 699.928C410.829 701.661 406.85 705.393 399.121 711.141C392.92 715.721 387.885 718.028 384.021 718.028C380.39 718.028 378.577 716.663 378.577 713.902C378.577 710.457 381.798 705.565 388.237 699.243L387.885 698.9C372.195 711.655 361.777 718.028 356.628 718.028C352.764 718.028 350.832 716.663 350.832 713.902C350.832 709.434 356.1 702.26 366.636 692.412V692.241C364.761 693.495 361.953 695.545 358.208 698.391C356.8 699.641 354.696 701.409 351.884 703.686C351.602 703.865 351.338 704.015 351.091 704.122C348.244 707.324 344.881 710.251 340.995 712.905C336.079 716.32 331.981 718.028 328.702 718.028C325.309 718.028 323.61 716.718 323.61 714.099C323.61 712.28 324.314 710.23 325.718 707.953C321.973 711.142 318.87 712.734 316.41 712.734C315.943 712.734 315.301 712.734 314.478 712.734C308.043 716.265 303.356 718.028 300.429 718.028C296.569 718.028 294.637 716.663 294.637 713.902C294.637 710.345 297.973 704.88 304.646 697.535L303.77 697.706C301.305 699.436 299.307 700.826 297.767 701.884C295.385 706.451 291.534 710.354 286.209 713.59C281.526 716.547 277.662 718.028 274.616 718.028C270.638 718.028 268.648 716.38 268.648 713.076C268.648 710.572 269.819 707.782 272.156 704.709C268.529 707.212 264.665 708.466 260.568 708.466C257.526 708.466 255.357 707.499 254.072 705.565C252.43 708.068 249.741 711.595 245.991 716.149C243.887 717.061 241.893 717.519 240.023 717.519C237.448 717.519 236.159 717.061 236.159 716.149C236.159 714.557 238.791 710.628 244.059 704.366C248.508 698.9 252.021 694.976 254.595 692.583V692.412C248.856 696.983 244.988 699.855 242.994 701.028C241.841 702.834 237.924 706.198 231.243 711.141C224.918 715.721 219.65 718.028 215.438 718.028C212.04 718.028 210.346 716.693 210.346 714.043C210.346 711.398 212.92 707.071 218.07 701.092C223.224 695.087 225.798 691.813 225.798 691.218C225.798 690.649 225.389 690.362 224.57 690.362C221.058 690.362 213.796 694.976 202.793 704.195C191.79 713.418 185.114 718.028 182.772 718.028C180.902 718.028 179.964 717.686 179.964 716.975C179.964 714.643 182.922 709.887 188.833 702.714C194.744 695.545 197.701 691.757 197.701 691.415C197.701 690.704 197.23 690.362 196.297 690.362C193.133 690.362 185.875 694.976 174.52 704.195C163.165 713.418 156.55 718.028 154.675 718.028C152.686 718.028 151.691 717.686 151.691 716.975C151.691 715.353 154.499 710.855 160.119 703.484C165.74 696.114 168.609 692.382 168.724 692.271C168.49 691.56 168.138 691.218 167.672 691.218C165.683 691.218 162.109 693.439 156.959 697.878C155.52 699.119 154.279 700.185 153.232 701.079C152.976 701.379 152.642 701.738 152.219 702.145C147.884 706.472 143.087 710.119 137.819 713.076C131.613 716.607 125.874 718.371 120.61 718.371C114.167 718.371 110.949 716.265 110.949 712.053C110.949 708.98 112.353 705.62 115.166 701.978H114.959C114.444 702.47 113.977 702.89 113.559 703.24C112.798 703.972 111.865 704.82 110.773 705.791C107.846 708.325 105.624 710.144 104.101 711.313C98.0142 715.781 92.9793 718.028 88.9962 718.028C86.4215 718.028 84.6654 717.117 83.7324 715.297C83.2614 714.159 83.0282 712.164 83.0282 709.318C83.0282 705.107 82.0907 703.343 80.2158 704.024C81.3865 703.001 83.147 702.487 85.4841 702.487C88.6485 702.487 90.607 704.396 91.3685 708.21C92.1299 712.023 93.2126 713.932 94.6165 713.932C97.1956 713.932 101.262 711.625 106.821 707.016C108.445 705.667 109.862 704.512 111.073 703.553L111.125 703.343C114.431 699.756 119.29 696.255 125.671 692.81C132.52 689.253 138.14 687.46 142.501 687.46C145.926 687.46 147.651 688.941 147.651 691.928C147.651 697.081 138.813 702.402 121.134 707.897C120.434 710.2 120.082 711.741 120.082 712.537C120.082 714.613 121.429 715.64 124.122 715.64C127.749 715.64 132.022 714.27 136.938 711.54C140.336 709.605 144.024 707.041 148.003 703.853L148.632 703.33C149.631 702.004 153.346 698.656 159.767 693.324C164.45 689.424 168.548 687.46 172.06 687.46C174.987 687.46 176.452 688.77 176.452 691.415C176.452 693.379 172.707 699.102 165.212 708.638L165.74 708.809C182.948 694.578 194.303 687.46 199.809 687.46C203.555 687.46 205.425 688.77 205.425 691.415C205.425 693.379 203.845 696.281 200.685 700.21C198.225 702.945 195.769 705.761 193.309 708.638L193.837 708.809C211.046 694.578 222.462 687.46 228.083 687.46C231.709 687.46 233.527 688.714 233.527 691.248C233.527 693.182 231.243 696.94 226.674 702.487C222.11 708.068 219.826 711.57 219.826 713.076L220.002 713.761C220.354 713.872 220.763 713.932 221.23 713.932C223.69 713.932 227.436 711.938 232.471 707.953C236.48 704.846 239.407 702.637 241.251 701.314V701.293C242.303 699.016 245.467 696.311 250.735 693.182C256.004 690.049 259.925 688.483 262.5 688.483C264.722 688.483 265.836 688.77 265.836 689.339C265.836 689.792 263.085 693.495 257.584 700.437C258.521 701.006 258.988 701.747 258.988 702.658C258.988 703.228 258.724 703.827 258.195 704.452C257.672 705.081 257.408 705.505 257.408 705.732C257.408 706.759 258.169 707.272 259.692 707.272C264.256 707.272 268.529 705.676 272.508 702.487C272.741 702.376 275.787 699.358 281.641 693.439C284.919 690.135 287.846 688.483 290.421 688.483C292.881 688.483 294.109 688.825 294.109 689.51C294.109 689.737 291.446 693.067 286.121 699.5C280.791 705.933 278.128 710.003 278.128 711.711C278.128 712.507 278.304 713.106 278.657 713.504C279.009 713.902 279.418 714.099 279.885 714.099C281.733 714.099 286.372 710.731 293.805 703.985L293.757 703.853C293.757 703.6 294.787 702.71 296.838 701.19L297.093 700.951H297.164C299.729 699.067 303.748 696.294 309.21 692.639C309.799 692.185 310.499 691.586 311.318 690.905C311.789 690.678 312.141 690.507 312.374 690.392C315.182 688.427 317.347 687.46 318.87 687.46C320.745 687.46 321.797 687.631 322.03 687.973C318.751 692.155 315.415 696.341 312.022 700.523C306.754 707.127 304.117 711.253 304.117 712.879C304.236 712.991 304.439 713.247 304.734 713.675C305.024 714.073 305.464 714.27 306.05 714.27C307.572 714.27 309.857 712.879 312.898 710.089C313.721 706.472 315.653 704.255 318.694 703.429C318.694 703.429 318.694 702.205 318.694 699.756L318.87 699.585C318.989 699.47 319.165 699.414 319.398 699.414C321.154 699.414 322.03 700.608 322.03 703.001C322.03 705.162 319.808 708.068 315.358 711.711L315.886 711.882C319.75 711.882 325.164 707.812 332.127 699.671C339.094 691.53 344.683 687.46 348.9 687.46C349.718 687.46 350.422 687.575 351.008 687.802C350.656 688.372 347.319 692.553 340.995 700.356C335.731 706.87 333.095 711.056 333.095 712.905C333.095 712.905 333.24 713.132 333.535 713.59C333.825 714.043 334.147 714.27 334.499 714.27C335.903 714.27 339.301 711.968 344.683 707.354C347.275 705.137 349.269 703.45 350.669 702.303C352.007 700.565 355.224 697.95 360.312 694.492C367.222 689.793 372.314 687.46 375.593 687.46C376.878 687.46 377.639 687.631 377.877 687.973C377.758 688.23 374.536 692.356 368.216 700.437C362.948 707.097 360.312 711.227 360.312 712.879C360.431 712.991 360.607 713.217 360.84 713.59C361.073 713.932 361.425 714.099 361.896 714.099C364.823 714.099 376.53 705.847 397.018 689.369C398.536 688.085 400.235 687.46 402.11 687.46C404.566 687.46 405.798 687.747 405.798 688.316C405.798 689.026 402.84 692.754 396.93 699.555C391.019 706.361 388.061 710.684 388.061 712.537C388.061 713.02 388.176 713.389 388.413 713.675C388.647 713.958 388.999 714.099 389.465 714.099C393.444 714.099 399.883 709.716 408.782 700.951L411.066 699.928ZM141.507 691.076C141.507 690.024 140.803 689.51 139.399 689.51C137.057 689.51 133.835 691.731 129.738 696.14C126.578 699.5 124.06 702.83 122.19 706.074V706.245C135.068 702.175 141.507 697.107 141.507 691.076ZM108.841 692.241C108.841 695.656 107.028 697.364 103.397 697.364C100.708 697.364 99.361 696.795 99.361 695.63C99.361 695.374 99.5634 694.83 99.9727 693.948C100.382 693.097 100.589 692.412 100.589 691.958C100.589 690.336 99.7087 689.51 97.9526 689.51C93.6218 689.51 86.2763 694.261 75.9159 703.767C65.5555 713.277 59.1429 718.028 56.6871 718.028C55.2831 718.028 54.3456 717.857 53.8747 717.519C53.8747 717.373 53.8747 717.146 53.8747 716.804C53.8747 713.761 58.0339 707.127 66.3433 696.855V696.683C63.8302 699.127 61.8893 700.861 60.5161 701.888C58.135 706.455 54.2841 710.354 48.9586 713.59C44.2758 716.547 40.4115 718.028 37.3703 718.028C33.3872 718.028 31.3979 716.38 31.3979 713.076C31.3979 710.572 32.5686 707.782 34.91 704.709C31.2834 707.212 27.4192 708.466 23.3217 708.466C20.2761 708.466 18.1107 707.499 16.8211 705.565C15.1839 708.068 12.4903 711.595 8.74492 716.149C6.63675 717.061 4.64743 717.519 2.77253 717.519C0.197833 717.519 -1.08732 717.061 -1.08732 716.149C-1.08732 714.557 1.54462 710.628 6.81284 704.366C11.2624 698.9 14.7746 694.976 17.3493 692.583V692.412C11.5661 697.017 7.68427 699.893 5.70373 701.053C4.32176 702.834 0.479487 706.207 -5.83182 711.141C-11.6854 715.721 -16.7203 718.028 -20.9323 718.028C-24.33 718.028 -26.0245 716.633 -26.0245 713.847C-26.0245 711.766 -25.2058 709.862 -23.5686 708.124H-23.7446C-31.1166 714.728 -37.7316 718.028 -43.5852 718.028C-48.0348 718.028 -50.2574 716.124 -50.2574 712.336C-50.2574 709.006 -48.6201 705.475 -45.3413 701.807H-45.5173C-47.2734 703.626 -48.3869 704.537 -48.8534 704.537C-49.0867 704.537 -49.2627 704.482 -49.3815 704.366V704.024C-49.3815 704.024 -49.3243 703.797 -49.2055 703.343C-46.2787 699.928 -41.3934 696.427 -34.5407 692.84C-27.6925 689.253 -22.2218 687.46 -18.1243 687.46C-14.0268 687.46 -11.9759 688.941 -11.9759 691.898C-11.9759 692.583 -12.0947 693.324 -12.3279 694.12H-12.1519C-8.17324 689.681 -4.54227 687.46 -1.26338 687.46C0.255029 687.46 1.02086 687.631 1.02086 687.973C1.02086 688.316 -1.96753 692.014 -7.93554 699.072C-13.908 706.104 -16.892 710.769 -16.892 713.076L-16.5443 713.932C-16.1922 714.043 -15.7829 714.099 -15.3119 714.099C-12.8561 714.099 -8.78498 711.741 -3.10745 707.016C0.123019 704.323 2.50847 702.384 4.05329 701.19C5.15359 698.935 8.3004 696.264 13.485 693.182C18.7532 690.049 22.6791 688.483 25.2538 688.483C27.4764 688.483 28.5899 688.77 28.5899 689.339C28.5899 689.792 25.8392 693.495 20.3333 700.437C21.2707 701.006 21.7416 701.747 21.7416 702.658C21.7416 703.228 21.4776 703.827 20.9495 704.452C20.4213 705.081 20.1616 705.505 20.1616 705.732C20.1616 706.759 20.9187 707.272 22.4415 707.272C27.0099 707.272 31.2834 705.676 35.2621 702.487C35.4953 702.376 38.541 699.358 44.3945 693.439C47.6734 690.135 50.6002 688.483 53.1749 688.483C55.6308 688.483 56.8631 688.825 56.8631 689.51C56.8631 689.737 54.2004 693.067 48.8706 699.5C43.5451 705.933 40.8824 710.003 40.8824 711.711C40.8824 712.507 41.0585 713.106 41.4106 713.504C41.7583 713.902 42.1675 714.099 42.6385 714.099C44.6234 714.099 49.8212 710.217 58.2363 702.449C58.9273 701.118 61.8364 698.4 66.9594 694.291C72.637 689.737 76.1799 687.46 77.5839 687.46C79.8065 687.46 80.92 688.145 80.92 689.51V689.852C77.8744 694.064 73.1959 700.326 66.8714 708.638L67.2235 708.809C74.9476 702.034 80.2158 697.621 83.0282 695.545C90.4046 690.165 96.6103 687.46 101.641 687.46C106.443 687.46 108.841 689.052 108.841 692.241ZM-13.5559 692.583C-13.5559 690.533 -14.6694 689.51 -16.892 689.51C-19.9376 689.51 -24.999 692.81 -32.0849 699.414C-39.1664 706.018 -42.7093 710.684 -42.7093 713.419C-42.7093 714.784 -41.948 715.469 -40.4251 715.469C-37.0318 715.469 -31.702 712.391 -24.4444 706.245C-17.1868 700.099 -13.5559 695.545 -13.5559 692.583ZM-66.0664 664.745C-65.7143 661.672 -64.57 658.912 -62.6379 656.463C-60.7102 654.015 -58.1619 651.965 -55.0019 650.317C-51.8418 648.665 -48.2416 647.441 -44.2013 646.645C-40.161 645.849 -35.8611 645.507 -31.2927 645.618C-26.8431 645.733 -22.0458 646.161 -16.892 646.902C-11.7426 647.642 -6.82648 648.408 -2.14362 649.204C1.95389 649.889 6.52232 650.574 11.5573 651.255C16.5878 651.939 21.9177 652.449 27.5336 652.791C35.2621 653.134 41.6702 652.393 46.7624 650.574C51.859 648.751 54.7549 645.849 55.4591 641.864C56.1589 638.106 54.6361 634.832 50.8907 632.041C47.1453 629.255 41.7582 627.86 34.7339 627.86C29.8178 627.86 25.4298 628.686 21.5656 630.334C17.7013 631.986 14.6557 634.066 12.4331 636.57C11.1436 637.819 10.2677 639.356 9.79681 641.179C9.56354 641.975 9.41831 642.575 9.36109 642.973C9.29948 643.371 9.15424 643.572 8.92097 643.572C8.56888 643.572 8.45448 642.831 8.56891 641.351C8.80217 639.3 9.68241 637.366 11.2052 635.542C13.4278 632.696 16.5307 630.334 20.5093 628.455C24.4924 626.58 29.2897 625.638 34.91 625.638C38.6554 625.638 42.0531 626.036 45.0944 626.833C48.14 627.633 50.6883 628.827 52.7348 630.419C54.7858 632.016 56.2777 633.95 57.2152 636.227C58.1482 638.504 58.3243 641.124 57.739 644.081C57.2724 646.474 56.1281 648.58 54.3148 650.403C52.5015 652.222 50.1865 653.703 47.3786 654.841C44.5706 655.98 41.2917 656.806 37.5463 657.32C33.8009 657.829 29.8178 658.03 25.6015 657.914C20.3333 657.914 15.3907 657.546 10.7651 656.806C6.13945 656.065 0.840428 655.068 -5.12758 653.818C-9.81045 652.907 -14.5241 652.051 -19.2642 651.255C-24.0043 650.459 -28.718 649.945 -33.4008 649.718C-37.2651 649.491 -40.9797 649.662 -44.5534 650.232C-48.1228 650.801 -51.3137 651.738 -54.1216 653.048C-56.934 654.358 -59.2138 656.036 -60.9699 658.086C-62.726 660.136 -63.7822 662.528 -64.1343 665.259C-64.3676 668.332 -64.0727 671.551 -63.2541 674.906C-62.4355 678.266 -60.2701 681.425 -56.7579 684.387C-55.1163 685.752 -53.5363 686.976 -52.0134 688.059C-50.495 689.138 -49.5004 690.477 -49.0295 692.069C-48.3253 694.689 -49.0867 697.651 -51.3137 700.951C-53.5363 704.255 -56.6963 707.328 -60.7938 710.174C-68.4035 715.64 -74.904 718.371 -80.2867 718.371C-86.0258 718.371 -88.8954 716.265 -88.8954 712.053C-88.8954 707.726 -87.2538 703.797 -83.9749 700.27V700.099C-87.0205 703.056 -88.8954 704.537 -89.5952 704.537L-89.7713 704.366V704.024L-89.5952 703.343C-85.8498 699.47 -80.8148 695.887 -74.4947 692.583C-68.0558 689.168 -62.4355 687.46 -57.6338 687.46C-57.1672 687.46 -56.8151 687.747 -56.5819 688.316C-56.6963 688.427 -57.3433 688.77 -58.514 689.339C-60.3845 690.25 -62.4927 691.616 -64.8341 693.439C-67.1755 695.258 -69.693 697.48 -72.3866 700.099C-78.3546 706.134 -81.343 710.855 -81.343 714.27C-81.343 715.867 -80.5243 716.663 -78.8827 716.663C-74.5519 716.663 -69.2265 713.419 -62.902 706.93C-59.6275 703.626 -57.2817 700.754 -55.8777 698.306C-54.4737 695.857 -53.7695 693.495 -53.7695 691.218C-53.7695 689.852 -54.4737 688.628 -55.8777 687.545C-57.2817 686.463 -58.8045 685.042 -60.4461 683.274C-62.0834 681.511 -63.5181 679.208 -64.7461 676.362C-65.9784 673.511 -66.4141 669.642 -66.0664 664.745ZM100.329 419.429C101.276 357.307 101.328 303.721 100.012 239.755L89.6167 245.995L89.2515 225.806L103.428 213.861L103.168 203.738L108.643 198.076L107.952 180.964L118.546 170.743L118.537 164.657C120.275 163.202 119.448 163.993 121.666 163.835C121.943 163.814 122.797 164.276 122.877 164.332L122.921 169.784L145.609 176.277L148.764 174.398L194.176 192.216L194.629 204.92L204.263 210.017L204.703 233.279L198.419 231.786L201.381 328.952C206.037 330.347 207.155 326.097 207.142 330.647L211.446 330.103L211.468 330.099L211.71 330.069C211.767 329.842 211.798 329.573 211.772 329.115C211.692 327.861 210.909 330.334 211.671 328.173C213.237 327.36 215.165 327.552 217.462 327.458C217.229 324.017 212.678 322.318 212.96 316.985C213.114 314.147 213.642 315.483 212.934 313.021C210.24 313.137 210.126 313.745 209.479 311.75C211.138 309.345 214.087 311.378 216.261 311.468L216.323 312.876C218.466 314.276 217.779 315.405 221.881 317.832C224.183 313.116 222.656 311.635 223.074 304.423C223.127 303.507 223.078 303.755 223.043 302.968C222.673 295.109 223.51 296.599 223.655 295.041C223.747 294.039 223.254 293.093 223.114 291.377C222.277 281.182 221.762 271.736 221.296 261.237C220.121 259.812 218.897 259.94 217.999 257.338C217.291 255.283 217.418 252.206 217.942 250.562C220.222 243.368 224.632 246.411 227.422 246.351L227.378 245.409C219.738 245.576 218.765 240.692 220.68 236.725C221.349 235.338 222.269 234.692 223.967 234.23C221.542 231.019 220.592 231.058 223.611 226.226C225.613 227.056 225.856 227.09 227.99 226.508C227.488 215.26 227.532 205.433 227.044 194.463C225.42 194.168 224.355 193.278 223.593 191.711C222.779 190.033 223.536 190.41 222.141 188.321C221.314 187.084 221.991 189.049 221.379 187.157C224.852 187.791 224.121 189.64 226.855 190.226C226.296 188.501 226.335 189.64 225.781 187.915C228.113 184.187 226.907 187.311 226.74 183.934C226.626 181.576 227.004 183.635 227.343 181.187C227.48 180.194 227.304 178.529 227.255 177.471L227.233 177.001C227.132 174.758 227.145 171.3 227.07 169.998C226.899 167.109 226.648 165.577 226.912 162.62C227.33 157.95 224.667 162.174 223.8 154.5C223.457 151.453 223.43 153.542 222.687 151.239C226.045 151.453 223.338 152.185 226.709 154.372C226.516 151.504 226.023 153.298 226.775 151.269C227.321 149.788 227.149 150.584 226.934 148.247C226.661 145.349 227.4 136.04 226.661 131.242C226.388 129.475 226.15 129.552 224.975 128.589C223.695 127.531 223.026 127.386 222.541 126.239C225.503 124.694 226.824 125.682 227.471 122.502C228.069 119.575 226.771 115.586 227.783 113.279C225.499 113.373 225.613 113.287 223.888 112.971L226.445 112.478C226.885 112.436 227.242 112.367 227.739 112.337C226.569 110.895 227.81 112.136 226.379 111.545L224.975 110.873C223.356 109.803 223.681 109.226 221.762 108.815C221.965 109.525 222.352 110.326 221.868 111.169C221.657 110.428 221.309 108.913 220.975 108.168C220.446 106.996 220.143 107.218 219.676 105.6C219.799 105.639 219.98 105.613 220.028 105.754L221.151 106.011L221.582 103.174L219.716 104.732C220.345 100.832 221.089 102.146 223.677 99.2188C225.222 97.4682 225.081 97.9133 227.048 96.7962C226.907 93.6076 225.869 87.6155 226.564 85.9634C229.02 86.4898 227.713 87.089 227.713 90.1364C227.713 92.0967 227.906 94.2967 227.994 96.2826C230.072 95.7647 228.54 96.0686 230.899 96.1585L228.518 97.2028C230.926 98.0332 228.012 99.0476 232.647 99.8051C232.748 99.8223 232.893 99.8693 232.985 99.8779C234.169 99.9892 233.566 100.289 234.438 99.3129C234.742 101.633 235.367 100.614 236.057 103.019L234.605 103.079C234.653 105.151 234.345 104.56 234.271 106.401C235.758 105.237 234.631 105.596 236.123 104.432C236.035 106.623 235.208 107.445 233.668 108.575C230.054 111.233 232.114 111.032 229.658 111.785C229.337 112.517 227.348 121.826 232.167 124.904C232.638 125.203 233.333 125.546 233.927 125.999C235.168 126.937 234.728 126.072 235.217 127.591C232.427 128.345 233.263 128.323 231.423 129.637L231.982 143.702C231.256 153.991 233.122 148.778 232.959 152.326C232.814 155.498 233.214 153.94 233.624 154.95C234.957 158.275 232.633 156.259 233.505 158.194C234.086 159.474 234.979 157.967 237.043 157.71L235.851 159.358C234.918 161.374 235.723 161.871 233.382 162.585C233.509 165.38 232.867 168.141 233.698 169.647L232.413 170.717C232.413 170.717 230.679 170.97 233.276 171.081C233.399 173.821 233.346 177.433 233.659 180.057C234.011 183.018 234.293 181.152 234.627 183.267L233.949 186.151C238.034 184.906 238.227 179.269 240.564 182.098C236.85 182.655 240.423 184.084 237.167 189.922C236.564 191.001 236.471 191.369 235.173 191.763C235.441 197.669 235.151 202.129 235.424 208.267C235.683 214.075 235.943 219.883 236.203 225.691C237.743 225.661 238.513 225.836 239.838 226.273C241.867 226.945 241.106 226.893 242.602 227.779C242.752 231.118 242.721 231.388 241.405 233.493L237.325 233.677C235.758 233.9 235.78 233.001 233.126 232.898C234.94 235.903 233.241 238.591 238.029 236.37C239.31 235.775 239.517 235.809 239.944 234.709C239.957 234.679 239.957 234.559 239.992 234.495C242.915 234.375 244.305 234.996 244.877 237.213C245.507 239.644 245.071 242.199 244.107 243.611C242.276 246.295 241.885 244.164 238.575 244.883L236.788 244.874C235.454 244.553 235.116 244.258 233.632 244.202C234.323 246.334 235.34 245.46 235.78 248.829L237.171 247.357C237.497 249.86 238.201 249.004 241.59 248.585L240.56 247.211L242.981 247.108C242.611 246.822 242.857 246.762 242.153 246.509C241.004 246.094 241.889 246.325 240.52 246.269C240.613 246.205 240.78 246.021 240.837 246.124C240.894 246.227 241.092 246.013 241.163 246C241.779 245.888 241.387 245.846 242.246 245.88C248.927 246.18 249.851 253.195 247.435 257.86C245.04 262.474 244.93 258.643 245.296 266.356C245.502 270.679 246.642 280.189 245.458 284.14C244.715 286.609 245.982 293.949 246.176 296.505C246.726 303.798 245.793 312.17 248.513 316.711C252.549 313.835 252.712 313.184 254.424 309.764C255.211 308.202 254.441 309.148 255.832 308.292C256.695 307.761 257.21 307.372 257.522 307.098C257.672 308.296 257.962 309.486 258.398 310.646C258.42 314.181 259.657 317.631 261.941 320.405C262.064 320.623 262.192 320.841 262.328 321.059L287.085 311.361L286.671 281.114L283.344 278.708L283.185 277.12L291.728 273.379L291.376 266.27L297.74 255.711L300.517 257.051L312.665 233.087L312.224 222.104C312.163 221.629 308.593 220.148 308.637 219.506C308.761 219.463 309.98 218.971 310.125 218.967L310.059 215.984L313.725 213.364L313.8 216.604L315.349 215.744C315.921 216.086 315.851 216.313 315.772 217.054C315.666 218.029 314.355 219.977 313.589 220.636C313.501 220.713 313.096 221.372 313.025 221.419L314.764 233.549L329.151 257.273L331.334 255.574L334.349 261.866L336.299 261.447L336.924 271.856L344.965 274.865L344.749 276.902L343.248 279.984L343.869 301.833L345.88 302.715L345.946 305.762L352.473 306.935L354.194 304.5L360.532 305.039L360.294 269.159L357.926 269.228L357.944 266.18L357.834 265.072L359.502 265.003L359.436 261.408L358.521 260.406L356.439 260.402L356.461 258.57L354.502 258.712L354.309 257.149L352.689 257.115L352.566 254.637L355.325 254.389L355.281 253.528L354.361 253.644L359.924 249.449L359.608 240.945L362.658 240.68L362.631 239.057L363.608 238.989L362.614 205.818L361.632 205.835L361.461 203.567L362.578 202.78L362.442 199.03C361.483 198.868 360.475 197.806 360.431 196.941L359.251 195.298C358.195 194.78 357.79 193.325 358.653 192.601L360.985 190.761L363.155 190.252L362.741 186.729C363.573 185.835 364.084 185.848 364.471 185.522C365.391 184.748 365.008 185.18 365.756 184.692L365.197 175.952L364.238 176.376L364.136 174.403L366.192 172.785L366.148 170.807L369.651 164.31C371.398 159.221 378.044 154.787 386.803 152.784L385.914 152.797L385.768 151.08L388.176 149.591L387.78 139.52L386.081 137.966L386.006 136.503L387.053 135.514L389.228 135.056L392 82.8475L392.955 82.321L393.268 82.2825L393.193 80.7588C392.159 80.6389 391.362 79.9713 391.318 79.1152C391.274 78.2549 392 77.4845 393.013 77.2192L392.484 66.84L390.922 66.382C390.579 66.2836 390.403 65.9497 390.526 65.6458C390.654 65.3419 391.036 65.175 391.38 65.2735L392.418 65.5773L392.33 63.8439C392.313 63.5229 392.599 63.2404 392.964 63.2147C393.33 63.1891 393.638 63.433 393.655 63.7498L393.77 65.9711L395.843 66.5789C396.181 66.6773 396.358 67.0112 396.234 67.3151C396.107 67.6189 395.724 67.7859 395.385 67.6874L393.831 67.2337L394.337 77.1764C395.257 77.3647 395.939 77.9939 395.979 78.7857C396.023 79.5775 395.407 80.2965 394.513 80.6133L394.593 82.1755L395.526 82.3681L400.297 134.679L402.884 135.514L402.849 137.14L401.199 138.78L401.951 149.026L403.73 149.865L403.738 150.01L403.796 150.045L403.835 151.979C412.211 153.674 418.645 157.655 420.577 162.465L424.411 168.787L424.468 170.765L426.607 172.275V174.253L425.625 173.876L425.515 182.633C426.294 183.083 425.885 182.672 426.845 183.399C427.249 183.703 427.76 183.669 428.636 184.521L428.442 187.53C429.78 187.782 431.101 188.373 431.752 189.28L433.024 190.183C433.922 190.868 433.592 192.336 432.566 192.91L431.47 194.609C431.475 195.469 430.52 196.582 429.569 196.792L429.631 200.541L430.784 201.273L430.731 203.55L429.749 203.58L430.467 236.755L431.448 236.776L431.505 238.398L434.564 238.514L434.661 245.118L440.356 250.318L440.026 250.648L440.462 250.943L439.784 250.892L439.538 251.144V251.735L442.306 251.842L442.31 254.325L440.695 254.44L440.581 256.007L438.618 255.964L438.737 257.791L436.659 257.898L435.792 258.943L435.907 262.405L436.923 262.333L436.914 262.529L437.583 262.525L437.702 266.681L435.339 266.728L436.985 303.263L440.911 306.186V307.106C431.567 321 420.344 333.827 407.928 345.601C409.152 344.21 410.367 342.802 411.528 341.373L411.555 341.338L411.586 341.3C416.863 334.456 423.548 324.291 423.574 315.367C423.583 312.405 422.69 308.664 420.344 306.537C419.314 305.283 417.959 304.38 416.295 304.093C412.976 303.52 410.041 305.626 407.858 307.804C405.578 310.077 403.589 312.885 401.859 315.572C399.262 319.596 396.793 324.047 394.742 328.374C384.76 347.134 370.773 363.813 354.854 378.104C344.617 387.294 333.183 395.905 321.313 403.044C280.558 416.689 236.608 423.186 193.621 424.856C177.83 425.468 161.972 425.433 146.181 424.719C137.612 424.333 128.977 423.764 120.447 422.84C113.74 421.864 107.01 420.742 100.329 419.429ZM201.398 329.551L201.447 331.079L203.383 331.122L206.451 330.737L206.385 329.337L201.398 329.551ZM217.462 327.458L218.475 328.357C217.273 328.104 217.828 328.597 217.462 327.458ZM244.957 323.936C244.675 322.724 245.423 323.61 245.617 324.004C246.07 324.92 245.084 324.471 244.957 323.936ZM250.52 318.038C250.476 317.083 250.427 317.849 251.039 317.879C252.491 317.944 250.925 316.959 251.264 318.008C251.602 319.052 250.542 318.59 250.52 318.038ZM253.887 317.421C253.852 317.391 253.35 316.951 253.125 316.749L252.373 316.073L253.825 316.013L253.887 317.421ZM218.448 317.036L221.08 319.377L220.05 320.272C220.015 320.212 219.976 320.114 219.962 320.088L218.448 317.036ZM257.571 313.026L258.055 313.004C258.116 314.438 258.354 314.716 258.666 315.808L257.214 315.868C257.43 314.755 257.637 314.46 257.571 313.026ZM218.448 317.036C217.392 316.343 217.819 317.019 217.423 315.667C218.488 316.326 218.057 315.709 218.448 317.036ZM216.323 312.876L216.556 318.059C215.253 317.216 213.884 313.621 216.323 312.876ZM238.562 278.438C240.899 279.744 244.107 276.384 242.62 280.934C241.731 283.656 242.752 279.38 242.369 281.64C241.942 284.144 243.073 280.638 243.416 289.096L243.482 294.63C243.403 296.505 242.945 298.649 242.65 300.626L243.069 314.104C243.451 316.51 244.534 316.013 244.75 319.228L239.42 319.45C239.328 317.4 238.87 316.137 238.887 314.858L238.593 300.596C238.395 296.107 237.523 295.721 237.219 294.211C236.815 292.225 237.615 293.676 237.343 291.981C237.325 291.891 237.039 291.026 237.03 290.983C236.484 288.655 237.338 288.535 237.021 287.007C236.55 284.747 237.554 286.173 235.969 285.629C236.053 285.548 236.181 285.454 236.234 285.402L236.74 284.923C236.801 284.846 236.907 284.734 236.964 284.653C238.588 282.376 237.057 282.83 237.167 281.225C237.387 278.13 237.998 278.687 238.562 278.438ZM238.562 278.438C238.32 276.602 238.791 276.996 236.938 276.547L238.39 274.672C240.828 274.569 240.903 274.616 242.769 274.959C242.452 276.803 242.395 275.498 242.875 277.313L238.562 278.438ZM229.737 276.452C229.812 277.548 230.072 277.771 230.12 277.972L231.278 285.629C232.695 290.311 230.556 292.34 231.366 296.967C231.982 300.507 230.706 297.78 230.864 302.326L231.696 320.251C229.315 320.349 226.511 319.959 225.398 320.516L225.908 318.958C225.926 318.894 225.957 318.761 225.974 318.701C227.154 314.759 227.506 317.19 227.044 312.893C226.674 309.469 226.67 305.553 226.516 302.069C223.105 301.191 228.985 303.913 225.587 303.049C225.138 292.914 224.306 289.806 225.451 281.854L225.561 281.272C226.014 278.49 225.191 279.757 225.693 277.784C226.538 274.449 225.891 277.193 225.587 270.495C228.395 270.148 226.841 269.741 229.949 270.311C230.186 275.678 231.062 274.835 229.737 276.452ZM238.579 268.055C238.615 268.115 238.645 268.222 238.659 268.248L239.728 269.271C240.481 269.707 240.947 269.908 241.59 270.289L241.739 273.585C239.873 273.816 239.86 274.137 237.404 274.24C237.611 273.157 237.73 273.14 237.778 271.864L236.784 269.63L238.579 268.055ZM228.98 259.499C224.804 257.569 225.283 252.63 228.558 250.079L228.98 259.499ZM234.812 248.867C235.054 250.712 235.345 250.006 235.402 251.204C235.45 252.262 234.385 254.23 234.139 255.506L233.17 255.544C233.795 251.906 232.268 250.866 234.812 248.867ZM227.167 240.697C228.47 241.463 228.487 241.12 228.73 242.995C226.758 242.576 227.317 242.927 227.167 240.697ZM228.241 232.162L227.277 232.205L227.211 230.788L228.179 230.75L228.241 232.162ZM228.681 228.195C229.038 228.272 227.893 229.654 228.074 228.396C228.179 227.672 227.691 227.985 228.681 228.195ZM238.179 226.555C237.189 227.993 237.365 227.985 236.247 226.637C236.647 226.132 237.25 226.401 238.179 226.555ZM233.822 226.739C233.901 224.852 233.949 225.19 235.173 224.321C235.217 226.602 235.362 225.858 233.822 226.739ZM228.056 173.662C228.14 173.581 228.281 173.5 228.329 173.452C229.531 172.348 229.465 172.566 229.403 171.244L229.887 171.227C229.953 172.661 229.746 172.956 229.526 174.073C228.461 173.611 229.337 173.936 228.056 173.662ZM230.129 156.696C230.895 157.783 230.772 156.64 230.266 157.997C229.064 157.218 228.932 157.111 228.69 155.236L229.412 155.973C229.552 156.114 230.103 156.662 230.129 156.696ZM229.931 128.76C229.891 127.805 229.839 128.572 230.45 128.597C231.92 128.661 230.34 127.681 230.679 128.726C231.018 129.77 229.957 129.312 229.931 128.76ZM229.658 111.785L229.13 110.861C230.499 109.889 229.737 109.88 231.581 109.427L229.658 111.785ZM222.502 103.593C222.599 105.853 222.11 105.793 222.185 107.381L221.701 107.402C221.639 106.045 221.793 104.783 222.502 103.593ZM225.49 105.352L224.518 105.399C224.865 103.863 224.575 105.078 225.015 104.025C225.908 101.877 225.591 102.365 226.775 101.526L227.075 108.661L224.161 108.241C224.685 107 224.465 107.308 224.055 105.883C226.516 105.78 224.865 105.853 225.49 105.352ZM222.502 103.593C222.59 101.402 221.943 102.793 223.382 101.671C223.21 102.544 223.505 101.804 223.096 102.771C222.814 103.443 222.801 103.225 222.502 103.593ZM231.15 101.812L231.111 100.867C232.629 101.145 232.541 101.41 234.059 101.688C234.103 103.7 233.659 107.051 231.81 107.882C228.025 109.581 228.84 104.423 228.668 100.499C231.15 100.952 229.548 101.367 231.15 101.812ZM224.267 99.7452C224.896 98.4869 224.72 98.6837 226.142 98.2472C225.345 99.5184 225.939 99.2316 224.267 99.7452ZM505.577 343.752C590.393 355.056 666.802 371.449 730.958 391.728C860.898 432.804 941.264 490.367 941.264 554.679C941.264 618.987 860.898 676.55 730.958 717.626C645.042 744.787 537.174 764.989 416.541 775.321C422.536 771.041 427.945 766.56 431.99 763.114C432.522 762.657 433.055 762.199 433.583 761.736C545.945 751.079 646.393 731.759 727.151 706.228C851.814 666.821 928.919 613.188 928.919 554.679C928.919 496.166 851.814 442.537 727.151 403.126C662.678 382.744 577.889 365.268 492.268 354.055C498.483 352.672 505.34 348.251 505.577 343.752ZM395.917 776.982C392.374 777.247 388.827 777.504 385.267 777.757C386.349 773.819 389.677 769.44 394.043 765.088C400.525 764.6 406.973 764.086 413.39 763.547C408.263 768.251 401.899 773.566 395.917 776.982ZM430.066 359.418C461.504 333.506 505.001 334.935 494.905 343.427C489.799 347.729 466.099 346.184 430.066 359.418Z" fill="white"/>
</mask>
<g mask="url(#mask1_296_9283)">
<path d="M-331.577 954.554L-333.294 950.625L916.96 434.679L918.672 438.608L-331.577 954.554Z" fill="#AE9342"/>
<path d="M-332.722 951.935L-334.434 948.006L915.816 432.06L917.532 435.989L-332.722 951.935Z" fill="#AE9342"/>
<path d="M-333.862 949.315L-335.578 945.386L914.676 429.44L916.388 433.369L-333.862 949.315Z" fill="#AE9342"/>
<path d="M-335.006 946.696L-336.722 942.771L913.532 426.825L915.248 430.75L-335.006 946.696Z" fill="#AE9342"/>
<path d="M-336.15 944.077L-337.862 940.152L912.387 424.205L914.104 428.134L-336.15 944.077Z" fill="#AE9342"/>
<path d="M-337.29 941.461L-339.007 937.532L911.247 421.585L912.959 425.515L-337.29 941.461Z" fill="#AE9342"/>
<path d="M-338.434 938.842L-340.146 934.913L910.103 418.966L911.82 422.895L-338.434 938.842Z" fill="#AE9342"/>
<path d="M-339.579 936.222L-341.291 932.293L908.963 416.347L910.675 420.276L-339.579 936.222Z" fill="#AE9342"/>
<path d="M-340.719 933.603L-342.435 929.674L907.819 413.728L909.531 417.657L-340.719 933.603Z" fill="#AE9342"/>
<path d="M-341.863 930.984L-343.575 927.055L906.675 411.108L908.391 415.038L-341.863 930.984Z" fill="#AE9342"/>
<path d="M-343.007 928.364L-344.719 924.439L905.535 408.493L907.247 412.418L-343.007 928.364Z" fill="#AE9342"/>
<path d="M-344.147 925.745L-345.864 921.82L904.39 405.874L906.102 409.803L-344.147 925.745Z" fill="#AE9342"/>
<path d="M-345.292 923.13L-347.004 919.201L903.246 403.254L904.962 407.184L-345.292 923.13Z" fill="#AE9342"/>
<path d="M-346.436 920.51L-348.148 916.581L902.106 400.635L903.818 404.564L-346.436 920.51Z" fill="#AE9342"/>
<path d="M-347.576 917.891L-349.292 913.962L900.962 398.016L902.678 401.945L-347.576 917.891Z" fill="#AE9342"/>
<path d="M-348.72 915.271L-350.432 911.342L899.817 395.396L901.534 399.325L-348.72 915.271Z" fill="#AE9342"/>
<path d="M-349.865 912.652L-351.577 908.723L898.677 392.781L900.389 396.706L-349.865 912.652Z" fill="#AE9342"/>
<path d="M-351.004 910.033L-352.721 906.104L897.533 390.162L899.25 394.086L-351.004 910.033Z" fill="#AF9443"/>
<path d="M-352.149 907.413L-353.861 903.488L896.389 387.542L898.105 391.471L-352.149 907.413Z" fill="#B09544"/>
<path d="M-353.289 904.798L-355.005 900.869L895.249 384.923L896.961 388.852L-353.289 904.798Z" fill="#B19645"/>
<path d="M-354.433 902.179L-356.149 898.249L894.105 382.303L895.821 386.232L-354.433 902.179Z" fill="#B29746"/>
<path d="M-355.577 899.559L-357.29 895.63L892.96 379.684L894.677 383.613L-355.577 899.559Z" fill="#B49947"/>
<path d="M-356.717 896.94L-358.434 893.011L891.82 377.064L893.533 380.994L-356.717 896.94Z" fill="#B69B49"/>
<path d="M-357.861 894.321L-359.573 890.391L890.676 374.445L892.393 378.374L-357.861 894.321Z" fill="#B89D4A"/>
<path d="M-359.005 891.701L-360.718 887.776L889.536 371.83L891.249 375.755L-359.005 891.701Z" fill="#BA9F4C"/>
<path d="M-360.146 889.082L-361.862 885.157L888.392 369.211L890.104 373.14L-360.146 889.082Z" fill="#BCA24D"/>
<path d="M-361.29 886.467L-363.002 882.538L887.248 366.591L888.964 370.52L-361.29 886.467Z" fill="#BFA44F"/>
<path d="M-362.434 883.847L-364.146 879.918L886.108 363.972L887.82 367.901L-362.434 883.847Z" fill="#C1A751"/>
<path d="M-363.574 881.228L-365.291 877.299L884.964 361.353L886.676 365.282L-363.574 881.228Z" fill="#C4AA54"/>
<path d="M-364.718 878.608L-366.43 874.679L883.819 358.733L885.536 362.662L-364.718 878.608Z" fill="#C7AD56"/>
<path d="M-365.858 875.989L-367.575 872.06L882.679 356.114L884.391 360.043L-365.858 875.989Z" fill="#CAB058"/>
<path d="M-367.003 873.369L-368.719 869.444L881.535 353.498L883.252 357.423L-367.003 873.369Z" fill="#CCB25B"/>
<path d="M-368.147 870.75L-369.859 866.825L880.391 350.879L882.107 354.808L-368.147 870.75Z" fill="#CFB65D"/>
<path d="M-369.287 868.135L-371.003 864.206L879.251 348.259L880.963 352.188L-369.287 868.135Z" fill="#D2B85F"/>
<path d="M-370.431 865.516L-372.143 861.586L878.106 345.64L879.823 349.569L-370.431 865.516Z" fill="#D5BC62"/>
<path d="M-371.576 862.896L-373.288 858.967L876.966 343.021L878.679 346.95L-371.576 862.896Z" fill="#D8BF65"/>
<path d="M-372.716 860.277L-374.432 856.348L875.822 340.402L877.534 344.331L-372.716 860.277Z" fill="#DBC267"/>
<path d="M-373.86 857.658L-375.572 853.728L874.678 337.782L876.394 341.711L-373.86 857.658Z" fill="#DEC56A"/>
<path d="M-375.004 855.038L-376.716 851.109L873.538 335.167L875.25 339.092L-375.004 855.038Z" fill="#E1C86C"/>
<path d="M-376.144 852.419L-377.861 848.494L872.393 332.547L874.105 336.476L-376.144 852.419Z" fill="#E3CA6F"/>
<path d="M-377.288 849.803L-379 845.874L871.249 329.928L872.966 333.857L-377.288 849.803Z" fill="#E6CE71"/>
<path d="M-378.433 847.184L-380.145 843.255L870.109 327.308L871.821 331.237L-378.433 847.184Z" fill="#E8D173"/>
<path d="M-379.572 844.564L-381.289 840.635L868.965 324.689L870.677 328.618L-379.572 844.564Z" fill="#EBD376"/>
<path d="M-380.717 841.945L-382.429 838.016L867.821 322.07L869.537 325.999L-380.717 841.945Z" fill="#EDD577"/>
<path d="M-381.857 839.326L-383.573 835.397L866.681 319.45L868.393 323.379L-381.857 839.326Z" fill="#EFD779"/>
<path d="M-383.001 836.706L-384.717 832.781L865.537 316.835L867.253 320.76L-383.001 836.706Z" fill="#F0D97A"/>
<path d="M-384.145 834.087L-385.857 830.162L864.392 314.216L866.109 318.145L-384.145 834.087Z" fill="#F2DB7C"/>
<path d="M-385.285 831.472L-387.001 827.543L863.253 311.596L864.965 315.526L-385.285 831.472Z" fill="#F3DC7D"/>
<path d="M-386.43 828.852L-388.142 824.923L862.108 308.977L863.825 312.906L-386.43 828.852Z" fill="#F4DD7E"/>
<path d="M-387.574 826.233L-389.286 822.304L860.968 306.357L862.68 310.287L-387.574 826.233Z" fill="#F4DE7F"/>
<path d="M-388.713 823.613L-390.43 819.684L859.824 303.738L861.536 307.667L-388.713 823.613Z" fill="#F4DE7F"/>
<path d="M-389.858 820.994L-391.57 817.065L858.68 301.119L860.396 305.048L-389.858 820.994Z" fill="#F4DE7F"/>
<path d="M-391.003 818.375L-392.715 814.45L857.539 298.504L859.251 302.429L-391.003 818.375Z" fill="#F3DC7D"/>
<path d="M-392.142 815.756L-393.859 811.831L856.395 295.885L858.107 299.814L-392.142 815.756Z" fill="#F2DB7D"/>
<path d="M-393.287 813.14L-394.999 809.211L855.251 293.265L856.967 297.194L-393.287 813.14Z" fill="#F1DA7C"/>
<path d="M-394.427 810.521L-396.143 806.592L854.111 290.646L855.823 294.575L-394.427 810.521Z" fill="#EFD87A"/>
<path d="M-395.571 807.902L-397.287 803.972L852.967 288.026L854.683 291.955L-395.571 807.902Z" fill="#EDD577"/>
<path d="M-396.715 805.282L-398.427 801.353L851.822 285.407L853.539 289.336L-396.715 805.282Z" fill="#EBD376"/>
<path d="M-397.855 802.663L-399.572 798.734L850.682 282.787L852.395 286.716L-397.855 802.663Z" fill="#E8D073"/>
<path d="M-399 800.043L-400.716 796.114L849.538 280.172L851.255 284.097L-399 800.043Z" fill="#E5CC70"/>
<path d="M-400.144 797.424L-401.856 793.499L848.398 277.553L850.11 281.482L-400.144 797.424Z" fill="#E2C96D"/>
<path d="M-401.284 794.809L-403 790.88L847.254 274.934L848.966 278.863L-401.284 794.809Z" fill="#DFC66B"/>
<path d="M-402.428 792.19L-404.145 788.26L846.11 272.314L847.826 276.243L-402.428 792.19Z" fill="#DCC267"/>
<path d="M-403.572 789.57L-405.284 785.641L844.97 269.695L846.682 273.624L-403.572 789.57Z" fill="#D8BF64"/>
<path d="M-404.712 786.951L-406.429 783.021L843.825 267.075L845.537 271.004L-404.712 786.951Z" fill="#D5BB61"/>
<path d="M-405.856 784.331L-407.568 780.402L842.681 264.456L844.398 268.385L-405.856 784.331Z" fill="#D1B75E"/>
<path d="M-407.001 781.711L-408.713 777.787L841.541 261.84L843.253 265.765L-407.001 781.711Z" fill="#CEB35B"/>
<path d="M-408.14 779.092L-409.857 775.167L840.397 259.221L842.109 263.15L-408.14 779.092Z" fill="#CAB058"/>
<path d="M-409.285 776.477L-410.997 772.548L839.253 256.602L840.969 260.531L-409.285 776.477Z" fill="#C7AC55"/>
<path d="M-410.429 773.858L-412.141 769.929L838.113 253.982L839.825 257.912L-410.429 773.858Z" fill="#C3A852"/>
<path d="M-411.569 771.238L-413.285 767.309L836.969 251.363L838.681 255.292L-411.569 771.238Z" fill="#C0A54F"/>
<path d="M-412.713 768.619L-414.426 764.69L835.824 248.744L837.541 252.673L-412.713 768.619Z" fill="#BCA14D"/>
<path d="M-413.853 766L-415.57 762.071L834.684 246.125L836.397 250.054L-413.853 766Z" fill="#BA9E4A"/>
<path d="M-414.997 763.38L-416.714 759.455L833.54 243.509L835.257 247.434L-414.997 763.38Z" fill="#B79B48"/>
<path d="M-416.142 760.761L-417.854 756.836L832.396 240.89L834.112 244.814L-416.142 760.761Z" fill="#B49945"/>
<path d="M-417.282 758.145L-418.998 754.216L831.256 238.27L832.968 242.199L-417.282 758.145Z" fill="#B19643"/>
<path d="M-418.426 755.526L-420.138 751.597L830.111 235.651L831.828 239.58L-418.426 755.526Z" fill="#AF9441"/>
<path d="M-419.57 752.907L-421.282 748.977L828.972 233.031L830.684 236.96L-419.57 752.907Z" fill="#AD9240"/>
<path d="M-420.711 750.287L-422.427 746.358L827.827 230.412L829.539 234.341L-420.711 750.287Z" fill="#AC913E"/>
<path d="M-421.855 747.668L-423.567 743.739L826.683 227.792L828.399 231.722L-421.855 747.668Z" fill="#AA8F3D"/>
<path d="M-422.999 745.048L-424.711 741.119L825.543 225.177L827.255 229.102L-422.999 745.048Z" fill="#A98E3C"/>
<path d="M-424.139 742.429L-425.855 738.504L824.399 222.558L826.111 226.487L-424.139 742.429Z" fill="#A98E3B"/>
<path d="M-425.283 739.814L-426.995 735.885L823.255 219.938L824.971 223.868L-425.283 739.814Z" fill="#A88D3B"/>
<path d="M-426.423 737.195L-428.14 733.266L822.114 217.319L823.826 221.248L-426.423 737.195Z" fill="#A88D3B"/>
<path d="M-427.567 734.575L-429.284 730.646L820.97 214.699L822.687 218.629L-427.567 734.575Z" fill="#A78D3A"/>
<path d="M-428.712 731.955L-430.424 728.026L819.826 212.08L821.542 216.009L-428.712 731.955Z" fill="#A78D3A"/>
<path d="M-429.852 729.336L-431.568 725.407L818.686 209.461L820.398 213.39L-429.852 729.336Z" fill="#A78C39"/>
<path d="M-430.996 726.717L-432.712 722.788L817.542 206.846L819.258 210.771L-430.996 726.717Z" fill="#A78C39"/>
<path d="M-432.14 724.097L-433.852 720.173L816.402 204.226L818.114 208.155L-432.14 724.097Z" fill="#A78C39"/>
<path d="M-433.28 721.482L-434.997 717.553L815.257 201.607L816.97 205.536L-433.28 721.482Z" fill="#A68B38"/>
<path d="M-434.424 718.863L-436.136 714.934L814.113 198.988L815.83 202.917L-434.424 718.863Z" fill="#A68B38"/>
<path d="M-435.569 716.244L-437.281 712.314L812.973 196.368L814.685 200.297L-435.569 716.244Z" fill="#A68B38"/>
<path d="M-436.708 713.624L-438.425 709.695L811.829 193.749L813.541 197.678L-436.708 713.624Z" fill="#A58B37"/>
<path d="M-437.853 711.005L-439.565 707.075L810.684 191.129L812.401 195.058L-437.853 711.005Z" fill="#A58B37"/>
<path d="M-438.998 708.386L-440.71 704.461L809.544 188.514L811.256 192.439L-438.998 708.386Z" fill="#A58B37"/>
<path d="M-440.137 705.766L-441.854 701.841L808.4 185.895L810.112 189.82L-440.137 705.766Z" fill="#A48A36"/>
<path d="M-441.282 703.151L-442.994 699.222L807.256 183.276L808.972 187.205L-441.282 703.151Z" fill="#A48A36"/>
<path d="M-442.421 700.531L-444.138 696.602L806.116 180.656L807.828 184.585L-442.421 700.531Z" fill="#A48A36"/>
<path d="M-443.566 697.912L-445.282 693.983L804.972 178.037L806.688 181.966L-443.566 697.912Z" fill="#A48A36"/>
<path d="M-444.71 695.293L-446.422 691.363L803.827 175.417L805.544 179.346L-444.71 695.293Z" fill="#A48A35"/>
<path d="M-445.85 692.673L-447.566 688.744L802.688 172.798L804.4 176.727L-445.85 692.673Z" fill="#A48A35"/>
<path d="M-446.994 690.054L-448.706 686.124L801.543 170.182L803.26 174.107L-446.994 690.054Z" fill="#A48A35"/>
<path d="M-448.139 687.434L-449.851 683.509L800.403 167.563L802.116 171.492L-448.139 687.434Z" fill="#A48A35"/>
<path d="M-449.278 684.819L-450.995 680.89L799.259 164.944L800.971 168.873L-449.278 684.819Z" fill="#A48A35"/>
<path d="M-450.423 682.2L-452.135 678.27L798.115 162.324L799.831 166.253L-450.423 682.2Z" fill="#A38935"/>
<path d="M-451.567 679.58L-453.279 675.651L796.975 159.705L798.687 163.634L-451.567 679.58Z" fill="#A38935"/>
<path d="M-452.707 676.961L-454.424 673.032L795.83 157.086L797.542 161.015L-452.707 676.961Z" fill="#A38935"/>
<path d="M-453.851 674.342L-455.563 670.413L794.686 154.466L796.403 158.395L-453.851 674.342Z" fill="#A38935"/>
<path d="M-454.995 671.722L-456.708 667.793L793.547 151.851L795.259 155.776L-454.995 671.722Z" fill="#A38935"/>
<path d="M-456.136 669.103L-457.852 665.178L792.402 149.231L794.119 153.161L-456.136 669.103Z" fill="#A48935"/>
<path d="M-457.28 666.487L-458.992 662.558L791.258 146.612L792.974 150.541L-457.28 666.487Z" fill="#A48935"/>
<path d="M-458.424 663.868L-460.136 659.939L790.118 143.993L791.83 147.922L-458.424 663.868Z" fill="#A48935"/>
<path d="M-459.564 661.249L-461.281 657.32L788.974 141.373L790.69 145.302L-459.564 661.249Z" fill="#A48935"/>
<path d="M-460.708 658.629L-462.42 654.7L787.829 138.754L789.546 142.683L-460.708 658.629Z" fill="#A38934"/>
<path d="M-461.848 656.01L-463.565 652.081L786.689 136.135L788.401 140.064L-461.848 656.01Z" fill="#A38934"/>
<path d="M-462.992 653.391L-464.709 649.466L785.545 133.52L787.262 137.444L-462.992 653.391Z" fill="#A38934"/>
<path d="M-464.137 650.771L-465.849 646.846L784.401 130.9L786.117 134.825L-464.137 650.771Z" fill="#A38934"/>
<path d="M-465.277 648.156L-466.993 644.227L783.261 128.281L784.973 132.21L-465.277 648.156Z" fill="#A38934"/>
<path d="M-466.421 645.537L-468.133 641.608L782.116 125.661L783.833 129.59L-466.421 645.537Z" fill="#A38934"/>
<path d="M-467.566 642.917L-469.278 638.988L780.976 123.042L782.688 126.971L-467.566 642.917Z" fill="#A38934"/>
<path d="M-468.705 640.298L-470.422 636.369L779.832 120.422L781.544 124.351L-468.705 640.298Z" fill="#A38934"/>
<path d="M-469.85 637.678L-471.562 633.749L778.688 117.803L780.404 121.732L-469.85 637.678Z" fill="#A38934"/>
<path d="M-470.994 635.059L-472.706 631.13L777.548 115.188L779.26 119.113L-470.994 635.059Z" fill="#A48934"/>
<path d="M-472.134 632.44L-473.85 628.515L776.404 112.569L778.116 116.498L-472.134 632.44Z" fill="#A48934"/>
<path d="M-473.278 629.82L-474.99 625.895L775.26 109.949L776.976 113.878L-473.278 629.82Z" fill="#A48934"/>
<path d="M-474.418 627.205L-476.135 623.276L774.119 107.33L775.832 111.259L-474.418 627.205Z" fill="#A48934"/>
<path d="M-475.562 624.586L-477.279 620.657L772.975 104.71L774.692 108.64L-475.562 624.586Z" fill="#A48934"/>
<path d="M-476.707 621.966L-478.419 618.037L771.831 102.091L773.547 106.02L-476.707 621.966Z" fill="#A48934"/>
<path d="M-477.847 619.347L-479.563 615.418L770.691 99.4714L772.403 103.401L-477.847 619.347Z" fill="#A48934"/>
<path d="M-478.991 616.728L-480.703 612.799L769.547 96.8564L771.263 100.781L-478.991 616.728Z" fill="#A48934"/>
<path d="M-480.135 614.108L-481.847 610.184L768.407 94.2373L770.119 98.1664L-480.135 614.108Z" fill="#A48934"/>
<path d="M-481.275 611.493L-482.991 607.564L767.263 91.6179L768.975 95.547L-481.275 611.493Z" fill="#A48934"/>
<path d="M-482.419 608.873L-484.131 604.944L766.118 88.998L767.835 92.9272L-482.419 608.873Z" fill="#A48934"/>
<path d="M-483.564 606.254L-485.276 602.325L764.978 86.3787L766.69 90.3078L-483.564 606.254Z" fill="#A48934"/>
<path d="M-484.703 603.635L-486.42 599.706L763.834 83.7593L765.546 87.6884L-484.703 603.635Z" fill="#A58A34"/>
<path d="M-485.848 601.016L-487.56 597.086L762.69 81.1401L764.406 85.0692L-485.848 601.016Z" fill="#A68B34"/>
<path d="M-486.993 598.396L-488.705 594.471L761.549 78.5247L763.262 82.4495L-486.993 598.396Z" fill="#A78B35"/>
<path d="M-488.132 595.776L-489.849 591.852L760.405 75.9053L762.122 79.8301L-488.132 595.776Z" fill="#A88D36"/>
<path d="M-489.277 593.161L-490.989 589.232L759.261 73.2859L760.977 77.215L-489.277 593.161Z" fill="#AA8E37"/>
<path d="M-490.417 590.542L-492.133 586.613L758.121 70.6665L759.833 74.5956L-490.417 590.542Z" fill="#AB9039"/>
<path d="M-491.561 587.922L-493.277 583.993L756.977 68.0471L758.693 71.9762L-491.561 587.922Z" fill="#AD913A"/>
<path d="M-492.705 585.303L-494.417 581.374L755.832 65.4277L757.549 69.3568L-492.705 585.303Z" fill="#AF933B"/>
<path d="M-493.845 582.684L-495.562 578.755L754.693 62.8083L756.405 66.7375L-493.845 582.684Z" fill="#B1953D"/>
<path d="M-494.989 580.065L-496.701 576.135L753.548 60.1934L755.265 64.1182L-494.989 580.065Z" fill="#B3983F"/>
<path d="M-496.134 577.445L-497.846 573.52L752.408 57.5735L754.12 61.4983L-496.134 577.445Z" fill="#B69A41"/>
<path d="M-497.273 574.825L-498.99 570.9L751.264 54.9541L752.976 58.8832L-497.273 574.825Z" fill="#B89C43"/>
<path d="M-498.418 572.21L-500.13 568.281L750.12 52.335L751.836 56.2641L-498.418 572.21Z" fill="#BB9F45"/>
<path d="M-499.562 569.591L-501.274 565.662L748.98 49.7156L750.692 53.6447L-499.562 569.591Z" fill="#BDA248"/>
<path d="M-500.702 566.972L-502.418 563.042L747.836 47.0962L749.548 51.0253L-500.702 566.972Z" fill="#C0A54A"/>
<path d="M-501.846 564.352L-503.558 560.423L746.691 44.4766L748.408 48.4057L-501.846 564.352Z" fill="#C3A84D"/>
<path d="M-502.986 561.733L-504.702 557.804L745.552 41.8618L747.264 45.7866L-502.986 561.733Z" fill="#C6AA4F"/>
<path d="M-504.13 559.113L-505.847 555.189L744.407 39.2422L746.124 43.1713L-504.13 559.113Z" fill="#CAAE53"/>
<path d="M-505.275 556.498L-506.987 552.569L743.263 36.623L744.98 40.5522L-505.275 556.498Z" fill="#CDB155"/>
<path d="M-506.415 553.879L-508.131 549.95L742.123 34.0034L743.835 37.9325L-506.415 553.879Z" fill="#D0B559"/>
<path d="M-507.559 551.26L-509.275 547.331L740.979 31.3843L742.695 35.3134L-507.559 551.26Z" fill="#D3B75B"/>
<path d="M-508.703 548.64L-510.416 544.711L739.839 28.7646L741.551 32.6938L-508.703 548.64Z" fill="#D5BA5E"/>
<path d="M-509.843 546.021L-511.56 542.092L738.694 26.1455L740.406 30.0746L-509.843 546.021Z" fill="#D8BD61"/>
<path d="M-510.988 543.401L-512.704 539.472L737.55 23.5298L739.266 27.4546L-510.988 543.401Z" fill="#DAC064"/>
<path d="M-512.132 540.782L-513.844 536.857L736.41 20.9106L738.122 24.8355L-512.132 540.782Z" fill="#DDC367"/>
<path d="M-513.272 538.167L-514.988 534.238L735.266 18.2915L736.978 22.2206L-513.272 538.167Z" fill="#E0C669"/>
<path d="M-514.416 535.547L-516.128 531.618L734.122 15.6714L735.838 19.6005L-514.416 535.547Z" fill="#E3C96D"/>
<path d="M-515.56 532.927L-517.272 528.998L732.982 13.0518L734.694 16.9809L-515.56 532.927Z" fill="#E5CC6F"/>
<path d="M-516.701 530.308L-518.417 526.379L731.837 10.4326L733.549 14.3617L-516.701 530.308Z" fill="#E8CE72"/>
<path d="M-517.845 527.688L-519.557 523.759L730.693 7.81299L732.409 11.7421L-517.845 527.688Z" fill="#EAD175"/>
<path d="M-518.989 525.069L-520.701 521.14L729.553 5.19824L731.265 9.12308L-518.989 525.069Z" fill="#ECD376"/>
<path d="M-520.129 522.45L-521.845 518.525L728.409 2.5791L730.121 6.50393L-520.129 522.45Z" fill="#EED579"/>
<path d="M-521.273 519.831L-522.985 515.906L727.264 -0.0405273L728.981 3.88858L-521.273 519.831Z" fill="#F0D77A"/>
<path d="M-522.413 517.216L-524.13 513.287L726.124 -2.65967L727.836 1.26945L-522.413 517.216Z" fill="#F2DA7D"/>
<path d="M-523.557 514.596L-525.274 510.667L724.98 -5.2793L726.697 -1.35019L-523.557 514.596Z" fill="#F2DA7E"/>
<path d="M-524.702 511.976L-526.414 508.047L723.836 -7.89893L725.552 -3.96982L-524.702 511.976Z" fill="#F3DC80"/>
<path d="M-525.841 509.357L-527.558 505.428L722.696 -10.5186L724.408 -6.58944L-525.841 509.357Z" fill="#F5DD80"/>
<path d="M-526.986 506.738L-528.698 502.809L721.552 -13.1333L723.268 -9.20847L-526.986 506.738Z" fill="#F5DE81"/>
<path d="M-528.13 504.119L-529.842 500.194L720.412 -15.7524L722.124 -11.8233L-528.13 504.119Z" fill="#F5DE81"/>
<path d="M-529.27 501.503L-530.986 497.574L719.268 -18.3721L720.98 -14.443L-529.27 501.503Z" fill="#F5DE81"/>
<path d="M-530.414 498.884L-532.126 494.955L718.123 -20.9912L719.84 -17.0621L-530.414 498.884Z" fill="#F5DD80"/>
<path d="M-531.558 496.265L-533.271 492.335L716.983 -23.6108L718.696 -19.6817L-531.558 496.265Z" fill="#F3DC7F"/>
<path d="M-532.698 493.645L-534.415 489.716L715.839 -26.23L717.551 -22.3009L-532.698 493.645Z" fill="#F2DA7C"/>
<path d="M-533.843 491.026L-535.555 487.097L714.695 -28.8496L716.411 -24.9205L-533.843 491.026Z" fill="#EFD679"/>
<path d="M-534.983 488.406L-536.699 484.477L713.555 -31.4648L715.267 -27.54L-534.983 488.406Z" fill="#ECD376"/>
<path d="M-536.127 485.787L-537.844 481.862L712.41 -34.0845L714.127 -30.1596L-536.127 485.787Z" fill="#E8CF72"/>
<path d="M-537.271 483.172L-538.983 479.243L711.266 -36.7036L712.983 -32.7745L-537.271 483.172Z" fill="#E4CA6E"/>
<path d="M-538.411 480.553L-540.128 476.623L710.126 -39.3228L711.838 -35.3936L-538.411 480.553Z" fill="#E0C669"/>
<path d="M-539.556 477.933L-541.272 474.004L708.982 -41.9424L710.698 -38.0133L-539.556 477.933Z" fill="#DBC164"/>
<path d="M-540.7 475.314L-542.412 471.385L707.842 -44.5615L709.554 -40.6324L-540.7 475.314Z" fill="#D6BC60"/>
<path d="M-541.84 472.694L-543.556 468.765L706.698 -47.1812L708.41 -43.252L-541.84 472.694Z" fill="#D2B75C"/>
<path d="M-542.984 470.075L-544.696 466.146L705.553 -49.7964L707.27 -45.8715L-542.984 470.075Z" fill="#CDB257"/>
<path d="M-544.129 467.455L-545.841 463.53L704.414 -52.416L706.126 -48.4912L-544.129 467.455Z" fill="#C8AD52"/>
<path d="M-545.268 464.836L-546.985 460.911L703.269 -55.0352L704.981 -51.106L-545.268 464.836Z" fill="#C4A84D"/>
<path d="M-546.413 462.221L-548.125 458.291L702.125 -57.6548L703.841 -53.7257L-546.413 462.221Z" fill="#BFA44A"/>
<path d="M-547.557 459.601L-549.269 455.672L700.985 -60.2739L702.697 -56.3448L-547.557 459.601Z" fill="#BB9F46"/>
<path d="M-548.697 456.982L-550.414 453.053L699.84 -62.8936L701.553 -58.9644L-548.697 456.982Z" fill="#B69B42"/>
<path d="M-549.841 454.363L-551.553 450.434L698.696 -65.5127L700.413 -61.5836L-549.841 454.363Z" fill="#B2973F"/>
<path d="M-550.981 451.744L-552.698 447.815L697.557 -68.1274L699.269 -64.2026L-550.981 451.744Z" fill="#AF933C"/>
<path d="M-552.125 449.124L-553.842 445.199L696.413 -70.7471L698.129 -66.818L-552.125 449.124Z" fill="#AC913A"/>
<path d="M-553.27 446.504L-554.982 442.58L695.268 -73.3667L696.984 -69.4376L-553.27 446.504Z" fill="#A98E38"/>
<path d="M-554.409 443.889L-556.126 439.96L694.128 -75.9863L695.84 -72.0572L-554.409 443.889Z" fill="#A78C36"/>
<path d="M-555.554 441.27L-557.266 437.341L692.983 -78.6055L694.7 -74.6764L-555.554 441.27Z" fill="#A68B34"/>
<path d="M-556.698 438.65L-558.41 434.721L691.844 -81.2251L693.556 -77.296L-556.698 438.65Z" fill="#A48934"/>
<path d="M-557.838 436.031L-567.591 413.685L682.663 -102.257L692.411 -79.9153L-557.838 436.031Z" fill="#A48934"/>
</g>
</g>
</g>
<defs>
<clipPath id="clip0_296_9283">
<rect width="512" height="512" rx="101" fill="white"/>
</clipPath>
</defs>
</svg>
