<svg width="200" height="62" fill="none" xmlns="http://www.w3.org/2000/svg"><path fill-rule="evenodd" clip-rule="evenodd" d="M26.867 11.219c.635-3.133 1.27-6.172 2.01-9.305.106-.95-.212-1.234-.635-1.424-.634-.19-1.692.285-2.327.76-.846.57-9.625 5.127-14.702 8.734-5.077 3.608-5.5 5.127-5.394 6.172.212 1.044 1.904 1.804 3.914 1.804 2.01 0 8.144-.285 8.144-.285s2.961-1.33 5.288-2.659c2.433-1.329 3.597-2.563 3.702-3.797z" fill="#D1030F"/><path fill-rule="evenodd" clip-rule="evenodd" d="M5.82 15.776L3.28 29.163s-.528 2.089 2.328 2.089c2.855 0 6.98-.475 10.26-.854 3.172-.38 17.663-1.804 17.663-1.804s2.644-2.374 4.442-4.653c1.693-2.183 2.644-4.557 2.856-5.506.212-.855.952-3.228-4.654-2.659-5.606.57-18.298 2.089-18.298 2.089s-6.24.285-8.144.285c-2.01 0-3.702-.855-3.914-1.804v-.57z" fill="#9A9A9C"/><path fill-rule="evenodd" clip-rule="evenodd" d="M40.829 18.34s-3.067 13.956-3.702 16.14C33.742 45.683 14.598 52.234 3.704 56.127c0 0-1.693.57-2.327.19-.318-.19-.212-.855 0-1.425A342.109 342.109 0 004.02 43.88s0-1.994 3.067-2.753c3.068-.855 11-3.798 16.924-6.551 5.817-2.754 9.519-6.077 9.519-6.077s2.644-2.373 4.442-4.652c1.693-2.279 2.644-4.557 2.856-5.507z" fill="#D1030F"/><path fill-rule="evenodd" clip-rule="evenodd" d="M60.714 19.669s-1.587-.76-3.49-.665c-1.376.095-2.856 1.045-2.75 2.374.105 1.899 2.432 2.468 4.547 3.418 5.077 2.373 3.173 7.975-2.22 7.975h-.107c-2.75 0-4.442-.95-4.442-.95.212-.474.317-.854.529-1.329a7.87 7.87 0 004.125.855c1.692-.095 2.962-.855 3.067-2.943 0-3.323-7.404-2.279-7.615-6.741-.106-1.994 2.115-3.893 4.654-3.988 2.327-.095 4.23.76 4.23.76-.105.474-.317.854-.528 1.234zm37.971-1.994c4.76 0 8.568 3.228 8.568 7.5 0 4.273-3.808 7.69-8.568 7.69s-8.567-3.417-8.567-7.69c0-4.177 3.808-7.5 8.567-7.5zm0 1.14c-3.913 0-6.98 2.943-6.98 6.455 0 3.513 3.067 6.552 6.98 6.552 3.914 0 7.087-3.039 7.087-6.552 0-3.512-3.068-6.456-7.087-6.456zm55.424-1.14c4.759 0 8.567 3.228 8.567 7.5 0 4.273-3.808 7.69-8.567 7.69-4.76 0-8.568-3.417-8.568-7.69-.105-4.177 3.702-7.5 8.568-7.5zm0 1.14c-3.914 0-7.087 2.943-7.087 6.455 0 3.513 3.067 6.552 7.087 6.552 3.913 0 7.086-3.039 7.086-6.552-.105-3.512-3.173-6.456-7.086-6.456zm27.711 9.209h2.75c1.904-3.513 3.808-7.026 5.818-10.444 2.856 5.127 5.711 10.254 8.567 15.286h-1.692l-1.904-3.418h-9.731l-1.904 3.418h-1.692l1.904-3.418h-2.01c-.106-.475-.106-.95-.106-1.424zm4.549 0h8.144l-4.125-7.406c-1.375 2.469-2.75 4.937-4.019 7.406zm-21.472-10.349h4.866c4.865 0 9.731 1.994 10.259 6.836.529 4.557-2.961 8.355-8.779 8.355h-6.346c-.106-5.032 0-10.064 0-15.191zm1.481 14.052h4.865c4.866 0 7.722-3.418 7.299-7.026-.423-3.893-4.76-5.792-8.674-5.792h-3.384c-.106 4.273-.106 8.545-.106 12.818zm-42.096 1.139V17.865l9.413 8.45c3.173-2.848 6.346-5.602 9.519-8.45v15h-1.586V21.189c-2.644 2.373-5.289 4.652-7.933 7.026l-7.827-7.026v11.678h-1.586zm-13.751-15.191c1.481 2.089 2.856 4.177 4.337 6.266l4.442-6.266h1.798c-1.798 2.563-3.596 5.222-5.5 7.785v7.406h-1.586V25.46c-1.798-2.563-3.596-5.222-5.394-7.785h1.903zm-31.836 1.33v9.494h2.961c3.173-.38 4.76-2.374 4.76-4.843 0-2.563-1.798-4.652-4.971-4.652h-2.75zm0 10.823v3.038h-1.587V17.675h3.385c4.23 0 7.615 1.994 7.615 6.076 0 1.9-.74 3.228-1.692 4.178-.74.76-1.798 1.234-2.539 1.519h-.105c1.48 1.14 2.855 2.279 4.336 3.418h-2.327c-1.269-1.044-2.538-1.994-3.913-3.038h-3.173zM64.31 17.58h10.47v1.424h-4.44v14.052h-1.587V19.004h-4.548c.106-.475.106-.95.106-1.424z" fill="#404149"/></svg>