<svg width="110" height="56" fill="none" xmlns="http://www.w3.org/2000/svg"><mask id="mask0_507_9283" style="mask-type:luminance" maskUnits="userSpaceOnUse" x="0" y="-1" width="110" height="57"><path d="M63.89 26.029c.899-.165 3.767-.634 5.204-.219 0 0 1.3.361 1.533-.045 0 0-.232-.587-1.811-.723 0 0-1.608-.23-3.631.395l.018-.008c.456-.153 6.883-2.266 7.868-.262 0 0-.046.903-1.602.61 0 0 1.533.902 2.136-.52 0 0 .442-1.016-.487-1.558 0 0-1.587-1.37-7.458 1.498.294-.153.585-.312.872-.478l-.003-.001c2.29-1.207 5.156-3.115 6.978-5.772 0 0 1.765-1.807 1.811-4.516 0 0 .093-2.349-1.208-2.078 0 0-.603-.045-.65 1.174 0 0 .274 6.739-10.354 12.675l-.308.115c3.236-1.627 5.925-4.932 5.925-4.932 1.393-1.806.697-2.348.697-2.348-.465-.632-1.533 1.626-1.533 1.626-1.729 3.253-4.735 5.263-5.819 5.911C55.06 28.93 47.645 28.27 46.35 28.13c-2.336-.34-6.549-1.197-7.024-2.997 0 0-.348-.949 1.219-1.22 0 0 1.376-.293 4.309.153-.004-.022.001-2.362 0-2.631-2.253-.264-7.898.874-7.385 3.219a3.517 3.517 0 00-.149-.08c-.3-.236-1.1-1.055-1.872-3.483 0 0-.618-.397-.418.61.144.724.403 1.612 1.395 2.364-.951-.635-2.676-1.734-3.578-1.98-.6-.164-1.741-.43-2.484.157 0 0-.395.294-.163.52 0 0-.064.366 2.647.564.914.067 2.852.43 3.809.902.054.036.111.072.17.108l.077.053a7.264 7.264 0 00-.166-.063c-.45-.208-2.695-1.148-4.4-.096 0 0-.79.496-.697.948 0 0 .115.496.603-.045.172-.19.421-1.522 2.979-1.146-1.025.061-1.144.581-1.144.581.044.975.606 2.022 2.299 1.987.127-.002.51-.068.255-.429 0 0-.418-.226-.627-.18 0 0 .604.293.418.384 0 0-1.124-.103-1.401-.83-.02-.252.287-.3.287-.3.929-.248 2.044.37 2.6.746 1.48 1 4.318 1.63 4.318 1.63l-.017-.01c1.105.322 2.41.59 3.89.7.13.02 1.893.3 4.395.3 3.518 0 8.669-.537 13.396-2.537zm20.425 17.447h-4.772v-.945h.856c.07 0 .312-.005.383-.041.037-.074.037-.352.037-.424V33.59h-2.9v3.032c0 1.579-.206 3.24-.76 4.731-.332.889-.89 1.965-1.684 2.548l-.299.22-1.507-1.534.363-.279a6.98 6.98 0 001.735-2 6.62 6.62 0 00.904-3.348v-2.863c0-.092 0-.492-.053-.577-.103-.061-.657-.057-.773-.057h-.769v-.946h13.721v.946h-.827c-.072 0-.34.005-.408.046-.04.068-.041.347-.041.42v6.383l3.854-7.795h3.18v.946h-.987c-.07 0-.31.004-.386.04-.034.078-.034.352-.034.425v8.138c0 .073 0 .347.034.425.075.035.316.04.386.04h.987v.945h-4.773v-.945h.857c.069 0 .311-.005.382-.041.037-.074.038-.352.038-.424v-6.384l-3.854 7.794h-2.89zm-.276-.945h.972c.071 0 .326-.005.397-.043.037-.073.038-.35.038-.422v-8.138c0-.072 0-.35-.038-.422-.071-.038-.326-.043-.397-.043H83.33c-.07 0-.312.004-.386.04-.035.078-.034.352-.034.425v8.138c0 .073 0 .347.034.425.074.035.316.04.386.04h.71zm-32.438 0h.734c.071 0 .325-.005.397-.043.037-.073.038-.35.038-.422v-8.138c0-.072 0-.35-.038-.422-.072-.038-.326-.043-.397-.043h-.972v-.946H61.88v.946h-.987c-.07 0-.311.004-.386.04-.034.078-.034.352-.034.425v8.138c0 .073 0 .347.034.425.075.035.316.04.386.04h.987v.945h-4.773v-.945h.856c.07 0 .312-.005.383-.041.037-.074.038-.352.038-.424V33.59h-3.538v8.476c0 .07.001.35.04.418.07.042.337.047.409.047h.827v.945h-4.758v-.194l-.106.009a9.196 9.196 0 00-1.69.296l-.539.152v-.658c0-.296-.06-.628-.112-.92l-.005-.026c-.54.889-1.391 1.454-2.61 1.454-1.19 0-2.474-.437-3.093-1.492a2.408 2.408 0 01-.33-1.23c0-.456.1-.9.309-1.308.788-1.542 2.744-2.035 4.376-2.035h.827v-2.609c0-.976-.457-1.438-1.465-1.438-1.043 0-1.99.416-2.045 1.529l-.063 1.264h-1.134l.217-4.148h1.005l-.043.748a4.61 4.61 0 012.049-.465c1.135 0 2.456.236 3.152 1.204.317.44.445.957.445 1.49v6.967c0 .058-.002.212.011.307.033.002.07.002.09.002.102 0 .204-.013.307-.014l.662-.033.023.203zm-43.87-.86l.505-9.752v-.345c0-.02 0-.058-.004-.088-.12-.04-.439-.045-.533-.045H6.513v-.703C2.965 32.965.97 35.458.97 38.078c0 4.533 5.974 8.688 15.634 11.741 9.818 3.104 23.392 5.023 38.395 5.023 3.95 0 7.8-.133 11.508-.385-.232.277-.453.617-.495.965-3.558.23-7.24.35-11.013.35-15.1 0-28.78-1.937-38.69-5.07C6.242 47.52.014 43.06.014 38.078c0-4.983 6.228-9.443 16.296-12.626 4.017-1.27 8.655-2.343 13.755-3.17-.267.152-.29.767.473.865-5.177.826-9.876 1.906-13.933 3.189-3.854 1.218-7.12 2.611-9.655 4.134h3.064l5.023 9.82 5.022-9.82h3.554v.971h-1.065c-.087 0-.57.012-.627.1-.03.043-.031.186-.031.236 0 .148.016.297.017.447l.452 9.455v.002c.005.136.018.598.122.703.102.102.545.104.676.104h.839v.971h-5.838v-.97h1.117c.115 0 .66-.014.747-.108a.485.485 0 00.016-.144v-.279l-.35-8.149-4.817 9.48-.157.356h-.608l-.156-.356-4.64-9.084-.424 7.723c0 .132-.017.263-.017.394 0 .021 0 .07.007.098.13.078.661.085.79.085h1.1v.971H6.234v-.988h.734c.13 0 .508-.002.61-.1.113-.11.143-.567.154-.717zm18.386-3.695c.068 2.495 1.223 4.54 4.057 4.54 1.708 0 3.415-.563 4.391-2.002l.244-.358.899.64-.224.326c-1.2 1.751-3.288 2.467-5.383 2.467-3.437 0-6.28-2.145-6.28-5.627 0-1.237.358-2.425 1.15-3.403 1.243-1.533 3.208-2.154 5.16-2.154 1.812 0 3.681.708 4.739 2.195a4.24 4.24 0 01.787 2.487v.07c0 .484-.44.82-.915.82h-8.625zm10.901 4.535c.016-.089.016-.259.016-.319v-8.39c0-.06 0-.23-.016-.319-.11-.021-.344-.02-.42-.02h-.971v-.946h6.406l-.047-.79.977-.096.368 4.991h-1.134l-.1-1.37-.001-.004c-.077-1.349-1.27-1.658-2.466-1.658h-.567c.03.109.045.222.045.338v8.264c0 .06 0 .231.018.317.108.023.355.022.432.022h1.45v.945h-5.381v-.945h.972c.075 0 .31.001.419-.02zm31.126 1.078c-1.952 0-3.916-.615-5.165-2.143-.81-.991-1.174-2.2-1.174-3.456 0-1.242.359-2.437 1.154-3.42 1.248-1.544 3.222-2.165 5.185-2.165 1.943 0 3.892.618 5.135 2.137.809.989 1.174 2.194 1.174 3.448 0 1.268-.37 2.487-1.194 3.483-1.244 1.505-3.183 2.116-5.115 2.116zm26.398-5.456l-.017-.016v-.17c0-3.426 2.545-5.557 5.99-5.557.959 0 1.906.221 2.728.69l-.028-.971h.985l.173 4.873-1.132.055-.057-1.72c-.006-.08-.02-.16-.041-.239-.132-.488-.537-.88-.966-1.14a3.506 3.506 0 00-1.778-.49c-2.724 0-3.61 1.887-3.61 4.274 0 2.52.851 4.78 3.784 4.78 1.21 0 2.635-.557 3.172-1.68l.163-.343 1.056.379-.175.396c-.722 1.632-2.492 2.335-4.23 2.335-3.424 0-5.934-2.105-6.017-5.456zm-68.379-1.235l7.266-.09c-.102-1.871-1.242-3.33-3.313-3.33-2.427 0-3.7 1.231-3.953 3.42zm22.227 1.699h-.74c-1.448 0-2.552.801-2.552 2.27 0 .853.485 1.523 1.407 1.523.488 0 .934-.214 1.257-.566.478-.523.628-1.265.628-1.944v-1.283zm19.812 3.92c2.811 0 4.017-1.63 4.017-4.26 0-2.736-1.083-4.78-4.133-4.78-2.816 0-4.046 1.617-4.046 4.259 0 2.758 1.097 4.78 4.162 4.78zm13.86 6.84c-.027.124-.322.398-.885.82-.453.345-.834.517-1.143.517-.254 0-.38-.11-.38-.33 0-.16.158-.446.476-.861-.454.397-.758.649-.912.754-.408.291-.748.437-1.02.437-.264 0-.395-.101-.395-.304 0-.053.005-.106.013-.16h.014c.073-.229.236-.343.49-.343.154 0 .231.044.231.134 0 .03-.009.073-.027.137a.58.58 0 00-.027.15c0 .009.009.04.027.095a.268.268 0 00.082.013c.172 0 .603-.284 1.292-.853.427-.364.858-.728 1.293-1.092.072-.053.218-.08.435-.08.073 0 .11.018.11.053 0 .018-.232.296-.695.834-.462.538-.694.878-.694 1.019.028.08.06.12.096.12.154 0 .43-.17.83-.51.399-.34.662-.523.789-.55zm-3.824-.026c0 .088-.313.38-.939.869-.453.355-.843.534-1.17.534-.263 0-.394-.108-.394-.324 0-.162.063-.31.19-.444h-.014c-.57.512-1.083.768-1.537.768-.345 0-.517-.148-.517-.442 0-.258.127-.531.38-.815h-.004a2.833 2.833 0 01-.078.07.716.716 0 01-.17.136c-.294.23-.777.566-1.448 1.011.01.062.013.132.013.212 0 .45-.276 1.018-.83 1.706a10.17 10.17 0 01-1.374 1.416C68.804 55.343 67.638 56 66.85 56c-.38 0-.571-.155-.571-.463 0-.591.789-1.443 2.367-2.554.372-.256 1.515-.97 3.43-2.144a.877.877 0 00.013-.145c0-.291-.127-.437-.381-.437-.2 0-.4.071-.599.212-.163.124-.33.247-.503.37-.055-.079-.082-.11-.082-.092 0-.027.027-.08.082-.159.226-.185.417-.317.571-.397.408-.203.821-.401 1.239-.595.471-.256.834-.52 1.088-.794.045-.044.063-.084.055-.12l-.028-.026a67.2 67.2 0 01-.626.238 1.8 1.8 0 01-.653.146c-.345 0-.562-.08-.653-.238-.58.582-.898.873-.953.873a.105.105 0 01-.04-.013v-.066c.308-.335.617-.64.925-.913v-.053c0-.38.195-.57.585-.57.154 0 .232.045.232.133-.155.106-.232.207-.232.305 0 .114.132.172.395.172.208 0 .467-.044.775-.133a7.24 7.24 0 01.49-.132c.09 0 .136.03.136.093 0 .061-.036.14-.109.238-.236.308-.59.59-1.06.847l-1.253.581v.014c.127-.035.213-.053.259-.053.38 0 .63.15.748.45.272-.177.68-.45 1.225-.82.073-.072.19-.172.352-.3.23-.22.565-.444 1.002-.673.53-.278.954-.417 1.272-.417.317 0 .476.115.476.344 0 .053-.009.11-.027.172h.014c.308-.344.59-.516.843-.516.118 0 .177.014.177.04 0 .026-.231.313-.694.86-.462.545-.694.906-.694 1.085l.027.066a.318.318 0 00.096.013c.19 0 .505-.183.945-.549.44-.366.678-.553.715-.562l.013.013zm-1.537-.569c0-.159-.086-.238-.259-.238-.236 0-.628.256-1.177.767-.549.512-.823.873-.823 1.085 0 .106.059.16.177.16.263 0 .676-.24 1.238-.715.563-.477.844-.83.844-1.059zm-4.667 2.223c-.472.291-1.175.73-2.11 1.319-2.213 1.374-3.32 2.459-3.32 3.26 0 .184.104.277.313.277.672 0 1.651-.65 2.94-1.954 1.224-1.221 1.95-2.19 2.177-2.902zm-3.729-3.864c-.018.15-.177.307-.476.47-.3.163-.535.245-.708.245a.612.612 0 01-.292-.086c-.105-.057-.157-.126-.157-.205v-.33c.046-.098.109-.146.19-.146.146 0 .218.059.218.176 0 .126-.081.234-.244.322.045.108.145.163.299.163.172 0 .406-.104.7-.31l.443-.312c.009 0 .018.005.027.013zm.599 2.21c-.019.134-.327.424-.926.869-.48.355-.87.534-1.17.534-.281 0-.422-.106-.422-.32 0-.267.25-.646.749-1.136l-.027-.026c-1.216.988-2.023 1.482-2.422 1.482-.3 0-.45-.106-.45-.32 0-.346.409-.902 1.225-1.665v-.013c-.145.097-.363.256-.653.476-.109.097-.272.234-.49.41a.444.444 0 01-.061.034c-.22.248-.482.475-.783.68-.38.265-.698.398-.952.398-.263 0-.395-.102-.395-.305 0-.14.055-.3.164-.476-.29.247-.531.37-.722.37h-.15c-.498.274-.861.41-1.088.41-.299 0-.449-.105-.449-.32 0-.275.259-.698.776-1.267l-.068.013-.465.324c-.185.354-.483.656-.896.907-.363.229-.662.344-.898.344-.308 0-.463-.128-.463-.384 0-.194.091-.41.272-.648-.28.194-.58.29-.898.29-.235 0-.403-.074-.503-.224-.127.194-.335.467-.626.82a1.18 1.18 0 01-.462.106c-.2 0-.3-.035-.3-.106 0-.123.204-.428.612-.913.345-.423.617-.727.817-.913v-.013c-.445.354-.745.576-.9.667-.089.14-.392.401-.91.784-.49.355-.898.534-1.224.534-.264 0-.395-.104-.395-.31 0-.204.2-.54.598-1.003.4-.465.6-.719.6-.765 0-.044-.032-.066-.096-.066-.272 0-.835.357-1.687 1.072-.853.714-1.37 1.072-1.552 1.072-.145 0-.217-.027-.217-.082 0-.18.229-.55.687-1.105.458-.555.687-.849.687-.875 0-.055-.036-.082-.109-.082-.245 0-.807.357-1.687 1.072-.88.714-1.393 1.072-1.538 1.072-.154 0-.231-.027-.231-.082 0-.126.218-.474.653-1.045.436-.571.658-.86.667-.87-.018-.054-.045-.08-.082-.08-.154 0-.43.172-.83.515-.111.097-.207.18-.289.248a5.129 5.129 0 01-1.194.93c-.48.273-.925.41-1.333.41-.5 0-.749-.163-.749-.49 0-.238.109-.498.327-.78h-.016a2.2 2.2 0 01-.109.098 7.788 7.788 0 01-.215.197c-.227.197-.4.338-.518.428-.471.346-.861.52-1.17.52-.2 0-.336-.07-.408-.211-.036-.088-.054-.243-.054-.463 0-.327-.073-.463-.218-.41.09-.08.227-.12.408-.12.245 0 .397.148.456.444.059.295.143.443.252.443.2 0 .514-.178.945-.536.126-.104.236-.194.33-.268l.004-.016c.256-.278.632-.55 1.127-.816.53-.276.966-.415 1.304-.415.265 0 .399.115.399.346 0 .4-.685.812-2.055 1.238a1.57 1.57 0 00-.081.36c0 .16.104.24.313.24.28 0 .612-.107.993-.318.263-.15.549-.349.857-.596l.049-.04c.078-.103.365-.362.863-.776.363-.302.68-.454.952-.454.227 0 .34.102.34.307 0 .152-.29.595-.87 1.334l.04.013c1.334-1.102 2.214-1.654 2.64-1.654.29 0 .436.102.436.307 0 .152-.123.377-.368.681-.19.212-.38.43-.571.653l.04.013c1.334-1.102 2.219-1.654 2.654-1.654.281 0 .422.097.422.294 0 .15-.177.44-.53.87-.354.433-.531.704-.531.82l.013.054a.313.313 0 00.095.013c.19 0 .481-.154.871-.463.311-.24.538-.412.68-.514v-.002c.082-.176.327-.386.736-.628.408-.243.712-.365.911-.365.172 0 .259.023.259.067 0 .035-.214.322-.64.86.073.044.109.101.109.172a.22.22 0 01-.061.139c-.041.048-.061.081-.061.099 0 .08.059.12.177.12.353 0 .684-.125.993-.372.018-.008.254-.242.707-.7.254-.257.481-.385.68-.385.191 0 .286.027.286.08 0 .018-.206.276-.619.774-.413.498-.619.814-.619.946 0 .062.014.108.041.139.027.03.059.046.095.046.143 0 .503-.26 1.079-.784l-.004-.01c0-.02.08-.088.239-.206l.02-.019h.005c.199-.145.51-.36.933-.644.046-.035.1-.081.164-.134.036-.017.064-.03.082-.04.217-.152.385-.227.503-.227.145 0 .227.014.245.04-.254.324-.513.648-.776.972-.408.512-.612.832-.612.958.01.008.025.028.048.061.022.031.056.046.102.046.118 0 .295-.107.53-.324.064-.28.214-.452.45-.516v-.284l.013-.013c.01-.01.023-.014.041-.014.136 0 .204.093.204.278 0 .168-.172.393-.517.675l.04.013c.3 0 .72-.315 1.26-.946.54-.63.972-.946 1.299-.946.063 0 .118.01.163.027-.027.044-.286.368-.776.972-.407.505-.612.83-.612.973l.034.053c.023.035.048.052.075.052.109 0 .372-.178.79-.535.2-.172.354-.303.463-.392.104-.134.353-.337.747-.605.536-.364.93-.545 1.184-.545.1 0 .159.014.177.04-.009.02-.259.34-.748.966-.409.516-.613.836-.613.964.01.008.023.026.041.055.018.026.045.04.082.04.227 0 1.134-.64 2.721-1.917.118-.1.25-.148.395-.148.19 0 .286.022.286.066 0 .056-.23.344-.688.871-.458.528-.687.862-.687 1.006 0 .038.01.066.028.088.018.022.045.033.081.033.308 0 .807-.34 1.497-1.019l.177-.079zm-20.887-.686c0-.081-.055-.121-.163-.121-.182 0-.431.172-.749.514a4.17 4.17 0 00-.585.77v.013c.998-.316 1.497-.708 1.497-1.176zm-2.531.09c0 .265-.14.398-.422.398-.208 0-.313-.045-.313-.135 0-.02.016-.062.048-.13a.401.401 0 00.047-.154c0-.126-.068-.19-.204-.19-.336 0-.905.368-1.707 1.105-.803.736-1.3 1.105-1.49 1.105-.11 0-.182-.014-.218-.04v-.055c0-.236.322-.75.966-1.546v-.013c-.195.19-.345.324-.452.403-.184.354-.483.656-.895.907-.363.229-.662.344-.898.344-.309 0-.463-.128-.463-.384 0-.194.09-.41.272-.648-.28.194-.58.29-.898.29-.236 0-.404-.074-.503-.224-.127.194-.336.467-.626.82a1.17 1.17 0 01-.463.106c-.2 0-.3-.035-.3-.106 0-.123.205-.428.613-.913.345-.423.617-.727.817-.913v-.013c-.449.357-.75.58-.903.67-.107.137-.405.399-.894.781-.453.355-.843.534-1.17.534-.263 0-.394-.108-.394-.324 0-.162.063-.31.19-.444h-.014c-.57.512-1.084.768-1.537.768-.345 0-.517-.148-.517-.442 0-.258.127-.531.38-.815h-.013c-.136.14-.222.211-.258.211-.018 0-.032-.004-.041-.013v-.026l.014-.053c.226-.265.605-.536 1.136-.814.53-.278.954-.417 1.272-.417.317 0 .476.115.476.344 0 .053-.009.11-.027.172h.014c.308-.344.59-.516.843-.516.118 0 .177.014.177.04 0 .026-.231.313-.694.86-.462.545-.694.906-.694 1.085l.027.066a.318.318 0 00.096.013c.19 0 .505-.183.945-.549.25-.208.435-.358.555-.451.086-.175.33-.382.731-.62.408-.243.712-.365.912-.365.172 0 .258.023.258.067 0 .035-.213.322-.64.86.073.044.11.101.11.172a.22.22 0 01-.062.139c-.04.048-.06.081-.06.099 0 .08.058.12.176.12.354 0 .685-.125.994-.372.018-.008.254-.242.707-.7.254-.257.481-.385.68-.385.19 0 .286.027.286.08 0 .018-.206.276-.62.774-.412.498-.618.814-.618.946 0 .062.014.108.04.139a.13.13 0 00.096.046c.154 0 .557-.3 1.209-.903.053-.103.279-.313.676-.632.44-.352.714-.529.823-.529.172 0 .258.053.258.159v.027c-.236.326-.598.811-1.088 1.455l.027.013c.598-.525 1.007-.867 1.225-1.027.571-.417 1.052-.627 1.442-.627.372 0 .558.124.558.37zm-9.484.027c0-.159-.087-.238-.259-.238-.236 0-.628.256-1.177.767-.549.512-.823.873-.823 1.085 0 .106.059.16.177.16.263 0 .676-.24 1.238-.715.562-.477.844-.83.844-1.059zm-4.069-2.157c.027-.238.116-.452.266-.641.149-.19.346-.349.591-.477s.524-.222.837-.284a4.587 4.587 0 011-.08c.345.01.717.043 1.116.1.4.057.78.117 1.143.178.318.053.672.106 1.062.16.39.052.803.092 1.238.118.599.027 1.095-.03 1.49-.172.395-.14.619-.366.673-.674.055-.292-.063-.545-.353-.761-.29-.216-.708-.325-1.252-.325-.381 0-.721.065-1.02.192-.3.128-.536.29-.708.483a.746.746 0 00-.205.358 1.016 1.016 0 00-.033.138c-.005.031-.017.047-.035.047-.027 0-.036-.058-.027-.172a.846.846 0 01.204-.45 1.95 1.95 0 01.721-.55c.309-.145.68-.218 1.116-.218.29 0 .554.031.79.093.235.062.433.154.591.278.16.123.275.273.348.45.072.176.086.38.04.608a.938.938 0 01-.265.49c-.14.141-.32.256-.538.344a3.183 3.183 0 01-.761.192c-.29.04-.6.055-.926.046-.408 0-.791-.028-1.15-.086a26.582 26.582 0 01-1.231-.231c-.363-.07-.728-.137-1.096-.199a9.342 9.342 0 00-1.095-.119 3.998 3.998 0 00-.864.04 2.789 2.789 0 00-.742.218 1.544 1.544 0 00-.53.39 1.041 1.041 0 00-.245.556c-.018.238.005.488.068.748s.231.505.503.734c.127.106.25.2.368.285a.58.58 0 01.231.31c.055.203-.004.433-.177.688a2.778 2.778 0 01-.734.715c-.59.423-1.094.635-1.51.635-.446 0-.668-.163-.668-.49 0-.335.127-.639.381-.912v-.014c-.236.23-.38.344-.435.344l-.014-.013v-.026l.014-.053c.29-.3.68-.578 1.17-.834.499-.264.934-.397 1.306-.397.037 0 .064.022.082.066a1.17 1.17 0 01-.15.08 2.86 2.86 0 00-.49.317 7.23 7.23 0 00-.585.516c-.462.468-.694.834-.694 1.098 0 .124.064.186.19.186.337 0 .75-.252 1.24-.754.253-.256.435-.479.543-.669.11-.19.164-.372.164-.549 0-.105-.055-.2-.164-.284a2.98 2.98 0 01-.354-.331 1.865 1.865 0 01-.333-.536c-.095-.22-.129-.52-.102-.9zM44.826 27.6c.074-4.813.078-8.965-.024-13.921l-.806.483-.028-1.564 1.098-.925-.02-.785.425-.438-.054-1.326.82-.792V7.86c.135-.112.07-.051.243-.063a.301.301 0 01.093.038l.004.423 1.758.503.244-.146 3.519 1.38.035.985.747.395.034 1.802-.487-.116.23 7.529c.36.108.447-.221.446.131l.333-.042h.002l.019-.003a.234.234 0 00.004-.074c-.006-.097-.066.095-.007-.073.121-.063.27-.048.448-.055-.018-.267-.37-.398-.349-.811.012-.22.053-.117-.002-.308-.208.01-.217.056-.267-.098.128-.186.357-.029.525-.022l.005.11c.166.108.113.195.43.383.18-.365.06-.48.093-1.039.004-.07 0-.051-.002-.112-.029-.61.036-.494.047-.615.007-.077-.03-.15-.042-.284a60.888 60.888 0 01-.14-2.335c-.092-.11-.186-.1-.256-.302a.98.98 0 01-.004-.525c.176-.557.518-.321.734-.326l-.003-.073c-.592.013-.668-.365-.52-.673.052-.107.124-.157.255-.193-.188-.249-.261-.246-.027-.62.155.064.174.067.34.022-.04-.872-.036-1.633-.074-2.483a.35.35 0 01-.268-.213c-.063-.13-.004-.101-.112-.263-.064-.096-.012.056-.06-.09.27.049.213.192.425.237-.043-.133-.04-.045-.083-.179.18-.288.087-.046.074-.308-.009-.183.02-.023.047-.213.01-.077-.003-.206-.007-.288l-.002-.036c-.007-.174-.006-.442-.012-.543-.013-.224-.033-.342-.012-.571.032-.362-.174-.035-.241-.63-.027-.236-.03-.074-.087-.252.26.016.05.073.312.243-.015-.223-.053-.084.005-.24.042-.116.029-.054.012-.235-.02-.224.036-.946-.02-1.317-.022-.137-.04-.131-.132-.206-.099-.082-.15-.093-.188-.182.23-.12.332-.043.382-.29.046-.226-.054-.535.024-.714-.177.007-.168 0-.302-.024l.198-.038c.035-.004.062-.009.1-.011-.09-.112.006-.016-.105-.062l-.109-.052c-.125-.083-.1-.127-.248-.16.015.056.045.118.008.183-.017-.057-.044-.174-.07-.232-.04-.091-.064-.074-.1-.2.01.004.023.002.027.013l.087.02.034-.22-.145.12c.049-.302.106-.2.307-.427.12-.135.109-.1.261-.187-.01-.247-.091-.712-.037-.84.19.041.089.088.089.324 0 .152.015.322.021.476.161-.04.043-.017.225-.01l-.184.081c.187.065-.04.143.32.202.008.001.019.005.026.005.092.01.045.032.113-.043.023.18.072.1.125.287l-.112.005c.003.16-.02.114-.026.257.115-.09.028-.062.143-.153-.006.17-.07.234-.19.321-.28.206-.12.19-.31.249-.026.057-.18.778.194 1.016.036.024.09.05.136.085.096.073.062.006.1.124-.216.058-.151.056-.294.158l.043 1.09c-.056.797.089.393.076.668-.011.246.02.125.052.203.103.258-.077.102-.01.252.045.099.115-.018.275-.038l-.093.128c-.072.156-.01.195-.191.25.01.216-.04.43.024.547l-.1.083s-.134.02.068.028c.01.212.005.492.03.696.027.229.048.084.074.248l-.052.224c.316-.097.331-.533.512-.314-.287.043-.01.154-.263.606-.047.084-.054.112-.154.143.02.457-.002.803.02 1.278l.06 1.35a.716.716 0 01.281.045c.157.052.098.048.214.117.012.259.01.28-.092.443l-.317.014c-.121.017-.12-.052-.325-.06.14.232.009.44.38.269.1-.046.115-.044.148-.13.001-.001.001-.01.004-.016.227-.009.334.04.379.21.048.19.015.387-.06.497-.142.208-.172.043-.429.098H55.4c-.103-.025-.13-.048-.245-.053.054.166.133.098.167.359l.107-.114c.026.194.08.128.343.095l-.08-.106.188-.008c-.029-.023-.01-.027-.064-.047-.09-.032-.02-.014-.127-.018.007-.005.02-.02.025-.012.004.008.02-.008.025-.01.048-.008.017-.011.084-.009.517.024.589.567.402.929-.186.357-.194.06-.166.658.016.335.104 1.072.013 1.378-.058.191.04.76.055.958.043.565-.03 1.213.181 1.565.313-.223.326-.273.458-.538.061-.121.002-.048.11-.114a.981.981 0 00.13-.093c.012.093.035.186.068.275a1.2 1.2 0 00.275.756l.03.051 1.918-.751-.032-2.344-.258-.186-.012-.123.662-.29-.027-.55.493-.819.215.104.941-1.857-.034-.85c-.005-.037-.281-.152-.278-.202.01-.003.104-.041.115-.042l-.005-.23.284-.204.006.251.12-.066c.044.026.04.044.033.101-.008.076-.11.226-.17.278-.006.006-.037.057-.043.06l.135.94 1.115 1.838.169-.132.233.488.151-.033.049.807.623.233-.017.158-.116.239.048 1.693.156.068.005.236.506.09.133-.188.491.042-.018-2.78-.184.005.002-.236-.009-.086.13-.005-.006-.279-.07-.077h-.162l.002-.142-.152.01-.015-.12-.126-.003-.01-.192.215-.02-.004-.066-.07.009.43-.325-.024-.659.236-.02-.002-.126.076-.006-.078-2.57-.076.002-.013-.176.087-.06-.01-.291c-.075-.013-.153-.095-.157-.162l-.091-.128c-.082-.04-.113-.152-.046-.209l.18-.142.169-.04-.033-.272c.065-.07.104-.069.134-.094.072-.06.042-.026.1-.064l-.043-.677-.075.032-.008-.152.16-.126-.004-.153.272-.503c.135-.395.65-.738 1.329-.893h-.07l-.01-.132.186-.116-.03-.78-.132-.12-.006-.114.081-.077.169-.035.215-4.045.074-.04.024-.004-.006-.118c-.08-.01-.142-.06-.145-.127-.004-.067.053-.127.131-.147l-.04-.804-.122-.036c-.027-.007-.04-.033-.03-.057.01-.023.039-.036.066-.029l.08.024-.007-.134c-.001-.025.02-.047.05-.05.028-.001.051.018.053.042l.009.172.16.048c.026.007.04.033.03.057a.054.054 0 01-.065.028l-.12-.035.039.77c.07.015.124.064.127.125.003.062-.044.117-.114.142l.006.12.073.016.37 4.053.2.064-.003.127-.128.127.059.793.137.065.001.012.005.002.003.15c.649.132 1.147.44 1.297.813l.297.49.004.153.166.117v.153l-.076-.03-.008.68c.06.034.028.002.102.059.032.023.071.02.14.086l-.016.234c.104.02.206.065.257.135l.098.07c.07.053.044.167-.035.211l-.085.132c0 .067-.074.153-.147.17l.004.29.09.056-.004.177-.076.002.055 2.57.076.002.005.126.237.009.007.511.442.403-.026.026.034.023-.053-.004-.019.02v.045l.215.008v.193l-.125.009-.01.121-.151-.003.009.141-.161.009-.067.08.009.269.078-.006v.015h.052l.009.322-.183.004.127 2.83.304.227v.071a17.939 17.939 0 01-2.555 2.983c.095-.108.189-.217.279-.328l.002-.003.002-.003c.409-.53.927-1.317.93-2.009 0-.23-.07-.52-.251-.684a.517.517 0 00-.314-.19c-.257-.044-.485.12-.654.288-.176.176-.33.394-.465.602a8.88 8.88 0 00-.551.992c-.773 1.453-1.857 2.746-3.09 3.853-.794.712-1.68 1.38-2.6 1.932-3.158 1.057-6.563 1.56-9.894 1.69a43.791 43.791 0 01-3.676-.01 31.721 31.721 0 01-1.994-.146 31.734 31.734 0 01-1.559-.264zm7.832-6.964l.003.118.15.004.238-.03-.005-.108-.386.016zm1.244-.162l.079.07c-.093-.02-.05.018-.079-.07zm2.13-.273c-.021-.094.037-.025.052.005.035.071-.041.037-.051-.005zm.432-.457c-.004-.074-.007-.014.04-.012.113.005-.009-.072.018.01.026.08-.056.045-.058.002zm.26-.048a7.702 7.702 0 01-.058-.052l-.059-.052.113-.005.005.11zm-2.745-.03l.204.182-.08.07-.007-.015-.117-.236zm3.031-.31l.038-.002c.005.111.023.133.047.217l-.112.005c.016-.086.032-.11.027-.22zm-3.031.31c-.082-.053-.049 0-.08-.106.083.051.05.004.08.107zm-.165-.322l.018.402c-.1-.066-.207-.344-.018-.402zm1.723-2.668c.181.101.43-.16.315.193-.07.211.01-.12-.02.055-.033.194.055-.077.081.578l.006.428c-.007.146-.042.312-.065.465l.032 1.044c.03.187.114.148.13.397l-.412.017c-.007-.158-.043-.256-.041-.355l-.023-1.105c-.016-.348-.083-.378-.107-.495-.031-.154.031-.041.01-.173l-.024-.077c-.043-.18.024-.19-.001-.308-.037-.175.041-.065-.082-.107l.02-.017.04-.038.017-.02c.126-.177.008-.142.016-.266.017-.24.065-.197.108-.216zm0 0c-.018-.142.018-.112-.126-.147l.113-.145c.189-.008.195-.004.34.022-.025.143-.03.042.008.183l-.335.087zm-.684-.154c.006.085.026.102.03.118l.09.593c.11.363-.056.52.007.879.047.274-.051.063-.04.415l.065 1.389c-.184.007-.402-.023-.488.02l.04-.12.005-.02c.091-.306.119-.118.083-.45-.029-.266-.03-.57-.041-.84-.264-.067.191.144-.072.077-.035-.785-.1-1.026-.01-1.642l.008-.046c.035-.215-.029-.117.01-.27.066-.258.016-.046-.008-.564.218-.027.097-.059.338-.015.018.416.086.35-.017.476zm.686-.65l.006.014.083.08c.058.034.094.05.144.079l.011.255c-.144.018-.145.043-.335.05.016-.083.025-.084.029-.183l-.077-.173.139-.123zm-.744-.663c-.324-.15-.287-.533-.033-.73l.033.73zm.452-.824c.019.143.041.088.045.181.004.082-.078.234-.098.333l-.075.003c.049-.282-.07-.362.128-.517zm-.593-.633c.101.06.103.033.121.178-.152-.033-.11-.005-.12-.178zm.084-.661l-.075.003-.005-.11.075-.003.005.11zm.034-.308c.027.006-.061.113-.047.016.008-.056-.03-.032.047-.016zm.736-.127c-.077.112-.064.111-.15.007.03-.04.078-.019.15-.007zm-.338.014c.006-.146.01-.12.105-.187.003.177.014.12-.105.188zm-.447-4.112c.007-.006.018-.012.021-.016.093-.086.088-.069.084-.171l.037-.002c.005.112-.01.134-.028.221-.082-.036-.015-.01-.114-.032zm.16-1.314c.06.084.05-.005.011.1-.093-.06-.103-.068-.122-.213l.056.057.056.056zm-.015-2.165c-.003-.074-.007-.014.04-.012.115.005-.008-.071.018.01.027.08-.055.045-.058.002zm-.02-1.315l-.041-.072c.105-.075.046-.076.19-.11l-.15.182zm-.555-.635c.007.175-.03.17-.025.294l-.037.001a.508.508 0 01.062-.295zm.231.137l-.075.003c.027-.119.005-.025.039-.106.069-.167.044-.129.136-.194l.023.553-.226-.033c.041-.096.024-.072-.008-.182.19-.008.063-.003.111-.041zm-.231-.137c.007-.17-.043-.062.068-.149-.013.068.01.01-.022.086-.022.052-.023.035-.046.063zm.67-.138l-.003-.073c.118.022.11.042.228.064.004.156-.03.415-.174.48-.293.131-.23-.268-.243-.572.192.035.068.067.192.101zm-.533-.16c.048-.097.035-.082.145-.116-.062.099-.016.076-.145.116zm21.797 18.905c6.572.876 12.493 2.146 17.464 3.718 10.068 3.182 16.296 7.642 16.296 12.625 0 4.982-6.228 9.442-16.296 12.624-6.657 2.105-15.016 3.67-24.363 4.47a18.01 18.01 0 001.197-.945l.124-.107c8.706-.826 16.49-2.323 22.747-4.3 9.66-3.054 15.634-7.21 15.634-11.742 0-4.534-5.974-8.689-15.634-11.743-4.996-1.579-11.566-2.933-18.2-3.801.481-.107 1.013-.45 1.031-.799zM67.73 55.301l-.825.06c.084-.305.341-.644.68-.981.502-.038 1.002-.078 1.499-.12-.397.365-.89.777-1.354 1.041zm2.646-32.352c2.436-2.008 5.806-1.897 5.024-1.239-.395.334-2.232.214-5.024 1.24z" fill="#fff"/></mask><g mask="url(#mask0_507_9283)"><path d="M17.494 83.116l-1.22-2.796 96.877-39.974 1.22 2.795-96.877 39.975z" fill="#AE9342"/><path d="M16.318 80.421l-.133-.304 96.877-39.974.133.304-96.877 39.974z" fill="#AE9342"/><path d="M16.23 80.219l-.133-.305 96.876-39.974.133.304L16.23 80.22z" fill="#AE9342"/><path d="M16.141 80.016l-.133-.305 96.877-39.974.133.304-96.877 39.975z" fill="#AE9342"/><path d="M16.053 79.813l-.133-.305 96.876-39.974.133.304-96.876 39.974z" fill="#AE9342"/><path d="M15.964 79.61l-.133-.304 96.877-39.975.133.304L15.964 79.61z" fill="#AE9342"/><path d="M15.876 79.407l-.133-.304 96.876-39.975.133.305-96.876 39.974z" fill="#AE9342"/><path d="M15.787 79.204l-.133-.304 96.877-39.975.133.305-96.877 39.974z" fill="#AE9342"/><path d="M15.698 79.001l-.132-.304 96.876-39.975.133.305L15.698 79z" fill="#AE9342"/><path d="M15.61 78.798l-.133-.304 96.877-39.975.132.305L15.61 78.798z" fill="#AE9342"/><path d="M15.521 78.595l-.133-.304 96.877-39.974.133.304-96.877 39.974z" fill="#AE9342"/><path d="M15.433 78.392l-.133-.304 96.877-39.974.132.304-96.876 39.974z" fill="#AE9342"/><path d="M15.344 78.19l-.133-.305 96.877-39.974.133.304L15.344 78.19z" fill="#AE9342"/><path d="M15.256 77.987l-.133-.305 96.876-39.974.133.304-96.876 39.975z" fill="#AE9342"/><path d="M15.167 77.784l-.133-.305 96.877-39.974.133.304-96.877 39.975z" fill="#AE9342"/><path d="M15.079 77.58l-.133-.303 96.876-39.975.133.304-96.876 39.975z" fill="#AE9342"/><path d="M14.99 77.378l-.133-.304 96.877-39.975.133.305L14.99 77.377z" fill="#AE9342"/><path d="M14.902 77.175l-.133-.304 96.876-39.975.133.304-96.876 39.975z" fill="#AE9342"/><path d="M14.813 76.972l-.133-.304 96.877-39.975.133.304-96.877 39.975z" fill="#AE9342"/><path d="M14.724 76.77l-.132-.305 96.876-39.975.133.305-96.877 39.974z" fill="#AE9342"/><path d="M14.636 76.567l-.133-.305 96.877-39.974.132.304-96.876 39.975z" fill="#AE9342"/><path d="M14.547 76.364l-.133-.305 96.877-39.974.133.304-96.877 39.975z" fill="#AE9342"/><path d="M14.459 76.16l-.133-.304 96.877-39.974.132.304L14.459 76.16z" fill="#AE9342"/><path d="M14.37 75.958l-.133-.305 96.877-39.974.133.304L14.37 75.958z" fill="#AE9342"/><path d="M14.282 75.755l-.133-.305 96.876-39.974.133.304-96.876 39.975z" fill="#AE9342"/><path d="M14.193 75.552l-.133-.304 96.877-39.975.133.304-96.877 39.975z" fill="#AE9342"/><path d="M14.105 75.349l-.133-.304 96.876-39.975.133.305-96.876 39.974z" fill="#AE9342"/><path d="M14.016 75.146l-.133-.304 96.877-39.975.133.305-96.877 39.974z" fill="#AE9342"/><path d="M13.927 74.943l-.132-.304 96.876-39.975.133.305-96.877 39.974z" fill="#AE9342"/><path d="M13.839 74.74l-.133-.304 96.877-39.975.132.305L13.839 74.74z" fill="#AE9342"/><path d="M13.75 74.537l-.132-.304 96.876-39.975.133.305L13.75 74.537z" fill="#AE9342"/><path d="M13.662 74.335l-.133-.305 96.877-39.974.132.304-96.876 39.975z" fill="#AE9342"/><path d="M13.573 74.131l-.133-.304 96.877-39.974.133.304L13.573 74.13z" fill="#AE9342"/><path d="M13.485 73.928l-.133-.304 96.876-39.974.133.304-96.876 39.974z" fill="#AE9342"/><path d="M13.396 73.726l-.133-.305 96.877-39.974.133.304-96.877 39.975z" fill="#AE9342"/><path d="M13.308 73.523l-.133-.304 96.876-39.975.133.305-96.876 39.974z" fill="#AE9342"/><path d="M13.219 73.32l-.133-.304 96.877-39.975.133.304L13.219 73.32z" fill="#AE9342"/><path d="M13.13 73.117l-.132-.304 96.876-39.975.133.305-96.876 39.974z" fill="#AE9342"/><path d="M13.042 72.914l-.133-.304 96.877-39.975.133.305-96.877 39.974z" fill="#AE9342"/><path d="M12.953 72.711l-.132-.304 96.876-39.974.133.304L12.953 72.71z" fill="#AE9342"/><path d="M12.865 72.508l-.133-.304 96.877-39.974.132.304-96.876 39.974z" fill="#AE9342"/><path d="M12.776 72.305l-.132-.304 96.876-39.974.133.304-96.877 39.974z" fill="#AE9342"/><path d="M12.688 72.103l-.133-.305 96.877-39.974.132.304-96.876 39.975z" fill="#AE9342"/><path d="M12.6 71.9l-.134-.305 96.877-39.974.133.304L12.599 71.9z" fill="#AE9342"/><path d="M12.51 71.697l-.132-.305 96.876-39.974.133.304-96.876 39.975z" fill="#AE9342"/><path d="M12.422 71.494l-.133-.305 96.877-39.974.133.304-96.877 39.975z" fill="#AE9342"/><path d="M12.334 71.29l-.133-.303 96.876-39.975.133.304-96.876 39.975z" fill="#AE9342"/><path d="M12.245 71.088l-.133-.304 96.877-39.975.133.305-96.877 39.974z" fill="#AE9342"/><path d="M12.157 70.885l-.133-.304L108.9 30.606l.133.305-96.876 39.974z" fill="#AE9342"/><path d="M12.068 70.682l-.133-.304 96.877-39.975.133.305-96.877 39.974z" fill="#AE9342"/><path d="M11.98 70.48l-.133-.305L108.723 30.2l.133.305-96.877 39.974z" fill="#AE9342"/><path d="M11.891 70.276l-.133-.304 96.877-39.974.132.304-96.876 39.974z" fill="#AE9342"/><path d="M11.802 70.073l-.132-.304 96.876-39.974.133.304-96.877 39.974z" fill="#AE9342"/><path d="M11.714 69.87l-.133-.303 96.877-39.975.132.304-96.876 39.975z" fill="#AE9342"/><path d="M11.625 69.668l-.133-.305L108.37 29.39l.133.304-96.877 39.975z" fill="#AE9342"/><path d="M11.537 69.465l-.133-.305 96.876-39.974.133.305-96.876 39.974z" fill="#AE9342"/><path d="M11.448 69.262l-.133-.304 96.877-39.975.133.305-96.877 39.974z" fill="#AE9342"/><path d="M11.36 69.06l-.133-.305 96.876-39.975.133.305L11.36 69.059z" fill="#AE9342"/><path d="M11.271 68.856l-.133-.304 96.877-39.975.133.305-96.877 39.974z" fill="#AE9342"/><path d="M11.183 68.653l-.133-.304 96.876-39.975.133.305-96.876 39.974z" fill="#AE9342"/><path d="M11.094 68.45l-.133-.304 96.877-39.974.133.304L11.094 68.45z" fill="#AE9342"/><path d="M11.005 68.247l-.132-.304 96.876-39.974.133.304-96.877 39.974z" fill="#AE9342"/><path d="M10.917 68.045l-.133-.305 96.877-39.974.132.304-96.876 39.975z" fill="#AE9342"/><path d="M10.828 67.842l-.132-.305 96.876-39.974.133.304-96.877 39.975z" fill="#AE9342"/><path d="M10.74 67.639l-.133-.305 96.877-39.974.132.304L10.74 67.64z" fill="#AE9342"/><path d="M10.651 67.436l-.133-.305 96.877-39.974.133.304-96.877 39.975z" fill="#AE9342"/><path d="M10.563 67.233l-.133-.304 96.876-39.975.133.305-96.876 39.974z" fill="#AE9342"/><path d="M10.474 67.03l-.133-.304 96.877-39.974.133.304L10.474 67.03z" fill="#AE9342"/><path d="M10.386 66.827l-.133-.304 96.876-39.975.133.305-96.876 39.974z" fill="#AE9342"/><path d="M10.297 66.624l-.133-.304 96.877-39.974.133.304-96.877 39.974z" fill="#AE9342"/><path d="M10.208 66.421l-.132-.304 96.876-39.974.133.304-96.877 39.974z" fill="#AE9342"/><path d="M10.12 66.219l-.133-.305 96.877-39.974.133.304L10.12 66.22z" fill="#AE9342"/><path d="M10.031 66.016L9.9 65.71l96.876-39.974.133.304-96.877 39.975z" fill="#AE9342"/><path d="M9.943 65.813l-.133-.305 96.877-39.974.132.304L9.943 65.812z" fill="#AE9342"/><path d="M9.854 65.61l-.133-.305 96.877-39.974.133.304L9.854 65.61z" fill="#AF9443"/><path d="M9.766 65.407l-.133-.304 96.876-39.975.133.305L9.766 65.407z" fill="#B09544"/><path d="M9.677 65.204l-.133-.304 96.877-39.975.133.305L9.677 65.204z" fill="#B19645"/><path d="M9.589 65.001l-.133-.304 96.876-39.975.133.305L9.589 65z" fill="#B29746"/><path d="M9.5 64.798l-.133-.304 96.877-39.975.133.305L9.5 64.798z" fill="#B49947"/><path d="M9.412 64.595l-.133-.304 96.876-39.975.133.305L9.412 64.595z" fill="#B69B49"/><path d="M9.323 64.392l-.133-.304 96.877-39.974.133.304L9.323 64.392z" fill="#B89D4A"/><path d="M9.234 64.19l-.132-.305 96.876-39.974.133.304L9.234 64.189z" fill="#BA9F4C"/><path d="M9.146 63.986l-.133-.304 96.877-39.974.132.304L9.146 63.986z" fill="#BCA24D"/><path d="M9.057 63.784l-.132-.305L105.8 23.505l.133.304L9.057 63.784z" fill="#BFA44F"/><path d="M8.969 63.58l-.133-.303 96.877-39.975.132.304L8.969 63.581z" fill="#C1A751"/><path d="M8.88 63.378l-.133-.304 96.877-39.975.133.305L8.88 63.377z" fill="#C4AA54"/><path d="M8.792 63.175l-.133-.304 96.876-39.975.133.304L8.792 63.175z" fill="#C7AD56"/><path d="M8.703 62.972l-.133-.304 96.877-39.975.133.304L8.703 62.972z" fill="#CAB058"/><path d="M8.615 62.77l-.133-.305 96.877-39.975.133.305L8.615 62.769z" fill="#CCB25B"/><path d="M8.526 62.566l-.133-.304 96.877-39.974.133.304L8.526 62.566z" fill="#CFB65D"/><path d="M8.438 62.364l-.133-.305 96.877-39.974.132.304L8.438 62.364z" fill="#D2B85F"/><path d="M8.35 62.16l-.134-.304 96.877-39.974.133.304L8.349 62.16z" fill="#D5BC62"/><path d="M8.26 61.958l-.132-.305 96.877-39.974.132.304L8.26 61.958z" fill="#D8BF65"/><path d="M8.172 61.755l-.133-.305 96.877-39.974.132.304L8.172 61.755z" fill="#DBC267"/><path d="M8.083 61.552l-.132-.305 96.876-39.974.133.304L8.083 61.552z" fill="#DEC56A"/><path d="M7.995 61.349l-.133-.304L104.74 21.07l.132.304L7.995 61.35z" fill="#E1C86C"/><path d="M7.906 61.146l-.133-.304 96.877-39.975.133.305L7.906 61.146z" fill="#E3CA6F"/><path d="M7.818 60.943l-.133-.304 96.876-39.975.133.305L7.818 60.943z" fill="#E6CE71"/><path d="M7.73 60.74l-.134-.304 96.877-39.975.133.305L7.729 60.74z" fill="#E8D173"/><path d="M7.64 60.537l-.132-.304 96.877-39.975.132.305L7.641 60.537z" fill="#EBD376"/><path d="M7.552 60.334l-.133-.304 96.877-39.975.133.305L7.552 60.334z" fill="#EDD577"/><path d="M7.464 60.132l-.133-.305 96.877-39.974.132.304L7.464 60.132z" fill="#EFD779"/><path d="M7.375 59.928l-.133-.304L104.12 19.65l.133.304L7.375 59.928z" fill="#F0D97A"/><path d="M7.286 59.726l-.132-.304 96.876-39.975.133.304L7.286 59.726z" fill="#F2DB7C"/><path d="M7.198 59.523l-.133-.305 96.877-39.974.132.304L7.198 59.523z" fill="#F3DC7D"/><path d="M7.11 59.32l-.133-.304 96.876-39.975.133.304L7.109 59.32z" fill="#F4DD7E"/><path d="M7.02 59.117l-.132-.304 96.877-39.975.132.305L7.021 59.117z" fill="#F4DE7F"/><path d="M6.932 58.914L6.8 58.61l96.877-39.975.133.305L6.932 58.914z" fill="#F4DE7F"/><path d="M6.844 58.711l-.133-.304 96.877-39.975.133.305L6.844 58.71z" fill="#F4DE7F"/><path d="M6.755 58.508l-.133-.304L103.5 18.23l.133.304L6.755 58.508z" fill="#F3DC7D"/><path d="M6.667 58.305l-.133-.304 96.877-39.974.132.304L6.667 58.305z" fill="#F2DB7D"/><path d="M6.578 58.103l-.133-.305 96.877-39.974.133.304L6.578 58.103z" fill="#F1DA7C"/><path d="M6.49 57.9l-.133-.305 96.877-39.974.132.304L6.49 57.9z" fill="#EFD87A"/><path d="M6.401 57.697l-.133-.305 96.877-39.974.133.304L6.401 57.697z" fill="#EDD577"/><path d="M6.312 57.494l-.132-.305 96.876-39.974.133.304L6.312 57.494z" fill="#EBD376"/><path d="M6.224 57.29l-.133-.303 96.877-39.975.133.304L6.224 57.291z" fill="#E8D073"/><path d="M6.135 57.088l-.133-.305L102.88 16.81l.133.304L6.135 57.088z" fill="#E5CC70"/><path d="M6.047 56.885l-.133-.304 96.877-39.975.133.305L6.047 56.885z" fill="#E2C96D"/><path d="M5.958 56.682l-.133-.304 96.877-39.975.133.305L5.958 56.682z" fill="#DFC66B"/><path d="M5.87 56.48l-.133-.305L102.614 16.2l.133.305L5.87 56.479z" fill="#DCC267"/><path d="M5.781 56.276l-.133-.304 96.877-39.974.133.304L5.781 56.276z" fill="#D8BF64"/><path d="M5.693 56.074l-.133-.305 96.877-39.974.132.304L5.693 56.074z" fill="#D5BB61"/><path d="M5.604 55.87l-.133-.304 96.877-39.974.133.304L5.604 55.87z" fill="#D1B75E"/><path d="M5.515 55.667l-.132-.304L102.26 15.39l.132.304L5.515 55.667z" fill="#CEB35B"/><path d="M5.427 55.465l-.133-.305 96.877-39.974.133.305L5.427 55.465z" fill="#CAB058"/><path d="M5.338 55.262l-.132-.304 96.876-39.975.133.305L5.338 55.262z" fill="#C7AC55"/><path d="M5.25 55.06l-.133-.305 96.877-39.975.133.305L5.25 55.059z" fill="#C3A852"/><path d="M5.161 54.856l-.133-.304 96.877-39.975.133.305L5.161 54.856z" fill="#C0A54F"/><path d="M5.073 54.653l-.133-.304 96.877-39.975.133.305L5.073 54.653z" fill="#BCA14D"/><path d="M4.984 54.45l-.133-.304 96.877-39.975.133.305L4.984 54.45z" fill="#BA9E4A"/><path d="M4.896 54.247l-.133-.304L101.64 13.97l.133.304L4.896 54.247z" fill="#B79B48"/><path d="M4.807 54.044l-.132-.304 96.876-39.974.133.304L4.807 54.044z" fill="#B49945"/><path d="M4.719 53.842l-.133-.305 96.877-39.974.132.304L4.719 53.842z" fill="#B19643"/><path d="M4.63 53.639l-.132-.305 96.876-39.974.133.304L4.63 53.64z" fill="#AF9441"/><path d="M4.541 53.436l-.132-.304 96.877-39.975.132.304L4.541 53.436z" fill="#AD9240"/><path d="M4.453 53.233l-.133-.304 96.877-39.975.133.304L4.453 53.233z" fill="#AC913E"/><path d="M4.364 53.03l-.132-.305 96.876-39.974.133.304L4.364 53.03z" fill="#AA8F3D"/><path d="M4.276 52.827l-.133-.304 96.877-39.975.133.304L4.276 52.827z" fill="#A98E3C"/><path d="M4.188 52.624l-.133-.304 96.876-39.974.133.304L4.188 52.624z" fill="#A98E3B"/><path d="M4.099 52.422l-.133-.305 96.877-39.974.133.304L4.099 52.422z" fill="#A88D3B"/><path d="M4.01 52.219l-.132-.305 96.876-39.974.133.304L4.011 52.22z" fill="#A88D3B"/><path d="M3.922 52.016l-.133-.305 96.877-39.974.133.304L3.922 52.016z" fill="#A78D3A"/><path d="M3.833 51.813l-.132-.305 96.876-39.974.133.304L3.833 51.813z" fill="#A78D3A"/><path d="M3.745 51.61l-.133-.305 96.877-39.974.132.304L3.745 51.61z" fill="#A78C39"/><path d="M3.656 51.407l-.133-.305L100.4 11.128l.133.304L3.656 51.407z" fill="#A78C39"/><path d="M3.567 51.204l-.132-.304 96.877-39.975.132.305L3.567 51.204z" fill="#A78C39"/><path d="M3.48 51.001l-.134-.304 96.877-39.975.133.305L3.479 51z" fill="#A68B38"/><path d="M3.39 50.798l-.132-.304 96.876-39.975.133.305L3.39 50.798z" fill="#A68B38"/><path d="M3.302 50.595l-.133-.304 96.877-39.975.133.305L3.302 50.595z" fill="#A68B38"/><path d="M3.214 50.392l-.133-.304 96.876-39.974.133.304L3.214 50.392z" fill="#A58B37"/><path d="M3.125 50.19l-.133-.305L99.87 9.91l.133.305L3.125 50.189z" fill="#A58B37"/><path d="M3.036 49.986l-.132-.304L99.78 9.708l.133.304L3.036 49.986z" fill="#A58B37"/><path d="M2.948 49.783l-.133-.304L99.692 9.505l.132.304L2.948 49.783z" fill="#A48A36"/><path d="M2.86 49.58l-.133-.303L99.603 9.301l.133.304L2.859 49.581z" fill="#A48A36"/><path d="M2.77 49.378l-.132-.304L99.515 9.099l.132.305L2.771 49.378z" fill="#A48A36"/><path d="M2.682 49.175l-.133-.304L99.426 8.895l.133.304L2.682 49.175z" fill="#A48A36"/><path d="M2.594 48.972l-.133-.304L99.337 8.693l.133.305L2.594 48.972z" fill="#A48A35"/><path d="M2.505 48.77l-.133-.305L99.25 8.49l.133.305L2.505 48.769z" fill="#A48A35"/><path d="M2.417 48.566l-.133-.304L99.16 8.288l.133.304L2.417 48.566z" fill="#A48A35"/><path d="M2.328 48.363l-.133-.304L99.072 8.085l.133.304L2.328 48.363z" fill="#A48A35"/><path d="M2.24 48.16l-.133-.304L98.983 7.882l.133.304L2.24 48.161z" fill="#A48A35"/><path d="M2.15 47.958l-.132-.305L98.895 7.68l.133.304L2.15 47.958z" fill="#A38935"/><path d="M2.062 47.755l-.132-.305L98.806 7.476l.133.304L2.062 47.755z" fill="#A38935"/><path d="M1.974 47.552l-.133-.305L98.718 7.273l.132.304L1.974 47.552z" fill="#A38935"/><path d="M1.885 47.349l-.132-.305L98.629 7.07l.133.304L1.885 47.35z" fill="#A38935"/><path d="M1.797 47.146l-.133-.305L98.54 6.867l.132.304L1.797 47.146z" fill="#A38935"/><path d="M1.708 46.943l-.133-.304L98.452 6.664l.133.305L1.708 46.943z" fill="#A48935"/><path d="M1.62 46.74l-.133-.304L98.363 6.46l.133.305L1.62 46.74z" fill="#A48935"/><path d="M1.53 46.537l-.132-.304L98.275 6.258l.133.305L1.53 46.537z" fill="#A48935"/><path d="M1.443 46.334l-.133-.304L98.186 6.055l.133.305L1.443 46.334z" fill="#A48935"/><path d="M1.354 46.132l-.133-.305L98.098 5.853l.133.304L1.354 46.132z" fill="#A38934"/><path d="M1.266 45.929l-.133-.305L98.009 5.65l.133.304L1.266 45.93z" fill="#A38934"/><path d="M1.177 45.726l-.133-.304L97.92 5.447l.133.304L1.177 45.726z" fill="#A38934"/><path d="M1.088 45.523l-.132-.305L97.832 5.244l.133.304L1.088 45.522z" fill="#A38934"/><path d="M1 45.32l-.133-.304L97.744 5.04l.132.304L1 45.32z" fill="#A38934"/><path d="M.911 45.117l-.132-.304L97.655 4.838l.133.305L.911 45.117z" fill="#A38934"/><path d="M.823 44.914L.69 44.61 97.567 4.635l.132.305L.823 44.914z" fill="#A38934"/><path d="M.734 44.711l-.133-.304L97.478 4.432l.133.305L.734 44.71z" fill="#A38934"/><path d="M.646 44.508l-.133-.304L97.389 4.229l.133.305L.646 44.508z" fill="#A38934"/><path d="M.557 44.305l-.133-.304L97.301 4.027l.133.304L.557 44.305z" fill="#A48934"/><path d="M.469 44.102l-.133-.304L97.212 3.824l.133.304L.469 44.102z" fill="#A48934"/><path d="M.38 43.9l-.133-.305L97.124 3.621l.133.304L.38 43.9z" fill="#A48934"/><path d="M.292 43.697l-.133-.305L97.035 3.418l.133.304L.292 43.697z" fill="#A48934"/><path d="M.203 43.494l-.133-.305L96.947 3.215l.133.304L.203 43.494z" fill="#A48934"/><path d="M.114 43.29l-.132-.303L96.858 3.011l.133.304L.114 43.291z" fill="#A48934"/><path d="M.026 43.088l-.133-.304L96.77 2.809l.132.304L.026 43.089z" fill="#A48934"/><path d="M-.063 42.885l-.132-.304L96.68 2.606l.133.305L-.063 42.885z" fill="#A48934"/><path d="M-.151 42.682l-.133-.304L96.593 2.403l.132.305L-.15 42.682z" fill="#A48934"/><path d="M-.24 42.48l-.133-.305L96.504 2.2l.133.305L-.24 42.479z" fill="#A48934"/><path d="M-.328 42.276l-.133-.304L96.415 1.998l.133.304L-.328 42.276z" fill="#A48934"/><path d="M-.417 42.074l-.133-.305L96.327 1.795l.133.304L-.417 42.074z" fill="#A48934"/><path d="M-.505 41.87l-.133-.304L96.238 1.592l.133.304L-.505 41.87z" fill="#A58A34"/><path d="M-.594 41.668l-.133-.305L96.15 1.39l.133.304L-.594 41.668z" fill="#A68B34"/><path d="M-.683 41.465l-.132-.305L96.06 1.187l.133.304L-.683 41.465z" fill="#A78B35"/><path d="M-.771 41.262l-.133-.304L95.973.983l.133.304L-.771 41.262z" fill="#A88D36"/><path d="M-.86 41.06l-.132-.305L95.884.78l.133.305L-.86 41.059z" fill="#AA8E37"/><path d="M-.948 40.856l-.133-.304L95.796.577l.132.305L-.948 40.856z" fill="#AB9039"/><path d="M-1.037 40.653l-.133-.304L95.707.374l.133.305-96.877 39.974z" fill="#AD913A"/><path d="M-1.125 40.45l-.133-.304L95.618.17l.133.305L-1.125 40.45z" fill="#AF933B"/><path d="M-1.214 40.247l-.133-.304L95.53-.031l.133.304-96.877 39.974z" fill="#B1953D"/><path d="M-1.302 40.044l-.133-.304L95.44-.234l.133.304-96.876 39.974z" fill="#B3983F"/><path d="M-1.391 39.841l-.133-.304L95.353-.437l.133.304L-1.391 39.84z" fill="#B69A41"/><path d="M-1.48 39.639l-.132-.305L95.264-.64l.133.304L-1.479 39.64z" fill="#B89C43"/><path d="M-1.568 39.436l-.133-.304L95.176-.843l.133.304-96.877 39.975z" fill="#BB9F45"/><path d="M-1.657 39.233l-.132-.304L95.087-1.046l.133.305-96.877 39.974z" fill="#BDA248"/><path d="M-1.745 39.03l-.133-.305L94.999-1.248l.132.304L-1.745 39.03z" fill="#C0A54A"/><path d="M-1.834 38.827l-.132-.304L94.91-1.452l.133.305-96.877 39.974z" fill="#C3A84D"/><path d="M-1.922 38.624l-.133-.304L94.822-1.655l.132.305-96.876 39.974z" fill="#C6AA4F"/><path d="M-2.01 38.421l-.134-.304L94.733-1.857l.133.304L-2.01 38.421z" fill="#CAAE53"/><path d="M-2.1 38.219l-.132-.305L94.644-2.06l.133.304L-2.099 38.22z" fill="#CDB155"/><path d="M-2.188 38.016l-.133-.305L94.556-2.263l.133.304-96.877 39.974z" fill="#D0B559"/><path d="M-2.276 37.813l-.133-.305L94.467-2.466l.133.304-96.876 39.975z" fill="#D3B75B"/><path d="M-2.365 37.61l-.133-.305L94.38-2.669l.133.304L-2.365 37.61z" fill="#D5BA5E"/><path d="M-2.453 37.407l-.133-.305L94.29-2.872l.133.304-96.876 39.975z" fill="#D8BD61"/><path d="M-2.542 37.204l-.133-.304L94.202-3.075l.133.304-96.877 39.975z" fill="#DAC064"/><path d="M-2.63 37l-.133-.303L94.113-3.278l.133.304L-2.63 37.001z" fill="#DDC367"/><path d="M-2.719 36.798l-.133-.304L94.025-3.481l.132.305-96.876 39.974z" fill="#E0C669"/><path d="M-2.808 36.595l-.132-.304L93.936-3.684l.133.305-96.877 39.974z" fill="#E3C96D"/><path d="M-2.896 36.392l-.133-.304L93.848-3.886l.132.304-96.876 39.974z" fill="#E5CC6F"/><path d="M-2.985 36.19l-.133-.305L93.76-4.09l.133.305-96.877 39.974z" fill="#E8CE72"/><path d="M-3.073 35.986l-.133-.304L93.67-4.292l.133.304-96.876 39.974z" fill="#EAD175"/><path d="M-3.162 35.783l-.133-.304L93.582-4.495l.133.304-96.877 39.974z" fill="#ECD376"/><path d="M-3.25 35.58l-.133-.303L93.493-4.699l.133.304L-3.25 35.581z" fill="#EED579"/><path d="M-3.339 35.378l-.133-.304L93.405-4.901l.133.305L-3.34 35.378z" fill="#F0D77A"/><path d="M-3.427 35.175l-.133-.304L93.316-5.105l.133.304-96.876 39.975z" fill="#F2DA7D"/><path d="M-3.516 34.972l-.133-.304L93.228-5.307l.133.305-96.877 39.974z" fill="#F2DA7E"/><path d="M-3.605 34.77l-.132-.305L93.139-5.51l.133.305-96.877 39.974z" fill="#F3DC80"/><path d="M-3.693 34.566l-.133-.304L93.051-5.713l.132.305-96.876 39.974z" fill="#F5DD80"/><path d="M-3.782 34.363l-.132-.304L92.962-5.915l.133.304-96.877 39.974z" fill="#F5DE81"/><path d="M-3.87 34.16l-.133-.304L92.874-6.118l.133.304L-3.87 34.16z" fill="#F5DE81"/><path d="M-3.959 33.958l-.133-.305L92.785-6.32l.133.304L-3.96 33.958z" fill="#F5DE81"/><path d="M-4.047 33.755l-.133-.305L92.696-6.524l.133.304-96.876 39.975z" fill="#F5DD80"/><path d="M-4.136 33.552l-.133-.305L92.608-6.727l.133.304-96.877 39.975z" fill="#F3DC7F"/><path d="M-4.224 33.349l-.133-.305L92.519-6.93l.133.304L-4.224 33.35z" fill="#F2DA7C"/><path d="M-4.313 33.146l-.133-.304L92.431-7.133l.133.304-96.877 39.975z" fill="#EFD679"/><path d="M-4.401 32.943l-.133-.304L92.342-7.337l.133.304L-4.4 32.943z" fill="#ECD376"/><path d="M-4.49 32.74l-.133-.304L92.254-7.54l.133.305L-4.49 32.74z" fill="#E8CF72"/><path d="M-4.579 32.537l-.132-.304L92.165-7.742l.133.305-96.877 39.974z" fill="#E4CA6E"/><path d="M-4.667 32.334l-.133-.304L92.077-7.945l.133.305-96.877 39.974z" fill="#E0C669"/><path d="M-4.756 32.132l-.133-.305L91.988-8.147l.133.304-96.877 39.975z" fill="#DBC164"/><path d="M-4.844 31.929l-.133-.305L91.9-8.35l.132.304L-4.844 31.93z" fill="#D6BC60"/><path d="M-4.933 31.726l-.133-.305L91.811-8.553l.133.304-96.877 39.974z" fill="#D2B75C"/><path d="M-5.021 31.523l-.133-.305L91.722-8.756l.134.304-96.877 39.975z" fill="#CDB257"/><path d="M-5.11 31.32l-.133-.305L91.634-8.958l.133.304L-5.11 31.32z" fill="#C8AD52"/><path d="M-5.198 31.117l-.133-.304L91.545-9.162l.133.305-96.876 39.974z" fill="#C4A84D"/><path d="M-5.287 30.914l-.133-.304L91.457-9.365l.133.305-96.877 39.974z" fill="#BFA44A"/><path d="M-5.376 30.711l-.132-.304L91.368-9.568l.133.305L-5.376 30.71z" fill="#BB9F46"/><path d="M-5.464 30.508l-.133-.304L91.28-9.771l.132.305-96.876 39.974z" fill="#B69B42"/><path d="M-5.553 30.305l-.132-.304L91.19-9.974l.133.305-96.877 39.974z" fill="#B2973F"/><path d="M-5.64 30.102l-.134-.304 96.877-39.974.133.304-96.877 39.974z" fill="#AF933C"/><path d="M-5.73 29.9l-.133-.305 96.877-39.974.133.304L-5.73 29.9z" fill="#AC913A"/><path d="M-5.818 29.696l-.133-.304 96.876-39.974.133.304-96.876 39.974z" fill="#A98E38"/><path d="M-5.907 29.494l-.133-.305 96.877-39.974.133.304-96.877 39.975z" fill="#A78C36"/><path d="M-5.995 29.29l-.133-.303L90.75-10.989l.133.304L-5.994 29.29z" fill="#A68B34"/><path d="M-6.084 29.088l-.133-.304L90.66-11.191l.133.305-96.877 39.974z" fill="#A48934"/><path d="M-6.172 28.885l-.756-1.731 96.877-39.975.755 1.732-96.876 39.974z" fill="#A48934"/></g></svg>