<svg width="275" height="128" fill="none" xmlns="http://www.w3.org/2000/svg"><path d="M7.925 26.84a1.777 1.777 0 011.323.549c.305.291.486.689.505 1.11v8.898c0 1.91-.074 4.041-.119 6.35-.044 2.31-.089 5.419-.148 9.327v2.428c0 .282.178.43.52.43s.58-.237.833-.726c.417-.677.77-1.39 1.055-2.132h9.397a3.85 3.85 0 001.636-.236 1.32 1.32 0 00.61-1.037c.132-.921.186-1.852.163-2.783V31.993a3.602 3.602 0 00-.759-2.31 3.48 3.48 0 00-1.74-1.258l-.653-.192a1.177 1.177 0 01-.506-.267.55.55 0 01-.208-.415c0-.473.342-.71 1.026-.71h6.824a1.732 1.732 0 011.279.548c.311.294.498.697.52 1.125V49.61a11.998 11.998 0 00.327 3.494 1.482 1.482 0 001.487.903 5.104 5.104 0 012.2.267c.253.177.372.577.372 1.17 0 2.812 0 4.781-.089 5.92a7.684 7.684 0 01-.476 2.518 1.674 1.674 0 01-1.145 1.006c-.887.162-1.79.226-2.69.193h-2.082a1.866 1.866 0 01-.64-.104.342.342 0 01-.133-.31c.18-.32.394-.617.64-.889a8.535 8.535 0 001.129-1.88 5.9 5.9 0 00.49-2.561.945.945 0 00-.43-.918 3.762 3.762 0 00-1.621-.326H5.635a1.731 1.731 0 01-1.308-.548 1.57 1.57 0 01-.536-1.11v-6.78c0-1.525 0-3.406.075-5.656.074-2.25 0-6.247 0-11.947a3.528 3.528 0 00-.759-2.295 3.641 3.641 0 00-1.74-1.273l-.653-.192a1.177 1.177 0 01-.506-.267.548.548 0 01-.208-.414c0-.474.342-.71 1.011-.71h6.795l.119-.06zm28.933 0h16.711c.67 0 1.041.415 1.086 1.23l.267 6.01c0 .815-.148 1.214-.475 1.214a.924.924 0 01-.833-.651c-.208-.444-.505-1.08-.907-1.88a4.45 4.45 0 00-1.977-1.97 8.52 8.52 0 00-3.94-.725 22.946 22.946 0 00-2.78.119 1.49 1.49 0 00-1.071.503 2.359 2.359 0 00-.253 1.303l-.223 7.402v2.428c0 .296.178.444.52.444s.58-.252.848-.74c.411-.678.76-1.391 1.04-2.132h1.398a28.485 28.485 0 003.316-.207c1.13-.119 1.799-.193 1.977-.193.52 0 .773.34.773 1.007a14.13 14.13 0 01-.356 1.88c-.253 1.051-.432 1.6-.55 1.644a1.97 1.97 0 01-.997.236H44.56a2.536 2.536 0 00-1.486.311 1.583 1.583 0 00-.387 1.259v6.04c.04.777.332 1.52.833 2.117a2.839 2.839 0 002.304.977 34.715 34.715 0 003.896-.178 11.549 11.549 0 003.107-.784 3.628 3.628 0 001.398-.977c.443-.523.841-1.083 1.19-1.673.415-.666.742-1.14.98-1.48a1.068 1.068 0 01.848-.46c.312 0 .476.296.476.874l-1.309 6.795c-.063.4-.238.775-.505 1.08a1.626 1.626 0 01-1.145.312H38.583a1.7 1.7 0 01-1.294-.548 1.57 1.57 0 01-.535-1.11V31.933a3.602 3.602 0 00-.758-2.31 3.479 3.479 0 00-1.74-1.258l-.61-.193a1.177 1.177 0 01-.505-.266.519.519 0 01-.194-.415c0-.474.313-.71.967-.71l2.944.059zm24.948 0h3.94a1.777 1.777 0 011.324.549c.311.294.498.697.52 1.125v3.479l-.223 7.091v2.443c0 .326.193.488.565.488.372 0 .52-.251.847-.755.39-.698.722-1.425.997-2.176h9.842c.442.002.879-.094 1.279-.281.401-.193.594-.415.594-.681v-6.13a3.587 3.587 0 00-.743-2.309 3.583 3.583 0 00-1.754-1.258l-.64-.192a1.147 1.147 0 01-.52-.267.52.52 0 01-.193-.415c0-.473.342-.71 1.01-.71h6.825a1.733 1.733 0 011.294.548c.305.291.486.689.505 1.11v15.634c0 3.242 0 5.359.075 6.35.034.896.139 1.787.312 2.665a4.43 4.43 0 001.01 2.31c.228.245.507.438.819.563.38.147.773.261 1.174.34.38.083.748.208 1.1.37a.653.653 0 01.313.592c0 .474-.194.71-.595.71H83.2a1.67 1.67 0 01-1.278-.532 1.613 1.613 0 01-.52-1.125V41.26c0-.28-.18-.429-.521-.429-.342 0-.446.237-.744.696 0 0-.163.31-.4.755a5.27 5.27 0 01-.64 1.036.861.861 0 01-.625.385H69.33a5.025 5.025 0 00-1.233.148c-.402.089-.595.193-.595.282v6.35c.04.895.144 1.786.312 2.665a4.433 4.433 0 001.011 2.31c.227.239.5.43.803.563.387.143.785.257 1.19.34.378.083.747.208 1.1.37a.653.653 0 01.312.592c0 .474-.194.71-.595.71h-8.296a1.7 1.7 0 01-1.294-.547 1.57 1.57 0 01-.535-1.11V31.993a3.528 3.528 0 00-.758-2.295 3.657 3.657 0 00-1.784-1.273l-.61-.192a1.177 1.177 0 01-.506-.267.52.52 0 01-.193-.415c0-.473.327-.71.996-.71h3.152zm31.372-.428c3.181 0 6.438.113 9.768.34l5.115.355a5.672 5.672 0 002.706-.488 5.819 5.819 0 001.486-1.259c.432-.518.818-.784 1.16-.784.342 0 .61.222.61.666a16.124 16.124 0 01-.952 2.96 32.039 32.039 0 01-1.279 3.14c-.104.266-.564.384-1.353.384h-3.925a1.057 1.057 0 00-.832.252c-.237.399-.36.854-.357 1.318-.074.725-.134 1.82-.149 3.286-.015 1.466 0 4.042 0 7.713 0 3.242 0 5.345.075 6.307.042.91.151 1.815.327 2.71.09.854.443 1.661 1.011 2.309.22.246.495.439.803.562.376.148.764.267 1.159.356a4.39 4.39 0 011.071.355.666.666 0 01.327.592c0 .474-.193.71-.58.71h-8.281a1.775 1.775 0 01-1.309-.532 1.584 1.584 0 01-.52-1.125V33.947a.812.812 0 01.386-.622 5.208 5.208 0 011.026-.622l.773-.414c.461-.311.699-.548.699-.696 0-.385-.149-.577-.446-.577h-2.394a12.98 12.98 0 00-3.85.503 8.449 8.449 0 00-2.156.918c-.387.281-.907.71-1.561 1.273-.655.563-1.115.844-1.413.844a.478.478 0 01-.5-.322.473.473 0 01-.02-.211c.104-.876.313-1.736.624-2.561a66.3 66.3 0 011.487-4.057 1.288 1.288 0 011.175-.873l.089-.119zm22.227.473h13.53c6.334 0 9.501 2.788 9.501 8.365a9.425 9.425 0 01-.833 4.027 8.742 8.742 0 01-2.245 2.96 11.889 11.889 0 01-3.211 1.984c-1.211.499-2.48.847-3.777 1.037-1.131.12-2.244.373-3.315.755a1.483 1.483 0 00-.982 1.554 30.328 30.328 0 00.357 5.567 4.43 4.43 0 001.011 2.31c.225.241.499.433.803.562.39.136.787.25 1.19.34.381.077.75.2 1.1.37a.692.692 0 01.327.607c0 .46-.208.696-.625.696h-8.281a1.687 1.687 0 01-1.294-.548 1.49 1.49 0 01-.535-1.11V31.963a3.583 3.583 0 00-.758-2.294 3.74 3.74 0 00-1.71-1.348l-.609-.192a1.238 1.238 0 01-.506-.252.511.511 0 01-.193-.43c0-.473.327-.695.996-.695l.059.133zm16.816 9.283a5.742 5.742 0 00-1.487-4.441 5.245 5.245 0 00-3.627-1.348c-2.186 0-3.286.533-3.286 1.614v12.362c0 .296.178.444.535.444.282 0 .565-.237.862-.71.403-.694.742-1.422 1.011-2.177h.744a5.298 5.298 0 002.602-.652 4.835 4.835 0 001.947-1.954 6.244 6.244 0 00.744-3.138h-.045zM2.066 2.813h1.487c.33-.023.662.012.98.104a.682.682 0 01.298.547V8.44c0 .192 0 .296.208.296.209 0 .417-.296.997-.888A20.47 20.47 0 007.522 6.13c.338-.398.642-.824.907-1.273.15-.216.247-.465.283-.725a.428.428 0 00-.179-.4 1.58 1.58 0 00-.52-.207 4.22 4.22 0 01-.52-.148.267.267 0 01-.164-.267c0-.148.03-.237.09-.266.148-.015.297-.015.445 0h3.182a.776.776 0 01.595.163.782.782 0 01.163.533 2.32 2.32 0 01-.684 1.317c-.54.63-1.12 1.223-1.74 1.777L7.613 8.217c-.446.414-.684.68-.684.77 0 .088.386.192 1.144.192a2.044 2.044 0 011.859.933c.489.833.93 1.693 1.323 2.576.625 1.288 1.026 2.146 1.25 2.56.177.384.418.734.713 1.037.115.118.251.213.401.282l.58.177c.183.042.359.112.52.207a.357.357 0 01.164.296c0 .282-.297.415-.907.415h-2.78a1.224 1.224 0 01-.967-.37 10.58 10.58 0 01-.803-1.895c-.401-1.096-.758-2.102-1.1-2.961a6.252 6.252 0 00-.832-1.703 1.666 1.666 0 00-1.294-.488 2.865 2.865 0 00-1.174.237.74.74 0 00-.253.622v2.96a8.9 8.9 0 00.148 1.303c.05.406.22.788.491 1.096.108.116.24.207.387.266l.55.163c.177.03.348.09.505.178a.297.297 0 01.149.281c0 .222-.09.326-.268.326h-3.94a.792.792 0 01-.61-.252.74.74 0 01-.252-.533V5.3a1.668 1.668 0 00-.342-1.095 1.813 1.813 0 00-.833-.607l-.297-.09a.715.715 0 01-.238-.118.267.267 0 01-.09-.207c0-.222.15-.326.477-.326l1.457-.044zm14.437 0a1.7 1.7 0 011.219.385c.27.394.484.822.64 1.273.311.755.668 1.673 1.1 2.783.43 1.11.773 2.014 1.07 2.754.297.74.446 1.14.49 1.214.045.074.12.133.179.133.06 0 .134 0 .193-.133.22-.483.414-.977.58-1.48.312-.8.595-1.659.862-2.562a8.39 8.39 0 00.372-2.131 1.475 1.475 0 00-.253-.933 1.487 1.487 0 00-.669-.444c-.267-.09-.505-.163-.713-.252-.209-.089-.313-.192-.313-.34 0-.148.075-.311.238-.311h4.282a.358.358 0 01.313.177c.065.129.101.27.104.415a8.264 8.264 0 01-.67 2.413c-.43 1.184-1.085 2.842-1.977 4.99-.892 2.146-1.487 3.79-1.948 4.929a8.208 8.208 0 00-.624 2.398.857.857 0 00.357.815c.316.161.65.285.996.37.416.118.64.251.64.414 0 .163-.09.34-.268.34h-4.06a.701.701 0 01-.609-.34 1.373 1.373 0 01-.223-.77 2.95 2.95 0 01.312-1.11c.223-.488.506-1.08.863-1.791.216-.377.395-.774.535-1.185 0 0-.223-.636-.67-1.702-.445-1.066-.921-2.25-1.486-3.509a134.12 134.12 0 01-1.487-3.45 18.526 18.526 0 00-.907-1.835c-.16-.24-.38-.435-.64-.563a5.578 5.578 0 00-.876-.28c-.387-.105-.595-.238-.595-.371s.178-.355.506-.355l3.137.044zm14.54 0h1.041a.462.462 0 01.357.237c.164.281.52 1.11 1.085 2.517l1.65 4.115c.536 1.333 1.042 2.576 1.488 3.701a20.88 20.88 0 001.219 2.458c.207.298.47.554.773.755.153.091.318.161.49.207.154.041.303.096.447.163a.252.252 0 01.119.252c0 .281-.253.414-.788.414h-3.405a.566.566 0 01-.416-.222 6.916 6.916 0 01-.64-1.302c-.282-.681-.624-1.6-1.056-2.754l-1.233-3.405-.759-2.088c-.089-.266-.178-.4-.252-.4-.075 0-.194.134-.328.4-.249.482-.472.976-.669 1.48-.267.667-.565 1.481-.877 2.31a25.246 25.246 0 00-.743 2.31c-.158.48-.253.977-.283 1.48 0 .159.036.316.104.46a.83.83 0 00.238.355c.164.115.338.214.52.296l.61.222c.175.051.345.12.506.207a.267.267 0 01.134.237c0 .296-.164.444-.491.444h-3.732c-.416 0-.625-.178-.625-.563a25.788 25.788 0 011.026-3.183c.684-1.939 1.487-3.997 2.26-6.188.774-2.19 1.487-3.745 1.844-4.648a.385.385 0 01.387-.237v-.03zM41.17 15.205v-9.95a1.697 1.697 0 00-.357-1.095 1.843 1.843 0 00-.848-.607l-.297-.089a.893.893 0 01-.238-.118.266.266 0 01-.09-.207c0-.222.164-.326.477-.326h3.226a.866.866 0 01.64.252c.145.14.23.331.237.533v5.7c0 .133.09.207.253.207.044.011.09.011.134 0a.355.355 0 00.119-.134l.104-.162.223-.43c.068-.15.158-.29.267-.414a.4.4 0 01.298-.178h2.498a3.16 3.16 0 011.992.666 4.283 4.283 0 011.293 1.614c.282.577.434 1.209.447 1.85v.504a4.101 4.101 0 01-.417 1.717 5.303 5.303 0 01-1.16 1.584 5.625 5.625 0 01-1.74 1.14c-.66.29-1.374.436-2.095.43H42.03a.746.746 0 01-.61-.252.755.755 0 01-.252-.533v-1.703zm3.687-4.975a.969.969 0 00-.61.267 1.066 1.066 0 00-.327.888l.09 3.805c-.011.249.05.496.178.71a.802.802 0 00.624.208 7.954 7.954 0 002.32-.282 2.154 2.154 0 001.264-1.036 4.277 4.277 0 00.416-2.102 2.302 2.302 0 00-.342-1.274 2.181 2.181 0 00-.922-.873 2.746 2.746 0 00-1.308-.31h-1.383zm7.553-7.624c1.487 0 3.063 0 4.654.163l2.423.163c.445.033.89-.049 1.294-.237a2.73 2.73 0 00.713-.593.831.831 0 01.55-.37.269.269 0 01.29.188c.013.04.015.082.008.123a7.701 7.701 0 01-.446 1.392c-.18.505-.39.999-.625 1.48 0 .119-.253.178-.64.178h-1.873a.552.552 0 00-.386.118 1.476 1.476 0 00-.178.637v8.112c.021.439.076.874.163 1.304.041.405.207.788.476 1.095.111.112.242.202.386.267l.55.162c.176.038.346.098.506.178a.296.296 0 01.149.281c0 .223-.09.326-.268.326h-3.97a.805.805 0 01-.624-.252.755.755 0 01-.253-.533V6.115a.398.398 0 01.178-.297c.151-.118.316-.217.491-.296l.372-.192c.223-.148.327-.267.327-.34 0-.075-.074-.267-.208-.267h-1.16a5.972 5.972 0 00-1.829.237c-.364.09-.71.24-1.026.444-.178.133-.43.326-.743.592-.18.195-.412.333-.669.4-.163 0-.253-.074-.253-.237.052-.42.152-.832.298-1.229.208-.607.446-1.258.728-1.924a.578.578 0 01.55-.415l.045.015zm13.976.207a1.7 1.7 0 011.219.385c.27.394.484.822.64 1.273.311.755.668 1.673 1.1 2.783.43 1.11.773 2.014 1.07 2.754.297.74.446 1.14.49 1.214.045.074.12.133.18.133.058 0 .133 0 .192-.133.229-.48.427-.975.595-1.48.297-.8.58-1.659.848-2.562a8.538 8.538 0 00.386-2.131 1.476 1.476 0 00-.267-.933 1.487 1.487 0 00-.67-.444c-.252-.09-.505-.163-.698-.252-.194-.089-.328-.192-.328-.34 0-.148.075-.311.238-.311h4.282a.358.358 0 01.313.177.95.95 0 01.104.415c-.1.832-.32 1.645-.654 2.413-.447 1.184-1.1 2.842-1.993 4.99-.892 2.146-1.487 3.79-1.948 4.929a8.205 8.205 0 00-.624 2.398.856.856 0 00.357.815c.316.161.65.285.996.37.431.118.64.251.64.414 0 .163-.09.34-.268.34h-4.06a.702.702 0 01-.609-.34 1.373 1.373 0 01-.223-.77 2.95 2.95 0 01.312-1.11c.223-.488.506-1.08.863-1.791.216-.377.395-.774.535-1.185 0 0-.223-.636-.67-1.702-.445-1.066-.92-2.25-1.486-3.509a134.12 134.12 0 01-1.487-3.45c-.268-.627-.57-1.24-.907-1.835a1.722 1.722 0 00-.624-.563 6.485 6.485 0 00-.892-.28c-.387-.105-.595-.238-.595-.371s.178-.355.506-.355l3.137.044zm11.418 0h6.423c2.974 0 4.46 1.318 4.46 3.982a4.617 4.617 0 01-.386 1.91 4.44 4.44 0 01-1.07 1.48 5.95 5.95 0 01-1.487.948 7.845 7.845 0 01-1.8.489 6.8 6.8 0 00-1.575.355.742.742 0 00-.461.74c-.022.887.033 1.773.163 2.65.057.401.222.78.476 1.096a1.2 1.2 0 00.387.266c.184.069.373.123.565.163a2 2 0 01.52.178.326.326 0 01.164.296c0 .207-.104.326-.298.326h-3.91a.866.866 0 01-.624-.267.757.757 0 01-.253-.533V5.3a1.653 1.653 0 00-.372-1.095 1.769 1.769 0 00-.847-.607l-.283-.09a.716.716 0 01-.238-.118.25.25 0 01-.089-.207c0-.222.149-.326.476-.326l.06-.044zm7.984 4.441a2.653 2.653 0 00-.728-2.102 2.43 2.43 0 00-1.725-.651c-1.04 0-1.56.251-1.56.77v5.921c0 .134.088.208.252.208.163 0 .282-.104.416-.326a5.88 5.88 0 00.476-1.051h.357a2.55 2.55 0 001.234-.296c.395-.216.72-.54.936-.933a3.12 3.12 0 00.343-1.48v-.06zm5.279-4.44h1.873a.85.85 0 01.625.25c.145.141.23.332.237.534v1.658l-.089 3.375v1.155c0 .163.09.237.268.237.178 0 .238-.119.386-.355.19-.33.35-.677.476-1.037h4.683c.21 0 .419-.046.61-.133.193-.089.283-.207.283-.326v-2.96a1.701 1.701 0 00-.357-1.096 1.74 1.74 0 00-.833-.607l-.297-.089a.804.804 0 01-.253-.118.266.266 0 01-.09-.208c0-.222.164-.325.477-.325h3.211a.856.856 0 01.61.251c.145.141.23.332.238.533v10.363c.023.428.072.853.148 1.274.065.401.235.779.491 1.095.11.113.241.204.387.267l.565.163c.18.037.354.097.52.177.049.028.089.07.115.12.027.05.038.105.034.162 0 .221-.105.325-.298.325h-3.851a.747.747 0 01-.609-.252.75.75 0 01-.253-.532V9.533c0-.148-.074-.207-.253-.207-.178 0-.208.104-.342.326-.134.222-.089.148-.193.355-.084.18-.188.349-.312.503a.384.384 0 01-.298.178h-4.341a2.6 2.6 0 00-.58.074c-.193 0-.297.089-.297.133v2.961c.022.427.072.853.148 1.273.057.402.221.78.476 1.096.114.109.245.199.387.267l.565.162c.18.036.356.095.52.178a.297.297 0 01.149.281c0 .222-.09.326-.283.326h-3.85a.807.807 0 01-.625-.252.813.813 0 01-.253-.533V5.062a1.639 1.639 0 00-.371-1.095 1.769 1.769 0 00-.848-.607l-.282-.089a.716.716 0 01-.238-.118.238.238 0 01-.104-.208c0-.222.163-.325.49-.325l1.428.192zM121.1 5.256v8.734c.015.428.065.854.149 1.274.056.4.221.78.475 1.095.112.112.243.202.387.267l.565.162c.18.038.355.098.52.178a.295.295 0 01.149.281c0 .223-.089.326-.282.326h-3.94a.8.8 0 01-.625-.252.816.816 0 01-.253-.533V5.197a1.714 1.714 0 00-.371-1.096 1.769 1.769 0 00-.848-.607l-.282-.089a.987.987 0 01-.253-.118.26.26 0 01-.089-.207c0-.222.163-.326.476-.326h3.241a.847.847 0 01.624.252c.145.14.23.331.238.533v1.658l.119.059zm-13.872 9.948V5.256a1.696 1.696 0 00-.357-1.096 1.734 1.734 0 00-.832-.607l-.283-.089a.602.602 0 01-.238-.118.24.24 0 01-.104-.207c0-.222.149-.326.461-.326h3.241a.864.864 0 01.64.252c.145.14.23.331.238.533v5.7c0 .133.089.207.252.207a.27.27 0 00.134 0l.119-.134.104-.162a2.22 2.22 0 01.134-.267c.046-.115.105-.225.178-.326.06-.117.14-.222.238-.31a.36.36 0 01.238-.119h2.498a3.134 3.134 0 011.978.666c.565.42 1.015.975 1.308 1.614.27.58.417 1.21.431 1.85v.504a3.884 3.884 0 01-.416 1.717 5.518 5.518 0 01-1.145 1.584 5.634 5.634 0 01-1.74 1.14c-.66.29-1.375.436-2.096.43h-4.104a.808.808 0 01-.624-.252.816.816 0 01-.253-.533v-1.703zm3.687-4.974a.936.936 0 00-.609.267 1.112 1.112 0 00-.312.888l.089 3.805c-.011.249.051.496.178.71a.788.788 0 00.625.208 7.98 7.98 0 002.304-.282 2.153 2.153 0 001.264-1.036c.322-.653.47-1.376.431-2.102a2.428 2.428 0 00-.342-1.274 2.314 2.314 0 00-.936-.873 2.779 2.779 0 00-1.324-.31h-1.368zm17.946-7.002L127.88.267a.282.282 0 010-.163.265.265 0 01.223-.104.313.313 0 01.253.119l.579.592a1.795 1.795 0 001.353.533h.699a3.705 3.705 0 001.16-.207c.266-.044.52-.145.743-.297l.61-.547a.55.55 0 01.327-.134c.193 0 .283 0 .283.134v.385a1.631 1.631 0 01-.298.666 3.375 3.375 0 01-.669.755c-.377.33-.803.6-1.264.8a3.819 3.819 0 01-1.68.37l-1.338.059zm5.769-.415h1.398a.85.85 0 01.624.252c.148.14.238.33.253.533v11.607c-.02.391.107.776.357 1.08.203.281.489.493.817.607l.313.104c.08.027.155.067.223.118a.245.245 0 01.089.192c0 .223-.149.326-.461.326h-3.256a.806.806 0 01-.625-.251.81.81 0 01-.252-.533V6.973l-6.557 9.875c-.387.533-.744.784-1.041.784h-.847a.793.793 0 01-.61-.251.728.728 0 01-.253-.533V5.256a1.696 1.696 0 00-.357-1.096 1.812 1.812 0 00-.832-.607l-.298-.089a.908.908 0 01-.238-.118.262.262 0 01-.067-.094.261.261 0 01-.022-.113c0-.222.149-.326.461-.326h3.241a.792.792 0 01.61.252c.148.14.238.33.253.533V13.62l6.601-10.363c.164-.281.342-.414.506-.414l-.03-.03zm-5.412 86.34c0 .178 0 .266.119.266.118 0 .282-.133.475-.429.118-.193.253-.377.402-.548.277-.148.595-.205.907-.162h.892c.201.01.402-.014.594-.075.105 0 .149-.118.149-.266a2.924 2.924 0 000-.296c0-.104-.163-.489-.401-1.184-.238-.696-.491-1.318-.714-1.88-.223-.563-.387-.844-.461-.844-.24.38-.42.794-.535 1.228-.312.815-.61 1.673-.892 2.562a8.419 8.419 0 00-.431 1.628h-.104zm1.903-10.008h.892c.104 0 .223.104.312.326a62.37 62.37 0 011.264 3.05c.297.784.728 1.894 1.249 3.33.52 1.437.996 2.591 1.368 3.494a56.72 56.72 0 001.382 3.065c.151.312.395.57.699.74.273.167.576.277.892.326a.687.687 0 01.402.222.458.458 0 01.163.326c0 .236-.268.37-.803.37h-2.78a1.836 1.836 0 01-.788-.134 1.054 1.054 0 01-.461-.488c0-.133-.282-.755-.654-1.865-.372-1.11-.625-1.673-.729-1.673h-3.851a.727.727 0 00-.594.325 2.54 2.54 0 00-.506.992 3.728 3.728 0 00-.223.977c0 .356.104.593.312.696.314.15.643.264.982.34.446.134.669.282.669.46a.476.476 0 01-.075.296.416.416 0 01-.267.074h-3.345a.802.802 0 01-.684-.37 1.356 1.356 0 01-.268-.844c.246-1.315.63-2.6 1.145-3.835a159.731 159.731 0 012.483-6.47 29.876 29.876 0 011.591-3.567.35.35 0 01.282-.163h-.059zm-7.434 4.56a2.76 2.76 0 00-.744-2.176 2.548 2.548 0 00-1.769-.667c-1.071 0-1.606.267-1.606.8v6.04c0 .148.089.207.253.207s.282-.103.431-.34a5.98 5.98 0 00.491-1.066h.357a2.72 2.72 0 001.278-.31c.401-.228.73-.56.952-.963.243-.456.365-.965.357-1.48v-.045zm-8.207-4.545h6.601c3.107 0 4.654 1.362 4.654 4.086a4.621 4.621 0 01-.402 1.969 4.439 4.439 0 01-1.1 1.48 5.956 5.956 0 01-1.576.963c-.59.25-1.209.424-1.844.518a6.246 6.246 0 00-1.62.37.754.754 0 00-.476.755 16.33 16.33 0 00.163 2.724c.052.414.223.805.491 1.125.111.119.249.21.402.267.187.076.381.135.579.177.186.036.366.096.536.178.051.03.094.073.123.125a.319.319 0 01.04.171c0 .222-.104.34-.297.34h-4.059a.868.868 0 01-.639-.266.812.812 0 01-.253-.548V81.721a1.712 1.712 0 00-.372-1.125 1.812 1.812 0 00-.862-.622l-.298-.089a.575.575 0 01-.252-.133.26.26 0 01-.07-.093.263.263 0 01-.02-.114c0-.222.164-.34.491-.34l.06-.045zm-10.051 13.413h5.114c.223 0 .327-.133.327-.4a9.072 9.072 0 00-.327-1.08c-.208-.667-.416-1.259-.594-1.792l-.714-2.117c-.307-.888-.515-1.495-.624-1.821-.298-.948-.521-1.406-.64-1.406s-.104 0-.148.103c-.045.104-.164.296-.342.652-.179.355-.58 1.332-1.011 2.457a86.548 86.548 0 00-1.145 3.124 9.124 9.124 0 00-.506 1.688.535.535 0 00.208.429.583.583 0 00.402.163zm2.899-13.428h.61a.298.298 0 01.297.163c.446.977.847 1.895 1.175 2.724.327.829.728 1.88 1.174 3.094.446 1.214.892 2.369 1.309 3.464.416 1.096.951 2.295 1.486 3.627a.774.774 0 00.729.326.659.659 0 01.55.193c.113.25.159.526.134.8.001.603-.034 1.206-.104 1.805a9.812 9.812 0 01-.327 1.555c-.129.414-.278.621-.446.621a.535.535 0 01-.417-.192 3.43 3.43 0 01-.282-.666 4.469 4.469 0 00-.327-.859 2.375 2.375 0 00-.506-.725 2.17 2.17 0 00-.937-.548 5.965 5.965 0 00-1.486-.133h-6.438c-.337 0-.739.296-1.204.888a8.238 8.238 0 00-1.145 1.94c0 .088-.164.148-.431.148-.268 0-.61-1.126-.61-3.39 0-.933 0-1.481.149-1.481a.898.898 0 00.401-.148c.169-.09.32-.211.446-.356.281-.518.52-1.057.714-1.613.401-1.007.922-2.34 1.576-3.968.654-1.628 1.234-3.05 1.784-4.278.438-.986.935-1.945 1.487-2.872a.31.31 0 01.282-.193l.357.074zm-22.718 0h1.933a.85.85 0 01.639.267c.151.143.242.34.253.547v1.659l-.104 3.464v1.199c0 .148.089.237.267.237.179 0 .268-.133.416-.37.199-.339.363-.696.491-1.066h4.817c.21-.001.418-.047.61-.133.208-.104.297-.208.297-.341v-2.96a1.83 1.83 0 00-.356-1.14 1.89 1.89 0 00-.863-.608l-.312-.104a.804.804 0 01-.253-.118.267.267 0 01-.09-.207c0-.237.164-.34.492-.34h3.345a.866.866 0 01.624.266c.145.14.23.331.238.533v10.703c.015.438.065.874.149 1.303.054.42.23.817.505 1.14a.907.907 0 00.387.267c.188.07.382.124.58.162.184.047.364.111.535.193.049.028.089.07.116.119.026.05.037.106.033.162 0 .237-.089.356-.283.356h-4.059a.894.894 0 01-.877-.815v-7.269c0-.148 0-.222-.253-.222-.252 0-.223.119-.356.356a2.452 2.452 0 00-.194.355 2.63 2.63 0 01-.327.518.4.4 0 01-.297.178h-4.46c-.201.002-.4.027-.595.074-.194 0-.298.088-.298.148v3.094c.014.437.064.873.149 1.303.052.418.222.813.49 1.14.12.108.255.198.402.266.189.07.383.124.58.163.184.046.364.11.535.192a.296.296 0 01.149.282c0 .237-.09.355-.297.355h-4.045a.865.865 0 01-.639-.267.77.77 0 01-.253-.547V81.72a1.712 1.712 0 00-.371-1.125 1.784 1.784 0 00-.878-.622l-.297-.103a.716.716 0 01-.238-.119.237.237 0 01-.104-.207c0-.237.164-.34.49-.34l1.577-.06zM74.503 89.153c0 .178.045.266.134.266.12 0 .268-.133.461-.429.127-.191.266-.374.416-.548.12-.118.417-.162.892-.162h.833a1.8 1.8 0 00.61-.075c.089 0 .133-.088.133-.266.01-.098.01-.198 0-.296 0-.104-.163-.489-.416-1.184-.253-.696-.476-1.318-.713-1.88-.238-.563-.387-.844-.462-.844-.24.38-.42.794-.535 1.228a101.09 101.09 0 00-.892 2.562 9.939 9.939 0 00-.43 1.628h-.03zm1.903-10.008h.833c.119 0 .223.104.327.326a117.96 117.96 0 011.264 3.05l1.249 3.33a71.5 71.5 0 002.75 6.559c.146.311.385.57.684.74.273.167.576.277.892.326a.759.759 0 01.417.222c.092.085.15.201.163.326 0 .236-.267.37-.817.37H81.46a1.864 1.864 0 01-.802-.134 1.038 1.038 0 01-.446-.488c-.075-.133-.283-.755-.67-1.865-.386-1.11-.624-1.673-.728-1.673h-3.836a.746.746 0 00-.61.325 2.777 2.777 0 00-.49.992 3.732 3.732 0 00-.223.977.723.723 0 00.297.696c.316.144.644.259.981.34.461.134.684.282.684.46a.472.472 0 01-.074.296.448.448 0 01-.267.074h-3.36a.836.836 0 01-.685-.37 1.476 1.476 0 01-.252-.844c.237-1.315.616-2.6 1.13-3.835.773-2.102 1.59-4.263 2.497-6.47a31.56 31.56 0 011.576-3.567.386.386 0 01.283-.163h-.06zm-11.091 1.48a2.657 2.657 0 00-1.933.74 4.557 4.557 0 00-1.16 1.925 8.233 8.233 0 00-.371 2.443 6.63 6.63 0 00.401 2.295c.245.71.623 1.37 1.115 1.94a5.32 5.32 0 001.784 1.332c.72.32 1.502.481 2.29.473.501.01 1.002-.05 1.487-.177.264-.072.532-.126.803-.163a.313.313 0 01.357.34.31.31 0 01-.075.237l-2.2 1.48c-.614.458-1.278.845-1.978 1.155a6.204 6.204 0 01-2.973-.829 6.856 6.856 0 01-2.662-2.635 8.853 8.853 0 01-1.115-4.634 9.883 9.883 0 01.773-3.997 6.592 6.592 0 012.216-2.828 5.964 5.964 0 013.449-1.036 8.85 8.85 0 012.26.222c.494.13.949.38 1.323.726a.636.636 0 01.238.473 1.2 1.2 0 01-.09.474l-.876 2.961c0 .237-.164.355-.327.355-.164 0-.387-.177-.52-.547-.135-.37-.254-.77-.373-1.2a2.75 2.75 0 00-.624-1.095 1.636 1.636 0 00-1.249-.444l.03.014zm-19.031-1.48h1.487c.34-.023.682.012 1.01.104a.637.637 0 01.298.562 15.94 15.94 0 010 1.821v3.302c0 .192.074.296.223.296.149 0 .431-.296 1.026-.918a21.684 21.684 0 001.59-1.762c.348-.408.661-.844.938-1.303.148-.222.244-.475.282-.74a.457.457 0 00-.178-.414 1.298 1.298 0 00-.55-.208 3.71 3.71 0 01-.52-.163.298.298 0 01-.18-.28c0-.149 0-.223.105-.252.152-.027.308-.027.46 0h3.272a.91.91 0 01.61.162c.12.162.177.362.163.563a2.38 2.38 0 01-.7 1.347 20.273 20.273 0 01-1.798 1.821l-1.814 1.643c-.46.415-.699.681-.699.785 0 .104.387.193 1.175.193a2.104 2.104 0 011.903.962 26.24 26.24 0 011.368 2.635c.64 1.332 1.055 2.22 1.278 2.65.188.385.434.74.729 1.051.125.124.27.224.431.296l.58.178c.192.05.377.124.55.222a.355.355 0 01.149.31c0 .282-.298.43-.907.43h-2.87a1.298 1.298 0 01-.996-.385 11.103 11.103 0 01-.818-1.954c-.416-1.125-.788-2.161-1.144-3.094a6.904 6.904 0 00-.848-1.747 1.725 1.725 0 00-1.323-.489 2.906 2.906 0 00-1.22.237.696.696 0 00-.267.637v3.08c.017.442.066.882.149 1.317.05.419.22.815.49 1.14a.998.998 0 00.417.266c.183.075.372.134.565.178.181.031.357.091.52.178a.297.297 0 01.149.28c0 .238-.09.356-.283.356h-4.044a.865.865 0 01-.64-.266.843.843 0 01-.252-.548V81.721a1.727 1.727 0 00-.372-1.14 1.768 1.768 0 00-.847-.608l-.297-.103a.806.806 0 01-.253-.119.268.268 0 01-.09-.207c0-.237.164-.34.491-.34l1.502-.06zm-12.578 0h8.162c.327 0 .506.193.535.592l.134 2.961c0 .385-.074.592-.238.592-.163 0-.312-.103-.401-.325l-.446-.918a2.166 2.166 0 00-.967-.962 4.193 4.193 0 00-1.932-.356 9.667 9.667 0 00-1.353 0c-.268 0-.447.119-.52.252a1.092 1.092 0 00-.135.637l-.104 3.612v1.199c0 .133.09.207.253.207.164 0 .282-.118.416-.355.201-.334.37-.686.506-1.051h.728c.542.002 1.084-.033 1.62-.104l.967-.089c.253 0 .387.163.387.489a6.4 6.4 0 01-.178.918 2.125 2.125 0 01-.268.814 1.103 1.103 0 01-.49.104h-2.87a1.223 1.223 0 00-.729.163.782.782 0 00-.193.606v2.961a1.7 1.7 0 00.416 1.037 1.487 1.487 0 001.13.473 16.73 16.73 0 001.903-.088 5.968 5.968 0 001.487-.385c.26-.108.493-.27.684-.474a5.02 5.02 0 00.58-.83c.193-.31.357-.547.476-.71a.536.536 0 01.416-.222c.149 0 .238.148.238.43l-.64 3.33c-.037.192-.124.37-.252.519a.805.805 0 01-.565.163h-7.895a.865.865 0 01-.64-.267.842.842 0 01-.252-.548V81.706a1.756 1.756 0 00-.372-1.14 1.844 1.844 0 00-.847-.607l-.298-.103a.803.803 0 01-.252-.119.266.266 0 01-.09-.207c0-.237.149-.34.461-.34l1.428-.045zm-9.293 0h1.07a.447.447 0 01.372.252c.169.276.54 1.135 1.115 2.576l1.695 4.234c.55 1.377 1.07 2.65 1.576 3.805.36.87.777 1.716 1.25 2.531.217.308.489.574.802.785.163.081.332.15.506.207l.46.163a.281.281 0 01.12.266c0 .282-.268.43-.818.43h-3.554a.584.584 0 01-.416-.237 7.531 7.531 0 01-.654-1.347 82.805 82.805 0 01-1.086-2.828c-.43-1.184-.862-2.354-1.263-3.494l-.788-2.147c-.105-.28-.179-.414-.253-.414-.075 0-.194.133-.342.414-.258.48-.486.974-.684 1.48-.283.682-.58 1.481-.907 2.37-.327.888-.58 1.687-.773 2.368a6.338 6.338 0 00-.283 1.48 1.15 1.15 0 00.104.49c.052.142.14.27.253.37.169.115.348.214.535.296.204.085.413.16.625.222.174.055.343.124.505.207a.298.298 0 01.15.252c0 .31-.165.473-.506.473h-3.836c-.432 0-.64-.192-.64-.577a27.014 27.014 0 011.056-3.287c.699-1.983 1.487-4.1 2.334-6.366a131.184 131.184 0 011.874-4.767.415.415 0 01.401-.251v.044zM7.226 89.153c0 .178.044.266.133.266.104 0 .268-.133.461-.429.122-.195.261-.378.417-.548.119-.118.416-.162.892-.162h.832c.201.012.403-.013.595-.075.104 0 .149-.118.149-.266a2.76 2.76 0 000-.296c0-.104-.149-.489-.402-1.184-.252-.696-.475-1.318-.713-1.88-.238-.563-.387-.844-.461-.844-.24.38-.42.794-.536 1.228-.312.815-.61 1.673-.892 2.562a9.941 9.941 0 00-.43 1.628h-.045zm1.903-10.008h.832c.12 0 .223.104.327.326a77.123 77.123 0 011.25 3.05c.297.784.728 1.894 1.263 3.33.535 1.437.981 2.591 1.353 3.494.372.904.848 1.925 1.383 3.065.155.31.398.566.699.74.272.167.576.277.892.326a.684.684 0 01.401.222c.1.08.164.198.178.326 0 .236-.282.37-.817.37h-2.78a1.835 1.835 0 01-.788-.134 1.038 1.038 0 01-.447-.488c-.079-.128-.302-.75-.669-1.865-.386-1.11-.624-1.673-.728-1.673H7.627a.73.73 0 00-.595.325c-.23.296-.401.633-.505.992a3.732 3.732 0 00-.223.977c0 .356.104.593.312.696.316.144.644.259.981.34.446.134.67.282.67.46a.398.398 0 010 .296.373.373 0 01-.253.074h-3.42a.836.836 0 01-.684-.37 1.358 1.358 0 01-.253-.844 18.55 18.55 0 011.13-3.835 147.28 147.28 0 012.498-6.47 28.68 28.68 0 011.576-3.567.386.386 0 01.283-.163h-.015zm-4.982 23.066h5.635a5.502 5.502 0 012.334.444 3.147 3.147 0 011.487 1.169c.3.48.46 1.034.461 1.599a3.524 3.524 0 01-1.1 2.561 3.295 3.295 0 01-.863.592c-.26.129-.535.229-.817.297-.253 0-.372.118-.372.162h.64c.418.016.836.06 1.248.134.705.13 1.342.502 1.8 1.051.52.616.795 1.401.772 2.206a5.906 5.906 0 01-.684 2.724 5.378 5.378 0 01-2.319 2.191 9.218 9.218 0 01-4.297.873H5.1a.86.86 0 01-.67-.281.808.808 0 01-.282-.577v-12.495a1.803 1.803 0 00-.387-1.185 1.795 1.795 0 00-.892-.651l-.312-.104a.749.749 0 01-.267-.133.266.266 0 01-.09-.207c0-.252.164-.37.491-.37h1.457zm4.148 1.598a3.032 3.032 0 00-.981.089c-.104 0-.164.237-.164.533v5.315c0 .148.09.222.268.222.134 0 .282-.133.431-.385.208-.348.382-.715.52-1.095h.387a2.13 2.13 0 001.487-.622 2.308 2.308 0 00.684-1.806 2.019 2.019 0 00-.67-1.614 2.802 2.802 0 00-1.902-.577l-.06-.06zm3.836 9.49a2.773 2.773 0 00-.862-2.309 3.492 3.492 0 00-2.126-.652 6.744 6.744 0 00-1.309.089.763.763 0 00-.535.385c-.12.296-.17.615-.149.933v2.961c.002.427.042.853.12 1.273.074.281.178.459.312.518.232.085.48.121.728.104a4.01 4.01 0 002.78-.889 3.096 3.096 0 001.011-2.428l.03.015zm9.843-11.088h.877c.119 0 .238.118.342.34a82.812 82.812 0 011.323 3.227c.313.83.773 1.999 1.324 3.494.55 1.496 1.04 2.739 1.486 3.687.446.947.877 2.028 1.487 3.227.152.333.408.608.729.785.284.177.603.293.936.34a.7.7 0 01.431.237.546.546 0 01.179.341c0 .251-.283.384-.863.384h-2.973a2.093 2.093 0 01-.848-.133 1.259 1.259 0 01-.475-.518c0-.148-.298-.799-.7-1.969-.4-1.17-.653-1.762-.757-1.762h-4.045a.798.798 0 00-.639.341c-.244.313-.426.67-.535 1.051a4.167 4.167 0 00-.223 1.036c0 .37.104.622.312.726.337.15.685.274 1.04.37.477.133.715.296.715.474a.426.426 0 01-.09.31.383.383 0 01-.267.074H17.2a.827.827 0 01-.713-.384 1.48 1.48 0 01-.283-.889 19.73 19.73 0 011.204-4.027c.803-2.235 1.68-4.441 2.617-6.824a29.86 29.86 0 011.68-3.761.34.34 0 01.283-.177h-.015zm-2.067 10.496c0 .192 0 .296.134.296s.282-.148.49-.459c.124-.207.268-.4.432-.577a1.49 1.49 0 01.936-.178h.878c.212.027.427.027.639 0 .104 0 .149-.148.149-.296v-.311c0-.178-.164-.518-.417-1.243a44.241 44.241 0 00-.758-1.984c-.238-.592-.401-.889-.49-.889a5.132 5.132 0 00-.566 1.288 47.87 47.87 0 00-.936 2.71 10.168 10.168 0 00-.446 1.702l-.045-.059zm22.302-10.541h2.676c.417 0 .625.4.625 1.199v10.956c.022.467.076.932.163 1.391.056.441.236.857.52 1.199.118.122.26.218.417.282.199.073.403.132.61.177.196.038.386.103.565.193a.311.311 0 01.163.311c0 .237-.104.355-.312.355h-4.267a.865.865 0 01-.67-.281.83.83 0 01-.267-.578v-11.147c0-.222 0-.341-.104-.341s-.164.089-.268.267a19.26 19.26 0 00-1.025 1.983 46.606 46.606 0 00-.878 2.088c-.282.725-.639 1.614-1.025 2.635a.194.194 0 01-.208.148h-.818a.434.434 0 01-.357-.207l-.535-1.199c-.268-.607-.506-1.155-.744-1.644-.238-.488-.52-1.095-.892-1.806-.372-.71-.788-1.48-1.22-2.176-.073-.104-.133-.148-.192-.148-.06 0-.09.089-.09.266v8.246c.022.468.077.933.164 1.392.05.438.231.851.52 1.184.116.128.258.229.417.297.197.077.401.136.61.177.195.041.385.105.564.193a.326.326 0 01.164.311c0 .236-.104.355-.313.355h-3.508a.894.894 0 01-.67-.281.824.824 0 01-.267-.578v-12.584a1.815 1.815 0 00-.402-1.184 1.895 1.895 0 00-.906-.651l-.328-.104a.591.591 0 01-.252-.133.24.24 0 01-.104-.208c0-.251.178-.37.52-.37h4.847a.82.82 0 01.624.178c.253.4.744 1.332 1.487 2.783a29.178 29.178 0 011.606 3.598c.193-.607.654-1.718 1.368-3.361.714-1.643 1.174-2.62 1.368-2.961a.474.474 0 01.416-.266l.208.044zm7.33 0h12.192a.898.898 0 01.373.065.892.892 0 01.31.216.81.81 0 01.253.563v8.083a35.393 35.393 0 00.179 4.634c.078.437.262.849.535 1.199.121.124.269.22.431.282.194.073.393.133.595.177.194.03.38.096.55.193a.306.306 0 01.164.311c0 .236-.09.355-.298.355h-4.177a.874.874 0 01-.67-.281.783.783 0 01-.282-.578v-13.842c0-.148-.09-.237-.268-.237a.268.268 0 00-.148 0l-.12.148a.926.926 0 01-.118.178l-.238.474a2.284 2.284 0 01-.283.444.469.469 0 01-.342.177H53.51a1.641 1.641 0 00-.654.148c-.208.104-.327.222-.327.356v8.927c0 .518.089.992.163 1.48.071.435.256.843.535 1.185.125.123.271.223.431.296.199.075.402.135.61.177a2.2 2.2 0 01.535.178.35.35 0 01.164.311c0 .237-.104.355-.297.355h-4.282a.878.878 0 01-.655-.281.83.83 0 01-.267-.563v-12.421a1.888 1.888 0 00-.387-1.184 1.772 1.772 0 00-.892-.637l-.312-.103a.657.657 0 01-.268-.133.306.306 0 01-.104-.222c0-.237.179-.356.506-.356l1.531-.074zm27.313 0h1.486a.94.94 0 01.684.281c.16.152.256.358.268.578v12.643c-.014.427.123.846.386 1.184.232.305.547.536.907.666l.328.104a.691.691 0 01.252.133.253.253 0 01.09.208c0 .236-.164.355-.491.355h-3.524a.895.895 0 01-.843-.521.885.885 0 01-.079-.338v-10.674l-7.166 10.689a3.086 3.086 0 01-.64.696.931.931 0 01-.505.163h-.907a.985.985 0 01-.951-.859v-12.613a1.86 1.86 0 00-1.279-1.836l-.312-.104a.58.58 0 01-.253-.133.24.24 0 01-.104-.207c0-.252.163-.37.49-.37h3.524a.96.96 0 01.684.281.902.902 0 01.253.577v10.852l7.166-11.251c.149-.311.313-.459.52-.459l.016-.045zm11.314 0h1.13a.456.456 0 01.372.267c.453.882.85 1.792 1.19 2.724l1.783 4.441a114.1 114.1 0 001.666 4.012c.379.91.816 1.795 1.308 2.65a3.2 3.2 0 00.848.829c.168.095.348.17.535.222l.475.178a.296.296 0 01.134.281c0 .296-.282.444-.862.444h-3.732a.647.647 0 01-.46-.251 8.205 8.205 0 01-.685-1.407 92.902 92.902 0 01-1.13-2.961c-.446-1.229-.907-2.472-1.338-3.671l-.832-2.265c-.105-.282-.194-.43-.268-.43-.074 0-.208.148-.357.43a21.02 21.02 0 00-.728 1.613 74.09 74.09 0 00-.952 2.502c-.342.933-.61 1.777-.803 2.502a6.567 6.567 0 00-.312 1.555c.007.173.048.344.119.503.056.148.148.28.267.385.17.126.355.23.55.311.218.095.441.174.67.237.184.059.363.134.535.222a.31.31 0 01.149.266c0 .326-.179.489-.536.489h-3.954c-.447 0-.684-.207-.684-.607a26.896 26.896 0 011.115-3.464 300.305 300.305 0 012.453-6.692c.892-2.384 1.561-4.056 1.977-5.034a.46.46 0 01.431-.266l-.074-.015zm15.255-.207a8.596 8.596 0 013.434.637 6.678 6.678 0 012.468 1.761 7.385 7.385 0 011.487 2.635 10.32 10.32 0 01.491 3.257 9.407 9.407 0 01-.922 4.175 7.131 7.131 0 01-2.721 2.961 7.91 7.91 0 01-4.208 1.081 7.605 7.605 0 01-4.222-1.17 7.781 7.781 0 01-2.75-3.109 8.731 8.731 0 01-.952-3.982 9.156 9.156 0 01.505-3.035 7.885 7.885 0 011.487-2.665 7.082 7.082 0 012.483-1.865 8.064 8.064 0 013.42-.696v.015zm-.357 1.584a3.833 3.833 0 00-1.695.37 3.902 3.902 0 00-1.398 1.081 4.993 4.993 0 00-.966 1.806 7.62 7.62 0 00-.357 2.413 10.984 10.984 0 00.64 3.76 7.063 7.063 0 001.843 2.961 3.919 3.919 0 004.416.711 4.02 4.02 0 001.487-1.096c.429-.533.757-1.14.966-1.791a8.014 8.014 0 00.342-2.413 10.923 10.923 0 00-.639-3.76 7.176 7.176 0 00-1.844-2.872 3.874 3.874 0 00-2.736-1.096l-.059-.074zm10.199-1.377h5.635a5.536 5.536 0 012.335.444 3.146 3.146 0 011.486 1.17c.301.48.46 1.033.461 1.599a3.533 3.533 0 01-1.1 2.561 3.339 3.339 0 01-.862.592 3.902 3.902 0 01-.818.296c-.253 0-.372.119-.372.163h.64c.418.015.836.06 1.248.133a3.117 3.117 0 011.8 1.051c.52.617.795 1.401.773 2.206a5.907 5.907 0 01-.684 2.724 5.366 5.366 0 01-2.32 2.191 9.215 9.215 0 01-4.297.874h-2.973a.875.875 0 01-.669-.281.796.796 0 01-.283-.578v-12.45a1.797 1.797 0 00-.386-1.185 1.801 1.801 0 00-.892-.651l-.313-.104a.659.659 0 01-.267-.133.258.258 0 01-.089-.207c0-.252.163-.37.49-.37l1.457-.045zm4.148 1.599a2.978 2.978 0 00-.981.089c-.104 0-.163.237-.163.533v5.359c0 .148.089.222.267.222.134 0 .268-.133.431-.385.208-.348.382-.715.521-1.095h.386a2.129 2.129 0 001.487-.622 2.31 2.31 0 00.684-1.806 2.017 2.017 0 00-.669-1.614 2.802 2.802 0 00-1.903-.577l-.06-.104zm3.822 9.49a2.782 2.782 0 00-.848-2.31 3.503 3.503 0 00-2.141-.651 6.587 6.587 0 00-1.293.089.816.816 0 00-.551.385 2.366 2.366 0 00-.133.932v2.961c.002.427.041.853.119 1.273.074.282.178.459.312.519.233.085.481.12.728.103a4.013 4.013 0 002.781-.888 3.087 3.087 0 00.996-2.428l.03.015zm9.411-11.089h.877c.119 0 .238.119.342.341a81.652 81.652 0 011.323 3.227c.313.829.759 1.999 1.324 3.494.565 1.495 1.04 2.739 1.486 3.686.447.948.893 2.028 1.487 3.228.161.326.414.599.729.784.291.176.614.292.951.341a.744.744 0 01.432.237.52.52 0 01.163.34c0 .252-.282.385-.847.385h-2.974a2.04 2.04 0 01-.833-.133 1.167 1.167 0 01-.475-.518c-.075-.148-.298-.8-.699-1.969-.402-1.17-.654-1.762-.758-1.762h-4.134a.797.797 0 00-.624.34 3.1 3.1 0 00-.535 1.052 4.378 4.378 0 00-.238 1.036.747.747 0 00.327.725c.331.151.674.275 1.026.37.475.134.713.296.713.474a.44.44 0 01-.074.311.457.457 0 01-.283.074h-3.538a.853.853 0 01-.405-.104.851.851 0 01-.309-.281 1.475 1.475 0 01-.267-.888c.256-1.381.66-2.731 1.204-4.027.788-2.235 1.665-4.441 2.617-6.825a34.235 34.235 0 011.665-3.76.386.386 0 01.297-.178h.03zm-1.992 10.541c0 .192 0 .296.133.296.134 0 .298-.148.506-.459.125-.202.264-.395.416-.577.292-.156.624-.218.952-.178h.877c.207.026.417.026.625 0 .118 0 .163-.148.163-.296v-.311c0-.178-.163-.518-.431-1.243-.268-.726-.506-1.392-.758-1.984-.253-.592-.402-.889-.476-.889a4.556 4.556 0 00-.565 1.288 48.508 48.508 0 00-.937 2.71 9.474 9.474 0 00-.461 1.702l-.044-.059zM2.71 70.036h136.445v1.954H2.711v-1.954zm.935 56.424h136.443V128H3.645v-1.54z" fill="#2A2926"/><path fill-rule="evenodd" clip-rule="evenodd" d="M171.205 125.753h2.422c-.238-.268-.49-.506-.743-.759a15.578 15.578 0 00-1.679-1.486v2.245zm3.522 0h2.318a22.506 22.506 0 00-2.289-2.617 22.284 22.284 0 00-3.551-2.795v2.185a18.83 18.83 0 013.522 3.227zm3.343 0h2.17a24.336 24.336 0 00-3.611-4.461 23.927 23.927 0 00-5.424-3.999v2.156a22.026 22.026 0 014.131 3.181 21.708 21.708 0 012.734 3.197v-.074zm3.136 0h2.08a26.63 26.63 0 00-4.8-6.334 27.175 27.175 0 00-7.281-5.085v2.022a25.267 25.267 0 0110.001 9.397zm2.972 0h2.021a29.516 29.516 0 00-15.039-14.303v2.051a27.905 27.905 0 0113.018 12.326v-.074zm2.972 0h1.991a32.296 32.296 0 00-17.951-17.143v1.918a30.454 30.454 0 0115.96 15.195v.03zm2.883 0h1.961A35.013 35.013 0 00171.19 105.8v1.933a33.09 33.09 0 0111.268 7.076 33.138 33.138 0 017.575 10.944zm2.838 0h1.932a37.52 37.52 0 00-23.598-22.659v1.918a35.761 35.761 0 0121.681 20.815l-.015-.074zm2.809 0h1.917a40.139 40.139 0 00-26.407-25.484v1.888a38.267 38.267 0 0124.49 23.596zm2.793 0h1.903a42.92 42.92 0 00-11.04-17.8 42.874 42.874 0 00-18.146-10.45v1.889a40.98 40.98 0 0127.283 26.346v.015zm2.764 0h1.888a45.387 45.387 0 00-11.916-19.662 45.345 45.345 0 00-20.019-11.293v1.873a43.628 43.628 0 0130.047 29.082zm2.75 0h1.872a48.047 48.047 0 00-12.792-21.52 48.008 48.008 0 00-21.877-12.156v1.873a46.268 46.268 0 0120.593 11.571 46.312 46.312 0 0112.204 20.232zm2.734 0h1.872a50.71 50.71 0 00-13.665-23.375 50.679 50.679 0 00-23.738-13.007V91.2a48.91 48.91 0 0135.531 34.523v.03zm2.719 0h1.873a53.4 53.4 0 00-14.525-25.233 53.354 53.354 0 00-25.598-13.855v1.858a51.45 51.45 0 0124.312 13.242 51.491 51.491 0 0113.938 23.928v.06zm2.72 0h1.857a55.963 55.963 0 00-15.363-27.099 55.924 55.924 0 00-27.464-14.68v1.843a54.156 54.156 0 0126.183 14.116 54.209 54.209 0 0114.787 25.82zm2.704 0h1.858a58.607 58.607 0 00-16.203-28.962 58.554 58.554 0 00-29.329-15.508v1.843a56.74 56.74 0 0128.084 14.928 56.787 56.787 0 0115.65 27.699h-.06zm2.705 0h1.813a61.217 61.217 0 00-17.034-30.82 61.172 61.172 0 00-31.188-16.327v1.844a59.426 59.426 0 0129.904 15.77 59.478 59.478 0 0116.475 29.533h.03zm2.69 0h1.842a63.457 63.457 0 00-14.786-29.454v.476a.92.92 0 01-.193.595l-.163.267a3.15 3.15 0 01-.461.298 61.865 61.865 0 0113.82 27.714l-.059.104zm2.689 0h1.843a66.209 66.209 0 00-17.55-33.409 6.993 6.993 0 00-.193 2.424 64.51 64.51 0 0115.9 30.985zm2.69 0h1.828a68.613 68.613 0 00-4.458-14.526 6.08 6.08 0 01-1.249-.09c-.624-.074-.594 0-.847-.223a66.796 66.796 0 014.741 14.868l-.015-.029zm2.675 0h1.828a70.708 70.708 0 00-4.458-14.868l-.714.223-.772.104h-.357a69.832 69.832 0 014.458 14.6l.015-.059zm2.675 0h1.842a73.605 73.605 0 00-4.532-15.537c-.134 0 0 .133-.505.223h-.104a4.867 4.867 0 01-1.07.193 72.343 72.343 0 014.458 15.076l-.089.045zm2.675 0h1.827a76.038 76.038 0 00-4.963-17.039 2.094 2.094 0 01-.743.803l-.416.312-.238.119a75.041 75.041 0 014.562 15.79l-.029.015zm2.674 0h1.828a79.294 79.294 0 00-5.84-19.522 7.558 7.558 0 00-.981 1.264l-.119.208-.104.208a77.775 77.775 0 015.231 17.842h-.015zm2.66 0h1.828a81.324 81.324 0 00-6.583-21.812l-.134.313-1.099 1.338a80.177 80.177 0 016.063 20.161h-.075zm2.66 0h1.828a83.83 83.83 0 00-7.861-24.845 4.91 4.91 0 01-.267.64l-.729 1.486a82.524 82.524 0 017.044 22.719h-.015zm2.675 0h1.798a87.05 87.05 0 00-9.228-28.071c-.238.52-.401 1.085-.669 1.59l-.208.417v.134a85.329 85.329 0 018.322 25.93h-.015zm2.66 0h1.828a89.76 89.76 0 00-10.402-30.792l-.223.372c-.149.282-.253.64-.416.892l-.208.312-.164.223a87.754 87.754 0 019.585 28.933v.06zm2.66 0h1.813a91.927 91.927 0 00-11.442-33.35v.15a1.97 1.97 0 01-.401.565l-.298.416c-.074.163 0 .104-.074.312-.074.208 0 .104 0 .253l-.074.119a90.18 90.18 0 0110.655 31.505l-.179.03zm2.645 0h1.828a94.832 94.832 0 00-12.631-36.04l-.535 1.1v.104a4.446 4.446 0 01-.312.595 92.783 92.783 0 0111.784 34.196l-.134.045zm2.66 0h1.828a97.34 97.34 0 00-13.924-38.85c-.134.252-.282.505-.446.847l-.505 1.041a95.82 95.82 0 0113.136 36.962h-.089zm2.66 0h1.888a100.148 100.148 0 00-15.217-41.63l-.773 1.62-.134.327a98.395 98.395 0 0114.311 39.697l-.075-.014zm2.645 0h1.828a102.62 102.62 0 00-16.51-44.351l-.252.416c-.06.189-.145.37-.253.535l-.089.12-.357.758a100.76 100.76 0 0115.633 42.522zm2.66 0h1.828a105.474 105.474 0 00-17.832-46.968c-.238.52-.416.981-.535 1.19l-.401.654a103.476 103.476 0 0116.866 45.124h.074zm2.66 0h1.813a107.985 107.985 0 00-19.051-49.63c-.267.64-.579 1.25-.906 1.859a106.148 106.148 0 0118.144 47.771zm2.646 0h1.812a110.496 110.496 0 00-20.566-52.573 9.186 9.186 0 00-.609 1.412c-.048.202-.108.4-.179.595a108.702 108.702 0 0119.542 50.551v.015zm2.645 0h1.827a113.322 113.322 0 00-22.037-55.368v.104l-.119.312-.609 1.487a111.392 111.392 0 0121.027 53.524l-.089-.059zm2.645 0h1.099v-5.442a115.844 115.844 0 00-22.884-52.9c0 .178-.104.297-.179.476l-.55 1.487a114.056 114.056 0 0122.529 56.334l-.015.045zm1.099-10.14v-7.91a118.682 118.682 0 00-21.844-43.266l-.713 2.022a116.678 116.678 0 0122.572 49.064l-.015.09zm0-10.958v-5.947a121.613 121.613 0 00-21.057-37.482l-.297 1.844c-.039.161-.089.32-.148.475a119.796 119.796 0 0121.532 41.11h-.03zm0-8.385v-4.951a124.524 124.524 0 00-21.071-34.197c.028.382.028.764 0 1.145v.892a5.431 5.431 0 000 .7 122.512 122.512 0 0121.116 36.351l-.045.06zm0-7.078v-4.46a127.22 127.22 0 00-21.948-32.486l.134.46c.234.791.417 1.595.549 2.41a4.338 4.338 0 000 .624 125.354 125.354 0 0121.236 33.452h.029zm0-6.318v-4.03a130.048 130.048 0 00-22.543-31.073.395.395 0 010 .193c.007.902.087 1.802.238 2.69a128.714 128.714 0 0122.291 32.22h.014zm0-5.784v-3.732a132.81 132.81 0 00-22.29-28.977l-.253.208-.98-.595a4.755 4.755 0 00-2.14-.357 131.067 131.067 0 0125.663 33.468v-.015zm0-5.412V68.17a135.319 135.319 0 00-21.057-26.256c-.505 1.68-.401.698-.847 1.695a133.372 133.372 0 0121.875 28.07h.029zm0-5.07v-3.36a138.566 138.566 0 00-23.598-27.327 3.957 3.957 0 00-.579.342c-.208.193-.149.208-.431.357-.194.095-.378.21-.55.342.936.832 1.872 1.68 2.794 2.542.282-1.16.46-1.175 1.293-1.175l.609.773c.011.652-.089 1.3-.297 1.919a136.646 136.646 0 0120.804 25.587h-.045zm0-4.847v-3.196a141.007 141.007 0 00-21.235-24.057l-.089.104c-.089.105 0 0-.134.12l-1.278.713h-.104a139.084 139.084 0 0122.84 26.272v.044zm0-4.624V54.03a144.393 144.393 0 00-21.22-23.045c.001.413.03.825.089 1.234.073.452.112.91.119 1.368a141.827 141.827 0 0121.012 23.535v.015zm0-4.46v-2.974a145.735 145.735 0 00-21.265-22.183 16.62 16.62 0 010 2.424 144.281 144.281 0 0121.206 22.733h.059zm0-4.327v-2.884a149.29 149.29 0 00-21.532-21.588c.04.326.04.655 0 .981-.047.17-.076.345-.089.52-.005.286.03.572.104.848a147.132 147.132 0 0121.532 22.123h-.015zm0-4.192v-2.825a152.173 152.173 0 00-26.198-24.473A150.552 150.552 0 00218.817 0h-4.755a147.844 147.844 0 0131.756 17.217c1.234.877 2.437 1.754 3.641 2.676a8.35 8.35 0 01.416-.58 1.317 1.317 0 01.996-.565l.416.595c.069.288.072.587.008.876a1.944 1.944 0 01-.38.79 149.494 149.494 0 0123.777 23.074l-.075.075zm0-4.09v-2.764A153.745 153.745 0 00225.222.133h-4.354a151.58 151.58 0 0153.749 39.994v-.06zm0-4.013v-2.691A156.622 156.622 0 00231.151.074h-4.027a154.446 154.446 0 0147.553 35.98h-.06zm0-3.91v-2.647A159.474 159.474 0 00256.31 12.98 157.204 157.204 0 00236.709.06h-3.775a157.51 157.51 0 0141.683 32.07v.014zm0-3.822v-2.542A162.55 162.55 0 00241.925.134h-3.522a159.761 159.761 0 0136.229 28.249l-.015-.06zm0-3.776V21.99a167.787 167.787 0 00-13.582-12A165.41 165.41 0 00247.022.074h-3.448a161.628 161.628 0 0131.043 24.473zm0-3.717v-2.483a162.697 162.697 0 00-11.338-9.887A148.384 148.384 0 00251.852.104h-3.299a169.803 169.803 0 0112.987 9.278 165.648 165.648 0 0113.077 11.478v-.03zm0-3.643v-2.483a189.366 189.366 0 00-9.124-7.88 162.197 162.197 0 00-8.99-6.75h-3.18a155.153 155.153 0 0110.402 7.702c3.745 2.973 7.341 6.126 10.818 9.411h.074zm0-3.598v-2.468a172.679 172.679 0 00-6.939-5.947 176.412 176.412 0 00-6.643-5.115h-3.016a218.212 218.212 0 018.069 6.096 150.748 150.748 0 018.604 7.434h-.075zm0-3.568V7.612a158.776 158.776 0 00-4.814-4.073c-1.635-1.324-2.868-2.35-4.354-3.48h-2.972a657.672 657.672 0 015.765 4.46c2.18 1.775 4.32 3.599 6.42 5.472l-.045.03zm0-3.509V4.118l-2.689-2.245c-.728-.61-1.486-1.204-2.214-1.799h-2.972c1.203.922 2.377 1.874 3.551 2.825 1.486 1.175 2.883 2.394 4.295 3.613h.029zm0-3.479V.683l-.624-.52-.104-.089h-2.868l1.486 1.16c.728.595 1.486 1.19 2.17 1.8h-.06zM211.744.06h-5.38a145.698 145.698 0 0135.903 17.946c1.486.996 2.883 2.022 4.294 3.078l.52.089h.387v.565l1.07.818v-.357c.019-.318.074-.632.163-.937l.193-.64a168.047 168.047 0 00-3.73-2.735A147.276 147.276 0 00211.58.045l.164.014zm38.844 21.737c-.118.253-.193.536-.297.788a7.005 7.005 0 00-.371.982l1.04.832c.119-.431 0-1.115.282-1.487l.253-.178-1.025-.818.118-.119zM203.734.06h-6.405a142.62 142.62 0 0140.494 18.14c2.14 1.382 4.236 2.84 6.286 4.34a3.15 3.15 0 00.684-.088 3.547 3.547 0 010-.7l.401-.416a181.57 181.57 0 00-3.566-2.542A145.07 145.07 0 00203.541.163l.193-.104zm43.882 22.823c.035.188.111.365.223.52l.283-.134-.506-.386zm2.215 1.724v.104l.326.164-.326-.268zM194.119.06h-8.529a139.451 139.451 0 0144.402 16.355 130.622 130.622 0 0110.105 6.408c.446-.505.951-.386 1.486-.595.342-.119.357-.163.565-.133a178.92 178.92 0 00-4.756-3.242A142.326 142.326 0 00194.119.06zm-13.537 0h-9.303v.744a137.317 137.317 0 0159.129 19.03 114.537 114.537 0 015.439 3.42c.654-.119.446 0 1.144.402.476.238.55.684 1.085.624a2.57 2.57 0 00.981-.238l.297-.208c.178-.148 0-.089.178-.267a142.368 142.368 0 00-10.015-6.349A139.037 139.037 0 00180.478.119l.104-.06zm-9.303 1.562V3.48a134.88 134.88 0 0159.738 19.745c1.055.654 2.111 1.323 3.151 2.007-.134-.744-.387-1.16.668-1.725a121.817 121.817 0 00-4.785-2.974A136.663 136.663 0 00171.279 1.68v-.06zm0 2.646v1.814a132.343 132.343 0 0160.377 20.607l1.799 1.174c.193-.148 0 0 .252-.282l.208-.223c.113-.265.183-.546.208-.833a2.974 2.974 0 000-.327c-1.174-.788-2.377-1.487-3.596-2.32a133.917 133.917 0 00-59.307-19.61h.059zm77.407 33.036h-.133a3.277 3.277 0 00-1.13.343 7.917 7.917 0 01-.654.356 53.114 53.114 0 013.567 3.212 1.957 1.957 0 001.768-.818 112.562 112.562 0 00-3.418-3.107v.014zm-77.407-30.39v1.814a129.451 129.451 0 0159.189 20.34c.535-.327.401 0 1.248-.431l.208-.104a1.1 1.1 0 01.565-.179h.163l-1.486-.952a131.246 131.246 0 00-59.931-20.473l.044-.014zM245.818 38.3l-.535.104a9.03 9.03 0 00-1.486.535 68.315 68.315 0 013.344 2.974c.31-.031.617-.08.921-.15l.327-.088c.803-.268.386-.075.907-.194a118.244 118.244 0 00-3.507-3.107l.029-.074zM171.279 9.545v1.814a127.068 127.068 0 0157.331 19.64l.178-.252.119-.208V30.3s0-.09.179-.283l.564-.416A128.837 128.837 0 00171.205 9.59l.074-.045zm71.686 29.736c-.269.136-.524.3-.758.49a2.127 2.127 0 00-.579.744c.921.773 1.842 1.561 2.734 2.35l.446-.239c.698-.297 1.07-.327 1.486-.475a120.971 120.971 0 00-3.299-2.87h-.03zm4.904 4.327h-2.571a137.048 137.048 0 013.983 3.761c.431-.208 1.367-.788 1.753-.684l.223.09a149.598 149.598 0 00-3.388-3.257v.09zm-76.59-31.461v1.814a124.353 124.353 0 0154.983 18.63 2.793 2.793 0 001.486-.298l.312-.342.164-.268a126.272 126.272 0 00-56.945-19.536zm69.843 28.992l-.475.432-.565.342a5.772 5.772 0 01-.52.282 126.625 126.625 0 017.296 6.557l.283-.253c.163-.163.252-.327.46-.416a6.66 6.66 0 01.922-.164 144.759 144.759 0 00-4.102-3.85 1.916 1.916 0 00-1.099.252c-.461.238-.535.357-1.07.238a.642.642 0 01.223-.58 3.094 3.094 0 011.01-.743 108.76 108.76 0 00-2.407-2.067l.044-.03zm-69.843-26.346v1.83a121.677 121.677 0 0149.812 15.908 1.647 1.647 0 011.486-.119c.505.312.862.862 1.486.565a.964.964 0 00.238-.164h.089l.282-.104a123.564 123.564 0 00-53.497-17.841l.104-.075zM238.7 42.657l-.163.119-.283.238-.356.267c-.253.223-.268.268-.297.447a2.07 2.07 0 010 .193l2.199 1.858.446-.178c.223 0 .386 0 .386.297-.034.16-.089.315-.163.461l1.337 1.19.312-.52a1.487 1.487 0 011.233-.239c.535.194.55.818.684 1.07.134.253.565.566.817.922.52.73.446 1.294 1.397.52a135.052 135.052 0 00-7.43-6.675l-.119.03zm-67.451-25.171V19.3a119.152 119.152 0 0147.984 15.269c.288-.471.606-.923.951-1.353l.075-.075a121.07 121.07 0 00-49.039-15.61l.029-.045zm65.965 27.386c0 .461.372.684.951.833h.089l-1.04-.862v.03zm2.734 2.32a3.25 3.25 0 00-.193.475v.09c-.074.148-.356.252-.535.327a.491.491 0 00-.178.089.84.84 0 00-.268.238c.327.282.654.565.966.862v-.089l.937-.55.535-.52-1.13-.997-.134.075zM171.22 20.13v1.829a116.404 116.404 0 0147.122 15.15c.609-.193.371-.475.386-.981l.089-.788a118.273 118.273 0 00-47.642-15.195l.045-.015zm67.257 29.275a7.11 7.11 0 00.535 1.665h.431l.327-.49-1.293-1.175zm-67.272-26.599v1.83a113.83 113.83 0 0145.68 14.703l.075-.847c.042-.357.224-.683.505-.907a115.87 115.87 0 00-46.26-14.779zm0 2.662v1.799a111.423 111.423 0 0160.065 25.275v-.431a6.597 6.597 0 01.357-1.606 114.762 114.762 0 00-13.82-9.694.684.684 0 01-.535-.237 112.904 112.904 0 00-45.933-14.987l-.134-.12zm60.704 24.234a2.56 2.56 0 00-.104-1.263 3.266 3.266 0 00-.372-1.011.999.999 0 01-.163-.357v-.179a114.415 114.415 0 00-5.067-3.746h-.699c-1.307.148-1.085-.209-1.961-.7-.298-.207 0-.252-.416-.386-.416-.133-.416 0-.58-.104-.624-.193-.832-.654-1.486-.818l-.357-.074c-.356-.119-.193-.178-.564-.163h-.743a113.76 113.76 0 0112.512 8.92v-.119zm-.386-3.672a1.304 1.304 0 00.445-.907 11.584 11.584 0 00-2.169-1.74.922.922 0 00-.565-.193h-.163c-.253 0-.357-.089-.476 0-.163.075.104 0-.148 0h-.699a141.2 141.2 0 013.804 2.84h-.029zm-60.318-17.916v1.814a108.794 108.794 0 0160.392 26.405v-.223c0-.342-.178-.312-.297-1.189a6.874 6.874 0 010-1.234 110.474 110.474 0 00-60.036-25.528l-.059-.045zm0 2.632v1.828a105.982 105.982 0 0143.808 14.868c.773.105 2.051.105 2.051.729l-.461.253a106.774 106.774 0 0115.856 12.236 6.556 6.556 0 010-1.085l-.208-.982v-.163l-.178-.58a108.085 108.085 0 00-60.853-27.09l-.015-.014zm0 2.661v1.814a103.439 103.439 0 0139.885 12.86.354.354 0 01-.104-.282c0-.342.698-.803 1.724-.877a105.077 105.077 0 00-41.505-13.604v.09zm43.852 15.017h-.698a2.525 2.525 0 00-.951.178h-.268c-.341 0-.267.268-1.486-.223l-.341-.149a104.237 104.237 0 0121.725 16.593l1.323 1.338a7.315 7.315 0 00-.52-1.308l-.193-.417a4.874 4.874 0 01-.506-.877l-.282-.401a1.487 1.487 0 01-.178-.625 2.633 2.633 0 00-.119-.698 105.98 105.98 0 00-17.52-13.47l.014.059zm-43.852-12.37v1.813a100.617 100.617 0 0143.867 15.82c.966-1.056 1.085.297 1.308.535.223.238 1.486.194 1.976.446.491.253.506.179.714.49l.267.343a2.87 2.87 0 01.803 1.724c3.91 2.9 7.605 6.08 11.056 9.516a104.855 104.855 0 013.745 3.94v-1.442c0-1.041 0-.952-.134-1.309-.788-.832-1.575-1.65-2.393-2.468a102.883 102.883 0 00-61.269-29.408h.06zm0 2.646v1.814a98.27 98.27 0 0137.448 12.31.737.737 0 01.371-.55 8.279 8.279 0 011.486-.297l.654.55c.074.12-.134 1.19 1.768 1.889.758.282 1.189.267 1.635-.105a99.89 99.89 0 00-43.318-15.61h-.044zm48.95 19.566a1.995 1.995 0 01-.461 1.175l-.446.401a100.897 100.897 0 0110.09 8.757c2.259 2.26 4.458 4.64 6.479 7.107v-.163a3.003 3.003 0 01-.327-1.07l-.312-1.027a1.743 1.743 0 01-.074-.327v-1.07a91.486 91.486 0 00-4.458-4.728 102.86 102.86 0 00-10.402-9.055h-.089zm-48.95-16.92v1.83a95.252 95.252 0 0134.803 11.18c.378.017.756-.008 1.129-.074.223 0 1.1-.194 1.382-.58a97.191 97.191 0 00-37.344-12.385l.03.03zm47.434 19.061l-.372.387s0-.09-.119.208l-.252.46a2.956 2.956 0 00-.119.462 96.444 96.444 0 0118.947 19.06l1.144-.505a3.26 3.26 0 00.461-.149h.104a97.5 97.5 0 00-9.659-11.166 99.795 99.795 0 00-10.105-8.787l-.03.03zm20.299 19.329a1.6 1.6 0 00.223-.744l-.431-.431-.535.178.743.997zm-67.733-35.683v1.828a92.711 92.711 0 0134.55 11.434v-.446c0-1.13-1.204-.907-1.337-1.665a.682.682 0 01.237-.55 94.875 94.875 0 00-33.48-10.601h.03zm47.27 19.61c.113.314.262.614.446.892.415.49.697 1.08.817 1.71v.758a88.532 88.532 0 015.87 5.368 92.091 92.091 0 018.916 10.214c.38-.478.863-.864 1.412-1.13a93.534 93.534 0 00-9.02-10.407 97.54 97.54 0 00-8.411-7.434l-.03.03zm-47.27-17.068v1.829a89.954 89.954 0 0122.023 5.664c.497-.018.996.017 1.486.104 1.337.253 1.738-.104 3.239.58.461.208 2.616 2.662 4.458 2.974.665.234 1.346.423 2.036.565a1.31 1.31 0 001.04-.283 91.961 91.961 0 00-34.282-11.433zm48.177 21.127a11.83 11.83 0 01-.966 1.011l-.074.179-.09.223a90.89 90.89 0 0114.593 15.596h.075c.233-.137.428-.331.564-.565.09-.266.22-.517.387-.743l.074-.104a95.166 95.166 0 00-8.916-10.304 99.193 99.193 0 00-5.632-5.159l-.015-.134zM171.19 49.287v1.77a87.753 87.753 0 0117.743 4.237 18.68 18.68 0 012.229-.848l.401-.119a89.683 89.683 0 00-20.373-5.085v.045zm46.973 20.815v.09l.149 1.159c.074.61.282 1.07.282 1.487 1.115.996 2.2 2.022 3.27 3.077a88.169 88.169 0 019.257 10.84.795.795 0 00.119-.224c.595-1.279.506-.743 1.041-1.264a88.935 88.935 0 00-9.14-10.615 83.995 83.995 0 00-4.993-4.61l.015.06zM171.19 51.89v1.829a84.433 84.433 0 0116.346 3.895v-.282a1.178 1.178 0 01.149-.595 2.06 2.06 0 01.327-.788v-.075a87.71 87.71 0 00-16.926-3.984h.104zm47.181 21.9l-.148.372c0 .164-.075.55-.089.61-.015.06 0 0-.09.178a1.84 1.84 0 00-.208.743 72.309 72.309 0 012.185 2.097 86.852 86.852 0 018.589 9.931c.713 0 1.486.179 2.006-.312a89.224 89.224 0 00-9.302-10.898 59.142 59.142 0 00-2.972-2.78l.029.06zM171.19 54.55v1.829a82.549 82.549 0 0118.471 4.817 3.033 3.033 0 00-.49-.565 6.575 6.575 0 01-.877-1.293 4.965 4.965 0 01-.446-.744 85.313 85.313 0 00-16.599-4l-.059-.044zm46.349 22.064c-.16.398-.354.78-.579 1.145l-.104.178-.134.313 1.486 1.412a83.503 83.503 0 018.604 10.05v-.549a1.48 1.48 0 01.357-.788c.155-.178.348-.32.564-.417a85.334 85.334 0 00-10.149-11.329l-.045-.015zM171.19 57.212v1.813a79.462 79.462 0 0119.764 5.517c-.223-.595-.238-1.235-.446-1.844a2.395 2.395 0 01-.104-.342 81.376 81.376 0 00-19.214-5.144zm45.22 21.915l-.476 1.026v.074l-.282.506.817.802a80.231 80.231 0 0111.784 14.868 4.457 4.457 0 001.486-.371l.283-.149a82.315 82.315 0 00-12.305-15.596l-1.248-1.205-.059.045zm14.206 16.355a2.49 2.49 0 01.654-.194 3.671 3.671 0 011.308 0c-.505-.832-1.011-1.65-1.486-2.468h-.506l-.356-.208a3.473 3.473 0 00-.936-.416 3.644 3.644 0 01-.714-.298l-.49-.237a78.528 78.528 0 012.571 3.954l-.045-.133zm2.972-.179a3.98 3.98 0 00.669-.074c.249-.047.487-.143.698-.283.131-.083.247-.189.342-.312a44.623 44.623 0 00-1.486-2.379h-.089a8.8 8.8 0 01-1.605.625c.49.773.966 1.56 1.486 2.364l-.015.06zm2.244-1.368c.084-.182.2-.348.342-.49l.327-.283a1.62 1.62 0 01.802-.297l-.535-.892h-.223c-.802 0-.564-.09-1.07-.179h-.683a.67.67 0 00-.238 0c.431.7.862 1.398 1.278 2.112v.03zm2.303-1.278a.665.665 0 00.372-.55.47.47 0 000-.283h-.788c.164.253.312.52.461.773l-.045.06zm-66.871-32.71v1.814a77.087 77.087 0 0121.369 6.438l-.579-1.487a33.917 33.917 0 01-.535-1.026 78.336 78.336 0 00-20.299-5.798l.044.06zm43.868 21.648v.09a8.772 8.772 0 01-.922 1.486l.342.327a77.925 77.925 0 0110.625 13.128l.743-.238a5.63 5.63 0 011.278 0A79.626 79.626 0 00215.83 82.16l-.654-.624-.044.059zm-43.868-19.001v1.843a74.274 74.274 0 0122.172 7.092 4.286 4.286 0 00-.119-.416 8.224 8.224 0 01-.446-1.888 76.846 76.846 0 00-21.607-6.631zm42.456 21.29c-.134.179-.297.343-.431.521l-.639.966a75.294 75.294 0 0112.453 16.355h.639l.951-.089h.401a67.87 67.87 0 00-2.571-4.297c-.104 0-.148-.074-.222-.342a78.142 78.142 0 00-10.403-12.83l-.208-.194.03-.09zm14.236 17.5a3.5 3.5 0 01.609-.223h1.219c-.267-.52-.55-1.026-.832-1.487-.58.149-1.011.075-1.486.194-.476.119.119 0-.119 0h-.193l-.342-.164c.342.565.654 1.145.966 1.71l.178-.03zm2.779-.386c.401-.09.788-.194 1.025-.268h.208l.521-.223c-.298-.565-.61-1.13-.922-1.695-.371.149-.758.208-1.144.357l-.401.134-.193.089c.312.55.609 1.115.906 1.665v-.059zm2.497-.922l.208-.149c.256-.218.451-.5.564-.818l.089-.223v-.089a.684.684 0 00-.49-.58h-.208c-.412-.04-.825.06-1.174.283.327.565.639 1.145.936 1.71l.075-.134zM171.264 65.27v1.829a72.002 72.002 0 0131.37 13.158l-.089-.506v-.179a2.316 2.316 0 01-.163-.743c0-.327-.253-.505-.387-.832l-.282-.49-.268-.313-1.575-1.04-.505-.18h-.134c-1.798-.296-1.946.09-3.804-1.248l-1.01-.996a3.603 3.603 0 01-.431-.937 73.862 73.862 0 00-22.588-7.434l-.134-.089zm40.896 20.815c-.55.848-.743.684-1.04 1.026v.193h-.164a73.454 73.454 0 0111.353 14.645c.179-.081.37-.132.565-.149h1.412a74.357 74.357 0 00-12.052-15.715h-.074zm-40.896-18.124v1.844a69.593 69.593 0 0135.799 17.544 11.773 11.773 0 00-.52-2.007 8.696 8.696 0 00-.952-1.487l-.386-.268a.833.833 0 01-.149-.119l-1.486-1.338c-.148-.148-.297-.282-.43-.431a71.313 71.313 0 00-31.92-13.768l.044.03zm38.875 19.819l-.208.163-.669.61a2.654 2.654 0 00-.416.416l.119.105a69.549 69.549 0 0111.383 14.867c.594-.966.416-1.13 1.174-1.486a72.107 72.107 0 00-11.294-14.541l-.089-.134zm-38.875-17.143v1.83a67.006 67.006 0 0134.996 17.736l.312-.52c.106-.218.186-.447.238-.684l.119-.253c.074-.133 0 0 .074-.178v-.134a68.743 68.743 0 00-35.754-17.841l.015.044zm37.002 19.076l-.564.832a1.66 1.66 0 000 .223l-.208.432v.223a67.508 67.508 0 0111.888 16.444.78.78 0 01.074-.372l.164-.476.341-1.799a69.65 69.65 0 00-11.739-15.507h.044zm-37.061-16.355v1.844a64.408 64.408 0 0133.777 17.484l.401-1.026.104-.222.194-.343a66.27 66.27 0 00-34.565-17.633l.089-.104zm0 2.676v1.784a61.733 61.733 0 0132.068 16.89l1.055 1.07v-.847a3.62 3.62 0 01.223-1.204l.089-.208-.104-.09a63.632 63.632 0 00-33.346-17.454l.015.06zm61.21 12.489v.12c.371.55.758 1.114 1.115 1.68.045-.066.085-.136.118-.209v-.193l.134-.922a5.417 5.417 0 000-1.382l-.921-1.309-.134.238c-.13.223-.211.471-.238.728l-.208 1.25h.134zm1.575-2.23a.714.714 0 00-.297-.43l.297.43z" fill="#746B60"/></svg>