<svg width="21" height="21" fill="none" xmlns="http://www.w3.org/2000/svg"><g clip-path="url(#clip0_30866_14343)"><g filter="url(#filter0_d_30866_14343)"><path d="M9.248 0C4.148 0 0 4.149 0 9.248c0 5.1 4.149 9.248 9.248 9.248 5.1 0 9.248-4.149 9.248-9.248 0-5.1-4.149-9.248-9.248-9.248zm0 16.789c-4.158 0-7.54-3.383-7.54-7.541s3.382-7.54 7.54-7.54c4.158 0 7.54 3.382 7.54 7.54 0 4.158-3.382 7.54-7.54 7.54z" fill="#646677"/></g><g filter="url(#filter1_d_30866_14343)"><path d="M20.75 19.543l-4.894-4.895a.853.853 0 10-1.207 1.207l4.894 4.895a.85.85 0 001.207 0 .853.853 0 000-1.207z" fill="#646677"/></g></g><defs><filter id="filter0_d_30866_14343" x="-16" y="-10" width="50.496" height="50.496" filterUnits="userSpaceOnUse" color-interpolation-filters="sRGB"><feFlood flood-opacity="0" result="BackgroundImageFix"/><feColorMatrix in="SourceAlpha" values="0 0 0 0 0 0 0 0 0 0 0 0 0 0 0 0 0 0 127 0" result="hardAlpha"/><feOffset dy="6"/><feGaussianBlur stdDeviation="8"/><feColorMatrix values="0 0 0 0 0.390833 0 0 0 0 0.398417 0 0 0 0 0.466667 0 0 0 0.2 0"/><feBlend in2="BackgroundImageFix" result="effect1_dropShadow_30866_14343"/><feBlend in="SourceGraphic" in2="effect1_dropShadow_30866_14343" result="shape"/></filter><filter id="filter1_d_30866_14343" x="-1.602" y="4.398" width="38.602" height="38.602" filterUnits="userSpaceOnUse" color-interpolation-filters="sRGB"><feFlood flood-opacity="0" result="BackgroundImageFix"/><feColorMatrix in="SourceAlpha" values="0 0 0 0 0 0 0 0 0 0 0 0 0 0 0 0 0 0 127 0" result="hardAlpha"/><feOffset dy="6"/><feGaussianBlur stdDeviation="8"/><feColorMatrix values="0 0 0 0 0.390833 0 0 0 0 0.398417 0 0 0 0 0.466667 0 0 0 0.2 0"/><feBlend in2="BackgroundImageFix" result="effect1_dropShadow_30866_14343"/><feBlend in="SourceGraphic" in2="effect1_dropShadow_30866_14343" result="shape"/></filter><clipPath id="clip0_30866_14343"><path fill="#fff" d="M0 0h21v21H0z"/></clipPath></defs></svg>