<svg width="284" height="85" fill="none" xmlns="http://www.w3.org/2000/svg"><g clip-path="url(#clip0_14_16316)" fill="#292A35"><path d="M57.968 34.799H47.13c-.746 0-.887-.13-.857-.881.02-.48.101-.95.172-1.431.06-.35.282-.47.645-.48.867-.01 1.744 0 2.611-.09 1.825-.2 2.591-1.011 2.682-2.873.08-1.711.08-3.433.1-5.144.02-1.682.01-3.373 0-5.054 0-.34.101-.54.404-.71 2.268-1.332 4.698-2.273 7.218-2.963 3.831-1.051 7.723-1.732 11.705-1.672 5.998.09 11.765 1.261 17.017 4.254 7.491 4.253 12.179 10.588 13.943 18.995.565 2.683.514 5.395.252 8.107-.302 3.063-.988 6.035-2.198 8.877-1.925 4.514-4.94 8.177-8.932 11.04-4.002 2.872-8.478 4.673-13.257 5.764-3.186.73-6.402 1.111-9.678.991-5.222-.18-10.152-1.461-14.83-3.753-.867-.42-1.23-.89-1.25-1.852-.07-2.892-.232-5.794-.394-8.687-.03-.55.212-.8.696-.92a6.9 6.9 0 01.434-.11c1.109-.24 1.28-.12 1.542.96 1.462 6.015 5.323 9.638 11.352 10.85 7.037 1.41 13.368-.401 18.953-4.765 4.9-3.823 7.602-8.967 8.57-15.012.312-1.982.524-4.014.473-6.015-.191-7.987-3.054-14.872-9.023-20.337-2.873-2.632-6.22-4.444-10.101-5.034-4.466-.68-8.842-.31-12.864 1.972-2.067 1.17-3.529 2.882-3.993 5.254-.292 1.511-.282 3.053.091 4.564.423 1.701 1.684 2.782 3.458 2.952 1.12.1 2.248.1 3.367.12 1.23.02 2.45.02 3.68 0 .464-.01.726.17.736.61.02.611.03 1.232-.04 1.832-.05.49-.414.66-.908.66-2.52-.01-5.04-.01-7.56-.01-1.13-.01-2.249-.01-3.378-.01z"/><path d="M45.276 51.052h10.787c.827 0 .918.08.887.88a10.9 10.9 0 01-.13 1.392c-.061.34-.273.5-.676.51-1.069.02-2.148.06-3.206.19-1.059.14-1.734.811-1.916 1.842a16.38 16.38 0 00-.231 2.632 387.7 387.7 0 000 7.657c0 .37-.121.57-.434.75-2.914 1.712-6.08 2.772-9.366 3.503-3.528.79-7.097 1.271-10.726 1.101-6.503-.31-12.623-1.852-18.046-5.575C5.948 61.621 2.006 55.746.474 48.31.04 46.218-.081 44.106.05 41.995c.343-5.685 1.785-11.02 5.202-15.713 2.763-3.793 6.352-6.616 10.546-8.697 3.87-1.922 7.964-3.113 12.239-3.723 7.692-1.101 14.94.22 21.816 3.763.262.13.423.27.444.59.15 3.173.312 6.355.494 9.528.03.57-.222.83-.716.96-.192.05-.383.11-.585.15-.968.171-1.18.031-1.381-.91-1.26-5.795-5.485-9.888-11.413-10.979-6.986-1.29-13.237.43-18.791 4.704-4.688 3.603-7.35 8.467-8.54 14.172-.564 2.692-.786 5.414-.574 8.146.685 8.928 4.345 16.274 11.967 21.368 3.76 2.512 7.984 3.413 12.51 2.993 2.36-.22 4.638-.671 6.765-1.752 2.087-1.06 3.73-2.562 4.497-4.824.534-1.571.524-3.183.08-4.774-.463-1.681-1.804-2.722-3.69-2.802-2.197-.1-4.395-.08-6.593-.1-.776-.01-.937-.15-.957-.931-.01-.38-.01-.77.01-1.151.05-.76.312-.99 1.078-.99h7.763c1.008.03 2.027.03 3.055.03zM79.664 73.66c-15.425 15.013-40.568 15.113-56.094.401.998.14 1.966.3 2.934.39 1.33.13 2.672.19 4.012.3.253.02.525.1.736.24 4.386 2.803 9.134 4.655 14.286 5.465 2.329.37 4.668.55 7.017.46 6.775-.25 13.045-2.161 18.762-5.814.443-.28.897-.41 1.4-.44 2.3-.13 4.558-.511 6.796-1.021.03 0 .06.01.151.02zm-.01-62.73c-1.442-.171-2.874-.361-4.305-.501-.887-.09-1.775-.1-2.662-.17-.221-.02-.463-.08-.645-.2-3.962-2.563-8.257-4.334-12.884-5.255a36.988 36.988 0 00-10.505-.58c-6.1.54-11.695 2.482-16.846 5.744-.333.21-.767.33-1.16.36-2.308.16-4.587.521-6.845 1.031-.05.01-.101 0-.282 0C30.244 5.134 38.037 1.351 47.1.29 61.386-1.4 73.05 4.634 79.654 10.93zm192.16 39.975c-.242.06-.342.11-.443.12-2.41.14-2.4.14-2.581-2.252-.182-2.362-.393-4.714-.817-7.126-.544 1.361-1.109 2.722-1.633 4.093-.575 1.471-1.169 2.943-1.663 4.444-.283.85-.767 1.02-1.603 1.03-.827.01-1.109-.35-1.361-1.03-.928-2.502-1.906-4.994-2.874-7.486-.131-.33-.272-.65-.403-.971l-.272.06c-.232 3.053-.464 6.105-.696 9.198h-2.853c.403-5.185.807-10.319 1.22-15.623.968 0 1.936-.05 2.904.04.242.02.534.46.645.76 1.179 3.093 2.319 6.206 3.478 9.308.091.24.202.48.393.94.867-2.311 1.674-4.443 2.47-6.574.434-1.161.887-2.322 1.27-3.503.222-.701.535-1.081 1.361-.981.706.09 1.432.02 2.279.02.393 5.214.786 10.378 1.179 15.533zm-130.012-8.908c0 2.502.02 4.834-.03 7.176-.01.3-.293.72-.565.87-2.793 1.512-5.686 1.942-8.569.371-2.682-1.461-3.529-3.983-3.63-6.856-.09-2.682.545-5.124 2.642-6.945 2.268-1.972 6.301-2.152 8.851-.45.313.21.555.77.545 1.17-.01.74-.222 1.482-.353 2.252-.797-.46-1.492-.97-2.268-1.29-3.428-1.402-6.18.37-6.402 4.102-.051.851.03 1.732.181 2.583.595 3.473 3.72 3.993 6.069 3.232.252-.08.514-.52.545-.81.08-.781.03-1.572.03-2.492h-3.176c-.151-.981-.292-1.862-.433-2.783.262-.05.433-.12.615-.12 1.925-.01 3.861-.01 5.948-.01zm15.818 8.587c-.998.23-1.866.44-2.823.66-.474-1.32-.958-2.581-1.381-3.852-.182-.531-.444-.791-1.049-.771-1.21.04-2.44-.04-3.649.05-.363.03-.787.41-1.029.75-.252.35-.332.831-.484 1.261-.907 2.483-.907 2.483-3.81 2.272.625-1.671 1.229-3.302 1.834-4.944 1.22-3.282 2.491-6.535 3.65-9.838.333-.97.937-.97 1.734-.98.766-.01 1.29.04 1.623.95 1.714 4.774 3.539 9.518 5.384 14.442zm-7.098-10.899c-.554 1.521-.998 2.752-1.472 4.043h2.944c-.484-1.31-.917-2.522-1.472-4.043zm33.179 10.919c-.978.23-1.815.43-2.732.64-.484-1.29-.988-2.542-1.412-3.823-.201-.62-.524-.88-1.149-.79-.071.01-.151 0-.232 0-1.331.02-2.944-.4-3.891.21-.867.56-1.059 2.212-1.482 3.413-.212.6-.525.83-1.16.78-.635-.05-1.29-.01-2.016-.01.06-.31.06-.57.151-.79 1.754-4.694 3.559-9.358 5.253-14.072.353-.99.957-.93 1.734-.96.786-.02 1.3.09 1.623.98 1.653 4.564 3.377 9.108 5.081 13.661.07.19.121.41.232.761zm-5.535-6.836c-.514-1.36-.968-2.582-1.522-4.063-.545 1.521-.978 2.752-1.442 4.063h2.964zm73.898 4.484v2.712h-8.599V35.401h8.337v2.683h-5.424v3.392c1.079 0 2.097.06 3.105-.02.898-.07 1.241.27 1.271 1.121.01.51.121 1.021.201 1.662h-4.607v4.013h5.716zm-26.575-9.137c-.917-.41-1.744-.9-2.631-1.15-.907-.261-1.915-.17-2.339.84-.433 1.02.182 1.731 1.049 2.212.665.36 1.361.67 2.026 1.02 2.712 1.402 3.75 3.664 2.853 6.246-.776 2.221-3.196 3.392-6.009 2.892-.07-.01-.151-.04-.221-.05-2.934-.61-3.186-1.04-2.39-3.973 1.069.43 2.107.94 3.216 1.26 1.291.371 2.41-.12 2.712-1.02.343-1.05-.131-1.992-1.371-2.652-.937-.5-1.915-.931-2.802-1.491-1.795-1.141-2.44-2.973-1.886-5.015.474-1.721 2.198-2.992 4.204-3.082.111-.01.232 0 .343 0 3.398-.04 4.012.72 3.246 3.963zm49.652 8.036c1.079.43 2.067.92 3.115 1.221 1.442.41 2.46-.01 2.803-.98.383-1.082-.101-1.982-1.452-2.703-.938-.5-1.916-.93-2.793-1.511-1.713-1.121-2.328-2.953-1.794-4.954.444-1.662 2.188-2.963 4.103-3.063.081 0 .151-.02.232 0 1.139.24 2.43.23 3.367.8 1.28.792.01 2.093.313 3.494-.555-.38-.817-.65-1.13-.77-.806-.301-1.623-.711-2.449-.732-.545-.01-1.442.501-1.563.951-.141.53.202 1.421.645 1.822.646.59 1.573.88 2.369 1.31 1.371.731 2.591 1.592 2.985 3.224.917 3.843-1.976 6.665-6.09 5.934-.04-.01-.07-.02-.111-.02-3.094-.63-3.306-.97-2.55-4.023zm-83.012 2.883c.151-1.021.282-2.012.413-2.913 1.089.45 2.097.961 3.176 1.271 1.341.4 2.379 0 2.752-.89.454-1.081 0-2.032-1.3-2.743-.998-.54-2.047-1.01-2.984-1.631-1.684-1.121-2.259-2.913-1.694-4.864.494-1.722 2.046-2.943 3.942-3.093.343-.03.685-.02 1.028-.01 3.004.08 3.781 1.211 2.783 3.964-.807-.37-1.593-.831-2.43-1.101-1.149-.37-2.208 0-2.5.73-.363.891.06 1.722 1.22 2.362.927.51 1.895.951 2.792 1.511 1.815 1.142 2.541 2.903 2.067 5.095-.424 1.931-1.724 3.082-3.65 3.422-1.996.35-3.851-.07-5.615-1.11zm10.564-14.202c.928-.23 1.684-.47 2.46-.56.242-.03.635.31.787.57 1.109 1.931 2.167 3.883 3.367 6.035.867-1.552 1.633-2.953 2.409-4.344 1.341-2.402 1.341-2.402 4.366-2.061-1.009 1.771-1.876 3.582-3.005 5.204-1.835 2.662-2.742 5.484-2.308 8.707.05.41 0 .83 0 1.241 0 .07-.031.15-.061.31h-2.883c0-1.611.081-3.222-.03-4.834-.061-.86-.283-1.781-.696-2.532-1.371-2.552-2.863-5.044-4.406-7.736zm30.336 2.262h-4.486v-2.682h11.684l.494 2.662h-4.728v12.88h-2.954c-.01-4.223-.01-8.466-.01-12.86zm-73.091-2.693h2.782v12.83h4.91c.141.972.252 1.822.383 2.743h-8.085c.01-5.154.01-10.308.01-15.573z"/></g><defs><clipPath id="clip0_14_16316"><path fill="#fff" d="M0 0h284v85H0z"/></clipPath></defs></svg>