<svg width="23" height="16" fill="none" xmlns="http://www.w3.org/2000/svg"><path d="M21.625 7.647c0 3.582-2.884 6.486-6.44 6.486-2.66 0-4.942-1.622-5.925-3.938-.332-.782-3.506-2.686-3.506-3.59 0-.905 3.174-.724 3.506-1.506.983-2.316 3.266-3.939 5.925-3.939 3.556 0 6.44 2.904 6.44 6.487z" fill="#fff"/><path fill-rule="evenodd" clip-rule="evenodd" d="M8.788 7.218c1.944 1.132 3.093 2.936 4.286 3.714 2.716 1.77 5.461-.076 5.657-2.949-3.143 1.052-6.654-.258-9.943-.765z" fill="#FFC90D"/><path d="M6.18 6.778c.579.577 1.145 1.163 1.696 1.73 1.402 1.448 2.71 2.797 3.793 3.581 1.313.95 2.567 1.32 3.69 1.279a4.677 4.677 0 002.2-.664 5.725 5.725 0 001.736-1.616c.728-1.02 1.136-2.244 1.092-3.418a5.205 5.205 0 000 .003c.87-.226 1.693-.793 2.482-1.335.025.146.047.296.066.45a7.758 7.758 0 01-.304 3.348 8.855 8.855 0 01-1.228 2.466 8.547 8.547 0 01-1.168 1.327 8.048 8.048 0 01-1.38 1.033 7.54 7.54 0 01-1.678.736 7.263 7.263 0 01-1.776.297 7.62 7.62 0 01-2.688-.395 9.823 9.823 0 01-2.65-1.387c-1.282-.928-2.659-2.35-4.137-3.877l-.006-.007c-.611-.628-1.238-1.278-1.88-1.913A38.98 38.98 0 002.066 6.58L.481 5.212c.117-.05.231-.099.345-.15l-.813-.261H0l.478.411c.117-.05.231-.099.345-.15l5.35 1.716h.006zm1.585-.638l-.025.013c-.383.175-.782.34-1.19.494l-.01.003a18.73 18.73 0 001.225-.507V6.14z" fill="#FFC90D"/><path fill-rule="evenodd" clip-rule="evenodd" d="M13.343 5.024a8.152 8.152 0 00-1.251.785 7.094 7.094 0 01-.873.558c-.713.392-1.586.74-2.448.85 2.14.992 3.09 2.937 4.287 3.715 1.57 1.024 3.026.836 4.068.09-1.08.765-2.57.876-4.052-.09-1.194-.778-2.147-2.72-4.287-3.714 3.29.507 6.8 1.817 9.944.765a3.8 3.8 0 00-.013-.322c-.11-1.291-.861-2.51-2.09-2.984l-3.285.35v-.003zm0 0c1.298-.653 2.412-.688 3.286-.35l-3.286.35zm4.39 5.446c.615-.689.982-1.594.998-2.48-.07.981-.434 1.842-.998 2.48z" fill="#FFB616"/><path fill-rule="evenodd" clip-rule="evenodd" d="M22.869 6.34c-.789.54-1.612 1.107-2.482 1.337-.041-1.052-.358-2.085-.925-2.937a4.505 4.505 0 00-1.62-1.489c-.671-.357-1.479-.551-2.41-.513-1.443.054-3.178.654-5.188 2.009a17.483 17.483 0 01-4.068 2.03L.016 4.802 2.599 4.7c.386-.032.77-.08 1.159-.144.392-.063.772-.146 1.146-.248l.351-.112.342-.121a14.182 14.182 0 001.589-.701 15.112 15.112 0 001.532-.906c1.187-.803 2.32-1.387 3.394-1.789 1.14-.424 2.2-.637 3.181-.672a7.901 7.901 0 011.97.169c.639.14 1.23.363 1.775.65l.235.13.237.144a6.794 6.794 0 011.823 1.645 7.75 7.75 0 011.15 2.153l.003.006a7.866 7.866 0 01.383 1.435v.003z" fill="#FFB616"/></svg>