<svg width="18" height="26" viewBox="0 0 18 26" fill="none" xmlns="http://www.w3.org/2000/svg">
<path d="M17.4464 6.63497C17.3547 6.297 17.1687 5.93689 17.031 5.6216C15.3838 1.72589 11.7848 0.329742 8.87884 0.329742C4.98862 0.329742 0.703991 2.89692 0.131958 8.18849V9.26959C0.131958 9.3147 0.147758 9.71999 0.170201 9.92272C0.49087 12.4446 2.51286 15.1247 4.02296 17.6465C5.64761 20.3484 7.33343 23.0063 9.00362 25.6631C10.0335 23.9293 11.0597 22.1728 12.0661 20.4839C12.3404 19.9882 12.6588 19.4929 12.9333 19.0198C13.1164 18.7048 13.466 18.3898 13.6257 18.0968C15.2503 15.1695 17.8653 12.2197 17.8653 9.31464V8.12123C17.8654 7.80629 17.4687 6.70288 17.4464 6.63497ZM8.95006 12.0621C7.80653 12.0621 6.55485 11.4993 5.93704 9.94528C5.84499 9.6979 5.85241 9.20215 5.85241 9.15674V8.45866C5.85241 6.47753 7.56169 5.5766 9.04869 5.5766C10.8793 5.5766 12.2952 7.01799 12.2952 8.8196C12.2952 10.6211 10.7807 12.0621 8.95006 12.0621Z" fill="#F94F4F"/>
</svg>
