<svg width="300" height="54" fill="none" xmlns="http://www.w3.org/2000/svg"><g clip-path="url(#clip0_14_18701)"><path d="M226.184 46.487c0-.081.041-.245.041-.449h.613v4.902c0 1.47-.245 1.838-1.716 2.043-1.021.122-2.042.081-3.064-.041-.98-.123-1.184-.409-1.348-1.47.327-.123.613-.164.736.285.122.368.408.613.817.613.939.04 1.879.082 2.818 0 .776-.041 1.062-.45 1.103-1.185v-.98c-1.348.98-2.818.694-4.289.53-.858-.122-1.226-.775-1.266-1.592a7.94 7.94 0 01.122-1.961c.082-.654.531-1.103 1.185-1.144.939-.081 1.879-.122 2.818-.081.491.04.94.367 1.43.53zm-2.41 3.84c.327-.04.776-.04 1.226-.122.653-.082 1.062-.368 1.102-1.021.082-.572 0-1.185-.04-1.798-.041-.45-.327-.735-.777-.776-1.021-.04-2.001-.082-3.022-.04a.838.838 0 00-.817.775c-.041.613-.123 1.267-.041 1.88.081.694.367.898 1.062.98.367.122.776.081 1.307.122zm-177.204.001v2.532h-.613v-6.822h.572c.04.164.04.368.082.572 1.02-.98 2.206-.653 3.35-.653.285 0 .53.081.816.122.776.123 1.226.572 1.307 1.348.041.613.082 1.226 0 1.798-.163 1.062-.49 1.43-1.593 1.552-.898.082-1.838.082-2.737.04-.367-.04-.735-.326-1.184-.49zm2.573.04v-.04h.49c.246-.041.49-.041.736-.082.612-.123.94-.368 1.021-.94.04-.572.04-1.184 0-1.756-.04-.49-.368-.858-.899-.899-.94-.04-1.879-.04-2.818 0-.531.04-.94.368-.98.94a12.04 12.04 0 000 1.715c.04.49.326.858.857.899.531 0 1.062.082 1.593.163zm153.758-1.961c-.041-.368-.041-.695-.082-1.021-.082-.532-.409-.817-.94-.817a26.14 26.14 0 00-2.532 0c-.245 0-.572.204-.654.408-.163.49-.408.45-.776.368-.082-.695.163-1.103.858-1.267a9.076 9.076 0 013.635 0c.736.164 1.022.45 1.063 1.226.04 1.144 0 2.287 0 3.431-.327.041-.654.164-.654-.408-.572.572-1.226.572-1.838.572-.776-.041-1.553 0-2.288-.123-.817-.082-1.021-.45-1.021-1.266 0-.98.163-1.348 1.021-1.43a30.567 30.567 0 013.35-.04c.245-.042.49.203.858.367zm-2.206.04c-.572.041-1.103.082-1.634.164-.531.082-.736.368-.736.858.041.45.286.694.736.735.49.041 1.021.082 1.511.082.572 0 1.144-.082 1.675-.163.368-.082.572-.368.572-.777 0-.408-.245-.694-.654-.776-.449-.04-.98-.081-1.47-.122zm-45.099-.081v-.858c-.041-.572-.327-.94-.94-.94a27.6 27.6 0 00-2.573 0c-.245 0-.572.205-.654.409-.163.45-.449.409-.817.327 0-.776.245-1.144.94-1.267 1.225-.204 2.451-.245 3.635.041.695.164.94.45.981 1.144.041 1.021.041 2.042.041 3.064 0 .204.04.49-.286.45-.164-.042-.327-.164-.572-.287-.327.327-.858.368-1.471.368-.817-.041-1.675 0-2.492-.123-.817-.081-1.062-.45-1.062-1.307 0-.94.204-1.348 1.062-1.389a29.8 29.8 0 013.309-.04c.368.04.613.245.899.408zm-2.124.082c-.572.04-1.144.081-1.716.163-.409.04-.613.327-.613.776 0 .409.082.776.531.817 1.103.04 2.206.04 3.309-.04.409 0 .654-.328.654-.777 0-.45-.245-.694-.654-.776a21.233 21.233 0 00-1.511-.163zm-94.648-.041c-.04-.409-.04-.776-.122-1.144-.082-.45-.409-.694-.817-.694-.9-.041-1.757-.041-2.656 0-.326 0-.612.163-.694.53-.082.287-.327.368-.531.246-.123-.041-.245-.409-.163-.49.204-.286.408-.654.694-.736a8.463 8.463 0 014.044 0c.408.123.694.45.735.858.041 1.226 0 2.45 0 3.88-.286-.122-.49-.244-.776-.367-.367.368-.98.408-1.593.368-.776-.041-1.552 0-2.328-.123-.817-.082-1.103-.49-1.103-1.307 0-.899.245-1.348 1.062-1.43a30.535 30.535 0 013.35-.04c.326.04.53.285.898.449zm-2.124.04c-.572.041-1.103.041-1.634.123-.613.082-.776.327-.735.858 0 .49.204.694.776.735.45.041.898.082 1.348.082.572 0 1.144-.04 1.715-.163.409-.082.654-.327.654-.777 0-.449-.245-.694-.654-.776-.53 0-1.02-.04-1.47-.081zm30.31.042h-5.351c-.205.899.204 1.634 1.02 1.675.94.081 1.88.04 2.82 0 .245 0 .53-.245.735-.45.286-.367.245-.367.817-.285 0 .49-.204.857-.695 1.062-.98.408-2.001.326-3.022.285-.327 0-.654-.122-.98-.122-.859-.082-1.308-.572-1.349-1.389-.04-.531-.082-1.062-.04-1.593.163-1.185.612-1.675 1.92-1.716.98-.04 2 .082 3.022.204.735.082 1.062.613 1.144 1.267 0 .327-.041.653-.041 1.062zm-5.392-.572h4.534c.082 0 .204-.204.204-.327-.04-.572-.408-.98-1.062-1.021-.858-.04-1.675-.04-2.532 0-.817.04-1.103.408-1.144 1.348zm91.175.572c0 1.307.246 1.634 1.43 1.756.817.082 1.675.041 2.492-.04.245-.042.613-.246.694-.45.205-.409.45-.368.736-.286.081.572-.123.858-.654 1.103-.98.408-2.001.286-2.982.245-.367 0-.776-.123-1.144-.163-.653-.123-1.062-.49-1.103-1.144a10.796 10.796 0 010-2.288c.123-1.021.981-1.266 1.798-1.307 1.021 0 2.001.082 3.023.204.817.123 1.103.572 1.184 1.47.082.9.082.9-.817.9h-4.657zm.041-.572h4.453c.082 0 .245-.245.245-.368-.041-.531-.408-.94-1.021-.98-.858-.041-1.716-.082-2.574 0-.817.081-1.144.49-1.103 1.348zm17.935.572c-.082 1.184.245 1.634 1.348 1.715.858.082 1.675.041 2.533-.04.245 0 .612-.205.694-.41.204-.367.408-.408.776-.285.123.45-.082.776-.49.98-.245.123-.531.245-.817.286-1.185.205-2.41.123-3.595-.122-.572-.123-.939-.45-.98-1.021-.082-.777-.123-1.553-.041-2.329.122-1.021.939-1.348 1.756-1.348 1.063 0 2.125.123 3.187.245.612.082.898.572.98 1.144.204 1.47.204 1.144-.98 1.185-1.43.04-2.86 0-4.371 0zm.041-.613h4.697c.082-.735-.163-1.185-.817-1.267a15.357 15.357 0 00-3.063.041c-.654.082-.858.49-.817 1.226zm-8.17 1.389h.613c.204.817.286.94 1.103.98.939.04 1.92 0 2.9 0 .409 0 .736-.163.736-.654 0-.49-.205-.817-.654-.857-.654-.082-1.307-.041-1.961-.082-.613-.041-1.225-.041-1.838-.082-.49-.04-.776-.327-.817-.817-.082-.776.082-1.266.572-1.47a4.81 4.81 0 011.103-.245c.98-.041 1.961-.041 2.941 0 .858.04 1.062.285 1.185 1.184-.327.123-.613.163-.777-.286-.081-.163-.367-.327-.571-.327-.981-.04-1.92 0-2.901 0-.122 0-.204.041-.327.082-.367.082-.572.327-.531.694.041.368.205.613.613.613.899.041 1.757.041 2.655.082.368 0 .736 0 1.062.082.94.204 1.389 1.47.777 2.206-.164.204-.531.367-.817.408-1.348.04-2.697.082-4.045 0-.817-.082-1.143-.654-1.021-1.511zm103.186-2.043c-.327.082-.613.123-.776-.286-.082-.163-.368-.327-.572-.367-.98-.041-1.961 0-2.941 0-.123 0-.245.04-.368.081-.367.123-.49.368-.449.736.041.326.204.572.531.572.858.04 1.716.04 2.573.081.409 0 .817 0 1.226.082.899.204 1.348 1.511.694 2.206-.204.204-.531.367-.817.367-1.266.041-2.573.082-3.839.041-.899-.04-1.226-.53-1.144-1.511h.612c.246.858.286.94 1.185.98.94.041 1.879 0 2.819-.04.367 0 .694-.205.735-.654.041-.49-.163-.776-.654-.899-.367-.082-.735-.082-1.103-.082-.898-.04-1.797-.04-2.696-.081-.49-.041-.776-.327-.817-.858-.081-.817.082-1.267.613-1.43a4.64 4.64 0 011.471-.245c.898 0 1.838 0 2.737.082.653.081.858.367.98 1.225zm-48.612.001c-.327.081-.612.122-.776-.286-.082-.164-.408-.327-.613-.368-.939-.04-1.838 0-2.777 0-.164 0-.327.041-.491.123-.367.122-.49.367-.449.735.041.327.204.572.531.572.899.04 1.838.04 2.737.082.409 0 .858.04 1.266.122.572.123.817.613.777 1.307-.041.736-.205 1.144-.858 1.185-1.43.082-2.901.123-4.33.04-.695-.04-.981-.612-.899-1.47.082 0 .204-.04.327-.04.081 0 .204 0 .286.04.245.858.286.94 1.184.98.94.041 1.879 0 2.819-.04.368 0 .694-.204.735-.654.041-.49-.163-.817-.653-.858-.531-.081-1.062-.04-1.594-.081-.735-.041-1.47-.041-2.205-.082-.491-.04-.777-.327-.817-.858-.082-.817.081-1.266.612-1.43a7.199 7.199 0 011.634-.285c.776-.041 1.553 0 2.329.081.858.041 1.062.245 1.225 1.185zM24.468 50.899a185.89 185.89 0 01-1.756-.245c-.817-.123-1.267-.572-1.307-1.39-.041-.734 0-1.47.081-2.164.082-.695.654-1.062 1.267-1.103 1.103-.04 2.247-.082 3.35.04 1.102.123 1.347.41 1.47 1.512.082.654 0 1.348-.082 2.043-.081.572-.45.94-1.02 1.02-.695.164-1.349.205-2.003.287zm-.204-.572c0-.04 0-.04 0 0h.654c1.838-.163 2.124-.49 2.001-2.328 0-.164-.04-.327-.081-.49-.164-.573-.45-.9-1.021-.94a26.097 26.097 0 00-2.533 0c-.735.04-1.062.367-1.144.98-.082.327-.082.695-.082 1.021.082 1.349.49 1.675 1.838 1.757h.368zm115.32.572a15.141 15.141 0 01-1.553-.164c-1.184-.163-1.634-.612-1.715-1.838-.041-.53.04-1.103.122-1.634.123-.735.613-1.144 1.307-1.225 1.144-.164 2.329-.164 3.473.081.898.205 1.266.49 1.348 1.39.081.694 0 1.388-.082 2.083-.082.572-.449.98-1.062 1.062-.654.122-1.307.163-1.838.245zm-.327-.572c.49-.04.939-.082 1.389-.123.898-.122 1.184-.326 1.266-1.266.041-.49 0-.98-.082-1.43-.122-.653-.49-.898-1.103-.98-.49-.04-1.021-.082-1.511-.04-1.879 0-2.288.49-2.165 2.368.082.899.408 1.226 1.266 1.39.327.04.654.04.94.08zm-34.232.572c-.49-.041-.939-.082-1.429-.123-1.185-.163-1.593-.572-1.716-1.797-.041-.572.041-1.144.123-1.716.122-.735.612-1.144 1.348-1.225 1.143-.164 2.328-.164 3.472.081.939.205 1.307.532 1.348 1.471.041.654 0 1.348-.082 2.002-.082.612-.449.98-1.062 1.103-.163.04-.286.081-.449.081-.49.041-1.022.082-1.553.123zm-.04-.531c.531-.082 1.103-.123 1.715-.245.45-.082.736-.368.776-.817.041-.613 0-1.185-.04-1.798-.041-.612-.491-.898-1.022-.94a26.14 26.14 0 00-2.532 0c-.776.042-1.103.368-1.185 1.145-.041.449-.041.94 0 1.43.123.735.408.98 1.144 1.102.327.041.694.041 1.144.123zm162.663.531a47.44 47.44 0 00-1.797-.245c-.654-.123-1.062-.531-1.103-1.144-.082-.735-.041-1.511.041-2.288.081-.735.612-1.103 1.307-1.184 1.184-.164 2.369-.164 3.554.081.735.123 1.184.572 1.266 1.308a7.845 7.845 0 010 1.96c-.123.98-.531 1.267-1.552 1.39-.531.04-1.022.081-1.716.122zm-.041-.572c.368-.04.695-.04 1.021-.082 1.389-.163 1.757-.612 1.634-2.001-.04-.245-.04-.45-.122-.695-.164-.613-.45-.94-1.103-.98a24.436 24.436 0 00-2.451 0c-.776.04-1.103.367-1.226 1.143a3.33 3.33 0 000 1.267c.123.858.409 1.144 1.267 1.266.367.041.694.041.98.082zm-25.694.613c-.613-.082-1.267-.164-1.879-.286-.654-.123-1.062-.572-1.144-1.185-.041-.735 0-1.511.041-2.247.041-.694.531-1.062 1.184-1.184 1.267-.204 2.574-.204 3.84.082.613.122 1.022.53 1.062 1.143a14.85 14.85 0 01-.04 2.329c-.041.613-.491.94-1.063 1.062-.694.122-1.348.163-2.001.286zm-.164-.613c.368-.04.654-.04.981-.082 1.593-.204 1.961-.776 1.675-2.369-.041-.122-.041-.245-.082-.368-.163-.572-.449-.898-1.062-.94-.613-.04-1.266-.08-1.92-.04-1.634.123-2.002.572-1.879 2.206.082 1.062.367 1.389 1.389 1.552.327 0 .612 0 .898.041zm-224.837.368v-2.369c0-.327-.082-.572-.327-.817a114.325 114.325 0 01-3.145-3.145c-.123-.123-.204-.246-.368-.368.613-.123 1.103-.082 1.553.45.735.816 1.511 1.552 2.287 2.369l.409.408c.898-.899 1.838-1.797 2.696-2.737.408-.45.898-.613 1.552-.45a3.696 3.696 0 01-.368.41c-1.02 1.02-2.042 2.083-3.104 3.063-.286.286-.45.572-.409.98.041.572 0 1.144 0 1.716-.04.613-.081.654-.776.49zm240.155-4.166h-1.143c0-.205 0-.327-.041-.49.082-.041.163-.041.204-.041.286-.041.654.04.858-.082.163-.123.082-.531.122-.776.041-.123.205-.205.327-.245.082 0 .204.163.286.245v.04c.082.818.082.818.94.818h2.042c.123 0 .245.163.409.285-.123.082-.245.245-.368.245-.817.041-1.593 0-2.41 0h-.531c0 1.022-.041 1.961 0 2.942 0 .449.327.735.817.776.449 0 .939 0 1.389-.041.408-.04.613-.327.613-.776v-.654c.204 0 .367-.04.694-.04-.123.612-.163 1.184-.409 1.633-.122.245-.612.45-.939.45-.654.04-1.348 0-2.002-.082-.653-.082-.898-.49-.898-1.185.04-1.02.04-1.96.04-3.023zm-98.816 0h-1.144v-.532c.123 0 .205-.04.286-.04.777-.041.777-.041.858-.776 0-.123.204-.286.327-.286.123 0 .204.163.327.285.041.041 0 .123 0 .205-.082.49.163.613.613.613.898-.041 1.838 0 2.777 0 0 .204.041.326.041.49-.082.04-.163.04-.204.04h-2.737c-.327 0-.49.082-.449.45.041.817 0 1.593.041 2.41.04.531.326.858.857.899.45 0 .94.04 1.389-.082.245-.04.45-.368.572-.654.082-.204.041-.49.082-.776.163 0 .327-.04.653-.04-.122.571-.163 1.102-.367 1.593-.082.204-.409.408-.654.408-.694.04-1.389.082-2.083 0-.858-.082-1.144-.45-1.144-1.307V47.14c-.041-.163-.041-.367-.041-.612zm51.227-.491v.49h-3.227v3.104c0 .164.204.409.367.49.695.327 1.389.287 2.084-.04.163-.082.286-.409.367-.654.041-.163 0-.367 0-.572.49-.204.572-.163.572.327 0 .123 0 .245-.041.327-.081.94-.286 1.225-1.184 1.307-.654.082-1.348 0-2.043-.123-.572-.081-.817-.449-.858-1.102 0-.858-.04-1.716 0-2.533 0-.409-.081-.572-.531-.531-.245 0-.694.245-.653-.245 0-.45.408-.245.653-.245.409 0 .572-.123.531-.531 0-.123-.04-.286.041-.368.041-.082.204-.163.327-.163.082 0 .204.122.286.204a.45.45 0 010 .327c-.082.49.163.572.572.572.776-.041 1.552 0 2.287 0 .123-.082.246-.082.45-.041zm-88.031 0h.572c.041.245.041.449.082.694 1.144-1.103 2.492-.858 3.799-.654.817.123 1.225.613 1.225 1.471.041.94.041 1.88.041 2.778 0 .53-.041.53-.653.408v-2.737c0-.98-.327-1.348-1.267-1.43-.653-.04-1.348-.04-2.001.082-.899.164-1.144.531-1.185 1.471v2.124c0 .163 0 .368-.041.572h-.572v-4.78zm8.129 4.697h-.613v-4.697h.572c.041.245.041.49.081.817.532-.9 1.308-.94 2.084-.94.531 0 1.062 0 1.593.082.899.122 1.348.653 1.348 1.552v3.145h-.654v-2.982c-.04-.653-.286-.98-.939-1.143-.899-.205-1.798-.205-2.696.081-.572.164-.817.572-.817 1.308.041.94.041 1.838.041 2.777zm84.314-.04c-.531.163-.695 0-.695-.49a56.187 56.187 0 000-3.717c0-.49.164-.613.654-.49 0 .204.041.408.041.653 1.266-1.144 2.696-.858 4.126-.531.653.163.939.694.939 1.348v3.227h-.653v-2.247c0-1.634-.286-1.96-1.92-2.001-.45 0-.899.04-1.348.122-.94.205-1.185.49-1.185 1.43.041.94.041 1.838.041 2.696zm41.053 0c-.694.286-.612-.245-.694-.654-1.103 1.103-2.41.858-3.677.654-1.062-.163-1.388-.613-1.388-1.716v-2.777c0-.041.04-.082.04-.123.613-.123.613-.123.654.49 0 .858 0 1.716.041 2.574.041.694.327 1.02.98 1.062.817.04 1.634 0 2.451-.082.572-.04.858-.49.899-1.021.041-.858.082-1.716.041-2.574 0-.49.204-.612.653-.449v4.616zm-180.76.041h-.613v-4.739c.164 0 .368 0 .572-.04 0 .245.041.49.041.735 1.226-1.226 2.655-.899 4.044-.613.613.123.98.613 1.021 1.267.041 1.102 0 2.165 0 3.308h-.653v-2.777c0-.9-.327-1.308-1.185-1.39-.735-.04-1.511 0-2.247.082-.735.082-1.02.49-1.02 1.267.04 1.02.04 1.92.04 2.9zm-6.004-4.167h-1.144c0-.205-.04-.327-.04-.572h.694c.367.04.53-.123.53-.49 0-.123-.04-.286.041-.368.041-.082.164-.204.246-.204.122 0 .245.122.326.204.041.04.041.163 0 .245-.081.531.205.654.695.654.858-.041 1.756 0 2.655 0v.53h-3.268v3.064c0 .041.04.123.082.164.204.449.898.612 1.756.449.736-.122.94-.327.98-.899 0-.122-.04-.286.041-.367.041-.082.205-.205.287-.205.081 0 .204.123.245.245.204 1.104-.327 1.839-1.471 1.88a7.31 7.31 0 01-1.634-.082c-.654-.082-.94-.409-.98-1.103-.041-.817 0-1.634-.041-2.451.04-.245 0-.45 0-.694zm210.211 4.126c-.49.164-.694.041-.653-.45.041-.775 0-1.551 0-2.287 0-.98-.327-1.348-1.307-1.389a9.3 9.3 0 00-2.124.123c-.654.082-.94.45-.981 1.103-.041.858-.041 1.715-.041 2.532 0 .246.041.49-.327.45-.326 0-.285-.245-.285-.45V46.57c0-.204-.123-.53.285-.53.409 0 .286.285.327.53 0 .082.041.164.041.245 1.226-1.225 2.655-.94 4.044-.653.736.163 1.021.776 1.021 1.47v3.064zM29.248 46.038h.654v1.88c0 .449 0 .898.082 1.306.081.654.327.94.98.98.817.042 1.634 0 2.451-.08.613-.083.899-.45.94-1.063.04-.858.04-1.675.081-2.533 0-.204-.081-.49.286-.49.368 0 .327.245.327.49v3.8c0 .203.082.49-.327.49-.367 0-.286-.286-.326-.49 0-.082-.041-.164-.041-.287-.858 1.062-1.961.858-3.023.817-.286 0-.531-.081-.817-.163-.858-.204-1.185-.531-1.226-1.389-.081-1.103-.04-2.165-.04-3.268zm114.176 0c.449-.123.694-.041.939.367.613 1.103 1.267 2.206 1.879 3.309.082.163.164.286.327.531.286-.49.531-.94.817-1.348.45-.817.94-1.593 1.389-2.41.286-.531.286-.531.94-.45-.041.082-.041.164-.082.246-.817 1.389-1.634 2.777-2.451 4.207-.245.409-1.021.45-1.266.041-.817-1.43-1.634-2.819-2.41-4.248-.041-.082-.082-.164-.082-.245zm21.609 0c.531-.163.776 0 1.021.409a133.535 133.535 0 001.88 3.308c.081.123.163.286.285.49.327-.571.613-1.02.899-1.51.45-.777.899-1.512 1.307-2.288.205-.409.491-.531.981-.409-.368.654-.776 1.348-1.144 2.002-.49.817-.94 1.634-1.43 2.45-.204.368-1.021.41-1.225.082a224.657 224.657 0 01-2.574-4.534zm-64.011-2.165c.164.409.041.531-.368.531-.408 0-.816.04-1.225.082-.613.082-.98.735-.776 1.266.04.082.245.204.367.204.572.041 1.103 0 1.675.041.123 0 .245.164.368.245-.123.082-.245.245-.368.245-.326.041-.694 0-1.02 0h-1.022c0 .245-.041.45-.041.654v3.145c0 .205.04.45-.286.45-.327 0-.327-.204-.327-.45v-3.145c0-.204-.04-.408-.04-.654h-1.063c0-.204-.04-.326-.04-.449.081-.04.081-.082.122-.082.286-.04.695.041.899-.122.163-.164.122-.572.163-.899.082-.613.49-.98 1.226-1.062.572.04 1.143 0 1.756 0zm-12.336 6.863v-4.698h.612c.041.204.082.368.123.572.98-.98 2.165-.735 3.309-.572.653.082.98.49 1.02 1.144.042.245.042.53.083.776-.572.204-.654.163-.736-.368-.122-.735-.326-.98-1.062-1.02-.612-.042-1.184.04-1.797.122-.531.081-.817.449-.817.94-.041.857-.041 1.756-.041 2.654-.04.49-.082.531-.694.45zm21.16 0v-4.698h.612c.041.204.082.368.082.53 1.103-.98 2.369-.734 3.595-.448.449.081.654.49.735.898.041.286.082.613.123.899-.572.204-.654.163-.736-.327-.122-.817-.326-1.021-1.143-1.062-.572-.04-1.185.04-1.757.123-.531.081-.817.449-.817.94-.041.898-.082 1.756-.041 2.654.041.49-.163.613-.653.49zm-72.426 0h-.613v-4.698h.572c.04.205.04.368.081.572 1.144-1.021 2.41-.776 3.636-.45.53.123.94 1.226.694 1.757-.04.082-.245.164-.367.123-.082 0-.205-.123-.245-.204-.041-.164-.041-.368-.082-.531-.082-.45-.368-.695-.817-.736a8.42 8.42 0 00-1.757.041c-.817.123-1.103.531-1.143 1.389v2.206c.04.163.04.327.04.53zm24.427 0h-.613v-4.698h.572c.041.163.041.327.082.572 1.021-.94 2.247-.776 3.39-.531.736.163 1.226 1.062.98 1.756-.04.123-.326.164-.571.286-.163-1.43-.327-1.593-1.838-1.634-.245 0-.531.041-.776.082-.858.122-1.185.53-1.226 1.47v2.697zm185.539-.041c-.449.163-.654.04-.654-.45v-5.882c0-.163 0-.286.041-.49h.613v6.822zm-83.782-4.616c.612-.123.653-.123.653.45v3.717c0 .49-.163.612-.653.449v-4.616zm47.222-.041h.572v4.698h-.572v-4.698zm52.164 0v4.698h-.572v-4.698h.572zm-143.34.041v4.616c-.572.163-.654.123-.654-.45v-3.717c0-.572.041-.572.654-.449zm143.34-2.206v.776h-.572v-.776h.572zm-51.592.777h-.572v-.777h.572v.776zm-47.794.08v-.898c.204.04.49 0 .571.123.082.122.082.449 0 .572-.081.122-.326.163-.571.204zm-43.955 0c-.245-.04-.49-.04-.572-.163-.082-.163-.082-.449 0-.572.082-.122.368-.122.572-.163v.899z" fill="#292A35"/><path d="M300 17.361c-.163.98-.286 1.92-.49 2.9a16.037 16.037 0 01-13.44 12.174 17.81 17.81 0 01-2.083.122H16.054c-7.72 0-14.38-5.596-15.768-13.113-.082-.653-.204-1.266-.286-1.879V14.91c.082-.408.123-.817.204-1.184C1.103 7.23 6.127 1.838 12.5.367A258.26 258.26 0 0114.624 0h270.67c.286.04.613.082.899.123 6.577 1.02 11.764 5.76 13.317 12.214.204.94.327 1.879.49 2.818v2.206zM129.902 30.433h154.126c.898 0 1.797-.082 2.655-.286 7.557-1.593 12.418-9.069 10.907-16.667-1.226-6.168-6.577-11.397-13.971-11.397-51.062.041-102.083 0-153.145 0h-.613c.041 9.477.041 18.873.041 28.35zM53.513 7.23H34.681v18.71H53.84v-4.535H40.523c-.45 0-.572-.163-.572-.572.04-.572.04-1.184 0-1.756-.04-.49.123-.654.613-.613 3.88.04 7.761 0 11.601 0h.654v-3.921H39.992V11.56h13.521V7.23zm45.098 14.175H84.763v-2.287c0-.654 0-.654.654-.654H97.59v-3.921H85.784c-1.062 0-1.062 0-1.062-1.063v-1.92h13.562V7.23H79.412V25.9H98.57c.041-1.47.041-2.942.041-4.494zM56.168 25.98h20.507v-4.534H64.093c.245-.204.409-.327.531-.45 3.8-2.981 7.598-5.963 11.397-8.904.286-.205.409-.409.409-.777-.041-1.184 0-2.369 0-3.513 0-.163 0-.327-.041-.49H56.577v4.534h11.969c-.164.123-.245.205-.327.286-3.595 2.819-7.19 5.679-10.825 8.415-.899.654-1.307 1.348-1.185 2.451.082.94-.04 1.961-.04 2.982zm-42.81-8.088c.04 1.348.04 2.655.204 3.963.204 1.92 1.226 3.308 3.146 3.88a7.248 7.248 0 001.634.327c1.838.082 3.635.123 5.473.123.98 0 1.961-.082 2.941-.205 2.329-.326 3.677-1.552 4.126-3.635a8.658 8.658 0 00.205-1.798c.04-4.248.04-8.537.04-12.786 0-.163 0-.326-.04-.49H13.52v4.33h12.214c.041.082.041.123.041.205v7.843c0 1.266-.53 1.797-1.797 1.838-1.144.04-2.329.04-3.473 0-1.307-.04-1.838-.654-1.838-1.96v-1.594c-1.797-.04-3.472-.04-5.31-.04zm99.959-5.964h7.435V7.271h-20.139v4.657h6.74c.654 0 .654 0 .654.654v12.786c0 .204 0 .408.04.612h5.311c-.041-4.697-.041-9.354-.041-14.052z" fill="#780043"/><path d="M286.764 15.237c.041.082.041.082.041.123 0 2.165.041 4.33-.082 6.495-.163 2.532-1.389 3.799-3.921 4.085-1.553.163-3.146.204-4.698.204-2.328.04-4.657.04-6.944-.041-.858 0-1.757-.123-2.615-.327-2.451-.53-3.962-2.165-4.126-4.78-.163-2.491-.081-4.983-.122-7.475 0-.408.041-.858.082-1.266.367-3.186 2.042-4.82 5.228-5.147a18.71 18.71 0 012.165-.123c3.105 0 6.169-.04 9.273.041.94.041 1.92.245 2.819.49 1.43.45 2.369 1.47 2.614 2.941.164.98.204 2.002.327 3.064h-5.229c0-.081-.041-.163-.041-.245-.163-1.266-.653-1.756-1.96-1.797-2.41-.041-4.821-.041-7.19 0-1.593.04-2.41.694-2.492 2.287-.122 1.92-.081 3.84.041 5.76.082 1.226.776 1.797 2.002 1.96.367.042.735.083 1.103.083h5.719c.286 0 .572 0 .898-.041 1.471-.204 2.002-.98 1.798-2.492h-6.455v-3.88c3.922.08 7.844.08 11.765.08zm-128.186-2.083h-5.269c-.041-.082-.041-.123-.041-.164-.082-1.307-.45-1.675-1.757-1.716-2.369-.04-4.697-.04-7.067 0-1.144 0-1.675.613-1.634 1.635.041.735.286 1.102 1.022 1.225.735.123 1.511.204 2.287.204 2.451.041 4.861.041 7.312.123 1.021.04 2.002.245 2.982.49 1.43.368 2.329 1.348 2.615 2.819.326 1.675.367 3.39.04 5.065-.367 1.838-1.388 2.778-3.472 3.064-1.593.204-3.186.286-4.779.326-2.655.041-5.311 0-7.966-.04-.817 0-1.675-.164-2.451-.368-1.552-.368-2.492-1.389-2.737-2.982-.122-.94-.163-1.92-.204-2.9h5.31c.082.367.123.735.205 1.103.122.49.449.817.98.898.368.041.776.082 1.185.082h6.862c.205 0 .409 0 .572-.04.899-.164 1.308-.654 1.308-1.553 0-.899-.327-1.307-1.267-1.43a45.112 45.112 0 00-3.309-.245c-2.328-.082-4.656-.082-6.985-.204-.735-.041-1.47-.204-2.165-.409-1.43-.408-2.328-1.348-2.41-2.818-.082-1.553-.123-3.105 0-4.616.122-1.512 1.062-2.492 2.451-3.023 1.144-.409 2.328-.572 3.513-.572 3.145 0 6.291-.041 9.395.04.858 0 1.716.164 2.574.41 1.675.449 2.655 1.552 2.819 3.308 0 .694.04 1.47.081 2.288zm97.223 7.516V7.27h5.27v18.67h-7.639c-.368 0-.613-.123-.858-.409a2458.99 2458.99 0 00-9.109-12.46 6.904 6.904 0 01-.531-.735V25.9h-5.27V7.23c.163 0 .327-.04.49-.04h7.272c.326 0 .531.122.735.367 3.064 4.208 6.127 8.374 9.191 12.582l.368.49c0 .082.04.04.081.04zm-87.949-9.11v3.024h12.826v3.88h-12.826v2.982H181.7v4.494h-19.118V7.27h18.791v4.29h-13.521zm41.503 14.42c-1.675 0-3.309-.04-4.943 0-.735.041-1.103-.204-1.389-.857-.286-.736-.694-1.39-1.021-2.125-.123-.245-.245-.367-.531-.367h-9.927c-.326 0-.449.122-.572.408-.408.899-.817 1.757-1.225 2.615-.082.122-.245.286-.368.286h-5.678c.082-.205.164-.368.245-.531 2.941-5.924 5.923-11.806 8.865-17.73.163-.326.367-.449.735-.449 1.961.041 3.922.041 5.882 0 .409 0 .613.123.776.49 2.206 4.372 4.412 8.702 6.618 13.073.776 1.552 1.593 3.145 2.369 4.697 0 .123.082.286.164.49zm-9.518-7.393c-1.144-2.329-2.247-4.616-3.432-6.986-1.103 2.37-2.205 4.657-3.308 6.986h6.74zm26.021-11.316v4.616h-7.394V25.94h-5.27V11.928h-7.434V7.271h20.098zm7.843 18.669h-5.228V7.27h5.228v18.67z" fill="#780043"/></g><defs><clipPath id="clip0_14_18701"><path fill="#fff" d="M0 0h300v53.023H0z"/></clipPath></defs></svg>