<svg width="20" height="10" viewBox="0 0 20 10" fill="none" xmlns="http://www.w3.org/2000/svg">
<path d="M19.6468 6.2625C19.7456 6.4342 19.7725 6.63804 19.7216 6.8295C19.6706 7.02096 19.546 7.18449 19.3749 7.28437C19.2619 7.35286 19.132 7.38857 18.9999 7.3875C18.8671 7.38869 18.7364 7.3546 18.6211 7.28871C18.5058 7.22283 18.41 7.12751 18.3436 7.0125L16.6186 4.03125C15.6065 4.7121 14.4926 5.2279 13.3186 5.55937L13.8624 8.64375C13.8953 8.83993 13.8498 9.04117 13.7359 9.20421C13.6219 9.36725 13.4485 9.47906 13.253 9.51562H13.1218C12.9452 9.51614 12.7742 9.45438 12.6387 9.3412C12.5032 9.22802 12.412 9.07068 12.3811 8.89687L11.8468 5.85937C11.2353 5.95054 10.6181 5.99754 9.9999 6C9.37882 6.00029 8.75851 5.95643 8.14365 5.86875L7.60927 8.90625C7.57838 9.08005 7.48717 9.23739 7.3517 9.35057C7.21623 9.46375 7.04518 9.52552 6.86865 9.525H6.7374C6.54187 9.48844 6.3685 9.37662 6.25455 9.21358C6.1406 9.05055 6.09517 8.84931 6.12802 8.65312L6.68115 5.55937C5.50348 5.23004 4.38619 4.71412 3.37177 4.03125L1.6374 7.03125C1.5704 7.14364 1.47582 7.23707 1.36262 7.30269C1.24942 7.36832 1.12135 7.40396 0.990523 7.40625C0.859095 7.40579 0.730095 7.3708 0.616449 7.30478C0.502802 7.23877 0.408498 7.14404 0.342984 7.03011C0.277471 6.91617 0.243048 6.78702 0.243164 6.65559C0.243281 6.52416 0.277932 6.39507 0.343648 6.28125L2.17177 3.1125C1.53294 2.56463 0.946075 1.95893 0.418648 1.30313C0.356317 1.22713 0.309738 1.13948 0.281623 1.0453C0.253509 0.951119 0.244422 0.852283 0.254893 0.754553C0.265364 0.656824 0.295184 0.562156 0.342613 0.476068C0.390042 0.389979 0.454132 0.314192 0.531148 0.253125C0.606561 0.190268 0.693719 0.143033 0.787553 0.114165C0.881387 0.0852964 0.980023 0.0753714 1.07773 0.0849673C1.17543 0.0945632 1.27025 0.123488 1.35668 0.170061C1.4431 0.216633 1.5194 0.279923 1.58115 0.35625C2.16799 1.08788 2.83814 1.74859 3.57802 2.325H3.5874C5.4181 3.75306 7.67816 4.51963 9.9999 4.5C12.7468 4.5 14.8561 3.53437 16.403 2.33437H16.4218C17.1617 1.75797 17.8318 1.09726 18.4186 0.365625C18.4797 0.288609 18.5555 0.224518 18.6416 0.177089C18.7277 0.12966 18.8223 0.0998415 18.9201 0.0893704C19.0178 0.0788994 19.1166 0.0879859 19.2108 0.1161C19.305 0.144215 19.3927 0.190794 19.4686 0.253125C19.5457 0.314192 19.6098 0.389979 19.6572 0.476068C19.7046 0.562156 19.7344 0.656824 19.7449 0.754553C19.7554 0.852283 19.7463 0.951119 19.7182 1.0453C19.6901 1.13948 19.6435 1.22713 19.5811 1.30313C19.0537 1.95893 18.4669 2.56463 17.828 3.1125L19.6468 6.2625Z" fill="#2B689B"/>
</svg>
