<svg width="128" height="30" viewBox="0 0 128 30" fill="none" xmlns="http://www.w3.org/2000/svg">
<g clip-path="url(#clip0_103_2)">
<path fill-rule="evenodd" clip-rule="evenodd" d="M23.8675 13.6894C22.9334 12.8492 21.9987 12.0079 21.0642 11.1688C20.7841 10.9171 20.3165 10.8886 20.0306 11.1042C19.5518 11.4649 19.073 11.824 18.596 12.1847C18.2169 12.4714 17.8376 12.7577 17.458 13.0435L17.8755 14.8151C18.6019 15.4986 19.3289 16.1816 20.056 16.8656C20.3449 17.1373 20.8097 17.1685 21.0879 16.9328C21.5506 16.5408 22.0142 16.1475 22.4786 15.754C22.9415 15.3616 23.4069 14.9704 23.8708 14.5765C24.148 14.3412 24.1482 13.9417 23.8675 13.6894Z" fill="#F0C846"/>
<path fill-rule="evenodd" clip-rule="evenodd" d="M14.8847 5.67128C13.9493 4.8311 13.0136 3.99069 12.0795 3.15073C11.8006 2.89995 11.3216 2.8353 11.0155 3.00551C9.99998 3.57037 8.94639 4.30278 7.96323 4.85036C7.37986 5.41675 7.98256 5.62125 8.53756 6.23149L8.55069 6.26005C9.27596 6.94243 10.0819 7.54486 10.8075 8.22724C10.8381 8.25602 10.8707 8.28237 10.9052 8.30651L11.3111 8.47117C11.5121 8.50483 11.7164 8.47581 11.8717 8.37688C12.3676 8.0606 12.865 7.74386 13.362 7.42672C13.858 7.11021 14.3534 6.79301 14.8509 6.4765C15.1485 6.28702 15.1656 5.92359 14.8847 5.67128Z" fill="#F0C846"/>
<path fill-rule="evenodd" clip-rule="evenodd" d="M19.4795 9.68165C18.5439 8.84147 17.6093 8.00084 16.6746 7.16111C16.3945 6.9097 15.9193 6.86097 15.6237 7.05396C15.1291 7.37716 14.6361 7.69985 14.1418 8.02186C13.648 8.34325 13.1522 8.66576 12.6582 8.98823C12.6438 8.99752 12.63 9.00726 12.6172 9.01746L15.6723 10.1845C16.8722 10.824 17.0834 11.5216 17.2922 12.1285C17.5351 11.9486 17.7779 11.7689 18.021 11.5896C18.4999 11.2361 18.9816 10.8804 19.4626 10.525C19.7495 10.3129 19.7604 9.93403 19.4795 9.68165Z" fill="#3261A3"/>
<path fill-rule="evenodd" clip-rule="evenodd" d="M28.4738 10.4499C27.5353 9.63318 26.5964 8.81714 25.6589 8.00262C25.378 7.75869 24.9038 7.73235 24.6122 7.94171C24.1228 8.29341 23.634 8.64426 23.1461 8.9946C22.6575 9.34545 22.168 9.69715 21.6817 10.0473C21.3887 10.2582 21.3848 10.6411 21.6681 10.899C22.6131 11.7589 23.5594 12.6197 24.5068 13.4806C24.791 13.7392 25.2594 13.7671 25.5501 13.5428C26.0327 13.1706 26.5177 12.7952 27.0025 12.4222C27.486 12.0499 27.9721 11.6767 28.4569 11.3029C28.7454 11.0803 28.7552 10.6945 28.4738 10.4499Z" fill="#3261A3"/>
<path fill-rule="evenodd" clip-rule="evenodd" d="M19.5216 2.66933C18.5831 1.85278 17.6437 1.03872 16.7068 0.223749C16.4253 -0.0210304 15.9526 -0.0721397 15.6552 0.106005C15.1559 0.405293 14.658 0.704523 14.1597 1.00307C13.662 1.301 13.1641 1.60024 12.6658 1.89839C12.3691 2.07614 12.3537 2.43158 12.6371 2.68922C13.5836 3.54935 14.5308 4.40925 15.4773 5.2709C15.7607 5.52854 16.2341 5.58294 16.5291 5.39131C17.0234 5.06992 17.5169 4.74899 18.011 4.4276C18.5047 4.10713 18.9973 3.78574 19.4932 3.46435C19.7881 3.27289 19.803 2.91411 19.5216 2.66933Z" fill="#3261A3"/>
<path fill-rule="evenodd" clip-rule="evenodd" d="M23.9973 6.56019C23.0583 5.74432 22.1198 4.92759 21.1826 4.11308C20.9017 3.86915 20.426 3.82977 20.132 4.02389C19.6387 4.3497 19.1446 4.67528 18.6518 4.99888C18.1586 5.3227 17.664 5.64782 17.1716 5.9721C16.8767 6.16639 16.8692 6.53628 17.1523 6.79409C18.0972 7.65422 19.0458 8.51435 19.9927 9.37578C20.2759 9.63342 20.744 9.67393 21.0365 9.46632C21.5253 9.11989 22.0141 8.76978 22.5032 8.42357C22.9924 8.07697 23.482 7.73015 23.9731 7.38196C24.2651 7.1748 24.2782 6.80429 23.9973 6.56019Z" fill="#F0C846"/>
<path fill-rule="evenodd" clip-rule="evenodd" d="M22.1146 22.1794C22.3384 21.6015 22.5623 21.0229 22.7863 20.4454C22.8537 20.2719 23.085 19.9946 23.2982 19.8306C23.656 19.5552 24.0133 19.2804 24.37 19.0061C24.7264 18.7316 25.0834 18.4569 25.4405 18.1823C25.6537 18.018 25.7514 18.0444 25.6574 18.2403C25.3465 18.8904 25.0354 19.5417 24.7238 20.1929C24.6305 20.3883 24.4007 20.6644 24.2135 20.8064C23.9003 21.0442 23.5872 21.2826 23.2749 21.5196C22.962 21.7573 22.6482 21.9957 22.3344 22.2343C22.1474 22.3766 22.0477 22.3523 22.1146 22.1794Z" fill="#3261A3"/>
<path fill-rule="evenodd" clip-rule="evenodd" d="M24.2502 16.6659C24.4739 16.088 24.698 15.5101 24.9221 14.932C24.9891 14.7584 25.2698 14.4415 25.5441 14.2263C26.004 13.8658 26.4635 13.5055 26.9221 13.1455C27.381 12.7859 27.8402 12.4262 28.2988 12.0663C28.5737 11.8505 28.7223 11.833 28.629 12.0282C28.3181 12.6783 28.0063 13.3304 27.6952 13.9809C27.6015 14.177 27.323 14.4932 27.074 14.6876C26.6588 15.011 26.2437 15.3341 25.8286 15.6575C25.414 15.9802 24.9983 16.3036 24.5818 16.6283C24.334 16.821 24.1834 16.8388 24.2502 16.6659Z" fill="#3261A3"/>
<path fill-rule="evenodd" clip-rule="evenodd" d="M23.1822 19.4224C23.4058 18.8447 23.6297 18.2666 23.8537 17.6887C23.921 17.5154 24.1775 17.2168 24.4212 17.0273C24.8302 16.7093 25.2386 16.3919 25.6464 16.0749C26.0539 15.7578 26.4623 15.4404 26.8698 15.1232C27.1134 14.9337 27.2365 14.9384 27.1428 15.1343C26.8316 15.7843 26.5207 16.4357 26.2091 17.0869C26.1157 17.2823 25.862 17.5771 25.6442 17.7451C25.2804 18.0258 24.9159 18.3071 24.552 18.5873C24.1877 18.8677 23.8231 19.1488 23.4582 19.4297C23.2406 19.5975 23.1151 19.5955 23.1822 19.4224Z" fill="#3261A3"/>
<path fill-rule="evenodd" clip-rule="evenodd" d="M19.7864 22.6546C20.0928 22.4078 20.3991 22.1608 20.7049 21.9142C21.0922 21.6016 21.4788 21.2907 21.8664 20.9786C22.098 20.7918 22.2292 20.7819 22.1591 20.9549C21.9255 21.531 21.692 22.1081 21.4582 22.6847C21.3882 22.8577 21.1568 23.1413 20.9434 23.3159C20.6662 23.5425 20.3891 23.7688 20.1119 23.9952L19.9491 23.3044C19.9345 23.2425 19.9169 23.182 19.8967 23.1236L19.7864 22.6546Z" fill="#3261A3"/>
<path fill-rule="evenodd" clip-rule="evenodd" d="M20.1508 19.9811C20.3226 19.4452 20.4952 18.9091 20.6669 18.3748C20.7184 18.2139 20.9871 17.9065 21.2616 17.6911C21.7209 17.331 22.1801 16.9709 22.6389 16.6114C23.098 16.2514 23.5571 15.8912 24.0163 15.5311C24.2901 15.3164 24.4587 15.2799 24.3883 15.453C24.1549 16.0291 23.921 16.6059 23.6874 17.1827C23.6174 17.3558 23.3507 17.663 23.0947 17.8662C22.6663 18.2053 22.2381 18.5448 21.8099 18.8841C21.3822 19.2228 20.9534 19.5634 20.5248 19.9027C20.2689 20.105 20.0994 20.1411 20.1508 19.9811Z" fill="#3261A3"/>
<path fill-rule="evenodd" clip-rule="evenodd" d="M19.8465 20.9288C19.898 20.7683 20.1496 20.4711 20.4021 20.2703C20.8259 19.9337 21.2494 19.5979 21.6719 19.2626C22.0953 18.9266 22.5183 18.5906 22.9414 18.2546C23.1946 18.0534 23.3434 18.0313 23.2732 18.2042C23.0402 18.7799 22.8062 19.3573 22.5723 19.9341C22.5023 20.107 22.2538 20.4014 22.0198 20.5897C21.6275 20.9049 21.2351 21.2199 20.8431 21.5353L19.7327 22.4277L19.5986 21.8571C19.6712 21.5574 19.7423 21.2533 19.8465 20.9288Z" fill="#3261A3"/>
<path fill-rule="evenodd" clip-rule="evenodd" d="M5.71867 21.3009C4.83168 20.8544 3.94268 20.4071 3.05547 19.9594C2.78808 19.8241 2.63818 19.9569 2.71702 20.2475C2.98152 21.223 3.2438 22.1968 3.50785 23.1703C3.58713 23.4629 3.86651 23.815 4.13079 23.9578C5.01311 24.4347 5.89747 24.9131 6.78153 25.3896C7.04738 25.5326 7.20082 25.4078 7.12333 25.1074C6.86397 24.103 6.60432 23.0968 6.34519 22.0924C6.26741 21.7918 5.98628 21.4355 5.71867 21.3009ZM11.6418 14.6229C10.7421 14.2498 9.84203 13.8777 8.94376 13.5061C8.67502 13.3952 8.51736 13.5637 8.59241 13.8744C8.84489 14.9196 9.09897 15.9645 9.35327 17.0078C9.42962 17.3206 9.70923 17.6763 9.97797 17.7974C10.8716 18.2 11.7673 18.5997 12.6618 19.0021C12.9314 19.1231 13.0907 18.957 13.016 18.636C12.7664 17.5621 12.5182 16.4881 12.2696 15.4125C12.1955 15.0913 11.911 14.7345 11.6418 14.6229ZM12.9165 20.0961C12.0235 19.6878 11.1292 19.2783 10.2358 18.8691C9.96819 18.7467 9.81207 18.9018 9.8878 19.2146C10.141 20.2597 10.3939 21.3051 10.6469 22.348C10.7229 22.6612 11.0026 23.0235 11.2701 23.1561C12.1588 23.5964 13.048 24.0348 13.9381 24.4753C14.2057 24.6076 14.3623 24.4527 14.2877 24.1298C14.0396 23.0559 13.7893 21.9821 13.5413 20.9062C13.4666 20.5831 13.1859 20.2197 12.9165 20.0961ZM14.1913 25.5676C13.305 25.12 12.4155 24.6749 11.5279 24.2278C11.2625 24.0941 11.1055 24.2402 11.1814 24.5529C11.436 25.5981 11.6887 26.6435 11.9421 27.6884C12.0178 27.9994 12.2965 28.3699 12.5608 28.5126C13.4431 28.9896 14.3272 29.4657 15.2113 29.9445C15.4756 30.0877 15.6335 29.9445 15.5593 29.6233C15.311 28.5496 15.0621 27.4739 14.8129 26.4C14.7379 26.0769 14.4593 25.7028 14.1913 25.5676ZM7.35251 12.8474C6.45287 12.4744 5.553 12.1024 4.65446 11.7308C4.38574 11.6197 4.22761 11.7784 4.3049 12.0805C4.56296 13.0891 4.82235 14.0993 5.0813 15.1077C5.15925 15.4103 5.44129 15.7564 5.70912 15.8766C6.60364 16.2779 7.49867 16.6812 8.3932 17.0833C8.66279 17.2046 8.81846 17.0466 8.74273 16.7379C8.4878 15.6987 8.2335 14.6577 7.98033 13.6188C7.9046 13.3078 7.6217 12.9592 7.35251 12.8474ZM8.65415 18.1431C7.76048 17.7341 6.86681 17.3231 5.97337 16.9136C5.70599 16.7912 5.54922 16.9364 5.62695 17.241C5.88457 18.2493 6.14552 19.2573 6.40358 20.2681C6.48084 20.5705 6.76135 20.926 7.02827 21.0576C7.91575 21.4946 8.80652 21.9359 9.69638 22.3768C9.96262 22.5087 10.1177 22.3644 10.041 22.0517C9.78723 21.0125 9.53202 19.9715 9.27885 18.9324C9.20312 18.6214 8.92284 18.2659 8.65415 18.1431ZM9.95574 23.4363C9.06656 22.989 8.17824 22.5379 7.29076 22.0924C7.02537 21.9591 6.8717 22.0986 6.94925 22.4014C7.20708 23.4076 7.46513 24.418 7.72427 25.4264C7.80204 25.7289 8.08204 26.0923 8.34567 26.2342C9.22865 26.7099 10.1121 27.19 10.9964 27.668C11.2618 27.8117 11.4157 27.6762 11.3395 27.3652C11.0851 26.3243 10.8319 25.2871 10.5774 24.2462C10.5014 23.9354 10.2211 23.5698 9.95574 23.4363ZM3.06325 11.0723C2.16382 10.6991 1.2655 10.3266 0.366954 9.95543C0.096681 9.84392 -0.0578875 9.99464 0.0202851 10.2848C0.283673 11.2607 0.549504 12.2359 0.81267 13.2097C0.891286 13.4997 1.174 13.8384 1.44072 13.9581C2.33482 14.3598 3.22959 14.764 4.12457 15.165C4.39351 15.2854 4.54963 15.1365 4.47257 14.8376C4.21296 13.8335 3.9529 12.8293 3.6944 11.8228C3.61778 11.5245 3.3324 11.1841 3.06325 11.0723ZM4.39196 16.1896C3.49763 15.7801 2.60331 15.3671 1.71099 14.9583C1.4425 14.8353 1.29059 14.9746 1.36943 15.2673C1.63215 16.2427 1.89643 17.2164 2.16026 18.19C2.23954 18.4824 2.51937 18.8279 2.78497 18.9592C3.67397 19.3985 4.56385 19.8394 5.45306 20.2783C5.71998 20.41 5.87501 20.2724 5.79798 19.9735C5.53812 18.9673 5.2785 17.9632 5.01978 16.9587C4.94183 16.6559 4.65846 16.3118 4.39196 16.1896Z" fill="#3261A3"/>
<path fill-rule="evenodd" clip-rule="evenodd" d="M15.2226 11.2937C14.3575 10.9433 13.493 10.5922 12.6282 10.2421C12.3693 10.1371 11.9386 10.216 11.6766 10.4152C11.2367 10.7491 10.7981 11.0834 10.3592 11.4163C9.9195 11.7496 9.48043 12.0834 9.04204 12.4165C8.78 12.6157 8.78 12.866 9.04357 12.9725C9.92058 13.327 10.7976 13.6823 11.6751 14.0377C11.9382 14.1442 12.3662 14.067 12.6249 13.8662C13.0573 13.5307 13.4901 13.1947 13.9238 12.8589C14.3565 12.5238 14.79 12.1869 15.2226 11.851C15.4811 11.65 15.4828 11.399 15.2226 11.2937Z" fill="#F0C846"/>
<path fill-rule="evenodd" clip-rule="evenodd" d="M6.97122 7.95084C6.1049 7.60044 5.24032 7.24965 4.37532 6.89925C4.11659 6.79454 3.6822 6.87115 3.41127 7.06703C2.95711 7.39527 2.50317 7.72436 2.05057 8.05238C1.59797 8.38022 1.14404 8.70846 0.691434 9.03625C0.420274 9.23259 0.411169 9.47889 0.67456 9.58536C1.55022 9.93995 2.42745 10.2948 3.306 10.6504C3.56806 10.7567 4.002 10.683 4.26983 10.4851C4.71622 10.1549 5.16415 9.82465 5.61032 9.49442C6.05669 9.16419 6.5044 8.83284 6.95257 8.50216C7.22041 8.30475 7.22996 8.05549 6.97122 7.95084Z" fill="#F0C846"/>
<path fill-rule="evenodd" clip-rule="evenodd" d="M11.0965 9.62211C10.2318 9.27171 9.36583 8.92047 8.50218 8.57075C8.24213 8.46519 7.80886 8.54265 7.54125 8.74074C7.09439 9.07142 6.64866 9.40317 6.20231 9.7343C5.75749 10.0643 5.30997 10.3957 4.86492 10.7263C4.59864 10.9244 4.59509 11.1725 4.8587 11.2795C5.73413 11.6336 6.6129 11.9884 7.49014 12.3436C7.75377 12.4503 8.18147 12.3746 8.44487 12.1752C8.88502 11.8421 9.32433 11.5096 9.76539 11.1763C10.2046 10.8439 10.6455 10.5097 11.0856 10.1759C11.3475 9.9771 11.3552 9.72699 11.0965 9.62211Z" fill="#3261A3"/>
<path fill-rule="evenodd" clip-rule="evenodd" d="M19.559 26.8827C19.2992 25.7803 19.0398 24.678 18.7797 23.5757C18.7018 23.2451 18.4277 23.1167 18.1746 23.2885C17.749 23.5771 17.3245 23.8651 16.9005 24.1519C16.4761 24.4394 16.0515 24.7263 15.628 25.0138C15.3737 25.1864 15.2307 25.5935 15.3082 25.9188C15.566 27.002 15.8247 28.087 16.0826 29.174C16.1598 29.4991 16.4303 29.628 16.6851 29.4611C17.1097 29.1831 17.5352 28.9042 17.9605 28.6253C18.3853 28.3469 18.8102 28.0678 19.2366 27.7878C19.4902 27.6211 19.637 27.2132 19.559 26.8827Z" fill="#40669C"/>
<path fill-rule="evenodd" clip-rule="evenodd" d="M17.0807 16.3667C16.8207 15.2642 16.5606 14.1601 16.3014 13.0597C16.2235 12.729 15.9521 12.613 15.6996 12.7965C15.2763 13.1044 14.8541 13.4132 14.4313 13.7206C14.0091 14.0276 13.5856 14.3344 13.1643 14.6414C12.9111 14.8257 12.7679 15.2401 12.8452 15.5654C13.1028 16.6484 13.3617 17.7354 13.6198 18.8206C13.6968 19.1455 13.9663 19.2662 14.2198 19.0869C14.642 18.7885 15.0662 18.4903 15.4891 18.1923C15.9126 17.8934 16.3363 17.5933 16.7602 17.294C17.0127 17.1157 17.1587 16.6969 17.0807 16.3667Z" fill="#40669C"/>
<path fill-rule="evenodd" clip-rule="evenodd" d="M18.3191 21.6256C18.0591 20.5216 17.799 19.4193 17.5398 18.3186C17.4619 17.9879 17.1894 17.8635 16.936 18.0417C16.5122 18.3394 16.0881 18.6369 15.6645 18.9346C15.2415 19.232 14.8171 19.5284 14.3949 19.8257C14.1413 20.0043 13.9985 20.416 14.076 20.7413C14.3336 21.8263 14.5919 22.9113 14.8504 23.9963C14.9279 24.3216 15.1971 24.4447 15.4513 24.2714C15.8744 23.9828 16.2995 23.6953 16.7239 23.4062C17.1478 23.1173 17.5722 22.8288 17.9973 22.5392C18.2507 22.3666 18.3968 21.956 18.3191 21.6256Z" fill="#F0C846"/>
<path d="M40.3507 10.109H36.7852V22.8646H40.4822V18.7311C41.2515 19.5729 42.0585 20.0032 43.2595 20.0032C45.7366 20.0032 47.3318 18.0579 47.3318 15.0092C47.3318 11.9045 45.6618 9.86577 43.1283 9.86577C41.9834 9.86577 41.0451 10.2584 40.3507 11.1564V10.109ZM41.9834 12.8211C43.0719 12.8211 43.6162 13.5504 43.6162 15.0092C43.6162 16.4494 43.0719 17.1975 42.0021 17.1975C40.9326 17.1975 40.3696 16.4494 40.3696 15.028C40.3696 13.5878 40.9326 12.8211 41.9834 12.8211ZM54.1133 9.82837C50.9417 9.82837 48.746 11.9045 48.746 14.9344C48.746 17.9644 50.9231 20.0406 54.0758 20.0406C57.21 20.0406 59.3869 17.9271 59.3869 14.8972C59.3869 11.8857 57.2282 9.82837 54.1133 9.82837ZM54.0382 12.503C55.4269 12.503 55.671 13.8122 55.671 14.8972C55.671 15.9632 55.4644 17.3846 54.0758 17.3846C52.7058 17.3846 52.4619 16.0005 52.4619 14.9344C52.4619 13.3071 52.9874 12.503 54.0382 12.503ZM70.2407 12.933C70.0343 10.4083 67.9325 9.82837 65.6425 9.82837C62.5838 9.82837 60.9322 10.8946 60.9322 12.8771C60.9322 15.2524 63.1654 15.5891 64.9858 15.982C66.3184 16.2812 66.8813 16.3186 66.8813 16.9171C66.8813 17.3846 66.4498 17.6838 65.7175 17.6838C64.7607 17.6838 64.3292 17.3472 64.2353 16.543H60.7258C60.951 19.2362 63.1466 20.0032 65.6425 20.0032C68.7017 20.0032 70.5221 18.75 70.5221 16.6178C70.5221 14.3547 68.5329 13.8684 66.6937 13.5318C66.2434 13.4569 64.5543 13.3633 64.5543 12.6152C64.5543 12.2223 64.9108 12.0353 65.5674 12.0353C66.431 12.0353 66.75 12.2411 66.8813 12.933H70.2407ZM78.6919 10.109H76.6838V7.13518H72.9873V10.109H71.392V12.4094H72.9873V16.7298C72.9873 19.0678 74.0379 19.8907 76.7407 19.8907C77.5099 19.8907 77.8476 19.8721 78.6919 19.8159V17.1413C78.4486 17.1787 78.1666 17.1787 77.9227 17.1787C76.7782 17.1787 76.6838 16.8046 76.6838 15.8509V12.4094H78.6919V10.109Z" fill="#3261A3"/>
<path d="M83.766 10.109H80.2002V19.7599H83.9161V14.3919C83.9161 13.5692 84.1788 12.7086 85.1731 12.7086C86.1118 12.7086 86.3369 13.4007 86.3369 14.1862V19.7599H90.034V14.3919C90.034 13.5504 90.2779 12.7648 91.2723 12.7648C92.2672 12.7648 92.4548 13.5318 92.4548 14.3173V19.7599H96.2077V13.4193C96.2077 11.2312 94.8381 9.82837 92.6612 9.82837C91.3286 9.82837 90.2592 10.352 89.5457 11.362C89.0016 10.2398 88.0823 9.82837 86.8059 9.82837C85.4739 9.82837 84.4602 10.3332 83.766 11.3432V10.109ZM103.421 9.82837C100.249 9.82837 98.0537 11.9045 98.0537 14.9344C98.0537 17.9644 100.231 20.0406 103.384 20.0406C106.517 20.0406 108.694 17.927 108.694 14.8972C108.694 11.8857 106.536 9.82837 103.421 9.82837ZM103.346 12.503C104.735 12.503 104.979 13.8122 104.979 14.8972C104.979 15.9631 104.773 17.3846 103.384 17.3846C102.013 17.3846 101.77 16.0005 101.77 14.9344C101.77 13.3071 102.295 12.503 103.346 12.503ZM119.548 12.933C119.342 10.4083 117.24 9.82837 114.95 9.82837C111.892 9.82837 110.24 10.8946 110.24 12.8771C110.24 15.2524 112.473 15.5891 114.294 15.982C115.626 16.2812 116.189 16.3186 116.189 16.9171C116.189 17.3846 115.757 17.6838 115.025 17.6838C114.069 17.6838 113.637 17.3472 113.543 16.543H110.034C110.259 19.2362 112.455 20.0032 114.95 20.0032C118.01 20.0032 119.83 18.7499 119.83 16.6178C119.83 14.3547 117.84 13.8684 116.002 13.5318C115.551 13.4569 113.862 13.3633 113.862 12.6152C113.862 12.2223 114.219 12.0353 114.875 12.0353C115.739 12.0353 116.058 12.2411 116.189 12.933H119.548ZM128 10.109H125.992V7.13517H122.295V10.109H120.7V12.4094H122.295V16.7298C122.295 19.0678 123.346 19.8907 126.049 19.8907C126.818 19.8907 127.156 19.8721 128 19.8159V17.1413C127.756 17.1787 127.474 17.1787 127.231 17.1787C126.086 17.1787 125.992 16.8046 125.992 15.8509V12.4094H128V10.109Z" fill="#E9C95F"/>
</g>
<defs>
<clipPath id="clip0_103_2">
<rect width="128" height="30" fill="white"/>
</clipPath>
</defs>
</svg>
